<svg xmlns="http://www.w3.org/2000/svg" viewBox="0 0 130.15 111.86"><defs><style>.cls-1{isolation:isolate;}.cls-2{fill:#c92206;}.cls-3{fill:#ff5601;}.cls-4{fill:#ffe9ad;}.cls-5{fill:#bc2c00;}.cls-6{fill:#ff9e03;}.cls-7{fill:#de3b01;}.cls-8{fill:#ff6924;}.cls-9{fill:#7a0f06;}.cls-19,.cls-27,.cls-29,.cls-9{mix-blend-mode:screen;}.cls-10{fill:#e8371e;}.cls-10,.cls-28,.cls-30,.cls-52,.cls-70,.cls-72{mix-blend-mode:multiply;}.cls-11{fill:#ff2606;}.cls-12{fill:#a10a06;}.cls-13{fill:#8c1000;}.cls-14{fill:#e62606;}.cls-15{fill:#ff8a26;}.cls-16{fill:#ff3301;}.cls-17{fill:#ff7301;}.cls-18{fill:#fff;}.cls-19{fill:#b87d57;}.cls-20{fill:#fcfcbf;}.cls-21{fill:#9caa35;}.cls-22{fill:#ffda00;}.cls-23{fill:#ffc400;}.cls-24{fill:#ff0;}.cls-25{fill:#b5960a;}.cls-26{fill:#d6c41e;}.cls-27{fill:#45420d;}.cls-28{fill:#ebeb93;}.cls-29{fill:#523b0a;}.cls-30{fill:#dee30a;}.cls-31{fill:#eae028;}.cls-32{fill:#cfb31e;}.cls-33{fill:#c1ad1a;}.cls-34{fill:#8c8203;}.cls-35{fill:#898306;}.cls-36{fill:#ead228;}.cls-37{fill:#c7a10a;}.cls-38{fill:#a58708;}.cls-39{fill:#ce9d67;}.cls-40{fill:#7a4a1f;}.cls-41{fill:#66361b;}.cls-42{fill:#ffc454;}.cls-43{fill:#ed8f3a;}.cls-44{fill:#916642;}.cls-45{fill:#63aa35;}.cls-46{fill:#87a836;}.cls-47{fill:#b2410f;}.cls-48{fill:#c4a087;}.cls-49{fill:#5e2f1c;}.cls-50{fill:#fccf10;}.cls-51{fill:#b58352;}.cls-53{fill:#ebc191;}.cls-54{fill:#d17824;}.cls-55{fill:#e3a87a;}.cls-56{fill:#9c6e49;}.cls-57{fill:#efb67d;}.cls-58{fill:#e0a163;}.cls-59{fill:#dbc270;}.cls-60{fill:#c6b1b1;}.cls-61{fill:#ad8f8f;}.cls-62{fill:#668c2a;}.cls-63{fill:#1c4209;}.cls-64{fill:#25560e;}.cls-65{fill:#ed4701;}.cls-66{fill:#367c12;}.cls-67{fill:#c92401;}.cls-68{fill:#336d12;}.cls-69{fill:#ff8552;}.cls-70{fill:#d8ac7f;}.cls-71{fill:#fa4701;}.cls-72{fill:#f5c245;}.cls-73{fill:#ed3801;}</style></defs><g class="cls-1"><g id="Pizza"><path class="cls-2" d="M37.14,10.26l.62-4.39h1.73l.61,4.39c2.15-.21,2.26.82,2.26.82l1.12,5.3a89.26,89.26,0,0,1-9.71,0l1.12-5.3S35,10.05,37.14,10.26Z"/><path class="cls-3" d="M28.92,23.21s-1.17-6.93,4.85-6.83a89.26,89.26,0,0,0,9.71,0c6-.1,4.85,6.83,4.85,6.83a64.38,64.38,0,0,1-9.71.63A64.31,64.31,0,0,1,28.92,23.21Z"/><path class="cls-4" d="M47.38,41.13V56.24a2,2,0,0,1-2,2H31.88a2,2,0,0,1-2-2V41.13a2,2,0,0,1,1.63-2v0a7.08,7.08,0,1,1,14.15,0v0A2,2,0,0,1,47.38,41.13Z"/><path class="cls-2" d="M32.13,49.52v1.12l.07,2,.07,1.56c0,.28-.08.42-.25.42a.23.23,0,0,1-.21-.13.73.73,0,0,1-.07-.3l.07-1.39q0-.43-.06-1.35c0-.6-.06-1-.06-1.34l0-.76a2.6,2.6,0,0,0-.08-.81l-.47,0a.35.35,0,0,1-.2-.07.2.2,0,0,1-.09-.17c0-.07.07-.13.21-.17a2.16,2.16,0,0,1,.51-.11,7.93,7.93,0,0,1,.87-.06.31.31,0,0,1,.2.07.21.21,0,0,1,.08.17.21.21,0,0,1-.07.17.31.31,0,0,1-.19.06l-.31,0h-.09A8.91,8.91,0,0,1,32.13,49.52Z"/><path class="cls-2" d="M35.32,51.94,35.24,53v0a2.19,2.19,0,0,0-.05.52,1.62,1.62,0,0,1-.1.54,1.19,1.19,0,0,1-.3.46.56.56,0,0,1-.43.2.64.64,0,0,1-.43-.16,1.24,1.24,0,0,1-.33-.41,4.52,4.52,0,0,1-.22-.6c-.06-.23-.11-.46-.15-.68s-.06-.45-.09-.7,0-.67,0-.87a4.83,4.83,0,0,0,0-.54c0-.14,0-.28,0-.4V50c0-.17,0-.32,0-.45s0-.28,0-.43a3.86,3.86,0,0,1,.07-.41,1.5,1.5,0,0,1,.11-.34,1.31,1.31,0,0,1,.17-.29.63.63,0,0,1,.49-.24,1,1,0,0,1,.47.1.71.71,0,0,1,.32.32,4.63,4.63,0,0,1,.24.43,2.41,2.41,0,0,1,.15.57q.06.38.09.6a5,5,0,0,1,0,.67c0,.38,0,.68,0,.9Zm-.77-3.17a.87.87,0,0,0-.22-.34.37.37,0,0,0-.25-.12.29.29,0,0,0-.21.08.71.71,0,0,0-.14.26,2.92,2.92,0,0,0-.1.35,3.66,3.66,0,0,0-.07.42c0,.17,0,.31,0,.45s0,.27,0,.43,0,.47,0,.61v0a9.42,9.42,0,0,0,.09,1.25c.05.45.12.81.18,1.1A2.64,2.64,0,0,0,34,54c.1.2.22.3.35.3s.22-.11.3-.32a3.92,3.92,0,0,0,.17-.82c0-.57.08-1,.08-1.21v-.51c0-.11,0-.26,0-.47s0-.39,0-.57,0-.38-.06-.6a3.85,3.85,0,0,0-.11-.57A3.37,3.37,0,0,0,34.55,48.77Z"/><path class="cls-2" d="M36,52.59l0-3.35c0-.38,0-.75,0-1.12l.24-.14c.17,0,.37.47.59,1.38.18.74.32,1.41.43,2l.18,1c0-.19.11-.52.22-1s.19-.85.24-1.11a14,14,0,0,0,.29-2.07v0a.31.31,0,0,1,.3-.25.21.21,0,0,1,.16.07.24.24,0,0,1,.06.15c0,.69,0,1.73.08,3.11s.07,2.41.07,3.1a.55.55,0,0,1-.11.36q-.11.15-.21.15c-.14,0-.21-.11-.21-.34l0-3.65v-.44q-.06.34-.27,1.17c-.14.56-.23,1-.27,1.28v.06s0,.07,0,.16a1.12,1.12,0,0,1,0,.21c0,.05,0,.11,0,.18a.28.28,0,0,1-.27.2c-.21,0-.31-.26-.31-.8a9.18,9.18,0,0,0-.39-2.24c-.13-.48-.21-.8-.25-1,0,.46,0,.81,0,1l.08,3.56a.49.49,0,0,1-.13.33.32.32,0,0,1-.31-.15.8.8,0,0,1-.08-.38Z"/><path class="cls-2" d="M41.32,54.55c-.18,0-.27-.08-.27-.22V53.2a1.15,1.15,0,0,0-.44-.15A4.41,4.41,0,0,0,40,53a1.19,1.19,0,0,0-.14.44l-.12.58a1.88,1.88,0,0,1-.16.46q-.34,0-.39-.18a8.31,8.31,0,0,0,.39-1.73c.18-1,.32-1.85.44-2.44a10.25,10.25,0,0,1,.37-1.48c.13-.4.26-.6.38-.6a.47.47,0,0,1,.28.07c0,.21,0,.77.17,1.67s.17,1.5.17,1.77,0,.7.09,1.32.09,1.09.09,1.4A.26.26,0,0,1,41.32,54.55ZM41,51.72c-.05-.51-.1-1-.14-1.46s-.06-.75-.06-.84v-.17a5.56,5.56,0,0,0-.39,1.55,18.08,18.08,0,0,0-.27,1.79,2.19,2.19,0,0,0,.6.1,1.3,1.3,0,0,0,.34,0C41,52.55,41,52.23,41,51.72Z"/><path class="cls-2" d="M43,49.52l0,1.12.08,2,.07,1.56c0,.28-.08.42-.25.42a.23.23,0,0,1-.21-.13.73.73,0,0,1-.07-.3l.07-1.39q0-.43-.06-1.35c0-.6-.06-1-.06-1.34l0-.76a2.6,2.6,0,0,0-.08-.81l-.47,0a.35.35,0,0,1-.2-.07.2.2,0,0,1-.09-.17c0-.07.07-.13.21-.17a2.16,2.16,0,0,1,.51-.11,7.77,7.77,0,0,1,.87-.06.31.31,0,0,1,.2.07.21.21,0,0,1,.08.17.21.21,0,0,1-.07.17.31.31,0,0,1-.19.06l-.31,0H43A8.91,8.91,0,0,1,43,49.52Z"/><path class="cls-2" d="M46.2,51.94,46.12,53v0a2.19,2.19,0,0,0,0,.52,1.62,1.62,0,0,1-.1.54,1.19,1.19,0,0,1-.3.46.58.58,0,0,1-.43.2.64.64,0,0,1-.43-.16,1.24,1.24,0,0,1-.33-.41,4.52,4.52,0,0,1-.22-.6,6,6,0,0,1-.15-.68c0-.22-.06-.45-.09-.7s-.05-.67-.05-.87,0-.39,0-.54,0-.28,0-.4V50c0-.17,0-.32,0-.45s0-.28,0-.43a3.86,3.86,0,0,1,.07-.41,1.5,1.5,0,0,1,.11-.34,1.31,1.31,0,0,1,.17-.29.63.63,0,0,1,.49-.24,1,1,0,0,1,.47.1.71.71,0,0,1,.32.32,4.63,4.63,0,0,1,.24.43,2.41,2.41,0,0,1,.15.57q.06.38.09.6a5,5,0,0,1,0,.67c0,.38,0,.68,0,.9Zm-.77-3.17a.87.87,0,0,0-.22-.34.37.37,0,0,0-.25-.12.29.29,0,0,0-.21.08.71.71,0,0,0-.14.26,2.92,2.92,0,0,0-.1.35,3.66,3.66,0,0,0-.07.42c0,.17,0,.31,0,.45s0,.27,0,.43,0,.47,0,.61v0a11.35,11.35,0,0,0,.08,1.25,11.08,11.08,0,0,0,.19,1.1,3,3,0,0,0,.25.72q.16.3.36.3c.12,0,.22-.11.3-.32a4.68,4.68,0,0,0,.17-.82c.05-.57.08-1,.08-1.21v-.51c0-.11,0-.26,0-.47s0-.39,0-.57,0-.38-.06-.6a3.85,3.85,0,0,0-.11-.57A3.37,3.37,0,0,0,45.43,48.77Z"/><path class="cls-5" d="M42.39,36.19c.61-.29,1.21,1.36,1.21,1.86s-.1,1-.13,1.74-.84.6-1.67.24c1.07-.3.85-1,.61-1.32s0-.68,0-1.08,0-1-.86-1A7,7,0,0,1,42.39,36.19Z"/><path class="cls-5" d="M41.38,34.79c.15.39-.24.8-.74,1.36a.63.63,0,0,0-.91-.39.94.94,0,0,1-1.1-.18,1,1,0,0,0-1.42-.13,1.5,1.5,0,0,1-.13-.57c0-.86,1.33-.71,2.24-.67.33,0,.64,0,.92.08C40.85,34.39,41.3,34.55,41.38,34.79Z"/><path class="cls-6" d="M41.06,38.34c.08.35-.68.12-.68.12S41,38,41.06,38.34Z"/><path class="cls-6" d="M40.33,38s.45-.85.69-.46S40.33,38,40.33,38Z"/><path class="cls-6" d="M40.24,40.5c-.45.27-.57-.68-.57-.68S40.7,40.23,40.24,40.5Z"/><path class="cls-6" d="M40.7,39c-.3.3-.69-.4-.71-.44S41,38.74,40.7,39Z"/><path class="cls-7" d="M41.06,38.34c-.08-.34-.68.12-.68.12S41.14,38.69,41.06,38.34Zm0-.77c-.24-.39-.69.46-.69.46S41.27,38,41,37.57Zm-1,1s.41.74.71.44S40.06,38.6,40,38.59Zm1.34,1.2c-1-.58-1.59-.76-1.5-1.3s1-1.35,1.71-1.82c.83,0,.9.56.86,1s-.24.73,0,1.08.46,1-.61,1.32A5.21,5.21,0,0,1,41.33,39.79Z"/><path class="cls-6" d="M40,41.4c-.38.14-.19-.6-.19-.6S40.4,41.26,40,41.4Z"/><path class="cls-8" d="M39.83,38.49c-.09.54.54.72,1.5,1.3a5.21,5.21,0,0,0,.47.24c.83.36,1.64.36,1.67-.24s.13-1.25.13-1.74-.6-2.15-1.21-1.86a7,7,0,0,0-.85.48C40.81,37.14,40,37.85,39.83,38.49ZM39.08,38l0-.27a7.15,7.15,0,0,0,1.33-1.31l.26-.28h0c.5-.56.89-1,.74-1.36s-.53-.4-1.14-.5l.18-.69a5.39,5.39,0,0,1,4,5.11c0,.11,0,.22,0,.33a5.43,5.43,0,0,1-4.35,4.87l-.1-.52a1.42,1.42,0,0,0,.31-.11c.6-.27,1.79-.77,2-1.16s-.23-1-1.18-1.75h0c-.83-.68-1.31-.9-1.68-.8l0-.32h0c.31,0,.33-.12.18-.35s.13-.54-.07-.67A.87.87,0,0,0,39.08,38Z"/><path class="cls-6" d="M39.3,41.1c-.48,0,0-.94,0-.94S39.77,41.14,39.3,41.1Z"/><path class="cls-6" d="M39.5,36.67c.29.08-.18.54-.18.54S39.21,36.58,39.5,36.67Z"/><path class="cls-7" d="M39.67,39.82s.12,1,.57.68S39.67,39.82,39.67,39.82Zm-.37.34s-.48.91,0,.94S39.3,40.16,39.3,40.16Zm.52.64s-.19.74.19.6S39.82,40.8,39.82,40.8Zm-1.16.57c.05-.91.17-1.53.59-1.75a.39.39,0,0,1,.15-.06c.37-.1.85.12,1.68.8h0a2.08,2.08,0,0,1,.39.88c0,.4-.31.51-.48,1s-.59.21-1.18.41-1.18-.54-1.16-1.27Z"/><path class="cls-6" d="M38.78,37.57s-.35-.8.14-.72S38.78,37.57,38.78,37.57Z"/><path class="cls-5" d="M40,43.39c-.6.13-1.37,0-1.34-1.18,0-.3,0-.58,0-.83,0,.73.57,1.47,1.16,1.27s1,.07,1.18-.41.52-.59.48-1a2.08,2.08,0,0,0-.39-.88c.95.78,1.41,1.28,1.18,1.75s-1.39.89-2,1.16A1.42,1.42,0,0,1,40,43.39Z"/><path class="cls-6" d="M38,38.33c.15-.25.08-.06.5-.12.18,0,.27.1.39-.09a.23.23,0,0,1,.17-.1.87.87,0,0,1,.43.19c.2.13-.07.44.07.67s.13.33-.18.35h0c-.29,0-.52.29-.59.15s-.22-.19-.44-.06-.32-.12-.58-.33S37.88,38.59,38,38.33Z"/><path class="cls-6" d="M38.42,37.14s-.56-.74-.09-.76S38.42,37.14,38.42,37.14Z"/><path class="cls-7" d="M39.5,36.67c-.29-.09-.18.54-.18.54S39.79,36.75,39.5,36.67Zm-.58.18c-.49-.08-.14.72-.14.72S39.41,36.93,38.92,36.85Zm-.59-.47c-.47,0,.09.76.09.76S38.8,36.35,38.33,36.38Zm.45,1.5c-.44.1-1-.75-1.05-1.38-.06-.46-.35-.66-.52-1a1,1,0,0,1,1.42.13.94.94,0,0,0,1.1.18.63.63,0,0,1,.91.39h0l-.26.28a7.15,7.15,0,0,1-1.33,1.31A1.09,1.09,0,0,1,38.78,37.88Z"/><path class="cls-6" d="M37.71,40.6c-.41,0-.05-.69-.05-.69S38.12,40.57,37.71,40.6Z"/><path class="cls-6" d="M36.8,41c-.43-.27.41-.83.41-.83S37.22,41.26,36.8,41Z"/><path class="cls-6" d="M37,39.75s-.49,1-.84.52S37,39.75,37,39.75Z"/><path class="cls-6" d="M35.82,37.63c.13-.37,1.07.25,1.07.25S35.7,38,35.82,37.63Z"/><path class="cls-6" d="M36.89,37.3s-1-.25-.69-.63S36.89,37.3,36.89,37.3Z"/><path class="cls-6" d="M36.11,38.71c-.07-.39.78-.21.78-.21S36.17,39.11,36.11,38.71Z"/><path class="cls-5" d="M38.78,44.05a5.49,5.49,0,0,0,1.29-.14A5.43,5.43,0,0,0,44.42,39c0,.1,0,.21,0,.32a5.67,5.67,0,0,1-11.32,0c0-.11,0-.22,0-.32A5.53,5.53,0,0,0,38.78,44.05Z"/><path class="cls-7" d="M36.15,40.27c.35.48.84-.52.84-.52S35.8,39.79,36.15,40.27Zm.65.72c.42.27.41-.83.41-.83S36.37,40.72,36.8,41Zm1.11-1.45c.43.33.37.57.19,1.6h0c-.79,1.11-1.3.93-1.3.93-.29.46-1-.17-1.32-.54s-.73-1-.37-1.29l.51-.28C36.59,39.45,37.34,39.1,37.91,39.54Zm-.2,1.06c.41,0-.05-.69-.05-.69S37.3,40.63,37.71,40.6Z"/><path class="cls-7" d="M36.89,37.88s-.94-.62-1.07-.25S36.89,37.88,36.89,37.88Zm-.78.83c.06.4.78-.21.78-.21S36,38.32,36.11,38.71Zm.78-1.41s-.43-1-.69-.63S36.89,37.3,36.89,37.3Zm.74,1c-.13.22-.58.42-1.65.85a4,4,0,0,1-.59.19c-.6-.39-.16-1.28-.16-1.28a1.38,1.38,0,0,1-.38-.8c0-.4.51-.67.78-1A.83.83,0,0,1,36.8,36c.13.27.27.57.4.86C37.6,37.76,37.85,38,37.63,38.34Z"/><path class="cls-5" d="M38.08,41.24c-.2,1.1-.42,2.18-1,1.86a4.34,4.34,0,0,1-2-1.32c-.7-.83-.53-1.17.06-1.54-.36.28,0,.91.37,1.29s1,1,1.32.54c0,0,.51.18,1.3-.93h0S38.09,41.2,38.08,41.24Z"/><path class="cls-8" d="M37.08,43.1c.58.32.8-.76,1-1.86,0,0,0-.07,0-.1.18-1,.24-1.27-.19-1.6s-1.32-.09-2.29.42l-.51.28c-.59.37-.76.71-.06,1.54A4.34,4.34,0,0,0,37.08,43.1Zm2.24-8.89c-.91,0-2.27-.19-2.24.67a1.5,1.5,0,0,0,.13.57c.17.39.46.59.52,1,.08.63.61,1.48,1.05,1.38a1.09,1.09,0,0,0,.27-.13l0,.27a.23.23,0,0,0-.17.1c-.12.19-.21.06-.39.09-.42.06-.35-.13-.5.12s-.53.46-.27.67.35.47.58.33.37-.09.44.06.3-.12.59-.15l0,.32a.39.39,0,0,0-.15.06c-.42.22-.54.84-.59,1.75h0c0,.25,0,.53,0,.83,0,1.15.74,1.31,1.34,1.18l.1.52A5.73,5.73,0,0,1,33.13,39c0-.11,0-.22,0-.33a5.5,5.5,0,0,1,5.66-5.34,5.91,5.91,0,0,1,1.64.23l-.18.69C40,34.25,39.65,34.23,39.32,34.21Zm-1.69,4.13c.22-.37,0-.58-.43-1.45-.13-.29-.27-.59-.4-.86-.28-.55-.58-1-.9-.85a3.17,3.17,0,0,0-1.52,1.57A3.42,3.42,0,0,0,34.26,39c.13.33.46.5,1.13.34a4,4,0,0,0,.59-.19C37.05,38.76,37.5,38.56,37.63,38.34Z"/><path class="cls-5" d="M34.26,39a3.42,3.42,0,0,1,.12-2.29,3.17,3.17,0,0,1,1.52-1.57c.32-.12.62.3.9.85a.83.83,0,0,0-1.17.28c-.27.32-.78.59-.78,1a1.38,1.38,0,0,0,.38.8s-.44.89.16,1.28C34.72,39.54,34.39,39.37,34.26,39Z"/><path class="cls-2" d="M48.33,23.21c11.89,4.91,1.34,43.94,1.34,43.94s-3.54,2.53-11.05,2.53-11-2.53-11-2.53S17,28.12,28.92,23.21a64.31,64.31,0,0,0,9.7.63A64.38,64.38,0,0,0,48.33,23.21Zm-.95,33V41.13a2,2,0,0,0-1.72-2v0a7.08,7.08,0,1,0-14.15,0v0a2,2,0,0,0-1.63,2V56.24a2,2,0,0,0,2,2H45.37A2,2,0,0,0,47.38,56.24Z"/><path class="cls-9" d="M31.88,58.24a2,2,0,0,1-2-2V41.13a2,2,0,0,1,1.63-2v0A7,7,0,0,1,32,36.5a102.85,102.85,0,0,1,1.61-12.81c-3-.19-4.71-.48-4.71-.48C17,28.12,27.58,67.15,27.58,67.15a16.62,16.62,0,0,0,6.8,2.23q-1.1-5.53-1.75-11.14Z"/><path class="cls-10" d="M48.33,23.21s-1.18.2-3.27.37c.51,5.22.84,10.45,1,15.7a2,2,0,0,1,1.29,1.85V56.24A2,2,0,0,1,46.23,58c-.07,3.57-.18,7.13-.32,10.7a13.37,13.37,0,0,0,3.76-1.59S60.22,28.12,48.33,23.21Z"/><path class="cls-11" d="M27.55,67.17c-1-3.73-1.82-7.5-2.54-11.29s-1.28-7.61-1.63-11.46a56.64,56.64,0,0,1,.11-11.57A20.16,20.16,0,0,1,25,27.24a7.73,7.73,0,0,1,4-4.15l.09.21a7.91,7.91,0,0,0-2.93,4.45,23.5,23.5,0,0,0-.8,5.33c0,1.83-.09,3.68,0,5.54s.18,3.74.38,5.61.33,3.75.53,5.64.42,3.77.58,5.68c.4,3.8.79,7.63,1,11.56Z"/><path class="cls-12" d="M49.63,67.11c.17-3.93.55-7.76.95-11.56.16-1.91.43-3.79.58-5.68s.41-3.76.54-5.64.3-3.75.37-5.61.08-3.71,0-5.54a23,23,0,0,0-.8-5.33,7.84,7.84,0,0,0-2.92-4.45l.09-.21a7.71,7.71,0,0,1,3.95,4.15,19.82,19.82,0,0,1,1.5,5.61A55.93,55.93,0,0,1,54,44.42c-.34,3.85-.92,7.67-1.63,11.46s-1.54,7.56-2.54,11.29Z"/><path class="cls-13" d="M49.78,67.18a16.54,16.54,0,0,1-5.36,2,28.94,28.94,0,0,1-11.43,0,16.37,16.37,0,0,1-5.36-2l.07-.09a16.54,16.54,0,0,0,2.73.76,23.42,23.42,0,0,0,2.74.47,48.72,48.72,0,0,0,5.54.3,44.43,44.43,0,0,0,5.52-.32c.92-.11,1.83-.26,2.74-.46a16.88,16.88,0,0,0,2.74-.75Z"/><path class="cls-14" d="M33.79,16.36,34.87,11h0a1.25,1.25,0,0,1,1-.87,4.58,4.58,0,0,1,1.33,0l-.11.09.65-4.39v0h.92v.11c-.29.11-.58.21-.87.29l.34-.3a21,21,0,0,1,0,4.48l-.07.94-1-.07a3.06,3.06,0,0,0-.95.07.9.9,0,0,0-.23.07s0,0,0,0l0,0a.71.71,0,0,0,0-.18l0,.09v0c-.1.44-.25.87-.38,1.31s-.3.86-.45,1.29a14.56,14.56,0,0,1-1.23,2.51Z"/><path class="cls-15" d="M28.94,23.21a9.65,9.65,0,0,1-.06-2.46,6.38,6.38,0,0,1,.71-2.37,4.09,4.09,0,0,1,1.84-1.65,5.73,5.73,0,0,1,2.42-.42v.12a12.48,12.48,0,0,0-2,1.14A4.36,4.36,0,0,0,30.6,19a9.76,9.76,0,0,0-.8,1.89c-.23.71-.45,1.48-.75,2.33Z"/><path class="cls-13" d="M43.53,16.38c-.19-.43-.33-.86-.48-1.29s-.27-.87-.41-1.3-.28-.87-.37-1.31L42,11.16v-.05c0,.05-.07-.11-.17-.15a1.3,1.3,0,0,0-.41-.16,4.12,4.12,0,0,0-1.13-.07l-.48,0,0-.45c-.08-.73-.18-1.46-.21-2.21s-.09-1.48-.08-2.22l.16.14c-.29,0-.58-.08-.87-.14v0h.9v0l.64,4.39-.06-.05a4.13,4.13,0,0,1,1.31.05,1.18,1.18,0,0,1,1,.82h0l1.1,5.31Z"/><path class="cls-16" d="M48.35,23.19c-.3-.85-.51-1.62-.74-2.33A9.76,9.76,0,0,0,46.8,19a4.36,4.36,0,0,0-1.21-1.4,12.34,12.34,0,0,0-2-1.14v-.12a5.73,5.73,0,0,1,2.42.42,4,4,0,0,1,1.84,1.65,6.2,6.2,0,0,1,.71,2.37,9.65,9.65,0,0,1-.05,2.46Z"/><path class="cls-13" d="M48.42,23.24A22.76,22.76,0,0,1,46,23.9q-1.22.23-2.43.39c-1.63.22-3.27.26-4.91.32s-3.27-.1-4.9-.32c-.81-.12-1.62-.24-2.43-.39A24.68,24.68,0,0,1,29,23.24v-.09a68.38,68.38,0,0,0,9.7.59,69.88,69.88,0,0,0,9.7-.59Z"/><path class="cls-17" d="M48.41,23.21a68.46,68.46,0,0,1-9.71.64A68.56,68.56,0,0,1,29,23.21v0c.8.09,1.61.14,2.42.18s1.62.11,2.43.14c1.62.07,3.23.09,4.85.06s3.24,0,4.86-.06c.81,0,1.61-.08,2.42-.14s1.62-.09,2.43-.18Z"/><path class="cls-13" d="M33.85,16.34c1.62.08,3.23.11,4.85.11s3.24,0,4.85-.11v.06a12.83,12.83,0,0,1-2.42.49c-.81.1-1.63.1-2.44.14s-1.63-.05-2.43-.15a13.64,13.64,0,0,1-2.42-.48Z"/><path class="cls-18" d="M30.22,25.11c-3.4-.69-5.39,5.54-4.92,8.19.88,4.89,3.37.43,4.14-1.19S32.2,25.51,30.22,25.11Z"/><path class="cls-2" d="M38.71,55.87a.56.56,0,1,0,.56.56A.56.56,0,0,0,38.71,55.87Z"/><path class="cls-2" d="M36.81,56a.4.4,0,0,0-.4.39.4.4,0,0,0,.79,0A.4.4,0,0,0,36.81,56Z"/><path class="cls-2" d="M40.52,56a.4.4,0,0,0-.39.39.39.39,0,0,0,.39.39.38.38,0,0,0,.39-.39A.39.39,0,0,0,40.52,56Z"/><path class="cls-18" d="M32,17.26c-1.21-.39-2.14,1.77-2,2.73.15,1.79,1.2.29,1.54-.26S32.67,17.48,32,17.26Z"/><path class="cls-18" d="M36.46,11.09c-.57-.16-.93.81-.87,1.24.12.8.56.12.69-.13S36.78,11.18,36.46,11.09Z"/><path class="cls-19" d="M47.38,48.84c-5.21,3-10.32,6.1-15.21,9.4h8.14c2.41-1.48,4.75-3,7.07-4.64Z"/><path class="cls-19" d="M45.66,39.16v0a7.09,7.09,0,0,0-2.57-5.47,70,70,0,0,0-13.21,8.64V53C35.67,48.91,41.48,44.9,47.36,41A2,2,0,0,0,45.66,39.16Z"/><path class="cls-20" d="M45.45,58.63H32a2.4,2.4,0,0,1-2.4-2.4V41.12a2.39,2.39,0,0,1,1.64-2.27,7.47,7.47,0,0,1,14.93,0,2.41,2.41,0,0,1,1.72,2.29V56.23A2.41,2.41,0,0,1,45.45,58.63ZM38.67,32.44A6.69,6.69,0,0,0,32,39.12v.33l-.32.1a1.6,1.6,0,0,0-1.31,1.57V56.23A1.6,1.6,0,0,0,32,57.83H45.45a1.6,1.6,0,0,0,1.6-1.6V41.12a1.61,1.61,0,0,0-1.36-1.58l-.34,0v-.34A6.69,6.69,0,0,0,38.67,32.44Z"/><path class="cls-2" d="M45.13,58.34H32.24a2.43,2.43,0,0,1-2.43-2.44V41.33A2.42,2.42,0,0,1,31.48,39l.14-.05v.2a.15.15,0,0,0,0,.07,7.1,7.1,0,0,0,14.2,0v0s0-.05,0-.07V39l.14,0a2.44,2.44,0,0,1,1.63,2.29V55.9A2.43,2.43,0,0,1,45.13,58.34ZM31.4,39.27A2.23,2.23,0,0,0,30,41.33V55.9a2.24,2.24,0,0,0,2.24,2.24H45.13a2.23,2.23,0,0,0,2.23-2.24V41.33a2.23,2.23,0,0,0-1.36-2,7.3,7.3,0,0,1-14.6,0Z"/><path class="cls-4" d="M29.45,56.22V70a1.83,1.83,0,0,1-1.82,1.82H15.35A1.83,1.83,0,0,1,13.52,70V56.22A1.83,1.83,0,0,1,15,54.43v0a6.45,6.45,0,1,1,12.89,0v0A1.82,1.82,0,0,1,29.45,56.22Z"/><path class="cls-21" d="M25.09,55.8s1-.48,1.09-1.25-1.81.27-1.81.27.44-1.82-.89-.45c.37-.41.41-.8-.47-.93,0,0,1.9-3-.15-2.29,0,0,.18-1.41-.46-1.7S21,50.89,21,50.89a.49.49,0,0,0-.7.31,3.94,3.94,0,0,0,0,1.61c-.57-.47-.89.08-.44,1-1.32-1.39-1.35.29-1.35.29s-1.07-1-1.31-.46.35,1.19.41,1.26-.67-.22-.6.36,1.57,1,1.57,1c-.44.35,1,1.18,2.69.1L21,55.26l.48.39h0c0,.25,0,.5,0,.75v.51c0,.63,0,1.6,0,2.23l.57-.43c-.1-.59-.17-1.21-.22-1.81l0-.52c0-.24,0-.48,0-.73,0,0,.42-.23.88-.55L22,56.4c1,1.17,3.13.93,2.43.3,0,0,1.25,0,1.34-.44S25.09,55.8,25.09,55.8Z"/><path class="cls-22" d="M18.76,53.05a1,1,0,0,0,.32.1,1,1,0,0,0-.2.28c-.21.4.05.72.45.93s.81.22,1-.18a1.22,1.22,0,0,0,.1-.34,1.41,1.41,0,0,0,.32.24c.4.21.72,0,.93-.46s.22-.81-.18-1a1.37,1.37,0,0,0-.42-.12,1,1,0,0,0,.28-.35c.21-.4,0-.72-.45-.93s-.81-.22-1,.18a1.3,1.3,0,0,0-.11.41,1.17,1.17,0,0,0-.29-.22c-.41-.2-.73.05-.93.46S18.35,52.85,18.76,53.05Z"/><path class="cls-23" d="M19.65,52.72a.48.48,0,0,1,.59-.33.45.45,0,1,1-.19.87A.48.48,0,0,1,19.65,52.72Z"/><path class="cls-24" d="M20,52.9a1.41,1.41,0,0,1-.8.32,2,2,0,0,1-.85-.06v0a2.31,2.31,0,0,0,.83,0l.81-.22Z"/><path class="cls-24" d="M20.15,52.76a1.56,1.56,0,0,1-1,.13,4,4,0,0,1-1-.3v0a3.73,3.73,0,0,0,1,.2,8.25,8.25,0,0,0,1,0Z"/><path class="cls-24" d="M20.24,52.89a2.62,2.62,0,0,1-.57-.32,3.15,3.15,0,0,0-.59-.27v0a2.36,2.36,0,0,1,.64.19,1,1,0,0,1,.53.41Z"/><path class="cls-22" d="M24,56.17a1.05,1.05,0,0,0-.22-.26,1.43,1.43,0,0,0,.31-.12c.39-.24.34-.64.1-1s-.58-.62-1-.38a1.16,1.16,0,0,0-.26.24,1.24,1.24,0,0,0-.14-.37c-.24-.39-.64-.34-1-.1s-.62.57-.38,1a1.14,1.14,0,0,0,.3.32,1.36,1.36,0,0,0-.43.15c-.39.24-.33.64-.1,1s.58.61,1,.38a1.45,1.45,0,0,0,.31-.3,1.34,1.34,0,0,0,.13.34c.24.39.65.34,1,.1S24.19,56.56,24,56.17Z"/><path class="cls-23" d="M23,56a.51.51,0,1,1-.06-.67A.47.47,0,0,1,23,56Z"/><path class="cls-24" d="M22.78,55.63a1.36,1.36,0,0,1,.84.14,2.08,2.08,0,0,1,.7.5h0a2.37,2.37,0,0,0-.73-.4l-.81-.24Z"/><path class="cls-24" d="M22.6,55.7a1.44,1.44,0,0,1,.92.41,3.19,3.19,0,0,1,.67.75h0a3.88,3.88,0,0,0-.73-.67,7.84,7.84,0,0,0-.85-.49Z"/><path class="cls-24" d="M22.6,55.54a2.45,2.45,0,0,1,.32.57,3.17,3.17,0,0,0,.36.54h0a2.62,2.62,0,0,1-.45-.49,1,1,0,0,1-.23-.63Z"/><path class="cls-25" d="M14.53,66.2l0-2.67c0-.3,0-.6,0-.9l.19-.1c.14,0,.3.37.47,1.09s.26,1.12.35,1.59.13.73.14.77c0-.15.09-.41.18-.79s.15-.68.19-.89a13.2,13.2,0,0,0,.23-1.65v0a.22.22,0,0,1,.08-.14.24.24,0,0,1,.15-.06.16.16,0,0,1,.13.06.21.21,0,0,1,.05.12c0,.55,0,1.37.06,2.47s.06,1.92.06,2.47a.55.55,0,0,1-.08.29c-.06.08-.12.12-.17.12s-.17-.09-.17-.27l0-2.9v-.36c0,.18-.1.49-.21.94a9.72,9.72,0,0,0-.21,1v0a.7.7,0,0,0,0,.13c0,.06,0,.12,0,.16a.88.88,0,0,1,0,.15.21.21,0,0,1-.21.16c-.16,0-.24-.21-.24-.64a7.6,7.6,0,0,0-.31-1.78c-.11-.39-.17-.64-.2-.78,0,.37,0,.65,0,.83l.06,2.84a.37.37,0,0,1-.1.26.24.24,0,0,1-.24-.12.55.55,0,0,1-.07-.31Z"/><path class="cls-25" d="M17.2,64V62.93a.24.24,0,0,1-.05-.14.2.2,0,0,1,.06-.15.17.17,0,0,1,.14-.07c.17,0,.25.17.25.49l.07,2.4a2.11,2.11,0,0,1,.06.37,4.22,4.22,0,0,1,0,.43,2.09,2.09,0,0,0,0,.38,2.89,2.89,0,0,0,.14.45,1.09,1.09,0,0,0,.23.39.39.39,0,0,0,.28.16.27.27,0,0,0,.19-.06.38.38,0,0,0,.09-.18,2.33,2.33,0,0,0,0-.38V65.67c0-.14,0-.36-.05-.65a6.29,6.29,0,0,1,0-.65v-.44l-.06-1.19a.15.15,0,0,1,.09-.13.26.26,0,0,1,.17,0l.17.16v.11l-.05.42c0,.39,0,1,.06,1.74s.07,1.29.07,1.56,0,.46,0,.55a1.67,1.67,0,0,1-.06.29.68.68,0,0,1-.11.26.59.59,0,0,1-.5.23.78.78,0,0,1-.68-.36,2.48,2.48,0,0,1-.38-.94,9.31,9.31,0,0,1-.15-1.13C17.21,65,17.2,64.48,17.2,64Z"/><path class="cls-25" d="M19.5,67.68c0-.13.06-.19.16-.19a.64.64,0,0,1,.2.05.56.56,0,0,0,.22.06.29.29,0,0,0,.2-.12.92.92,0,0,0,.17-.29,2.09,2.09,0,0,0,.12-.65,2.05,2.05,0,0,0-.1-.62,4.19,4.19,0,0,0-.24-.62l-.3-.58a2.84,2.84,0,0,1-.34-1.25,1.07,1.07,0,0,1,.34-.85.6.6,0,0,1,.43-.16.44.44,0,0,1,.24.07.31.31,0,0,1,.16.18l-.12.15a.47.47,0,0,1-.26-.07.37.37,0,0,0-.23.12.75.75,0,0,0-.17.49,2.24,2.24,0,0,0,.08.57,2.17,2.17,0,0,0,.18.49q.11.23.24.48c.09.17.17.33.24.49A2.61,2.61,0,0,1,21,66.61a1.74,1.74,0,0,1-.22.85.92.92,0,0,1-.3.32.72.72,0,0,1-.42.13.82.82,0,0,1-.39-.07C19.55,67.79,19.5,67.73,19.5,67.68Z"/><path class="cls-25" d="M22.22,63.75l0,.89.07,1.59.05,1.24c0,.22-.06.34-.2.34A.17.17,0,0,1,22,67.7a.48.48,0,0,1-.06-.24l.06-1.1c0-.24,0-.6-.05-1.08s-.05-.83-.05-1.07v-.6a2.19,2.19,0,0,0-.06-.65l-.38,0a.25.25,0,0,1-.15,0,.16.16,0,0,1-.07-.14c0-.05.05-.1.16-.14a1.49,1.49,0,0,1,.41-.08,4.74,4.74,0,0,1,.69-.05.3.3,0,0,1,.16.05.21.21,0,0,1,.07.14.17.17,0,0,1-.06.14.25.25,0,0,1-.15.05l-.25,0h-.07A7.3,7.3,0,0,1,22.22,63.75Z"/><path class="cls-25" d="M24.37,67.76c-.14,0-.22-.06-.22-.18v-.9a.81.81,0,0,0-.35-.12l-.45-.06a1.09,1.09,0,0,0-.12.35l-.09.46a1.21,1.21,0,0,1-.13.37c-.18,0-.28,0-.3-.14a7.14,7.14,0,0,0,.3-1.37c.14-.83.26-1.48.35-2a8.72,8.72,0,0,1,.3-1.18q.15-.48.3-.48a.34.34,0,0,1,.22.06c0,.17.05.61.14,1.33s.13,1.19.13,1.41,0,.56.07,1,.08.87.08,1.11A.21.21,0,0,1,24.37,67.76Zm-.29-2.26c0-.4-.08-.79-.11-1.16s0-.59,0-.67v-.13a4.61,4.61,0,0,0-.31,1.23,14.24,14.24,0,0,0-.22,1.43,1.91,1.91,0,0,0,.48.07,1,1,0,0,0,.28,0C24.14,66.16,24.12,65.91,24.08,65.5Z"/><path class="cls-25" d="M25.06,67.56l0-4.05v-.85a.16.16,0,0,1,0-.11.36.36,0,0,1,.18,0,.75.75,0,0,1,.29.06.79.79,0,0,1,.25.19A1.78,1.78,0,0,1,26,63a1.44,1.44,0,0,1,.13.62,2,2,0,0,1-.17.77l-.08.2-.07.18a4.78,4.78,0,0,0,.26,1.33l.25.75c.11.32.18.53.2.61v0a.45.45,0,0,1-.05.27.19.19,0,0,1-.12,0c-.08,0-.16-.06-.25-.19v0a8.24,8.24,0,0,0-.43-1.9c-.12-.38-.2-.67-.25-.85v2.71a.29.29,0,0,1,0,.17.16.16,0,0,1-.13,0,.23.23,0,0,1-.15,0,.24.24,0,0,1-.05-.14Zm.38-4.73,0,1.41v.32a3.27,3.27,0,0,0,.24-.27l.1-.6a.31.31,0,0,0,0-.1,1.62,1.62,0,0,0-.06-.4C25.63,63,25.55,62.85,25.44,62.83Z"/><path class="cls-25" d="M28.63,65.22v.14a3,3,0,0,1-.26,1.16,2.43,2.43,0,0,1-.7,1.07.83.83,0,0,1-.47.19.46.46,0,0,1-.23-.06.2.2,0,0,1-.11-.18,1.28,1.28,0,0,0,.16-.81c0-.26,0-.64-.07-1.14s-.06-.89-.06-1.14l0-.75a2.22,2.22,0,0,0-.08-.49,2.08,2.08,0,0,1-.07-.44c0-.16.17-.24.53-.24h.1a1.08,1.08,0,0,1,1,.79,4.14,4.14,0,0,1,.22,1.52v.32A.13.13,0,0,0,28.63,65.22Zm-1.27,1.49v.66a1.52,1.52,0,0,0,.45-.46,2.76,2.76,0,0,0,.29-.66,5,5,0,0,0,.19-1.37,3.15,3.15,0,0,0-.2-1.23A1.12,1.12,0,0,0,27.6,63a.71.71,0,0,0-.41-.09h0c0,.42,0,1,.08,1.88S27.36,66.29,27.36,66.71Z"/><path class="cls-25" d="M21.56,69.22a.56.56,0,1,0,0,1.12.56.56,0,1,0,0-1.12Z"/><path class="cls-25" d="M19.66,69.38a.4.4,0,1,0,0,.79.4.4,0,0,0,0-.79Z"/><path class="cls-25" d="M23.37,69.38a.4.4,0,0,0,0,.79.4.4,0,0,0,0-.79Z"/><path class="cls-19" d="M26,49.86c-4.3,2.2-8.48,4.62-12.51,7.18v5.69a129.1,129.1,0,0,1,14.25-9.59A6.43,6.43,0,0,0,26,49.86Z"/><path class="cls-19" d="M29.45,56.22a1.83,1.83,0,0,0-.17-.74c-5.34,3.83-10.64,7.69-15.76,11.75V70a1.83,1.83,0,0,0,1.83,1.82h5.21q4.47-3.1,8.89-6.35Z"/><path class="cls-25" d="M24.87,28.85l1,4.83a81.9,81.9,0,0,1-8.84,0l1-4.83s.09-.92,2-.74l.56-4h1.59l.55,4C24.78,27.93,24.87,28.85,24.87,28.85Z"/><path class="cls-26" d="M25.9,33.68c5.49-.09,4.43,6.23,4.43,6.23a60.24,60.24,0,0,1-8.84.56,60.07,60.07,0,0,1-8.84-.56s-1.06-6.32,4.41-6.23A81.9,81.9,0,0,0,25.9,33.68Z"/><path class="cls-27" d="M18.77,33.76l-1.71-.08c-5.47-.09-4.41,6.23-4.41,6.23s1.08.18,3,.33A11.18,11.18,0,0,1,18.77,33.76Z"/><path class="cls-28" d="M25.9,33.68c-.58,0-1.17.07-1.75.09a13.51,13.51,0,0,1,2,6.56c2.67-.17,4.23-.42,4.23-.42S31.39,33.59,25.9,33.68Z"/><path class="cls-25" d="M30.33,39.91c10.81,4.47,1.2,40,1.2,40s-3.21,2.31-10,2.31S11.43,79.9,11.43,79.9s-9.61-35.52,1.22-40a60.07,60.07,0,0,0,8.84.56A60.24,60.24,0,0,0,30.33,39.91ZM29.45,70V56.22a1.82,1.82,0,0,0-1.55-1.8v0A6.45,6.45,0,1,0,15,54.4v0a1.83,1.83,0,0,0-1.49,1.79V70a1.83,1.83,0,0,0,1.83,1.82H27.63A1.83,1.83,0,0,0,29.45,70Z"/><path class="cls-29" d="M17.07,40.34c-2.8-.17-4.42-.43-4.42-.43-10.83,4.47-1.22,40-1.22,40a14.05,14.05,0,0,0,5,1.84C13.74,67.84,11.45,53.76,17.07,40.34Z"/><path class="cls-30" d="M30.33,39.91s-1,.16-2.76.31a108.06,108.06,0,0,1,1.86,40.7,10.06,10.06,0,0,0,2.1-1S41.14,44.38,30.33,39.91Z"/><path class="cls-31" d="M12.68,39.9a7.12,7.12,0,0,1,.61-4.38A3.61,3.61,0,0,1,15,34a5.17,5.17,0,0,1,2.2-.39v.09a10,10,0,0,0-1.91.92A4,4,0,0,0,14,36a8.15,8.15,0,0,0-.72,1.8c-.18.66-.37,1.37-.55,2.13Z"/><path class="cls-32" d="M11.4,79.92c-.91-3.39-1.67-6.82-2.32-10.27S7.91,62.72,7.59,59.22A51.66,51.66,0,0,1,7.7,48.67a18.25,18.25,0,0,1,1.37-5.11,7,7,0,0,1,3.61-3.78l.09.22a7.13,7.13,0,0,0-2.58,4.07,21.48,21.48,0,0,0-.67,4.84c0,1.66-.06,3.34.05,5s.17,3.38.35,5.08.29,3.42.48,5.13.37,3.43.49,5.17c.34,3.46.65,7,.74,10.54Z"/><path class="cls-33" d="M30.34,39.88c-.3-.78-.52-1.47-.74-2.11a10.18,10.18,0,0,0-.74-1.68,4.22,4.22,0,0,0-1.06-1.26A12.57,12.57,0,0,0,26,33.73v-.11a5.11,5.11,0,0,1,2.21.38,3.7,3.7,0,0,1,1.68,1.5,7.19,7.19,0,0,1,.59,4.4Z"/><path class="cls-34" d="M31.53,79.87c.32-3.53.68-7,1.11-10.47.17-1.74.43-3.46.58-5.18s.39-3.44.51-5.15.27-3.43.32-5.13a50.58,50.58,0,0,0,0-5.08,20.52,20.52,0,0,0-.84-4.9,6.92,6.92,0,0,0-2.81-4l.07-.16A7,7,0,0,1,34,43.58a18.4,18.4,0,0,1,1.35,5.1,50.77,50.77,0,0,1,.09,10.53c-.31,3.5-.83,7-1.47,10.43s-1.4,6.88-2.3,10.28Z"/><path class="cls-35" d="M31.64,79.93a15,15,0,0,1-4.88,1.83,25.77,25.77,0,0,1-10.4,0,14.88,14.88,0,0,1-4.87-1.83l0-.07a14.55,14.55,0,0,0,2.46.76,18.06,18.06,0,0,0,2.5.48,30.64,30.64,0,0,0,5.06.31,30.5,30.5,0,0,0,5.06-.31,17.78,17.78,0,0,0,2.5-.48,14.66,14.66,0,0,0,2.47-.76Z"/><path class="cls-35" d="M30.41,39.93a16.77,16.77,0,0,1-2.17.63c-.73.15-1.47.27-2.21.39-1.48.2-3,.24-4.47.3s-3-.1-4.46-.31c-.74-.11-1.48-.23-2.22-.38a18.36,18.36,0,0,1-2.16-.63v-.08a62,62,0,0,0,8.83.52,62.25,62.25,0,0,0,8.84-.52Z"/><path class="cls-36" d="M30.4,39.91a63.61,63.61,0,0,1-8.84.58,63.82,63.82,0,0,1-8.84-.58v0c.73.07,1.47.11,2.21.14s1.47.1,2.2.13c1.48.06,2.95.08,4.42.05s3,0,4.42-.05c.74,0,1.47-.07,2.21-.13s1.47-.07,2.21-.14Z"/><path class="cls-20" d="M27.71,72.18H15.42A2.22,2.22,0,0,1,13.2,70V56.21a2.22,2.22,0,0,1,1.5-2.1,6.84,6.84,0,0,1,13.66,0,2.21,2.21,0,0,1,1.56,2.11V70A2.21,2.21,0,0,1,27.71,72.18ZM21.53,48.34a6.05,6.05,0,0,0-6.05,6v.33l-.32.09A1.43,1.43,0,0,0,14,56.21V70a1.43,1.43,0,0,0,1.42,1.42H27.71A1.43,1.43,0,0,0,29.13,70V56.21a1.42,1.42,0,0,0-1.22-1.4l-.33-.05v-.35A6.06,6.06,0,0,0,21.53,48.34Z"/><path class="cls-18" d="M13.81,41.83C11,41.25,9.3,46.45,9.7,48.65c.73,4.08,2.81.36,3.45-1S15.45,42.16,13.81,41.83Z"/><path class="cls-18" d="M15.36,34.67c-.81-.25-1.42,1.17-1.36,1.81.1,1.19.79.19,1-.17S15.82,34.82,15.36,34.67Z"/><path class="cls-37" d="M17.09,33.66l1-4.84h0a1.18,1.18,0,0,1,1-.8,4.12,4.12,0,0,1,1.21,0l-.11.09.6-4V24h.85v.12a8.29,8.29,0,0,1-.79.28l.34-.29a18.13,18.13,0,0,1,.11,4.09l-.07.92-1-.05a2.64,2.64,0,0,0-.84.06l-.18,0s0,0,0,0a.8.8,0,0,0,.06-.24v.11h0c-.09.4-.23.79-.35,1.19s-.28.78-.42,1.17a12.41,12.41,0,0,1-1.19,2.28Z"/><path class="cls-38" d="M26,33.68c-.17-.38-.3-.77-.45-1.16s-.25-.79-.38-1.19-.26-.78-.35-1.19l-.3-1.2h0v0c0,.07,0-.07-.14-.1a1.35,1.35,0,0,0-.36-.14,4,4,0,0,0-1-.07l-.49,0,0-.44c-.07-.67-.17-1.34-.18-2s-.08-1.34-.06-2l.16.15c-.26,0-.52-.08-.79-.14v-.06h.82v0l.57,4-.05,0a3.67,3.67,0,0,1,1.19,0,1.1,1.1,0,0,1,.91.75h0l1,4.84Z"/><path class="cls-35" d="M17.15,33.65c1.47.07,2.94.09,4.41.09s3,0,4.42-.09v.06a10.53,10.53,0,0,1-2.2.47,20.67,20.67,0,0,1-2.22.14c-.74,0-1.48,0-2.22-.14a13.08,13.08,0,0,1-2.2-.47Z"/><path class="cls-18" d="M19.51,28.53c-.54-.23-1,.69-1,1.12,0,.81.54.19.71,0S19.82,28.66,19.51,28.53Z"/><path class="cls-25" d="M27.48,72H15.65A2.25,2.25,0,0,1,13.4,69.7V56.32A2.24,2.24,0,0,1,15,54.19l.14,0v.15a.41.41,0,0,0,0,.1,6.51,6.51,0,1,0,13,0v0s0,0,0-.06v-.14l.14.05a2.24,2.24,0,0,1,1.51,2.11V69.7A2.25,2.25,0,0,1,27.48,72ZM14.87,54.43a2,2,0,0,0-1.27,1.89V69.7a2.05,2.05,0,0,0,2.05,2H27.48a2.05,2.05,0,0,0,2.05-2V56.32a2,2,0,0,0-1.24-1.87,6.71,6.71,0,0,1-13.42,0Z"/><path class="cls-39" d="M101.78,83.67l3.4-.15,4.56-.19,4.92-.2,11.45-.47-1.24,11.61L11.56,97.8,8.86,87.21l12.46-.57,3-.14,4.17-.19,3.16-.14,15.67-.72,8.06-.37,2.91-.14a5.66,5.66,0,0,0,.32,1.27c.61,1.65,2.25,4.33,6.63,4.33,6.34,0,5.92-5.6,5.92-5.6l2.17-.09,5.84-.24Z"/><path class="cls-40" d="M126.11,82.66l-11.45.47h0L111.75,81h0a3.19,3.19,0,0,0,.56-1.86c-.25-2.09-.58-4.5-6.87-7.31-.56-.26-1.17-.52-1.84-.78a45.84,45.84,0,0,0-5.12-1.19c-1.25-.31-2.52-.79-3.9-1.13h0V61.9Z"/><path class="cls-41" d="M114.66,83.13h0l-4.92.2v0a11,11,0,0,0,2-2.25h0Z"/><path class="cls-42" d="M105.9,83c.89-.65,1.62-1.34,2.31-1.94,1.43-1.28,2-2.17,1.91-3.52A4.3,4.3,0,0,0,109,75.51a11.69,11.69,0,0,0-4.36-2.8c-.46-.18-.92-.34-1.4-.48.33-.43,1-.67,2.24-.37,6.29,2.81,6.62,5.22,6.87,7.31a3.19,3.19,0,0,1-.56,1.86,11,11,0,0,1-2,2.25v0l-4.56.19A7.5,7.5,0,0,0,105.9,83Z"/><path class="cls-43" d="M110.12,77.58c.07,1.35-.48,2.24-1.91,3.52-.69.6-1.42,1.29-2.31,1.94a2,2,0,0,0-2.57-.37c.71-.5,1.36-1,1.82-1.38,1.35-1.05,2.38-2.06,2.33-3.18s-1.18-2-2.62-2.93c-.59-.38-1.22-.8-2-1.21a2.28,2.28,0,0,1,.28-1.74c.48.14.94.3,1.4.48a11.69,11.69,0,0,1,4.36,2.8A4.3,4.3,0,0,1,110.12,77.58Z"/><path class="cls-39" d="M103.9,16.87l5.19,6.63-4.79.9L71.12,30.56S69.67,27,65.2,27.87A4.74,4.74,0,0,0,61,32.64L26.49,40l-5.17,1.11,2.27-7.89Z"/><path class="cls-4" d="M107.48,78.11c0,1.12-1,2.13-2.33,3.18-.46.36-1.11.88-1.82,1.38-.37.27-.75.52-1.12.75l0,0-35-3.28.13-.08,35.57-6h0c.73.41,1.36.83,2,1.21C106.3,76.1,107.42,77,107.48,78.11Zm-3.93-1.84-.07-.22s-2.45-2.17-2.19-.47c0,0-3-.76-1.91.62,0,0-1.25.18-1.35.72s1.58.76,1.58.76c-.08,1,1.81.13,1.81.13C101,78.66,102.59,78.47,103.55,76.27Zm-3.37,3.62a.68.68,0,0,0,.74-.63.7.7,0,0,0-.8-.56c-.42,0-.76.31-.74.63A.7.7,0,0,0,100.18,79.89Zm-11.65.55c5-.18,7.85-1.13,4.57-2s-6.79-1.31-10.07.1C81.29,79.3,83.52,80.62,88.53,80.44Z"/><path class="cls-43" d="M105.9,83a7.5,7.5,0,0,1-.72.48l-3.4.15.43-.25c.37-.23.75-.48,1.12-.75A2,2,0,0,1,105.9,83Z"/><path class="cls-42" d="M105.43,71.86c-1.25-.3-1.91-.06-2.24.37-1.09-.34-2.25-.6-3.58-.93-1.66-.43-3.34-1.14-5.25-1.47-1.71-.29-3.61-.19-5.51-.41s-3.54-.71-5.44-.84a18.89,18.89,0,0,0-2.49,0,2.16,2.16,0,0,1,2-1.25c1.82.12,3.54.61,5.23.79,1.84.2,3.65.1,5.31.37a10.65,10.65,0,0,1,1.15.24c1.38.34,2.65.82,3.9,1.13a45.84,45.84,0,0,1,5.12,1.19C104.26,71.34,104.87,71.6,105.43,71.86Z"/><path class="cls-44" d="M104.3,24.4,94.57,61.9,39.16,64.6C34.8,52.15,26.49,40,26.49,40L61,32.64a4.74,4.74,0,0,1,4.25-4.77c4.47-.84,5.92,2.69,5.92,2.69Z"/><path class="cls-45" d="M103.48,76.05l.07.22c-1,2.2-2.55,2.39-2.13,1.54,0,0-1.89.83-1.81-.13,0,0-1.54-.22-1.58-.76s1.35-.72,1.35-.72c-1.11-1.38,1.91-.62,1.91-.62C101,73.88,103.48,76.05,103.48,76.05Z"/><path class="cls-43" d="M102.91,74h0a12.66,12.66,0,0,0-2-.88,47.4,47.4,0,0,0-4.75-1c-1.48-.32-3-.86-4.7-1.1-1.54-.22-3.24-.13-4.94-.28s-3.17-.54-4.88-.62c-.48,0-1,0-1.45,0a10.89,10.89,0,0,0,.73-1.52,18.89,18.89,0,0,1,2.49,0c1.9.13,3.68.64,5.44.84s3.8.12,5.51.41c1.91.33,3.59,1,5.25,1.47,1.33.33,2.49.59,3.58.93A2.28,2.28,0,0,0,102.91,74Z"/><path class="cls-4" d="M102.9,74,67.33,80c1.8-1.21,3.6-2.41,5.37-3.67a53,53,0,0,0,7.06-5.69,3.45,3.45,0,0,0,.43-.53c.48,0,1,0,1.45,0,1.71.08,3.3.47,4.88.62s3.4.06,4.94.28c1.71.24,3.22.78,4.7,1.1a47.4,47.4,0,0,1,4.75,1A12.66,12.66,0,0,1,102.9,74Zm-11.38-.58a.64.64,0,0,0,.67-.63.72.72,0,1,0-.67.63Zm-8,1.53c.76-.08.23-1,.23-1a7.57,7.57,0,0,1-3-.35c0-.39.72-.51,1.25-.54a6.34,6.34,0,0,1,.66,0c-.63-.43-3.6-1.45-4.61,1.08s2.91,2.47,3.67,2.18c.31-.12.21-.21-.06-.35h0a3.07,3.07,0,0,1-1.47-1.13A31,31,0,0,0,83.57,74.92Z"/><path class="cls-4" d="M79.13,84.61l-5.84.24h0c-2.13-1.5-4.15-3.07-6.13-4.71l0,0,35,3.28,0,0-.43.25ZM81.22,84c1.31-.16,1.53-1-1.45-.49C80.38,83.46,81.13,83.53,81.22,84Zm-4.87-1.12c.08-.38-.95-.77-.95-.77.25-.66-1.23-.37-1.23-.37.46-.52-.69-.63-1.77.75v.17s1.28,1.89,1.43.66c0,0,2,1,1.45-.15C75.28,83.13,76.18,83.2,76.35,82.84Z"/><path class="cls-46" d="M100.92,79.26a.68.68,0,0,1-.74.63.7.7,0,0,1-.8-.56c0-.32.32-.61.74-.63A.7.7,0,0,1,100.92,79.26Z"/><path class="cls-40" d="M94.57,68.75h0a10.65,10.65,0,0,0-1.15-.24c-1.66-.27-3.47-.17-5.31-.37-1.69-.18-3.41-.67-5.23-.79s-3.52.16-5.35.12-3.5-.39-5.32-.36-3.51.41-5.31.5-4.13-.11-5.86,0-3.54.65-5.26.86c-.47,0-.93.09-1.4.12a38.28,38.28,0,0,0-3.93.27c-1.81.29-3.47.93-5.14,1.27s-3.27.43-4.77.77L39.16,64.6l55.41-2.7Z"/><path class="cls-47" d="M93.1,78.45c3.28.86.44,1.81-4.57,2S81.29,79.3,83,78.55C86.31,77.14,89.81,77.59,93.1,78.45Z"/><path class="cls-46" d="M92.19,72.76a.64.64,0,0,1-.67.63.6.6,0,1,1,.67-.63Z"/><path class="cls-48" d="M83.8,73.88s.53,1-.23,1a31,31,0,0,1-3.35-.17c-1.17.06-.8.89,1.47,1.13h0c.27.14.37.23.06.35-.76.29-4.67.36-3.67-2.18s4-1.51,4.61-1.08A6.34,6.34,0,0,0,82,73h0c-2.67-.25-2.42.52-1.25.55A7.57,7.57,0,0,0,83.8,73.88Z"/><path class="cls-42" d="M77.53,67.48c1.83,0,3.62-.22,5.35-.12a2.16,2.16,0,0,0-2,1.25c-1,0-2,.12-3,.09-1.8,0-3.64-.42-5.52-.4s-3.92.45-5.79.54-3.73-.15-5.54,0-3.63.69-5.41.91l-1.23-1.12c.47,0,.93-.07,1.4-.12,1.72-.21,3.44-.71,5.26-.86s4.06.06,5.86,0,3.57-.47,5.31-.5S75.8,67.44,77.53,67.48Z"/><path class="cls-49" d="M82,73h0c-.53,0-1.21.15-1.25.54C79.61,73.5,79.36,72.73,82,73Z"/><path class="cls-49" d="M79.77,83.47c3-.56,2.76.33,1.45.49C81.13,83.53,80.38,83.46,79.77,83.47Z"/><path class="cls-49" d="M80.22,74.75a3.07,3.07,0,0,0,1.47,1.13C79.42,75.64,79.05,74.81,80.22,74.75Z"/><path class="cls-43" d="M80.92,68.61a10.89,10.89,0,0,1-.73,1.52c-1.16,0-2.33.15-3.52.13-1.61,0-3.25-.3-4.94-.26s-3.28.35-5,.43-3.35-.09-5,0-3.12.5-4.63.69l-1.56-1.41c1.78-.22,3.55-.75,5.41-.91s3.67.08,5.54,0,4-.51,5.79-.54,3.72.35,5.52.4C78.9,68.73,79.92,68.65,80.92,68.61Z"/><path class="cls-4" d="M80.19,70.13a3.45,3.45,0,0,1-.43.53,53,53,0,0,1-7.06,5.69c-1.77,1.26-3.57,2.46-5.37,3.67l-.25,0c-2.7-2.26-5.3-4.64-7.95-7.08,1.06-.44,1.62-1.07.25-1.16-.31,0-1-.08-1.61-.1-.2-.18-.4-.36-.6-.56,1.51-.19,3-.57,4.63-.69s3.29,0,5,0,3.33-.4,5-.43,3.33.24,4.94.26C77.86,70.28,79,70.17,80.19,70.13Zm-5.08,2.19a.6.6,0,1,0-.74-.56A.67.67,0,0,0,75.11,72.32Zm-3.68,1.14c.15-1.39-2.25-2.16-5.23-1.23S61.41,74.15,65.11,75C67.07,75.5,71.28,74.85,71.43,73.46ZM69.17,77l0-.15s-1.61-1.43-1.44-.31c0,0-2-.49-1.25.41,0,0-.82.12-.89.48s1,.49,1,.49c0,.64,1.19.09,1.19.09C67.5,78.57,68.55,78.44,69.17,77Z"/><path class="cls-45" d="M75.4,82.07s1,.39.95.77-1.07.29-1.07.29c.5,1.14-1.45.15-1.45.15-.15,1.23-1.43-.66-1.43-.66v-.17c1.08-1.38,2.23-1.27,1.77-.75C74.17,81.7,75.65,81.41,75.4,82.07Z"/><path class="cls-50" d="M75.8,71.7a.66.66,0,0,1-.69.62.67.67,0,0,1-.74-.56.73.73,0,0,1,1.43-.06Z"/><path class="cls-4" d="M73.29,84.84h0l-2.17.09s.42,5.6-5.92,5.6c-4.38,0-6-2.68-6.63-4.33h0c2.74-2.18,5.65-4.13,8.58-6.08C69.14,81.77,71.16,83.34,73.29,84.84Zm-7.48,3.22c1,1.59,6.4-.87,3.56-1.06C68.49,86.94,64.87,86.47,65.81,88.06Zm.71-5c.42,0,.76-.3.74-.63a.8.8,0,1,0-.74.63Zm-4.73,5.11a.66.66,0,0,0,.68-.63.65.65,0,0,0-.74-.56.66.66,0,0,0-.68.63A.67.67,0,0,0,61.79,88.12Z"/><path class="cls-47" d="M66.2,72.23c3-.93,5.38-.16,5.23,1.23s-4.36,2-6.32,1.58C61.41,74.15,63.22,73.17,66.2,72.23Z"/><path class="cls-50" d="M69.37,87c2.84.19-2.61,2.65-3.56,1.06S68.49,86.94,69.37,87Z"/><path class="cls-45" d="M69.13,76.85l0,.15c-.62,1.44-1.67,1.57-1.4,1,0,0-1.23.55-1.19-.09,0,0-1-.15-1-.49s.89-.48.89-.48c-.73-.9,1.25-.41,1.25-.41C67.52,75.42,69.13,76.85,69.13,76.85Z"/><path class="cls-46" d="M67.26,82.38c0,.33-.32.61-.74.63a.62.62,0,1,1,.74-.63Z"/><path class="cls-4" d="M67.12,80.1l0,0c-2.93,2-5.84,3.9-8.58,6.08h0a5.66,5.66,0,0,1-.32-1.27l-2.91.14a2.62,2.62,0,0,0-.77-.43c-2.28-.9-4.72-1.41-7,0-.38.23-.48.54-.32.84l-15.67.72V86.1h0l35.34-6Zm-10.32,4c1.69,1,3.05-1.63,1.28-1.31C57.53,82.93,55.1,83.17,56.8,84.14Z"/><path class="cls-4" d="M67.08,80.06l-.14,0-5.21-.48a2.9,2.9,0,0,0,1.06-1.18c1.31-2.61-4-2.4-5-2.07-.42.13-.28.22.08.35h0a4.3,4.3,0,0,1,2,1.1s-3.52-.16-4.55-.06-.27,1.07-.27,1.07a13.53,13.53,0,0,1,4.09.24.45.45,0,0,1-.22.28L32,76.81q.48-.27,1-.51a48.41,48.41,0,0,1,4.64-1.4c1.45-.45,2.88-1.14,4.56-1.53,1.52-.37,3.22-.44,4.89-.75s3.12-.82,4.81-1.07,3.27-.17,4.95-.35l.27,0c.2.2.4.38.6.56-1.24,0-2.56.14-1.94,1.17.49.82,2.17.57,3.3.09C61.78,75.42,64.38,77.8,67.08,80.06ZM53.55,76.9c.48,0,.85-.31.83-.64s-.41-.59-.88-.57-.85.31-.83.65S53.08,76.92,53.55,76.9Zm-7.16-.2c1.22-.26,6.81-1,1.71-2.67S42.42,77.49,46.39,76.7Z"/><path class="cls-4" d="M66.94,80.08l-35.34,6c-.51-.27-1-.56-1.38-.83l-.61-.39c-1.44-.93-2.56-1.84-2.62-3s1-2.11,2.32-3.16a21.16,21.16,0,0,1,2.72-2l26.89,2.52a4.13,4.13,0,0,1-1.45.33h0c-.49,0-.9,0-.9,0,.7.33,3.45,1,5.17-.09ZM45.1,81.36c.87.06,4.49.55,3.55-1S42.25,81.15,45.1,81.36Zm-4.61.3c1.08-.11.32-1.48.32-1.48-1.46.38-4.28-.49-4.28-.49.06-.56,1-.74,1.77-.79a8.44,8.44,0,0,1,.94,0c-.91-.6-5.13-2.07-6.56,1.54s4.14,3.52,5.22,3.1c.43-.17.3-.3-.08-.49a4.4,4.4,0,0,1-2.1-1.62A44.78,44.78,0,0,0,40.49,81.66Z"/><path class="cls-48" d="M57.78,76.35c1-.33,6.32-.54,5,2.07a2.9,2.9,0,0,1-1.06,1.18l-1.53-.15c.31-.18-.2-.41-1.06-.4a13.53,13.53,0,0,0-4.09-.24s-.74-1,.27-1.07,4.55.06,4.55.06c1.59-.11,1.07-.94-2-1.1h0C57.5,76.57,57.36,76.48,57.78,76.35Z"/><path class="cls-46" d="M62.47,87.49a.66.66,0,0,1-.68.63.67.67,0,0,1-.74-.56.66.66,0,0,1,.68-.63A.65.65,0,0,1,62.47,87.49Z"/><path class="cls-48" d="M60.2,79.45l1.53.15c-1.72,1.09-4.47.42-5.17.09,0,0,.41,0,.9,0h0A6.61,6.61,0,0,0,60.2,79.45Z"/><path class="cls-49" d="M59.14,79.05c.86,0,1.37.22,1.06.4l-1.28-.12A.45.45,0,0,0,59.14,79.05Z"/><path class="cls-49" d="M58.92,79.33l1.28.12a6.61,6.61,0,0,1-2.73.21A4.13,4.13,0,0,0,58.92,79.33Z"/><path class="cls-49" d="M57.87,76.7c3.07.16,3.59,1,2,1.1A4.3,4.3,0,0,0,57.87,76.7Z"/><path class="cls-3" d="M59.38,71.82c1.37.09.81.72-.25,1.16l-1.36-1.26C58.43,71.74,59.07,71.8,59.38,71.82Z"/><path class="cls-3" d="M57.77,71.72,59.13,73c-1.13.48-2.81.73-3.3-.09C55.21,71.86,56.53,71.7,57.77,71.72Z"/><path class="cls-50" d="M58.08,82.83c1.77-.32.41,2.27-1.28,1.31S57.53,82.93,58.08,82.83Z"/><path class="cls-43" d="M57.17,71.16l-.27,0c-1.68.18-3.37.12-4.95.35s-3.24.78-4.81,1.07-3.37.38-4.89.75c-1.68.39-3.11,1.08-4.56,1.53a48.41,48.41,0,0,0-4.64,1.4q-.54.24-1,.51a1.5,1.5,0,0,0-.66-1.42c.86-.33,1.78-.63,2.8-1,1.61-.58,3.22-1.46,5.08-2,1.68-.46,3.58-.54,5.45-.93s3.46-1.05,5.33-1.35,3.66-.18,5.53-.41h0Z"/><path class="cls-42" d="M40.54,70.94c1.5-.34,3.15-.44,4.77-.77s3.33-1,5.14-1.27a38.28,38.28,0,0,1,3.93-.27l1.23,1.12h0c-1.87.23-3.76.13-5.53.41s-3.6,1-5.33,1.35-3.77.47-5.45.93c-1.86.5-3.47,1.38-5.08,2-1,.36-1.94.66-2.8,1a3.28,3.28,0,0,0-2.48-.15l1.31-.68a43.59,43.59,0,0,1,5-1.68c1.55-.53,3.1-1.36,4.9-1.83A2.47,2.47,0,0,1,40.54,70.94Z"/><path class="cls-48" d="M55.34,85.08l-8.06.37c-.16-.3-.06-.61.32-.84,2.25-1.37,4.69-.86,7,0A2.62,2.62,0,0,1,55.34,85.08Z"/><path class="cls-46" d="M54.38,76.26c0,.33-.35.62-.83.64s-.86-.23-.88-.56.35-.63.83-.65S54.38,75.92,54.38,76.26Z"/><path class="cls-47" d="M48.65,80.31c.94,1.6-2.68,1.11-3.55,1C42.25,81.15,47.71,78.72,48.65,80.31Z"/><path class="cls-3" d="M48.1,74c5.1,1.68-.49,2.41-1.71,2.67C42.42,77.49,43,72.35,48.1,74Z"/><path class="cls-48" d="M40.81,80.18s.76,1.37-.32,1.48a44.78,44.78,0,0,1-4.77-.25c-1.67.09-1.13,1.27,2.1,1.62.38.19.51.32.08.49-1.08.42-6.64.51-5.22-3.1s5.65-2.14,6.56-1.54a8.44,8.44,0,0,0-.94,0c-3.81-.36-3.44.74-1.77.79C36.53,79.69,39.35,80.56,40.81,80.18Z"/><path class="cls-40" d="M39.16,64.6l1.38,6.34a2.47,2.47,0,0,0-.47.11c-1.8.47-3.35,1.3-4.9,1.83a43.59,43.59,0,0,0-5,1.68l-1.31.68h0c-6.43,3.53-6.52,6-6.58,8.19a3.28,3.28,0,0,0,.75,1.83l-1.73,1.38-12.46.57Z"/><path class="cls-49" d="M36.53,79.69c-1.67,0-2-1.15,1.77-.79C37.54,79,36.59,79.13,36.53,79.69Z"/><path class="cls-49" d="M35.72,81.41A4.4,4.4,0,0,0,37.82,83C34.59,82.68,34.05,81.5,35.72,81.41Z"/><path class="cls-43" d="M31.37,75.39A1.5,1.5,0,0,1,32,76.81a21.16,21.16,0,0,0-2.72,2c-1.34,1-2.37,2.06-2.32,3.16s1.18,2,2.62,3l.61.39a3,3,0,0,0-3.07.13L26.56,85c-1.56-1.13-2.18-2-2.25-3.32a4.48,4.48,0,0,1,1-2.18,11.81,11.81,0,0,1,4.08-3.2C30,75.94,30.67,75.66,31.37,75.39Z"/><path class="cls-43" d="M31.61,86.1v.07l-3.16.14c-.47-.31-.91-.61-1.3-.92a3,3,0,0,1,3.07-.13c.42.27.87.56,1.38.83Z"/><path class="cls-42" d="M27.15,85.39c.39.31.83.61,1.3.92l-4.17.19a8,8,0,0,1-1.23-1.24,3.28,3.28,0,0,1-.75-1.83c.06-2.16.15-4.66,6.58-8.19h0a3.28,3.28,0,0,1,2.48.15c-.7.27-1.37.55-2,.87a11.81,11.81,0,0,0-4.08,3.2,4.48,4.48,0,0,0-1,2.18C24.38,83,25,83.83,26.56,85Z"/><path class="cls-41" d="M24.28,86.5l-3,.14,1.73-1.38A8,8,0,0,0,24.28,86.5Z"/><path class="cls-51" d="M38.8,64.74C34.51,52.49,26.26,40.4,26.17,40.28l.75-.51c.08.12,8.4,12.3,12.73,24.67Z"/><rect class="cls-51" x="80.12" y="42.69" width="38.74" height="0.9" transform="translate(32.77 128.63) rotate(-75.47)"/><rect class="cls-41" x="39.5" y="64.51" width="0.9" height="6.8" transform="translate(-13.59 10.11) rotate(-12.34)"/><rect class="cls-41" x="94.18" y="61.89" width="0.9" height="6.85"/><g class="cls-52"><path class="cls-53" d="M102.2,83.29a16.65,16.65,0,0,0,2.41-1.94,11.06,11.06,0,0,0,2.07-2.17c1.1-1.62-1.1-2.7-2.83-3.7a15.73,15.73,0,0,0-2.64-1.3c-.22-.07-.47-.16-.67-.2a6.5,6.5,0,0,0-.71-.17c-.46-.09-1-.16-1.48-.23-1-.14-2.1-.26-3.16-.5s-2.06-.49-3-.65c-.49-.08-.91-.12-1.44-.16s-1,0-1.46,0c-1,0-2.12,0-3.23-.12s-2.15-.28-3.13-.39c-.49,0-1-.09-1.41-.1s-.93,0-1.47,0c-1,.07-2.07.14-3.2.14H76l-.84,0-1.56-.12a16.14,16.14,0,0,0-2.87,0c-1,.08-2,.24-3.12.34l-.86,0-.81,0c-.59,0-1.09,0-1.62,0a20.38,20.38,0,0,0-2.94.07c-.88.1-1.93.3-3,.47a23.23,23.23,0,0,1-3.3.29,29.13,29.13,0,0,0-2.94.16c-.55.08-.94.14-1.44.26l-1.5.34c-.52.12-1,.24-1.61.34l-.81.13-.82.1c-1.07.1-2.09.17-3,.32a18.5,18.5,0,0,0-2.84.77A30.69,30.69,0,0,1,37,76.2c-1.05.25-2.05.45-3,.74a10.83,10.83,0,0,0-2.59,1.25c-.81.53-1.73,1.17-2.49,1.76S27.5,81.25,27.56,82a2.1,2.1,0,0,0,.55,1.12,7.54,7.54,0,0,0,1.09,1c.81.63,1.65,1.29,2.51,1.85l-.09.16c-.92-.51-1.78-1.08-2.66-1.66a8.39,8.39,0,0,1-1.22-1A2.65,2.65,0,0,1,27,82.08a2.19,2.19,0,0,1,.42-1.54,6.61,6.61,0,0,1,1.07-1.17c.8-.69,1.61-1.33,2.46-2a11.63,11.63,0,0,1,2.78-1.49c1-.35,2-.59,3-.87,2-.5,3.88-1.5,6-1.92s4.16-.47,6.16-1c1-.25,2-.53,3.06-.69A30.37,30.37,0,0,1,55,71.16a22.77,22.77,0,0,0,3.09-.3c1-.17,2.05-.38,3.1-.51,2.1-.26,4.2,0,6.25-.15l3.12-.32a17.45,17.45,0,0,1,3.15,0c1,.07,2.07.19,3.11.2S78.92,70,80,70a17.38,17.38,0,0,1,3.14.13c1,.13,2.07.34,3.1.45,2.05.25,4.17,0,6.24.49,1,.21,2,.52,3,.77s2,.42,3.06.59a15.32,15.32,0,0,1,3,.77,15.74,15.74,0,0,1,2.77,1.5,13.49,13.49,0,0,1,2.52,1.89,2.51,2.51,0,0,1,.74,1.42,2.21,2.21,0,0,1-.46,1.53,10.65,10.65,0,0,1-2.3,2.15,16.51,16.51,0,0,1-2.59,1.78Z"/></g><path class="cls-54" d="M102.22,83.33a16.67,16.67,0,0,0,2.56-1.77A10.66,10.66,0,0,0,107,79.43a2,2,0,0,0,.43-1.42,2.28,2.28,0,0,0-.7-1.33,13.46,13.46,0,0,0-2.49-1.86,15.39,15.39,0,0,0-2.74-1.47,14.83,14.83,0,0,0-3-.75c-1-.18-2.06-.33-3.08-.59s-2-.55-3-.76c-2-.44-4.14-.23-6.23-.47a30.83,30.83,0,0,0-6.2-.56c-1,0-2.09.12-3.13.11s-2.1-.12-3.13-.19a17.94,17.94,0,0,0-3.11,0c-1,.09-2.07.24-3.11.33-2.1.18-4.19-.12-6.26.13-1,.12-2.05.33-3.08.5a23.37,23.37,0,0,1-3.12.3,29.18,29.18,0,0,0-3.11.23c-1,.16-2,.42-3,.68-2,.57-4.13.64-6.17,1s-3.91,1.4-6,1.9c-1,.28-2,.52-3,.86A11.11,11.11,0,0,0,31,77.56c-.84.61-1.67,1.25-2.45,1.93a6,6,0,0,0-1.05,1.14,2.08,2.08,0,0,0-.4,1.44,2.52,2.52,0,0,0,.73,1.32,8.68,8.68,0,0,0,1.19,1c.87.57,1.74,1.16,2.65,1.66l-.05.08c-.93-.48-1.81-1-2.7-1.59a8.37,8.37,0,0,1-1.26-1,2.78,2.78,0,0,1-.84-1.45,2.34,2.34,0,0,1,.41-1.65,6.73,6.73,0,0,1,1.06-1.24c.81-.73,1.58-1.38,2.43-2a11.57,11.57,0,0,1,2.84-1.57c1-.38,2-.64,3-.93,2-.52,3.81-1.54,6-2s4.16-.54,6.12-1.11a31.25,31.25,0,0,1,3.11-.71,30.17,30.17,0,0,1,3.2-.26,23.21,23.21,0,0,0,3-.31c1-.17,2-.39,3.13-.53a23.21,23.21,0,0,1,3.22-.11c.52,0,1,0,1.53,0l.77,0,.74-.05,3.11-.31a19.57,19.57,0,0,1,3.25,0c1.07.08,2,.2,3.07.21s2,0,3.09-.09c.52,0,1.11,0,1.62,0s1.09.08,1.63.15c1.06.14,2.09.35,3.08.46s2,.14,3.07.18c.52,0,1,.06,1.61.12s1.08.15,1.6.26c1,.23,2.07.56,3,.82s2,.44,3,.63a15.26,15.26,0,0,1,3.11.84,16,16,0,0,1,2.81,1.57,14.12,14.12,0,0,1,2.51,2,2.75,2.75,0,0,1,.76,1.55,2.44,2.44,0,0,1-.53,1.63,11.55,11.55,0,0,1-2.38,2.11,17,17,0,0,1-2.64,1.7Z"/><g class="cls-52"><path class="cls-55" d="M58.62,86.18a42.26,42.26,0,0,1,6.16-4.77c1.1-.69,2.24-1.32,3.33-2s2.14-1.46,3.18-2.24c2-1.6,4.14-3.12,6.11-4.77.5-.4,1-.83,1.46-1.25a6.44,6.44,0,0,0,1.28-1.34c.34-.5.51-1.15,1-1.71a2.52,2.52,0,0,1,1.84-.76v.07a2.41,2.41,0,0,0-1.57.9c-.34.48-.43,1.16-.77,1.76a3.67,3.67,0,0,1-.61.85l-.68.7c-.46.47-1,.9-1.45,1.33a58.24,58.24,0,0,1-6.36,4.52c-1.1.69-2.2,1.38-3.27,2.12s-2.09,1.54-3.13,2.31c-2.12,1.49-4.27,2.92-6.44,4.35Z"/></g><g class="cls-52"><path class="cls-55" d="M102.23,83.4c-5.86-.32-11.71-.82-17.55-1.39-2.92-.29-5.84-.66-8.76-1s-5.84-.57-8.77-.8c-5.85-.44-11.7-.9-17.55-1.43S37.91,77.66,32.08,77l-.16,0,0-.16a1.54,1.54,0,0,0-.19-.91,1.32,1.32,0,0,0-.75-.58,4.18,4.18,0,0,0-2.05,0l0-.07a4.38,4.38,0,0,1,2.13-.1,1.55,1.55,0,0,1,.91.62,1.79,1.79,0,0,1,.29,1.1l-.15-.18c5.86.4,11.71.91,17.56,1.45s11.68,1.19,17.51,1.85q4.38.48,8.77.83c2.92.24,5.86.41,8.78.67,5.85.52,11.69,1.12,17.51,1.89Z"/></g><g class="cls-52"><path class="cls-55" d="M103.39,82.66a1.62,1.62,0,0,1,1.68-.46,1.77,1.77,0,0,1,1.2,1.27,3.39,3.39,0,0,0-1.33-.84A2.83,2.83,0,0,0,103.39,82.66Z"/></g><g class="cls-52"><path class="cls-55" d="M31.66,86.05c5.9-1.23,11.83-2.3,17.78-3.28,3-.49,6-.89,8.94-1.36s5.95-1,8.91-1.54c5.93-1.11,11.85-2.21,17.79-3.23s11.9-2,17.86-2.83l-.12.19a2.77,2.77,0,0,1,0-1.11,1.52,1.52,0,0,1,.57-1,1.76,1.76,0,0,1,1-.29,4.12,4.12,0,0,1,1.06.16l0,.07a2.44,2.44,0,0,0-2,.21,1.86,1.86,0,0,0-.38,1.84l0,.16-.16,0c-5.92,1.16-11.85,2.21-17.8,3.23s-11.9,1.92-17.86,2.82q-4.47.69-8.91,1.5c-3,.54-5.92,1.14-8.89,1.67-5.94,1-11.89,2-17.87,2.77Z"/></g><g class="cls-52"><path class="cls-55" d="M30.28,85.24a5,5,0,0,0-2.11-.06,2.58,2.58,0,0,0-.92.39,2.54,2.54,0,0,0-.72.77,1.66,1.66,0,0,1,.49-1,2.18,2.18,0,0,1,1.06-.56A2.64,2.64,0,0,1,30.28,85.24Z"/></g><g class="cls-52"><path class="cls-55" d="M73.33,84.86a30.76,30.76,0,0,1-5.13-3.57c-.77-.7-1.51-1.44-2.28-2.13s-1.58-1.35-2.4-2a76.46,76.46,0,0,1-9.11-8.52l.05,0a82.41,82.41,0,0,1,9.31,8.29A30.43,30.43,0,0,0,66.06,79c.81.66,1.67,1.25,2.5,1.86,1.64,1.27,3.24,2.58,4.81,4Z"/></g><path class="cls-41" d="M39.27,64.66a73.67,73.67,0,0,1-6.85,6.62c-1.18,1-2.43,2-3.64,3L25,77.2c-1.28.92-2.54,1.86-3.84,2.76s-2.59,1.79-3.94,2.62A73,73,0,0,1,9,87.28l-.11-.14L24,75.75,39.17,64.52Z"/><rect class="cls-56" x="39.19" y="63.01" width="55.47" height="0.45" transform="translate(-3.01 3.35) rotate(-2.8)"/><path class="cls-41" d="M126.12,82.72a74.27,74.27,0,0,1-8.54-4.19c-1.39-.74-2.72-1.59-4.08-2.38l-4-2.53c-1.3-.89-2.61-1.75-3.9-2.66s-2.56-1.83-3.8-2.81A75.2,75.2,0,0,1,94.58,62l.1-.15,15.82,10.3,15.72,10.45Z"/><rect class="cls-57" x="5.16" y="75.56" width="37.81" height="0.68" transform="matrix(0.8, -0.6, 0.6, 0.8, -40.58, 29.42)"/><rect class="cls-57" x="110.06" y="53.39" width="0.68" height="37.76" transform="translate(-10.65 124.78) rotate(-56.66)"/><path class="cls-58" d="M9.05,87.18c.59,1.73,1.21,3.45,1.76,5.18l1.68,5.21-.9-.67c2.36-.21,4.71-.45,7.07-.64l7.07-.48,14.15-1L54,94.12l14.16-.53,14.16-.35c4.73-.1,9.45-.13,14.18-.19s9.45,0,14.18.06l7.08,0c2.37,0,4.73.12,7.1.18l-.9.84,1-5.78c.31-1.92.72-3.84,1.07-5.76l.27,0-1.22,11.62,0,.14h-.14L68.28,96.3,11.62,98H11.5l0-.12L8.79,87.24Z"/><g class="cls-52"><path class="cls-59" d="M109.17,23.59c-3.11.87-6.25,1.6-9.38,2.38s-6.28,1.44-9.42,2.16-6.28,1.45-9.43,2.07-6.31,1.32-9.47,1.9l-1.17.22-.58-1.17a4.9,4.9,0,0,0-.27-.42,3.47,3.47,0,0,0-.4-.46,3.27,3.27,0,0,0-1-.64,4.27,4.27,0,0,0-2.51-.18,3.94,3.94,0,0,0-2.17,1.06,2.9,2.9,0,0,0-.58,1,3.43,3.43,0,0,0-.17.57,4.67,4.67,0,0,0,0,.51l0,1.37-1.24.26c-3.3.71-6.62,1.36-9.93,2s-6.65,1.24-10,1.83-6.64,1.23-10,1.73-6.68,1.07-10,1.49l0-.18L61,32.46l-.14.18a4.91,4.91,0,0,1,1.25-3.33,5.47,5.47,0,0,1,3.16-1.63,6,6,0,0,1,3.54.32,5.13,5.13,0,0,1,2.54,2.49l-.18-.1,38-7Z"/></g><path class="cls-57" d="M21.47,41.58l-.19-.88,39.29-8.44a5.22,5.22,0,0,1,4.61-4.85,5.61,5.61,0,0,1,6.25,2.64l37.64-7,.17.88L70.9,31.06l-.14-.33c-.05-.13-1.38-3.18-5.41-2.43s-3.9,4.16-3.89,4.31l0,.38Z"/><path class="cls-58" d="M21.24,41.1l2.26-7.89,0-.09.09,0,40.14-8.31,40.18-8.09.09,0,.06.08,5.17,6.66-.21.16c-1-1-2-2-3-3s-1.95-2-2.89-3.09l1,.35C97.58,19.72,91,21.39,84.31,23c-3.33.76-6.65,1.56-10,2.3l-10,2.13-10.06,2c-3.35.63-6.72,1.19-10.09,1.8-6.74,1.11-13.5,2.17-20.3,3l.72-.66c-.48,1.28-1,2.56-1.5,3.84S22,39.9,21.5,41.18Z"/><g class="cls-52"><path class="cls-60" d="M109.69,83.15a13.58,13.58,0,0,0,1.69-1.79,3.49,3.49,0,0,0,.81-2.19v0a6.81,6.81,0,0,0-.87-2.9,8,8,0,0,0-2.13-2.17,25.54,25.54,0,0,0-5.51-2.81c-1.9-.73-4-.82-6.05-1.44-1-.29-2-.63-3-.87a15.68,15.68,0,0,0-3-.43c-1,0-2.08-.06-3.13-.15s-2.09-.3-3.11-.48a18.6,18.6,0,0,0-3.07-.33c-1,0-2,.07-3.1.12a55.9,55.9,0,0,1-6.25-.31c-2.05-.08-4.08.45-6.21.51s-4.19-.17-6.23.07a58.35,58.35,0,0,1-6.19.9c-1,0-2.09.07-3.1.17a18.42,18.42,0,0,0-3,.63c-1,.27-2,.57-3,.76s-2.08.31-3.1.46a15.22,15.22,0,0,0-3,.7c-1,.34-1.92.77-2.89,1.15-2,.81-4.07,1.1-5.89,2A25.26,25.26,0,0,0,25,78.1a7.88,7.88,0,0,0-1.91,2.36,6.5,6.5,0,0,0-.59,3v0a3,3,0,0,0,.64,1.64,8.39,8.39,0,0,0,1.27,1.33l-.2.24a8.43,8.43,0,0,1-1.51-1.25,3.49,3.49,0,0,1-1-1.92v0A7.37,7.37,0,0,1,22.14,80a8.84,8.84,0,0,1,2-2.9,25.35,25.35,0,0,1,5.28-4,19.47,19.47,0,0,1,3.17-1.37c1-.35,1.88-.69,2.74-1.08s1.83-.89,2.94-1.33a17.88,17.88,0,0,1,3.4-1l1.56-.28,1.42-.29c.86-.18,1.76-.48,2.8-.81.53-.16,1-.31,1.69-.46.33-.09.54-.12.81-.18s.63-.11,1-.16c1.2-.15,2.29-.2,3.26-.28l1.38-.14c.43-.06.87-.13,1.36-.23l1.53-.31.83-.16.93-.14c2.43-.3,4.65-.07,6.43-.16.89,0,1.8-.13,2.88-.27l.82-.08.91-.08c.35,0,.57,0,.84,0s.64,0,1,0c1.21.05,2.3.2,3.28.3l.66.06.71,0c.44,0,.89,0,1.39,0l1.55,0c.53,0,1.12,0,1.78,0l.87.07c.31,0,.62.06.91.11.59.08,1.15.19,1.68.3l1.5.32.67.12.39.06.3,0c.91.12,1.91.15,3,.26l.87.1c.32,0,.64.08.88.13a15.43,15.43,0,0,1,1.75.42c1.12.32,2.15.73,3,1,.2.08.47.16.72.24l.66.19,1.47.38a18.17,18.17,0,0,1,3.29,1.07,24.61,24.61,0,0,1,5.67,3.42,9.55,9.55,0,0,1,2.29,2.73,7.44,7.44,0,0,1,.73,3.42v0a3.91,3.91,0,0,1-1.21,2.6,13.16,13.16,0,0,1-2,1.65Z"/></g><path class="cls-42" d="M109.77,83.23a14.37,14.37,0,0,0,1.65-1.84,3.5,3.5,0,0,0,.76-2.22v0a6.59,6.59,0,0,0-.94-2.85,7.48,7.48,0,0,0-2.15-2.08,26.8,26.8,0,0,0-5.51-2.69c-1.84-.69-4-.76-6-1.36-1-.28-2-.6-3-.83a14.81,14.81,0,0,0-3-.37c-1,0-2.08-.05-3.15-.14s-2.15-.3-3.15-.48a19.23,19.23,0,0,0-3-.32c-1,0-2,.08-3.07.13A21.69,21.69,0,0,1,76,68.14c-1.06-.09-2.08-.21-3.07-.24-.24,0-.51,0-.73,0s-.53,0-.76,0c-.48,0-1,.09-1.5.16a29.28,29.28,0,0,1-3.18.31c-2.17.06-4.22-.18-6.2.06a59.06,59.06,0,0,1-6.21.89c-1.06,0-2.09.06-3.09.16l-.72.1c-.25,0-.52.08-.75.14-.47.1-1,.23-1.47.36-1,.27-2,.58-3.09.77s-2.12.29-3.12.43a13.68,13.68,0,0,0-2.93.65c-1,.31-1.91.73-2.9,1.1-2,.8-4.12,1.07-5.9,1.93a27.07,27.07,0,0,0-5.24,3.19,7.63,7.63,0,0,0-1.95,2.29,6.47,6.47,0,0,0-.66,2.94v0a3.06,3.06,0,0,0,.6,1.68,8.17,8.17,0,0,0,1.26,1.37l-.06.07A8,8,0,0,1,23,85.18a3.23,3.23,0,0,1-.69-1.76h0a6.86,6.86,0,0,1,.6-3.06,8.27,8.27,0,0,1,2-2.44,25.64,25.64,0,0,1,5.26-3.38c1.88-.94,4-1.23,5.9-2,1-.38,1.92-.81,2.91-1.16a14.48,14.48,0,0,1,3-.73c1-.15,2.07-.27,3.09-.46s2-.5,3-.78a18.81,18.81,0,0,1,3.07-.64c1-.11,2.08-.13,3.12-.19a56.7,56.7,0,0,0,6.17-.92c2.09-.25,4.18,0,6.26-.09s4.12-.58,6.23-.5a54.3,54.3,0,0,0,6.23.33c1,0,2.08-.12,3.13-.1a19.23,19.23,0,0,1,3.11.35c1,.19,2,.39,3.08.48s2.08.11,3.12.17a15.44,15.44,0,0,1,3.1.44c1,.26,2,.6,3,.89,2,.62,4.1.71,6.07,1.47a25.25,25.25,0,0,1,5.56,2.87,8,8,0,0,1,2.17,2.24,6.89,6.89,0,0,1,.9,3h0a3.7,3.7,0,0,1-.86,2.33,14.73,14.73,0,0,1-1.72,1.81Z"/><g class="cls-52"><path class="cls-61" d="M8.92,87.12c4.1-.47,8.21-.8,12.32-1.19s8.22-.64,12.33-1,8.22-.64,12.33-.88l12.34-.73,1.4-.08.23,1.47a5.71,5.71,0,0,0,.22.82,5.38,5.38,0,0,0,.38.85,4.55,4.55,0,0,0,1.12,1.37A5.41,5.41,0,0,0,65,88.91,5,5,0,0,0,68.41,88a3.27,3.27,0,0,0,.89-1.29,4.6,4.6,0,0,0,.22-.85,3.58,3.58,0,0,0,.07-.81l-.06-1.64,1.58-.06c4.59-.18,9.17-.34,13.76-.45l6.88-.18,6.88-.1c4.59,0,9.17-.17,13.76-.16s9.18,0,13.78.1v.18l-55,2.37.16-.19a5.6,5.6,0,0,1-1.77,4.43A6.58,6.58,0,0,1,65,90.7a7.2,7.2,0,0,1-4.53-1.56,7,7,0,0,1-2.31-4.2l.17.15L8.92,87.3Z"/></g><path class="cls-57" d="M65.26,91a7,7,0,0,1-7.32-5.58l-49,2.26,0-.9,49.81-2.3,0,.42c0,.21.67,5.2,6.5,5.2a5.48,5.48,0,0,0,4.22-1.52A5.26,5.26,0,0,0,70.73,85l0-.46,55.45-2.31,0,.91L71.63,85.36a6,6,0,0,1-1.48,3.82A6.42,6.42,0,0,1,65.26,91Z"/><path class="cls-62" d="M89.23,81.88c0-.33,2.28-.76,2.21-.26l0,.08c-.26.43-2,.79-2.16.25Z"/><path class="cls-63" d="M92.17,86c.69-.3,1.14-.4.7.08a3.47,3.47,0,0,1-3.33,1.25l.86-.46c.23-.13.5-.25.75-.39l.69-.32Z"/><path class="cls-7" d="M95.88,84.68A2.77,2.77,0,0,0,92.17,86l-.33.16c-.11-.34-.19-.65-.26-.93,5.86-3.45,12.55-1.53,12.61,6.62s-6.11,7.73-6.8,8.1c-7.21,3.8-11.62,1.13-13.68-4.13a6.58,6.58,0,0,1,3.34-8.58c1-.48,2-.83,3.08-1.28l.27.91a4,4,0,0,0-3.69,2.89,14.22,14.22,0,0,1,3.91-1.94s.09,2.41,1.65,3.14A7.68,7.68,0,0,0,92,87a4.44,4.44,0,0,1,3.7,1.23,2.6,2.6,0,0,0-2.07-2.39S94,84.78,95.88,84.68Z"/><path class="cls-64" d="M91.53,85.22l0,0c.07.28.15.59.26.93l-.69.32a2.53,2.53,0,0,1-.6-.71A10.26,10.26,0,0,0,91.53,85.22Z"/><path class="cls-64" d="M91.53,85.22a10.26,10.26,0,0,1-1,.52A12.79,12.79,0,0,1,89.25,82c.16.54,1.9.18,2.16-.25a6,6,0,0,0,.17,3.5Z"/><path class="cls-63" d="M90.55,85.74a2.53,2.53,0,0,0,.6.71c-.25.14-.52.26-.75.39h0l-.27-.91Z"/><path class="cls-63" d="M86.71,89.73a4,4,0,0,1,3.69-2.89h0l-.86.46a3.47,3.47,0,0,0,3.33-1.25c.44-.48,0-.38-.7-.08a2.77,2.77,0,0,1,3.71-1.29c-1.87.1-2.28,1.2-2.28,1.2a2.6,2.6,0,0,1,2.07,2.39A4.44,4.44,0,0,0,92,87a7.68,7.68,0,0,1,.3,3.89c-1.56-.73-1.65-3.14-1.65-3.14A14.22,14.22,0,0,0,86.71,89.73Z"/><path class="cls-65" d="M103.63,87.36A6.73,6.73,0,0,0,100.41,84a7.93,7.93,0,0,0-4.6-.58,12,12,0,0,0-4.31,1.65l.16.26c.4-.08,1.2-.2,1.2-.2l1.07-.65,1.5,0-.91.55s1.13,0,1.52,0a6.5,6.5,0,0,1,3.34,1.12,5,5,0,0,1,1.69,2.38,10.23,10.23,0,0,1,.49,3.4,9,9,0,0,1-.49,3.3,4,4,0,0,1-1.78,2.08,4.83,4.83,0,0,1-.79.38c-.3.12-.59.2-1,.35a5,5,0,0,0-.49.17,1,1,0,0,0-.27.12h0l-.09.05h0l0,0-.1.08-.43.33c-.28.21-.58.41-.87.62a17,17,0,0,1-3.91,2.11v.3a12.23,12.23,0,0,0,4.51-.92c.36-.15.71-.3,1.06-.47l.52-.25a2.21,2.21,0,0,1,.22-.11l.25,0a11.49,11.49,0,0,0,2.26-.51,6.12,6.12,0,0,0,3.5-3,10.33,10.33,0,0,0,.93-4.56A10.86,10.86,0,0,0,103.63,87.36Z"/><path class="cls-3" d="M90.63,85.79c-1.81.88-3.88,1.31-5.3,2.76a6.32,6.32,0,0,0-1.89,5.39,9,9,0,0,0,.9,2.83A10.27,10.27,0,0,0,86,99.25,7.14,7.14,0,0,0,88.37,101a7.26,7.26,0,0,0,2.91.61v.14a6.21,6.21,0,0,1-3.23,0,7.36,7.36,0,0,1-2.93-1.68,10.3,10.3,0,0,1-2-2.67c-.13-.24-.25-.49-.37-.75l-.15-.36-.16-.42A8.27,8.27,0,0,1,82,94.12a7.51,7.51,0,0,1,.44-3.57,7.17,7.17,0,0,1,2.1-2.85A7.07,7.07,0,0,1,86,86.77a9.06,9.06,0,0,1,1.56-.54c1-.24,2-.4,3-.57Z"/><path class="cls-63" d="M91.52,81.61a4.9,4.9,0,0,0-.1,2.25,14.1,14.1,0,0,0,.5,2.23l-.07,0a3.06,3.06,0,0,1-.79-1A3.86,3.86,0,0,1,90.68,84a3.22,3.22,0,0,1,.07-1.27,2.14,2.14,0,0,1,.69-1.11Z"/><path class="cls-66" d="M89.3,81.86A10.76,10.76,0,0,1,89.81,83c.16.39.27.78.43,1.16s.28.76.42,1.14a6.71,6.71,0,0,0,.56,1.1l0,0a3.56,3.56,0,0,1-.78-1,9.31,9.31,0,0,1-.52-1.16,16.8,16.8,0,0,1-.63-2.44Z"/><path class="cls-67" d="M92.21,85.94a3.18,3.18,0,0,1,1.57-1.5,2.48,2.48,0,0,1,1.11-.19A2.81,2.81,0,0,1,96,84.5l.63.29-.71,0a3.38,3.38,0,0,0-1.23.31,1.8,1.8,0,0,0-.5.35,1.37,1.37,0,0,0-.34.45l-.19-.32a2.48,2.48,0,0,1,1.64.88,2.83,2.83,0,0,1,.46.81,3.38,3.38,0,0,1,.23.91l.08.82-.59-.59a3.69,3.69,0,0,0-1.58-1,4.16,4.16,0,0,0-.92-.18,4,4,0,0,0-.92,0l.23-.45a5.63,5.63,0,0,1,.45,2,9.42,9.42,0,0,1-.13,2l-.07.4-.37-.17a2.89,2.89,0,0,1-1.37-1.5,5.55,5.55,0,0,1-.45-1.91l.36.27a8.8,8.8,0,0,0-2,.76,18.24,18.24,0,0,0-1.88,1.07l-.49.32.16-.55a4.2,4.2,0,0,1,.55-1.2,3.54,3.54,0,0,1,.92-.93,4.45,4.45,0,0,1,2.43-.77l0,.07-.24-.91h0l.28.9v0h0a4.36,4.36,0,0,0-2.33.83,3.74,3.74,0,0,0-1.34,2l0,0c.61-.41,1.23-.79,1.88-1.14a8.35,8.35,0,0,1,2-.81h0v0a5,5,0,0,0,.43,1.79,2.56,2.56,0,0,0,1.21,1.32l0,0a9.14,9.14,0,0,0,.1-2A5.38,5.38,0,0,0,92,87l0,0h0a4.4,4.4,0,0,1,3.73,1.24l-.06,0a3,3,0,0,0-.6-1.55,2.2,2.2,0,0,0-1.43-.81h0l0,0a1.91,1.91,0,0,1,1-.92,3.53,3.53,0,0,1,1.32-.3v0a2.78,2.78,0,0,0-2.1-.13A3.24,3.24,0,0,0,92.24,86Z"/><path class="cls-68" d="M95.94,84.64a2.81,2.81,0,0,0-2.13-.13,3.15,3.15,0,0,0-1.6,1.43l0,0a3.12,3.12,0,0,1,1.61-1.33,2.49,2.49,0,0,1,1.3,0,3.41,3.41,0,0,0-.62.19,2.69,2.69,0,0,0-.62.39,1.78,1.78,0,0,0-.48.62l-.13.27.32,0a2,2,0,0,1,1.27.75,2.83,2.83,0,0,1,.33.62,4.29,4.29,0,0,0-1.11-.56,4.88,4.88,0,0,0-1.06-.22,4.44,4.44,0,0,0-1.09,0l-.41.05.17.39A5.47,5.47,0,0,1,92.1,89a9.22,9.22,0,0,1,0,1.39,2.47,2.47,0,0,1-.7-.91A5.05,5.05,0,0,1,91,87.77l0-.35-.32.07a7.82,7.82,0,0,0-2.1.87,15.78,15.78,0,0,0-1.35.83,3.57,3.57,0,0,1,1-1.42,4.25,4.25,0,0,1,2.25-.9h.08l0-.07-.31-.89h0l.27.88a4.33,4.33,0,0,0-2.33.83,3.73,3.73,0,0,0-1.37,2.08l0,.07.06,0a18.72,18.72,0,0,1,1.88-1.13,8.38,8.38,0,0,1,2-.8,5.16,5.16,0,0,0,.43,1.77,2.58,2.58,0,0,0,1.24,1.36l0,0v0a10,10,0,0,0,.11-2,5.75,5.75,0,0,0-.4-1.88,4.3,4.3,0,0,1,3.62,1.21l.06.07v-.09a3.2,3.2,0,0,0-.63-1.59,2.21,2.21,0,0,0-1.43-.81,1.92,1.92,0,0,1,.94-.86,3.69,3.69,0,0,1,1.3-.31H96Z"/><path class="cls-69" d="M85.11,88.58a3.79,3.79,0,0,0-1.18,6c2,2.05,1.84-.74,1.81-1.89S86.23,88.24,85.11,88.58Z"/><path class="cls-69" d="M85.48,96.22c-.68.34-.2,1.38.23,1.65.81.52.65-.36.57-.66S85.88,96,85.48,96.22Z"/><path class="cls-18" d="M84.19,89.81c-.79.06-1,1.87-.81,2.54.37,1.25.76-.12.88-.61S84.64,89.78,84.19,89.81Z"/><path class="cls-70" d="M93.14,95.34a13.51,13.51,0,0,0,.89,6.08A17.41,17.41,0,0,0,97.48,100c.71-.37,7,.07,7-8.19a9.92,9.92,0,0,0-1.27-5.12C98.27,86.92,93.25,90.88,93.14,95.34Z"/><path class="cls-7" d="M102.11,91.6a16.74,16.74,0,0,1,5.08-.42s-.94,2.66.45,4.12A9,9,0,0,0,109,90.94a5.2,5.2,0,0,1,3.49,2.94s.76-2.37-1.22-3.49c0,0,.92-1,3-.33a3.26,3.26,0,0,0-4.6-.19l-.43,0c0-.41.07-.78.11-1.12,7.87-1.22,14.32,3.76,10.87,12.66s-10,5.77-10.9,5.87c-9.48,1-13.12-3.79-13.09-10.41A7.7,7.7,0,0,1,103.56,89c1.29-.09,2.6,0,3.91-.06l-.1,1.1A4.64,4.64,0,0,0,102.11,91.6Z"/><path class="cls-71" d="M96.23,96.89a11.72,11.72,0,0,0,1.7,6.58C97.5,98.22,100,92.82,103.62,89h-.06A7.7,7.7,0,0,0,96.23,96.89Z"/><path class="cls-72" d="M116.78,89.7c-3.2,7.33-8.54,13.45-15.78,16.5a14.69,14.69,0,0,0,8.32,1.1c.91-.1,7.43,3,10.9-5.87C122.45,95.67,120.54,91.56,116.78,89.7Z"/><path class="cls-63" d="M114.27,90.06c-2.09-.69-3,.33-3,.33,2,1.12,1.22,3.49,1.22,3.49A5.2,5.2,0,0,0,109,90.94a9,9,0,0,1-1.35,4.36c-1.39-1.46-.45-4.12-.45-4.12a16.74,16.74,0,0,0-5.08.42A4.64,4.64,0,0,1,107.37,90h0l-1.14.13a4.05,4.05,0,0,0,4.17.07c.68-.33.15-.41-.73-.38A3.26,3.26,0,0,1,114.27,90.06Z"/><path class="cls-63" d="M109.67,89.87c.88,0,1.41,0,.73.38a4.05,4.05,0,0,1-4.17-.07l1.14-.13,1-.1.88-.06Z"/><path class="cls-62" d="M108.24,84.14c.13-.36,2.8.17,2.51.68l-.07.07c-.47.36-2.51,0-2.46-.66Z"/><path class="cls-64" d="M109.35,88.77c0,.34-.08.71-.11,1.12l-.88.06a3,3,0,0,1-.35-1c.42,0,.85-.07,1.29-.14Z"/><path class="cls-64" d="M109.35,88.77h0c-.44.07-.87.11-1.29.14a15,15,0,0,1,.21-4.69c0,.66,2,1,2.46.66A7.22,7.22,0,0,0,109.35,88.77Z"/><path class="cls-63" d="M108,88.92a3,3,0,0,0,.35,1l-1,.1h0l.1-1.1Z"/><path class="cls-73" d="M121.54,96.32a7.87,7.87,0,0,0-2.07-5,9.3,9.3,0,0,0-4.75-2.62,14,14,0,0,0-5.39-.06l0,.35c.48.09,1.39.3,1.39.3l1.45-.24,1.65.61-1.23.21s1.24.44,1.65.66a7.81,7.81,0,0,1,3.15,2.66,5.87,5.87,0,0,1,.81,3.33,11.92,11.92,0,0,1-.93,3.9,10.85,10.85,0,0,1-2,3.39,4.62,4.62,0,0,1-2.84,1.49,6.54,6.54,0,0,1-1,.07c-.38,0-.73,0-1.27-.06l-.6,0a2.22,2.22,0,0,0-.34,0h0s.1,0-.12,0h-.06l-.15,0-.6.17c-.4.11-.81.2-1.22.3a19.89,19.89,0,0,1-5.16.61l-.12.33a14.08,14.08,0,0,0,5.3.94c.45,0,.9,0,1.35,0l.67,0a1.74,1.74,0,0,1,.29,0l.3.05a13,13,0,0,0,2.68.42,7.1,7.1,0,0,0,5.12-1.81,12.07,12.07,0,0,0,3-4.55A13.06,13.06,0,0,0,121.54,96.32Z"/><path class="cls-3" d="M108.07,89c-1.18.08-2.37,0-3.54.06a9.09,9.09,0,0,0-3.43.64,7.46,7.46,0,0,0-4.4,5.07,10.37,10.37,0,0,0-.24,3.47,12.06,12.06,0,0,0,.72,3.42A8.33,8.33,0,0,0,99,104.6a8.42,8.42,0,0,0,2.9,1.91l-.05.14a7.3,7.3,0,0,1-3.41-1.5,8.47,8.47,0,0,1-2.38-3.08,12,12,0,0,1-1-3.73c0-.32-.06-.63-.07-1l0-.45v-.51a10,10,0,0,1,.27-2,8.65,8.65,0,0,1,2-3.61,8.13,8.13,0,0,1,3.42-2.17,8.25,8.25,0,0,1,2-.4,11.84,11.84,0,0,1,1.9.05c1.22.15,2.36.37,3.55.59Z"/><path class="cls-63" d="M110.83,84.84a5.93,5.93,0,0,0-1.09,2.41,17.89,17.89,0,0,0-.4,2.64h-.08a3.85,3.85,0,0,1-.35-1.41,4.8,4.8,0,0,1,.11-1.41,3.92,3.92,0,0,1,.6-1.34,2.65,2.65,0,0,1,1.15-.94Z"/><path class="cls-66" d="M108.32,84.15c0,.5,0,1,0,1.48s0,1,0,1.45a13.68,13.68,0,0,0,0,1.43,6.33,6.33,0,0,0,.16,1.43l0,0a3.9,3.9,0,0,1-.42-1.41,10.47,10.47,0,0,1-.06-1.48,19.38,19.38,0,0,1,.36-2.93Z"/><path class="cls-67" d="M109.72,89.86a3.76,3.76,0,0,1,2.36-1,3.22,3.22,0,0,1,1.29.28,3.51,3.51,0,0,1,1.1.76l.48.5-.68-.21a3.81,3.81,0,0,0-1.49-.2,2.52,2.52,0,0,0-.71.16,1.78,1.78,0,0,0-.57.35l-.06-.37a2.85,2.85,0,0,1,1.37,1.65A3.23,3.23,0,0,1,113,92.9a4.45,4.45,0,0,1-.15,1.07l-.22.79-.33-.77a4.57,4.57,0,0,0-1.33-1.75,5.28,5.28,0,0,0-.93-.6,5.37,5.37,0,0,0-1-.38l.39-.32a6.61,6.61,0,0,1-.39,2.38,11.16,11.16,0,0,1-1,2.16l-.22.35-.28-.31a3.31,3.31,0,0,1-.83-2.19,5.46,5.46,0,0,1,.07-1.14,6.64,6.64,0,0,1,.27-1.11l.22.39a10.27,10.27,0,0,0-2.48,0,21.09,21.09,0,0,0-2.51.37l-.57.11.35-.45a5.08,5.08,0,0,1,1.1-1.07,4,4,0,0,1,1.4-.61,5.07,5.07,0,0,1,3,.2l-.07,0,.12-1.1h0l-.09,1.11v0h0a5.2,5.2,0,0,0-2.9-.1,4.3,4.3,0,0,0-2.35,1.66l0,0a22,22,0,0,1,2.54-.42,10,10,0,0,1,2.57,0h0v0a6.14,6.14,0,0,0-.3,2.13,3,3,0,0,0,.74,2h0a10.68,10.68,0,0,0,1-2.09A6.41,6.41,0,0,0,109,91v0h0a5.51,5.51,0,0,1,2.1,1.07,4.8,4.8,0,0,1,1.41,1.89h-.06a3.62,3.62,0,0,0,0-2,2.57,2.57,0,0,0-1.21-1.5h0l0,0a2.4,2.4,0,0,1,1.47-.57,4.23,4.23,0,0,1,1.57.24l0,0a3.31,3.31,0,0,0-2.23-1,3.67,3.67,0,0,0-2.34.86Z"/><path class="cls-68" d="M114.35,90.05A3.3,3.3,0,0,0,112.08,89a3.76,3.76,0,0,0-2.36.86l0,0a3.66,3.66,0,0,1,2.33-.76,3,3,0,0,1,1.44.51,3.8,3.8,0,0,0-.75-.06,2.72,2.72,0,0,0-.85.16,2,2,0,0,0-.79.46l-.25.24.32.19a2.31,2.31,0,0,1,1,1.37,3.15,3.15,0,0,1,.1.81,5.61,5.61,0,0,0-1-1.09,6.55,6.55,0,0,0-1.05-.69,5.52,5.52,0,0,0-1.2-.45l-.46-.12V91a6.33,6.33,0,0,1-.37,2.13,10.4,10.4,0,0,1-.64,1.5,2.92,2.92,0,0,1-.36-1.29,6.16,6.16,0,0,1,.27-2l.13-.4-.39-.06a9.38,9.38,0,0,0-2.65,0c-.62.08-1.23.19-1.83.32a4.12,4.12,0,0,1,1.74-1.09,5,5,0,0,1,2.84,0l.08,0v-.08l.06-1.11h0L107.41,90a5.17,5.17,0,0,0-2.89-.11,4.38,4.38,0,0,0-2.39,1.68l0,.06.07,0a24.66,24.66,0,0,1,2.53-.41,10.12,10.12,0,0,1,2.52,0,6.06,6.06,0,0,0-.3,2.11,3,3,0,0,0,.76,2l0,0,0,0a11.13,11.13,0,0,0,1-2.1,6.53,6.53,0,0,0,.38-2.23,5.11,5.11,0,0,1,3.42,2.89l0,.1,0-.1a3.64,3.64,0,0,0,0-2,2.58,2.58,0,0,0-1.2-1.51,2.26,2.26,0,0,1,1.39-.53,4.29,4.29,0,0,1,1.55.23l.1,0Z"/><path class="cls-69" d="M100.86,89.66c-2.36-.19-5.25,3-3.9,6.06s2.32,0,2.79-1.27S102.23,89.77,100.86,89.66Z"/><path class="cls-69" d="M98,98.13c-.89.07-.81,1.41-.46,1.9.66.91.86-.12.9-.48S98.48,98.09,98,98.13Z"/><path class="cls-18" d="M99.32,90.6c-.88-.27-1.9,1.6-2,2.41-.14,1.52.88.2,1.22-.28S99.83,90.76,99.32,90.6Z"/></g></g></svg>