<svg xmlns="http://www.w3.org/2000/svg" viewBox="0 0 30 30"><defs><style>.cls-1{fill:none;stroke-width:1.4px;}.cls-1,.cls-2{stroke:#fff;stroke-miterlimit:10;}.cls-2{fill:#fff;stroke-width:0.5px;}</style></defs><g id="OBJECTS"><circle class="cls-1" cx="14.75" cy="15" r="12.7" transform="translate(-2.25 27.39) rotate(-81.55)"/><path class="cls-2" d="M20.41,22.6h-7a1.25,1.25,0,0,1-1.25-1.25V8.65A1.25,1.25,0,0,1,13.42,7.4h7a.64.64,0,1,0,0-1.28h-7A2.53,2.53,0,0,0,10.9,8.65v12.7a2.53,2.53,0,0,0,2.52,2.53h7a.64.64,0,0,0,0-1.28Z"/><path class="cls-2" d="M20.66,13.52,14.32,9.36a.28.28,0,0,0-.44.23v1.93a.51.51,0,0,1-.51.5H12.12c-4,0-7.85.59-8.06,3.32-.25,3.26,3.61,4.21,7.48,4.21v-.84c-1.32,0-4.42,0-4.57-1.33-.25-2,5.29-1.89,5.29-1.89h1.11a.52.52,0,0,1,.51.51v1.92a.29.29,0,0,0,.44.24L20.66,14A.28.28,0,0,0,20.66,13.52Z"/></g></svg>