<svg xmlns="http://www.w3.org/2000/svg" viewBox="0 0 158.55 243.47"><defs><style>.cls-1{isolation:isolate;}.cls-2{fill:#ff5601;}.cls-3{fill:#fff;}.cls-4{fill:#12826d;}.cls-5{fill:#5e2f1c;}.cls-6{fill:#c3e3e5;}.cls-7{fill:#06604f;}.cls-8{fill:#bcd2d3;}.cls-9{fill:#f5f7ff;}.cls-26,.cls-30,.cls-31,.cls-35,.cls-45,.cls-49,.cls-67,.cls-71,.cls-9{mix-blend-mode:multiply;}.cls-10{fill:#122b36;}.cls-10,.cls-14{mix-blend-mode:screen;}.cls-11{fill:#f7ba9c;}.cls-12{fill:#1e9e85;}.cls-13{fill:#a3684f;}.cls-14{fill:#12211a;}.cls-15{fill:#4c2902;}.cls-16{fill:#2d2521;}.cls-17{fill:#1e0f00;}.cls-18{fill:#f7ceb0;}.cls-19{fill:#b77d51;}.cls-20{fill:#995e2e;}.cls-21{fill:#ffc454;}.cls-22{fill:#ed8f3a;}.cls-23{fill:#ffe9ad;}.cls-24{fill:#63aa35;}.cls-25{fill:#fccf10;}.cls-26{fill:#ebf0fc;}.cls-27{fill:#87a836;}.cls-28{fill:#c4a087;}.cls-29{fill:#b2410f;}.cls-30{fill:#d9e6d9;}.cls-32,.cls-35{fill:#b8c4c2;}.cls-33{fill:#c9f3f4;}.cls-34{fill:#108770;}.cls-36,.cls-45{fill:#e6e9e9;}.cls-37{fill:#209e86;}.cls-38{fill:#26aa91;}.cls-39,.cls-67{fill:#d1b89e;}.cls-40{fill:#c2dddd;}.cls-41{fill:#ffd5b0;}.cls-42{fill:#d18c70;}.cls-43{fill:#2cb79c;}.cls-44{fill:#b1cbcb;}.cls-46{fill:#ceeeef;}.cls-47{fill:#237263;}.cls-48{fill:#523330;}.cls-49,.cls-50{fill:#d6dbdb;}.cls-51{fill:#f0cca3;}.cls-52{fill:#18917d;}.cls-53{fill:#753d05;}.cls-54{fill:#301800;}.cls-55{fill:#3d2417;}.cls-56{fill:#ebc191;}.cls-57{fill:#d17824;}.cls-58{fill:#efcea8;}.cls-59{fill:#de803d;}.cls-60{fill:#e3a87a;}.cls-61{fill:#96522b;}.cls-62{fill:#ce9567;}.cls-63{fill:#ffd669;}.cls-64{fill:#75431d;}.cls-65{fill:#ffd655;}.cls-66{fill:#493d38;}.cls-68{fill:#70514c;}.cls-69{fill:#212112;}.cls-70{fill:#d2e8ec;}.cls-71{fill:#e6ebf2;}.cls-72{fill:#e8a88c;}</style></defs><g class="cls-1"><g id="Pizza"><path class="cls-2" d="M38.57,233.09c-9.8,0-17.63-4.7-23.29-14a44.59,44.59,0,0,1-6.9-24.68A57.63,57.63,0,0,1,9,186.36l0-.17,19.78-4.51,0,.27a42.6,42.6,0,0,1,.19,4.84c.27,3.86.4,6.72.4,8.74a43.58,43.58,0,0,0,2.14,12.77c1.09,3,3.45,4.53,7.24,4.65a7.74,7.74,0,0,0,6.46-3.53A11.39,11.39,0,0,0,47,202.7c0-1.15-.06-2.43-.19-3.81-.52-5.43-2.75-11.48-6.64-18a103.71,103.71,0,0,0-8-12.65c-9.52-13.5-15.7-23.19-18.38-28.81a39.83,39.83,0,0,1-3.66-17.58V119c.13-9.9,2.73-18,7.72-24A24.88,24.88,0,0,1,37,85.41h2c9.6,0,16.71,3.5,21.12,10.42,4.59,7.34,7.37,17.39,8.29,29.87v.21L49,130.65v-1.89a5.3,5.3,0,0,1-.19-1.47,6.62,6.62,0,0,0-.47-1.26c-.27-2.14-.65-5-1.2-8.92-1.15-8.39-3.78-12.65-7.8-12.65H39c-4.13.26-6.21,3.39-6.33,9.58v.78c0,7.57,4.44,17.13,13.2,28.42,1.56,2.27,3.11,4.38,4.61,6.28,1.29,1.8,3,4.27,5.22,7.58A91.49,91.49,0,0,1,66,176.49a58.08,58.08,0,0,1,3,18.35v3.24c-.4,10.5-3.52,19-9.3,25.31S46.66,233.09,38.57,233.09Z"/><path class="cls-3" d="M39,85.66Q53.3,85.66,59.88,96q6.87,11,8.25,29.75l-18.85,4.61v-1.57a5,5,0,0,1-.2-1.47,6.53,6.53,0,0,0-.49-1.38c-.26-2.16-.66-5.1-1.18-8.83q-1.77-12.87-8-12.87H39q-6.39.41-6.58,9.82v.79q0,11.49,13.25,28.57,2.36,3.44,4.62,6.29,2,2.74,5.2,7.56a90.35,90.35,0,0,1,10.31,19.34,57.48,57.48,0,0,1,3,18.26v3.24q-.6,15.72-9.23,25.14-8.84,9.63-20.92,9.62-14.62,0-23.07-13.84a44.14,44.14,0,0,1-6.87-24.55,58.66,58.66,0,0,1,.58-8L28.56,182a41.63,41.63,0,0,1,.19,4.81c.26,3.8.4,6.71.4,8.74a43.66,43.66,0,0,0,2.16,12.86Q33,213,38.77,213.2a8,8,0,0,0,6.68-3.63,11.58,11.58,0,0,0,1.76-6.87c0-1.18-.06-2.46-.19-3.83q-.8-8.25-6.68-18.07a102.51,102.51,0,0,0-8-12.66Q18,147.82,14,139.37a39.41,39.41,0,0,1-3.64-17.48V119q.19-14.82,7.66-23.86a24.56,24.56,0,0,1,19-9.52h2m0-.5H37a25.16,25.16,0,0,0-19.34,9.71C12.64,101,10,109.08,9.89,119v2.86a40,40,0,0,0,3.69,17.69c2.68,5.63,8.87,15.34,18.4,28.84A102.24,102.24,0,0,1,39.89,181c3.89,6.48,6.12,12.49,6.63,17.89.13,1.36.19,2.63.19,3.78A11.16,11.16,0,0,1,45,209.28a7.44,7.44,0,0,1-6.27,3.42c-3.66-.12-6-1.59-7-4.48a43.16,43.16,0,0,1-2.13-12.71c0-2-.13-4.88-.4-8.75a40.22,40.22,0,0,0-.2-4.85l-.07-.54-.53.12L9.1,185.91l-.33.08,0,.34a58,58,0,0,0-.59,8.12,44.77,44.77,0,0,0,7,24.82c5.69,9.33,13.6,14.07,23.49,14.07,8.16,0,15.32-3.29,21.29-9.78,5.81-6.35,9-14.92,9.36-25.46v-3.26a58.24,58.24,0,0,0-3-18.42A92,92,0,0,0,55.87,157c-2.21-3.28-3.92-5.76-5.21-7.56-1.52-1.92-3.06-4-4.6-6.28-8.75-11.27-13.17-20.78-13.17-28.29V114C33,108,35,105,39,104.71h.36c3.88,0,6.42,4.19,7.55,12.43.55,3.89.93,6.77,1.18,8.83v.09l0,.08a6.45,6.45,0,0,1,.44,1.21,5.81,5.81,0,0,0,.2,1.48V131l.61-.15,18.86-4.62.41-.1,0-.42c-.92-12.52-3.72-22.61-8.33-30C55.84,88.7,48.66,85.16,39,85.16Z"/><path class="cls-4" d="M136.52,114.29a5.9,5.9,0,0,1,.59-.06c-.13.4-.27.8-.44,1.19Z"/><path class="cls-5" d="M82.28,46.19c1-.21.93.7-1,1.48A2.88,2.88,0,0,0,82.28,46.19Z"/><path class="cls-5" d="M80.31,44.87c2.21-.86,2.17,0,1.17.26C81.34,44.77,80.77,44.79,80.31,44.87Z"/><path class="cls-5" d="M80.44,35.36c-.41.11-.91.3-.88.64C78.64,36.13,78.31,35.48,80.44,35.36Z"/><path class="cls-5" d="M80.61,38c-1.8.07-2.21-.61-1.31-.82A2.56,2.56,0,0,0,80.61,38Z"/><path class="cls-5" d="M62.09,41.67c2.44-.24,3,.43,1.74.73A3.46,3.46,0,0,0,62.09,41.67Z"/><path class="cls-5" d="M63.32,43.86l1,0a4.67,4.67,0,0,1-2.1.52A2.69,2.69,0,0,0,63.32,43.86Z"/><path class="cls-5" d="M63.45,43.59c.67-.11,1.1,0,.89.22l-1,0A.34.34,0,0,0,63.45,43.59Z"/><path class="cls-5" d="M47.1,46.08c-.59.15-1.3.42-1.27.92C44.52,47.17,44.07,46.25,47.1,46.08Z"/><path class="cls-6" d="M147.66,23.19s9.17,5.56,4.51,11.42c-2.94,3.7-7.75,1-10.89-1.42a30.22,30.22,0,0,1-3.09-2.79s-14.43,2.1-13.82-6.46c0,0-10.52,1.2-10.07-5.41S123.16,14,123.16,14,122,6.35,130.53,5.75s8.39,6.62,8.39,6.62C152.57,11.91,147.66,23.19,147.66,23.19Z"/><path class="cls-6" d="M132.94,74.13c10.61,6.06,18.48,18,17.77,19.79s-7.28,8-12.79,11.13a28.25,28.25,0,0,0-10.5-4.32,37,37,0,0,1,7.17-7.07A30.8,30.8,0,0,1,127,91.81c-1-14.44,4.62-17.3,5.11-17.52h0C132.64,74.17,132.94,74.13,132.94,74.13Z"/><path class="cls-4" d="M137.86,114.17a12.46,12.46,0,0,1,2.41.14,9.45,9.45,0,0,1,2.29.67,5.7,5.7,0,0,1,3.11,2.81,2.34,2.34,0,0,1-.55,2.85,3.11,3.11,0,0,1-2,.62,9.63,9.63,0,0,1-3.87-1.05,21.56,21.56,0,0,1-2.08-1.11c-.64-.38-1.3-.8-2-1.29a12,12,0,0,0,.95-1.37c.76.54,1.48,1,2.13,1.37,3.47,2,5.29,2,5.81,1.54.29-.24.17-.67.07-.91-.39-.92-1.68-2-3.9-2.44a11,11,0,0,0-3.52-.06l-.06-.52c.17-.39.31-.79.44-1.19Z"/><path class="cls-7" d="M143.27,111.13a1.67,1.67,0,0,1,1.17,1.65c-.06.77-.69,1.5-1.88,2.19h0a9.45,9.45,0,0,0-2.29-.67c2-.78,2.58-1.42,2.61-1.64a2.06,2.06,0,0,0-1-.24,5.16,5.16,0,0,0-4,1.74l-.75.06a7.58,7.58,0,0,0,.27-1.77A6.36,6.36,0,0,1,143.27,111.13Z"/><path class="cls-4" d="M139.26,120.21a23.86,23.86,0,0,1,.66,8.33l-1.67-1.16a17.63,17.63,0,0,0-1.07-8.28A21.56,21.56,0,0,0,139.26,120.21Z"/><path class="cls-7" d="M136.73,115.94a11,11,0,0,1,3.52.06c-.78.28-1.67.54-2.66.81a4,4,0,0,0-1.1-1l.18-.36Z"/><path class="cls-6" d="M124.37,107.62l-.81-.07,2.41-7.12,1.45.3a28.25,28.25,0,0,1,10.5,4.32,9.22,9.22,0,0,1,1.08.89l-2,1.67-3.4,2.84a4.22,4.22,0,0,0-.64-.51C130.63,108.4,126.18,107.8,124.37,107.62Z"/><path class="cls-8" d="M138.19,30.4a30.22,30.22,0,0,0,3.09,2.79c-7,7.9-14.66,24.26-14.66,24.26a19,19,0,0,1-11-2,15.65,15.65,0,0,0-1.31-2.19,7.7,7.7,0,0,0-2-2.4,6.56,6.56,0,0,0-1.31-.7c2.18-5.19,8.58-20,13.37-26.27C123.76,32.5,138.19,30.4,138.19,30.4Z"/><path class="cls-9" d="M126.62,57.45s7.68-16.36,14.66-24.26a30.91,30.91,0,0,1-2.68-2.37,99,99,0,0,0-16.46,26.67A16.43,16.43,0,0,0,126.62,57.45Z"/><path class="cls-10" d="M124.37,23.94C119.58,30.2,113.18,45,111,50.21a6.56,6.56,0,0,1,1.31.7,7.7,7.7,0,0,1,2,2.4A12.7,12.7,0,0,1,115,54.4,128.52,128.52,0,0,1,129.09,30C126.35,29.13,124.12,27.41,124.37,23.94Z"/><path class="cls-4" d="M137.59,116.81a7.49,7.49,0,0,1,.68,1c-.65-.38-1.37-.83-2.13-1.37.12-.21.24-.44.35-.66A4,4,0,0,1,137.59,116.81Z"/><path class="cls-4" d="M137.17,110.45a7,7,0,0,1,.21,2,7.58,7.58,0,0,1-.27,1.77,5.9,5.9,0,0,0-.59.06l.15,1.13-.18.36c-.11.22-.23.45-.35.66l-.12-.08-1,1.35.13.1a6.73,6.73,0,0,1-.6.72h0a27.27,27.27,0,0,1-6.14,4.88c-.93.57-1.88,1.08-2.83,1.54-14.73,7.12-31.83,2.31-35.34-3.12.23-1,.51-1.9.81-2.85a23.67,23.67,0,0,0,1.12,2.48s3.22,3.24,10.46,4.56a39.16,39.16,0,0,0,11.61.25c12.29-1.43,20.5-7.44,22.47-13.74A9.81,9.81,0,0,0,137.17,110.45Z"/><path class="cls-6" d="M137,107.61a8.75,8.75,0,0,1,.19,2.84,9.81,9.81,0,0,1-.42,2.09l-.26-.09s-1.37-.06-4.37,1.34a7.48,7.48,0,0,0,.82-3.85,4.22,4.22,0,0,1,.64.51Z"/><path class="cls-6" d="M136.49,112.45l.26.09c-2,6.3-10.18,12.31-22.47,13.74a39.16,39.16,0,0,1-11.61-.25h0a87.47,87.47,0,0,1,1.63-33.82A46.9,46.9,0,0,1,105,83a3.74,3.74,0,0,0,.91.27c.76,8.6,10.56,11.21,10.56,11.21-3.88-4-3.09-11.83-6.13-14.3h0c3.9.22,9.24-1.21,14.05-3.38a36.53,36.53,0,0,1,7.71-2.55c-.49.22-6.06,3.08-5.11,17.52a30.8,30.8,0,0,0,7.62,1.85,37,37,0,0,0-7.17,7.07l-1.45-.3-2.41,7.12.81.07c-3.16,4.54-3.71,10.14-.81,8.58a1.55,1.55,0,0,0,2.62.69s.79,2,3.54.32C129.72,117.21,129.64,120.67,136.49,112.45Zm-28-18.94a1.32,1.32,0,0,0-.73-1.67c-.58-.15-1.21.37-1.4,1.15a1.31,1.31,0,0,0,.72,1.67C107.66,94.81,108.29,94.29,108.49,93.51ZM107,102.4a1.3,1.3,0,0,0-.76-1.65c-.59-.13-1.21.4-1.38,1.19a1.3,1.3,0,0,0,.76,1.64C106.16,103.71,106.78,103.18,107,102.4Zm-.44,9.58a1.32,1.32,0,0,0-1-1.54c-.6,0-1.14.56-1.21,1.36a1.31,1.31,0,0,0,1,1.53C105.9,113.39,106.44,112.78,106.51,112Z"/><path class="cls-11" d="M132.12,113.79c3-1.4,4.37-1.34,4.37-1.34-6.85,8.22-6.77,4.76-6.77,4.76-2.75,1.65-3.54-.32-3.54-.32a1.55,1.55,0,0,1-2.62-.69c-2.9,1.56-2.35-4,.81-8.58,1.81.18,6.26.78,8.57,2.32A7.48,7.48,0,0,1,132.12,113.79Z"/><path class="cls-6" d="M134.59,118.54c3.91,19.46-4.43,55.67-12.22,68-5.55,2.1-5.93,0-5.93,0s.16-.55.38-1.59c.86-4.16,2.71-16.19-.38-32.62,6.56-4.28,10.8-13.56,9.18-27.37h0c.95-.46,1.9-1,2.83-1.54A27.27,27.27,0,0,0,134.59,118.54Z"/><path class="cls-4" d="M132.94,74.13s-.3,0-.82.15h0a36.53,36.53,0,0,0-7.71,2.55c-4.81,2.17-10.15,3.6-14.05,3.38h0a3.43,3.43,0,0,0-1.82-.74,1.24,1.24,0,0,0-.84-.73c15.21-1.94,20.79-7.13,20.79-7.13S130.45,71.42,132.94,74.13Z"/><path class="cls-12" d="M126.62,67.46c1.65,1,1.82,4.16,1.82,4.16s-5.58,5.19-20.79,7.13a2,2,0,0,0-.51-.06s.8-.41-1.4-1.16h0a35,35,0,0,0,12.84-3.39,24.63,24.63,0,0,0,6.82-5.77A7.72,7.72,0,0,0,126.62,67.46Z"/><path class="cls-11" d="M127.07,62.59c1.57.53,2.09,2.52-.07,4.53l-.38.34a7.72,7.72,0,0,1-1.22.9,24.63,24.63,0,0,1-6.82,5.77,35,35,0,0,1-12.84,3.39c-.33,0-.67,0-1,.06a38.37,38.37,0,0,1-6.36-.22,9,9,0,0,1-1.48-.27,5,5,0,0,1-1-.37c-2.1-1-1.63-3,0-5.1a32.3,32.3,0,0,1,6.58-6c1.35,1.24,4.41,1.46,4.41,1.46a5.12,5.12,0,0,0,8.33,2.4c2.93-2.37-.14-4.26-.42-4.42.88.7.41,2.85-1.8,2.85s-1.68-2.71-4.32-4a4.13,4.13,0,0,0,.49-1.6l1.84-.06a6.28,6.28,0,0,1,.32-2.73,6.8,6.8,0,0,1,3-3.45,7.76,7.76,0,0,1,.55.61A19.11,19.11,0,0,1,116.6,59l.22-.1a15.17,15.17,0,0,0-1.21-3.4,19,19,0,0,0,11,2S127.83,58.79,127.07,62.59Zm-2.87,3.47c1,.71,3.81-1.69,1.56-2.19Z"/><path class="cls-13" d="M125.76,63.87c2.25.5-.58,2.9-1.56,2.19Z"/><path class="cls-4" d="M107,155.07a19,19,0,0,1-4.32-.54c-12.49-3-16.14-17.88-12.39-32.69,3.51,5.43,20.61,10.24,35.34,3.12h0c1.62,13.81-2.62,23.09-9.18,27.37A16.8,16.8,0,0,1,107,155.07Z"/><path class="cls-14" d="M89.32,126.76a37.28,37.28,0,0,0,.24,12.78c5.26,6.77,12.38,11.71,20.38,15.3a16.81,16.81,0,0,0,6.5-2.51,17.77,17.77,0,0,0,3.87-3.47C109.17,142.83,98.63,135.78,89.32,126.76Z"/><path class="cls-14" d="M125.62,125h0a37.79,37.79,0,0,1-20.4,3.34c6.31,4.6,12.62,9.25,18.81,14.06C125.75,137.76,126.44,132,125.62,125Z"/><path class="cls-15" d="M122.37,186.54c2.15,2.85,0,6.31,0,6.31l-3,.15v-2.25a14.33,14.33,0,0,1-15.1,1.5,29,29,0,0,0,8.84-3.33,17.87,17.87,0,0,0,3.3-2.38S116.82,188.64,122.37,186.54Z"/><path class="cls-8" d="M116.44,152.33c3.09,16.43,1.24,28.46.38,32.62-3,1.59-4.2-.66-4.2-.66S112,167.23,107,155.07A16.8,16.8,0,0,0,116.44,152.33Z"/><path class="cls-16" d="M116.82,58.9l-.22.1a19.11,19.11,0,0,0-1.77-2.36,7.76,7.76,0,0,0-.55-.61,20,20,0,0,0-1.44-1.47c-.59-.56-1.29-1-1.84-1.52a2.6,2.6,0,0,1-.3-.36A9.61,9.61,0,0,1,109.13,50l.12-.2a4.67,4.67,0,0,1,1.75.37,6.56,6.56,0,0,1,1.31.7,7.7,7.7,0,0,1,2,2.4,15.65,15.65,0,0,1,1.31,2.19A15.17,15.17,0,0,1,116.82,58.9Z"/><path class="cls-17" d="M116.82,185c-.22,1-.38,1.59-.38,1.59a17.87,17.87,0,0,1-3.3,2.38A17.62,17.62,0,0,1,102,187.74a40.24,40.24,0,0,0,10.6-3.45S113.83,186.54,116.82,185Z"/><path class="cls-16" d="M114.77,65.05c.28.16,3.35,2,.42,4.42a5.12,5.12,0,0,1-8.33-2.4s-3.06-.22-4.41-1.46a1.76,1.76,0,0,1-.48-2.1c1.28-.16,2.33-.35,2.33-.35s1.32,1.78,4.35.71c2.64,1.32,2.09,4,4.32,4S115.65,65.75,114.77,65.05Z"/><path class="cls-11" d="M112.84,54.56A20,20,0,0,1,114.28,56a6.8,6.8,0,0,0-3,3.45,6.28,6.28,0,0,0-.32,2.73l-1.84.06c0-2.14-4.84.89-4.84.89s-1,.19-2.33.35c-1.89.23-4.26.37-4.35-.35C97.13,59.28,111,53,111,53,111.55,53.6,112.25,54,112.84,54.56Z"/><path class="cls-12" d="M110.31,80.22c3,2.47,2.25,10.25,6.13,14.3,0,0-9.8-2.61-10.56-11.21a1.48,1.48,0,0,0,1.4-.52c.06,3.21,3.26,4.17.36-.51.15-.25.28-.53.42-.79,1.93,2.66,3.89.68.28-.49a1.81,1.81,0,0,0,.15-1.52A3.43,3.43,0,0,1,110.31,80.22Z"/><path class="cls-7" d="M108.34,81c3.61,1.17,1.65,3.15-.28.49l.18-.3A1.14,1.14,0,0,0,108.34,81Z"/><path class="cls-18" d="M109.14,62.27a4.13,4.13,0,0,1-.49,1.6c-3,1.07-4.35-.71-4.35-.71S109.14,60.13,109.14,62.27Z"/><path class="cls-7" d="M107.64,82.28c2.9,4.68-.3,3.72-.36.51h0A3,3,0,0,0,107.64,82.28Z"/><path class="cls-16" d="M107.76,91.84a1.32,1.32,0,0,1,.73,1.67c-.2.78-.83,1.3-1.41,1.15a1.31,1.31,0,0,1-.72-1.67C106.55,92.21,107.18,91.69,107.76,91.84Z"/><path class="cls-4" d="M107.65,78.75a1.24,1.24,0,0,1,.84.73,1.81,1.81,0,0,1-.15,1.52,1.14,1.14,0,0,1-.1.19l-.18.3c-.14.26-.27.54-.42.79a3,3,0,0,1-.36.51h0a1.48,1.48,0,0,1-1.4.52A3.74,3.74,0,0,1,105,83h0a4.64,4.64,0,0,0,1-2.05,5.3,5.3,0,0,1,1.21-2.3A2,2,0,0,1,107.65,78.75Z"/><path class="cls-12" d="M102.71,81a5,5,0,0,1,.5-1.52,6,6,0,0,1,1.52-1.9h0c.34,0,.68,0,1-.06h0c2.2.75,1.4,1.16,1.4,1.16a5.3,5.3,0,0,0-1.21,2.3A4.64,4.64,0,0,1,105,83a1.11,1.11,0,0,1-.67.25,2.91,2.91,0,0,1-.87-.09.76.76,0,0,1-.48-.39A2.68,2.68,0,0,1,102.71,81Z"/><path class="cls-16" d="M106.19,100.75a1.3,1.3,0,0,1,.76,1.65c-.17.78-.79,1.31-1.38,1.18a1.3,1.3,0,0,1-.76-1.64C105,101.15,105.6,100.62,106.19,100.75Z"/><path class="cls-16" d="M105.53,110.44a1.32,1.32,0,0,1,1,1.54c-.07.8-.61,1.41-1.21,1.35a1.31,1.31,0,0,1-1-1.53C104.39,111,104.93,110.39,105.53,110.44Z"/><path class="cls-19" d="M105.88,44.57c-1.78,4.4-10.42,9.5-22.26,13.24-3.15,1-6.53,1.9-10.07,2.66l-1.14.24C56.06,64.08,41.8,63.4,37.53,59.35h0a5.6,5.6,0,0,1-2.14-6.83,2.69,2.69,0,0,0,.19.38l0,0a3.55,3.55,0,0,0,.06,1.13c1.28,5.92,18,7.34,37.23,3.17S106.72,44.87,105.44,39a3.75,3.75,0,0,0-.33-.9,3.73,3.73,0,0,0,0-.47,5.58,5.58,0,0,1,.74,7Z"/><path class="cls-20" d="M105.44,39c1.28,5.91-13.32,14.09-32.6,18.26S36.89,60,35.61,54.05a3.55,3.55,0,0,1-.06-1.13l0,0a7.07,7.07,0,0,0,2.56,2.2c.45.26.93.56,1.45.85h0A9.67,9.67,0,0,0,42,57a35.46,35.46,0,0,0,4.35.46c1.36.16,2.79.58,4.32.63s2.87-.28,4.39-.33,2.88.18,4.39.05l.43-.05h0c1.27-.17,2.55-.57,3.88-.75s2.92-.09,4.38-.35,3-.89,4.45-1.2,3-.34,4.34-.7,2.77-1.07,4.14-1.49c.67-.2,1.35-.34,2-.48a20,20,0,0,0,2.25-.58c1.42-.5,2.67-1.32,4-1.86s2.88-.89,4.13-1.51a41.79,41.79,0,0,0,3.68-2.36,34.72,34.72,0,0,0,3.78-2.21,14.09,14.09,0,0,0,2.76-3.3,7.63,7.63,0,0,0,1.41-2.87A3.75,3.75,0,0,1,105.44,39Z"/><path class="cls-21" d="M105.15,37.59a3.73,3.73,0,0,1,0,.47,7.63,7.63,0,0,1-1.41,2.87,14.09,14.09,0,0,1-2.76,3.3c.92-1.4.49-2.49-.27-3a20.9,20.9,0,0,0,1.51-2,3.82,3.82,0,0,0,1-3.34,4.33,4.33,0,0,0-1.23-1.68,9.54,9.54,0,0,0-3.84-1.91c-.39-.1-.78-.19-1.17-.25.2-.41.67-.72,1.7-.61h0c5.35,1.69,6,3.77,6.48,5.58A3,3,0,0,1,105.15,37.59Z"/><path class="cls-8" d="M105,83h0a46.9,46.9,0,0,0-.67,9.17A87.47,87.47,0,0,0,102.67,126h0c-7.24-1.32-10.46-4.56-10.46-4.56A23.67,23.67,0,0,1,91.09,119c-4.35-11-.39-22.19,1.4-26.26.46-1,.77-1.62.77-1.62s.45-10.37,2.61-14.39a5,5,0,0,0,1,.37c.17.6,4.31,3.33,4.31,3.33-1.9,2.12-2.39,7.49-4.89,11.39,0,0,6.56-2.76,8-8.52A1.11,1.11,0,0,0,105,83ZM102,92.9a1,1,0,0,0-.62-1.29c-.46-.1-.94.33-1.06,1a1,1,0,0,0,.61,1.29C101.43,93.94,101.91,93.52,102,92.9Zm-1.76,8.63a1,1,0,0,0-.51-1.34c-.46-.13-1,.25-1.15.86a1,1,0,0,0,.51,1.33C99.59,102.52,100.09,102.14,100.28,101.53Zm-.49,9.61a1,1,0,0,0-.76-1.21,1,1,0,0,0-1,1.07c0,.64.29,1.18.77,1.21S99.75,111.77,99.79,111.14Z"/><path class="cls-4" d="M104.73,77.58h0a6,6,0,0,0-1.52,1.9,2.46,2.46,0,0,0-2,.93s-4.14-2.73-4.31-3.33a9,9,0,0,0,1.48.27A38.37,38.37,0,0,0,104.73,77.58Z"/><path class="cls-4" d="M103.43,83.2a2.91,2.91,0,0,0,.87.09c-1.43,5.76-8,8.52-8,8.52,2.5-3.9,3-9.27,4.89-11.39a2.46,2.46,0,0,1,2-.93,5,5,0,0,0-.5,1.52c-3.64,3.19-1.19,4.78.24,1.8A.76.76,0,0,0,103.43,83.2Z"/><path class="cls-22" d="M103.15,35.87a3.82,3.82,0,0,1-1,3.34,20.9,20.9,0,0,1-1.51,2,1.6,1.6,0,0,0-2.06,0c.47-.49.84-1,1.2-1.43.9-1.1,1.55-2.12,1.35-3.08s-1.23-1.63-2.49-2.26c-.53-.25-1.08-.55-1.72-.82a2.29,2.29,0,0,1,0-1.57c.39.06.78.15,1.17.25a9.54,9.54,0,0,1,3.84,1.91A4.33,4.33,0,0,1,103.15,35.87Z"/><path class="cls-7" d="M102.71,81a2.68,2.68,0,0,0,.24,1.8C101.52,85.79,99.07,84.2,102.71,81Z"/><path class="cls-16" d="M101.42,91.61A1,1,0,0,1,102,92.9c-.13.62-.61,1-1.07.95a1,1,0,0,1-.61-1.29C100.48,91.94,101,91.51,101.42,91.61Z"/><path class="cls-23" d="M101.16,36.68c.2,1-.45,2-1.35,3.08-.36.45-.73.94-1.2,1.43v0a8.36,8.36,0,0,1-.8.76L70.2,43.49l-.14-.1L97,33.6c.64.27,1.19.57,1.72.82C99.93,35.05,101,35.71,101.16,36.68ZM97.8,35.55l-.09-.2s-2.24-1.59-1.78-.13c0,0-2.48-.29-1.41.79,0,0-.94.31-.93.81s1.34.46,1.34.46c.08.85,1.44-.11,1.44-.11C96.17,38,97.39,37.6,97.8,35.55Zm-2.09,3.61a.58.58,0,0,0,.49-.65.62.62,0,0,0-1.2.26A.58.58,0,0,0,95.71,39.16Zm-9,2c3.9-.79,6-2,3.28-2.33s-5.52-.3-7.87,1.36C80.83,41,82.78,41.9,86.67,41.11Z"/><path class="cls-21" d="M100.67,41.19c.76.55,1.19,1.64.27,3a34.72,34.72,0,0,1-3.78,2.21,41.79,41.79,0,0,1-3.68,2.36c-1.25.62-2.72.93-4.13,1.51s-2.55,1.36-4,1.86a20,20,0,0,1-2.25.58h0a2.76,2.76,0,0,0,.35-2.6c.35-.09.68-.18,1-.3,1.37-.48,2.58-1.25,3.83-1.77s2.78-.85,4-1.43,2.42-1.56,3.56-2.23a37.07,37.07,0,0,0,3.64-2.1A8.42,8.42,0,0,0,100.67,41.19Z"/><path class="cls-16" d="M99.77,100.19a1,1,0,0,1,.51,1.34c-.19.61-.69,1-1.15.85a1,1,0,0,1-.51-1.33C98.8,100.44,99.31,100.06,99.77,100.19Z"/><path class="cls-22" d="M100.67,41.19a8.42,8.42,0,0,1-1.17,1.13,37.07,37.07,0,0,1-3.64,2.1c-1.14.67-2.22,1.58-3.56,2.23s-2.62.88-4,1.43-2.46,1.29-3.83,1.77c-.33.12-.66.21-1,.3A1.69,1.69,0,0,0,82,49.29,12.54,12.54,0,0,0,83.19,49c1.28-.43,2.41-1.1,3.59-1.55s2.59-.77,3.71-1.27,2.29-1.35,3.34-1.93a35.74,35.74,0,0,0,3.43-1.81A4.85,4.85,0,0,0,97.8,42a8.36,8.36,0,0,0,.8-.76v0A1.6,1.6,0,0,1,100.67,41.19Z"/><path class="cls-16" d="M99,109.93a1,1,0,0,1,.76,1.21c0,.63-.47,1.11-.94,1.07s-.82-.57-.77-1.21A1,1,0,0,1,99,109.93Z"/><path class="cls-21" d="M98.61,31.42c-1-.11-1.5.2-1.7.61-.91-.15-1.85-.24-3-.37-1.35-.15-2.78-.58-4.33-.63-1.39,0-2.85.29-4.37.34s-2.89-.18-4.39-.06a19.73,19.73,0,0,0-2.21.39c.11-.53.5-1.1,1.61-1.39,1.44-.13,2.86.09,4.21,0S87.36,30,88.7,30s2.85.42,4.16.56A35,35,0,0,1,97,31C97.6,31.12,98.12,31.27,98.61,31.42Z"/><path class="cls-24" d="M97.71,35.35l.09.2c-.41,2.05-1.63,2.41-1.43,1.62,0,0-1.36,1-1.44.11,0,0-1.24,0-1.34-.46s.93-.81.93-.81c-1.07-1.08,1.41-.79,1.41-.79C95.47,33.76,97.71,35.35,97.71,35.35Z"/><path class="cls-23" d="M80.29,44.87h0c.46-.08,1-.1,1.17.26a6.33,6.33,0,0,1-2.54,1.07s-.22,1.07.46,1a24.8,24.8,0,0,0,2.88-1,2.88,2.88,0,0,1-1,1.48c-.19.2-.25.3,0,.35.73.11,4.16-.76,2.64-3s-3.86-.54-4.31,0C79.66,45,80,44.94,80.29,44.87ZM82,49.29c-.68.15-1.39.29-2.09.46L70.2,43.49,97.8,42a4.85,4.85,0,0,1-.54.43,35.74,35.74,0,0,1-3.43,1.81c-1,.58-2.08,1.36-3.34,1.93s-2.44.78-3.71,1.27S84.47,48.53,83.19,49A12.54,12.54,0,0,1,82,49.29Zm5.66-4.38c1,1.28,4.87-1.57,2.62-1.38C89.53,43.59,86.63,43.64,87.61,44.91Zm-10.12-.16c0-.34-.85-.55-.85-.55.09-.61-1-.17-1-.17.27-.52-.64-.48-1.28.88l0,.15s1.29,1.5,1.22.4c0,0,1.68.62,1.11-.31C76.7,45.15,77.41,45.1,77.49,44.75Z"/><path class="cls-23" d="M80.61,38a2.56,2.56,0,0,1-1.31-.82A20.71,20.71,0,0,0,82,36.88c.57-.17,0-.94,0-.94a5.43,5.43,0,0,1-2.41.06c0-.34.47-.53.88-.64h0a3.65,3.65,0,0,1,.52-.09c-.56-.3-3-.83-3.45,1.53s2.65,1.81,3.2,1.45C81,38.11,80.85,38.05,80.61,38ZM97,33.6,70.06,43.39l-.08,0L78.89,33a7.73,7.73,0,0,1,.84-.13c1.34-.13,2.65,0,3.9-.07s2.68-.37,3.92-.38,2.63.29,3.83.38a36.65,36.65,0,0,1,3.87.24A8.3,8.3,0,0,1,97,33.6Zm-9,.93a.55.55,0,0,0,.44-.64.56.56,0,0,0-1.1.24A.56.56,0,0,0,87.94,34.53Z"/><path class="cls-22" d="M96.91,32a2.29,2.29,0,0,0,0,1.57,8.3,8.3,0,0,0-1.7-.52,36.65,36.65,0,0,0-3.87-.24c-1.2-.09-2.46-.38-3.83-.38s-2.56.3-3.92.38-2.56-.06-3.9.07a7.73,7.73,0,0,0-.84.13,2.24,2.24,0,0,1-.23-1.34,19.73,19.73,0,0,1,2.21-.39c1.5-.12,3,.11,4.39.06s3-.38,4.37-.34c1.55,0,3,.48,4.33.63C95.06,31.79,96,31.88,96.91,32Z"/><path class="cls-25" d="M96.2,38.51a.62.62,0,0,1-1.2.26.62.62,0,0,1,1.2-.26Z"/><path class="cls-8" d="M95.87,71.62c-1.63,2.13-2.1,4.07,0,5.1-2.16,4-2.61,14.39-2.61,14.39s-.31.58-.77,1.62c0,0-14.56-10.32-17.55-27.47,2-.56,6.23-1.7,9.84-2.58C85.27,64,87.84,69.85,95.87,71.62Z"/><path class="cls-26" d="M75.65,68.47c4.08,15.22,16.84,24.26,16.84,24.26.46-1,.77-1.62.77-1.62a70.17,70.17,0,0,1,1.29-10.43C87,80.27,80.18,76.84,75.65,68.47Z"/><path class="cls-5" d="M90.23,43.53c2.25-.19-1.63,2.66-2.62,1.38S89.53,43.59,90.23,43.53Z"/><path class="cls-2" d="M90,38.78c2.7.34.62,1.54-3.28,2.33s-5.84-.09-4.59-1C84.43,38.48,87.24,38.43,90,38.78Z"/><path class="cls-27" d="M88.38,33.89a.55.55,0,0,1-.44.64.56.56,0,0,1-.66-.4.56.56,0,0,1,1.1-.24Z"/><path class="cls-8" d="M84.78,62.68c-3.61.88-7.81,2-9.84,2.58l-1.21.35-1.32-4.9,1.14-.24c3.54-.76,6.92-1.66,10.07-2.66l2.28,4.6Z"/><path class="cls-28" d="M84,45c1.52,2.26-1.91,3.13-2.64,3-.3-.05-.24-.15,0-.35,1.93-.78,2-1.69,1-1.48a24.8,24.8,0,0,1-2.88,1c-.68.1-.46-1-.46-1a6.33,6.33,0,0,0,2.54-1.07c1-.31,1-1.12-1.17-.26h0c-.34.07-.63.16-.63.16C80.11,44.46,82.44,42.74,84,45Z"/><path class="cls-21" d="M83.48,50.15a2.76,2.76,0,0,1-.35,2.6h0c-.67.14-1.35.28-2,.48-1.37.42-2.69,1.12-4.14,1.49s-2.88.38-4.34.7-3,.95-4.45,1.2-3,.16-4.38.35-2.61.58-3.88.75h0a1.92,1.92,0,0,1-1.18-2.4q.3,0,.6,0c1.36-.13,2.74-.58,4.17-.77s2.8-.1,4.21-.36,3.1-.89,4.5-1.19,2.84-.34,4.18-.68,2.67-1,4-1.42C81.41,50.56,82.47,50.39,83.48,50.15Z"/><path class="cls-22" d="M60.91,53.82c1-.17,2.05-.47,3.11-.61,1.27-.19,2.6-.16,3.91-.39s2.52-.73,3.82-1,2.64-.35,3.89-.66,2.49-.9,3.72-1.26l.5-.14c.7-.17,1.41-.31,2.09-.46a1.69,1.69,0,0,1,1.53.86c-1,.24-2.07.41-3.11.72-1.31.39-2.59,1.06-4,1.42s-2.78.37-4.18.68-3.13,1-4.5,1.19-2.85.18-4.21.36-2.81.64-4.17.77q-.3,0-.6,0a2.21,2.21,0,0,1,1.41-1.39A6.49,6.49,0,0,0,60.91,53.82Z"/><path class="cls-28" d="M82,35.94s.56.77,0,.94a20.71,20.71,0,0,1-2.66.26c-.9.21-.49.89,1.31.82.24.09.34.15.11.29-.55.36-3.6.91-3.2-1.45S80.41,35,81,35.27a3.65,3.65,0,0,0-.52.09h0c-2.13.12-1.8.77-.88.64A5.43,5.43,0,0,0,82,35.94Z"/><path class="cls-23" d="M70.2,43.49l9.66,6.26-.5.14c-1.23.36-2.43.94-3.72,1.26s-2.6.37-3.89.66-2.55.77-3.82,1-2.64.2-3.91.39c-1.06.14-2.09.44-3.11.61l8.93-10.31ZM70,50.69c1,1.27,4.87-1.59,2.62-1.39C72,49.36,69.05,49.4,70,50.69Zm-.22-4.55a.58.58,0,0,0,.49-.64.6.6,0,0,0-.71-.4.59.59,0,0,0-.49.66A.57.57,0,0,0,69.82,46.14Zm-2.93,5.1a.55.55,0,0,0,.44-.64.56.56,0,0,0-1.1.23A.55.55,0,0,0,66.89,51.24Z"/><path class="cls-23" d="M78.89,33,70,43.34l-7.66-5c.89-.54,1.4-1.28.22-1.18a13.61,13.61,0,0,0-1.74.19L60.24,37,60.5,37c1.24-.36,2.44-.94,3.73-1.26s2.59-.38,3.89-.66,2.55-.77,3.82-1,2.64-.2,3.91-.39C76.89,33.49,77.89,33.21,78.89,33Zm-4,2.62a.54.54,0,1,0-.67-.41A.56.56,0,0,0,74.94,35.66ZM67.51,39.3c1.61.16,4.81-.94,4.71-2.18S70.14,35.5,68,36.7,64.48,39,67.51,39.3ZM71,40.52l-.06-.13s-1.47-1-1.17-.08c0,0-1.63-.19-.92.52,0,0-.62.2-.62.52s.88.31.88.31c.06.56,1-.07,1-.07C69.92,42.1,70.72,41.87,71,40.52Z"/><path class="cls-21" d="M80.27,30.31c-1.11.29-1.5.86-1.61,1.39a20.7,20.7,0,0,1-2.11.41c-1.42.19-2.92.1-4.38.36s-3,.89-4.45,1.2-3,.34-4.35.7A33.63,33.63,0,0,0,60,35.62c-.26-.48-.8-.84-1.82-.61h0c.36-.08.72-.17,1.08-.28,1.32-.39,2.59-1.06,4-1.41s3.2-.47,4.59-.77,2.73-.87,4.1-1.11,2.84-.17,4.21-.35S78.9,30.44,80.27,30.31Z"/><path class="cls-22" d="M78.66,31.7A2.24,2.24,0,0,0,78.89,33c-1,.17-2,.45-3,.6-1.27.19-2.6.15-3.91.39s-2.52.73-3.82,1-2.64.34-3.89.66-2.49.9-3.73,1.26l-.26.07A2.63,2.63,0,0,0,60,35.62a33.63,33.63,0,0,1,3.41-1.25c1.4-.36,2.89-.39,4.35-.7s3-1,4.45-1.2,3-.17,4.38-.36A20.7,20.7,0,0,0,78.66,31.7Z"/><path class="cls-24" d="M76.64,44.2s.86.21.85.55-.79.4-.79.4c.57.93-1.11.31-1.11.31.07,1.1-1.22-.4-1.22-.4l0-.15c.64-1.36,1.55-1.4,1.28-.88C75.62,44,76.73,43.59,76.64,44.2Z"/><path class="cls-27" d="M75.38,35a.57.57,0,0,1-.44.65.54.54,0,1,1,.44-.65Z"/><path class="cls-29" d="M72.66,49.3C74.91,49.1,71,52,70,50.69S72,49.36,72.66,49.3Z"/><path class="cls-29" d="M72.22,37.12c.1,1.24-3.1,2.34-4.71,2.18-3-.3-1.76-1.4.44-2.6S72.14,35.88,72.22,37.12Z"/><path class="cls-24" d="M70.93,40.39l.06.13c-.27,1.35-1.07,1.58-.94,1.07,0,0-.89.63-1,.07,0,0-.81,0-.88-.31s.62-.52.62-.52c-.71-.71.92-.52.92-.52C69.46,39.34,70.93,40.39,70.93,40.39Z"/><path class="cls-27" d="M70.31,45.5a.58.58,0,0,1-.49.64.57.57,0,0,1-.71-.38.59.59,0,0,1,.49-.66A.6.6,0,0,1,70.31,45.5Z"/><path class="cls-23" d="M70,43.34l-.11.12-.13,0-4.19.23a2.41,2.41,0,0,0,.66-1.16c.63-2.47-3.49-1.61-4.24-1.2-.3.17-.18.24.12.29a3.46,3.46,0,0,1,1.74.73s-2.78.3-3.57.52,0,1,0,1a9.75,9.75,0,0,1,3.24-.3.34.34,0,0,1-.13.27L41.89,45a8.48,8.48,0,0,1,.71-.58A36.66,36.66,0,0,1,46,42.64c1.06-.58,2.09-1.36,3.35-1.92s2.44-.79,3.71-1.28,2.31-1.12,3.6-1.55c1.12-.37,2.35-.53,3.56-.86l.56.36c-.8.17-1.42.5-.88,1.2s1.59.28,2.4-.21ZM58.75,42.4a.63.63,0,0,0,.55-.67.62.62,0,0,0-.78-.39.56.56,0,1,0,.23,1.06Zm-5.65.72c.92-.37,5.19-1.72.94-2.55S50.12,44.33,53.1,43.12Z"/><path class="cls-23" d="M69.84,43.51,60.91,53.82a6.49,6.49,0,0,1-.77.11c-1.34.14-2.65,0-3.9.08s-2.68.37-3.91.38-2.64-.29-3.84-.38a36.65,36.65,0,0,1-3.87-.24A8.4,8.4,0,0,1,43,53.26l26.79-9.75Zm-7.46,4.85c1.47.64,2.15-1.81.8-1.31C62.77,47.21,60.9,47.73,62.38,48.36Zm-3.82,2.83c2.7-.54,4.1-1.58,2.16-2.09s-3.91-.65-5.47.84C54.42,50.73,55.86,51.72,58.56,51.19Zm-6.07,1c0-.43-1.09-.7-1.09-.7.11-.78-1.3-.22-1.3-.22.36-.66-.8-.6-1.61,1.12l0,.19s1.63,1.9,1.54.51c0,0,2.13.79,1.41-.39C51.48,52.7,52.39,52.62,52.49,52.19Z"/><path class="cls-23" d="M69.74,43.51,43,53.26c-.44-.18-.84-.37-1.22-.56l-.53-.27c-1.27-.63-2.28-1.29-2.49-2.26s.44-2,1.34-3.08A15.78,15.78,0,0,1,41.89,45l21.43-1.18a2.69,2.69,0,0,1-1.08.47h0c-.37.1-.69.15-.69.15.6.2,2.84.44,4-.74ZM52.8,47.39c.7,0,3.6-.08,2.63-1.37S50.54,47.57,52.8,47.39Zm-3.56.85c.82-.24,0-1.34,0-1.34a7.84,7.84,0,0,1-3.43.1c0-.5.68-.77,1.27-.92h0a5.35,5.35,0,0,1,.74-.13c-.8-.41-4.33-1.18-4.91,2.18s3.78,2.57,4.55,2.07c.32-.2.19-.29-.13-.41a3.75,3.75,0,0,1-1.88-1.17A29.76,29.76,0,0,0,49.24,48.24Z"/><path class="cls-27" d="M67.33,50.6a.56.56,0,0,1-1.1.23.56.56,0,0,1,1.1-.23Z"/><path class="cls-28" d="M62,41.38c.75-.41,4.87-1.27,4.24,1.2a2.41,2.41,0,0,1-.66,1.16l-1.21.07c.21-.2-.22-.33-.89-.22a9.75,9.75,0,0,0-3.24.3s-.73-.75,0-1,3.57-.52,3.57-.52c1.23-.3.7-1-1.74-.73C61.79,41.62,61.67,41.55,62,41.38Z"/><path class="cls-28" d="M64.34,43.81l1.21-.07c-1.18,1.18-3.42.94-4,.74,0,0,.32,0,.69-.15h0A4.67,4.67,0,0,0,64.34,43.81Z"/><path class="cls-25" d="M63.18,47.05c1.35-.5.67,2-.8,1.31S62.77,47.21,63.18,47.05Z"/><path class="cls-25" d="M62.54,37.2c1.18-.1.67.64-.22,1.18l-1.52-1A13.61,13.61,0,0,1,62.54,37.2Z"/><path class="cls-25" d="M60.8,37.39l1.52,1c-.81.49-1.93.82-2.4.21S60,37.56,60.8,37.39Z"/><path class="cls-2" d="M60.72,49.1c1.94.51.54,1.55-2.16,2.09s-4.14-.46-3.31-1.25C56.81,48.45,58.79,48.59,60.72,49.1Z"/><path class="cls-22" d="M60,35.62A2.63,2.63,0,0,1,60.24,37c-1.21.33-2.44.49-3.56.86-1.29.43-2.42,1.1-3.6,1.55s-2.58.77-3.71,1.28S47.08,42.06,46,42.64a36.66,36.66,0,0,0-3.42,1.82,8.48,8.48,0,0,0-.71.58,1.48,1.48,0,0,0-.73-1.17c.62-.4,1.29-.79,2-1.23,1.17-.71,2.3-1.68,3.69-2.36,1.24-.62,2.72-.92,4.12-1.5s2.55-1.36,4-1.87,2.84-.62,4.27-1Z"/><path class="cls-21" d="M59.91,57.72l-.43.05c-1.51.13-3-.1-4.39-.05s-3,.38-4.39.33-3-.47-4.32-.63A35.46,35.46,0,0,1,42,57a9.67,9.67,0,0,1-2.44-1h0a2.35,2.35,0,0,1-.31-2.78,12.54,12.54,0,0,0,3.27,1.46,37.66,37.66,0,0,0,4.19.41c1.3.14,2.67.52,4.15.56s2.75-.28,4.22-.34c1.17,0,2.38.1,3.62.06A1.92,1.92,0,0,0,59.91,57.72Z"/><path class="cls-21" d="M60,35.62l-.72.24c-1.43.43-2.93.58-4.27,1s-2.67,1.32-4,1.87-2.88.88-4.12,1.5c-1.39.68-2.52,1.65-3.69,2.36-.74.44-1.41.83-2,1.23a2.36,2.36,0,0,0-2,.18l.92-.77a34.87,34.87,0,0,1,3.64-2.1C44.88,40.51,46,39.6,47.3,39s2.62-.88,4-1.43,2.46-1.29,3.83-1.77a30.49,30.49,0,0,1,3-.74h0C59.16,34.78,59.7,35.14,60,35.62Z"/><path class="cls-5" d="M59.3,41.73a.63.63,0,0,1-.55.67.56.56,0,1,1,.55-.67Z"/><path class="cls-22" d="M56.24,54c1.25-.08,2.56.06,3.9-.08a2.21,2.21,0,0,0-1.41,1.39c-1.24,0-2.45-.1-3.62-.06-1.47.06-2.88.37-4.22.34S48,55.18,46.74,55a37.66,37.66,0,0,1-4.19-.41,12.54,12.54,0,0,1-3.27-1.46,2.06,2.06,0,0,1,2.45-.47c.38.19.78.38,1.22.56a8.4,8.4,0,0,0,1.67.51,36.65,36.65,0,0,0,3.87.24c1.2.09,2.46.38,3.84.38S54.88,54.09,56.24,54Z"/><path class="cls-29" d="M55.43,46c1,1.29-1.93,1.32-2.63,1.37C50.54,47.57,54.45,44.73,55.43,46Z"/><path class="cls-2" d="M54,40.57c4.25.83,0,2.18-.94,2.55C50.12,44.33,49.79,39.73,54,40.57Z"/><path class="cls-24" d="M51.4,51.49s1.1.27,1.09.7-1,.51-1,.51c.72,1.18-1.41.39-1.41.39.09,1.39-1.54-.51-1.54-.51l0-.19c.81-1.72,2-1.78,1.61-1.12C50.1,51.27,51.51,50.71,51.4,51.49Z"/><path class="cls-28" d="M49.26,46.9s.8,1.1,0,1.34a29.76,29.76,0,0,1-3.77.38c-1.29.29-.7,1.26,1.88,1.17.32.12.45.21.13.41-.77.5-5.11,1.28-4.55-2.07S47,45.54,47.84,46a5.35,5.35,0,0,0-.74.13h0c-3,.17-2.58,1.09-1.27.92A7.84,7.84,0,0,0,49.26,46.9Z"/><path class="cls-5" d="M47.35,49.79c-2.58.09-3.17-.88-1.88-1.17A3.75,3.75,0,0,0,47.35,49.79Z"/><path class="cls-22" d="M41.2,52.43l.53.27a2.06,2.06,0,0,0-2.45.47c-.15-.1-.31-.18-.45-.27-1.39-.8-2-1.46-2.27-2.63A4.24,4.24,0,0,1,37,48.22,9.25,9.25,0,0,1,39.7,44.9a12.74,12.74,0,0,1,1.46-1A1.48,1.48,0,0,1,41.89,45a15.78,15.78,0,0,0-1.84,2.05c-.9,1.1-1.55,2.12-1.34,3.08S39.93,51.8,41.2,52.43Z"/><path class="cls-21" d="M39.18,44.05a2.36,2.36,0,0,1,2-.18,12.74,12.74,0,0,0-1.46,1A9.25,9.25,0,0,0,37,48.22a4.24,4.24,0,0,0-.43,2.05c.26,1.17.88,1.83,2.27,2.63.14.09.3.17.45.27A2.35,2.35,0,0,0,39.59,56c-.52-.29-1-.59-1.45-.85a7.07,7.07,0,0,1-2.56-2.2,2.69,2.69,0,0,1-.19-.38h0a2.13,2.13,0,0,1-.13-.43C35,50.17,34.68,48,39.18,44.05Z"/><path d="M102.09,187.71a16.58,16.58,0,0,0,2.67.94,18.68,18.68,0,0,0,2.78.53,15.92,15.92,0,0,0,5.63-.29l0,.06a8.06,8.06,0,0,1-1.36.55,11.72,11.72,0,0,1-1.43.3,11.13,11.13,0,0,1-2.94,0,12,12,0,0,1-2.84-.68,9.22,9.22,0,0,1-2.56-1.39Z"/><path class="cls-30" d="M112.62,184.29s1.21,2.25,4.2.66a76.52,76.52,0,0,0,1.31-17,64.38,64.38,0,0,0-8.86-6A113.52,113.52,0,0,1,112.62,184.29Z"/><g class="cls-31"><path class="cls-32" d="M112.69,184.26a2.54,2.54,0,0,0,1.91,1.17,4,4,0,0,0,2.25-.52l0,.06a2.25,2.25,0,0,1-1,.87,2.48,2.48,0,0,1-1.36.25,2.26,2.26,0,0,1-1.3-.57,1.68,1.68,0,0,1-.59-1.22Z"/></g><g class="cls-31"><path class="cls-32" d="M116.59,152.31a98.4,98.4,0,0,1,1.81,17.13,85.39,85.39,0,0,1-.39,8.61,57,57,0,0,1-1.42,8.51l-.2-.05,0-8.6c0-1.42,0-2.82,0-4.23s0-2.82,0-4.22,0-2.82-.05-4.23-.07-2.82,0-4.24c0-2.84-.08-5.7.09-8.65Z"/></g><path class="cls-33" d="M116.62,152.3a30.83,30.83,0,0,1,3,8.35,41.73,41.73,0,0,1,1,8.77,40.16,40.16,0,0,1-.86,8.8,25.28,25.28,0,0,1-3.13,8.35l-.26-.07a42.38,42.38,0,0,0,.78-4.22c.21-1.41.38-2.83.5-4.26a84.72,84.72,0,0,0,.3-8.58q0-4.29-.44-8.57c-.13-1.43-.3-2.85-.5-4.27s-.4-2.84-.64-4.25Z"/><path class="cls-6" d="M107.16,155a21.81,21.81,0,0,1,4.08,6.64,35.41,35.41,0,0,1,2.11,7.37,39.51,39.51,0,0,1,.61,7.6,27,27,0,0,1-1.16,7.65h-.27c-.07-1.23-.18-2.48-.31-3.71s-.24-2.48-.38-3.71q-.45-3.71-1.12-7.37c-.42-2.45-.92-4.89-1.55-7.29-.31-1.2-.65-2.39-1-3.58s-.77-2.35-1.23-3.51Z"/><g class="cls-31"><path class="cls-32" d="M116.47,94.58a9.92,9.92,0,0,1-4.2-.84,12.7,12.7,0,0,1-1.93-1,15.08,15.08,0,0,1-1.73-1.37,12.34,12.34,0,0,1-1.43-1.71,9.67,9.67,0,0,1-1-2,7.51,7.51,0,0,1-.3-4.34H106a11,11,0,0,0,1.11,3.88,12,12,0,0,0,2.44,3.22,16.05,16.05,0,0,0,3.24,2.43,18.19,18.19,0,0,0,3.73,1.63Z"/></g><path class="cls-34" d="M116.48,94.55a19.23,19.23,0,0,1-3.77-1.6,16.08,16.08,0,0,1-3.31-2.42A11.71,11.71,0,0,1,107,87.24a10.86,10.86,0,0,1-1.08-3.95H106a15,15,0,0,0,.62,1.93,11.73,11.73,0,0,0,.85,1.79,14.31,14.31,0,0,0,2.43,3A19.57,19.57,0,0,0,113,92.49a33.51,33.51,0,0,0,3.53,2Z"/><g class="cls-31"><path class="cls-32" d="M105.05,83c-.24,1.51-.44,3-.57,4.57a26.09,26.09,0,0,0-.08,4.59h0a78.92,78.92,0,0,0-1.63,8.35c-.4,2.81-.68,5.64-.84,8.47a79.65,79.65,0,0,0,.82,17h-.06a54.5,54.5,0,0,1-1.25-8.45c-.11-1.42-.19-2.85-.21-4.28s0-2.86.09-4.28.15-2.86.28-4.28.34-2.84.55-4.25a64,64,0,0,1,1.8-8.39v.16a16.74,16.74,0,0,1,0-2.35c0-.78.12-1.55.23-2.32.21-1.53.46-3,.81-4.55Z"/></g><path class="cls-33" d="M105,83c-.18,1.52-.32,3-.4,4.58a28.89,28.89,0,0,0,0,4.56v.11c-.64,2.74-1.15,5.54-1.54,8.33-.2,1.4-.35,2.81-.49,4.21s-.27,2.82-.35,4.23-.14,2.82-.15,4.24,0,2.82,0,4.24c.09,2.82.25,5.66.6,8.48h0a79.79,79.79,0,0,1-.86-17c.14-2.83.42-5.66.84-8.47a76.71,76.71,0,0,1,1.65-8.36h0a27.29,27.29,0,0,1,.1-4.61c.14-1.53.33-3,.58-4.57Z"/><g class="cls-31"><path class="cls-32" d="M96.33,91.75a17.16,17.16,0,0,0,2.59-1.51,17,17,0,0,0,2.29-1.93,11,11,0,0,0,3.07-5l.13,0a5.59,5.59,0,0,1-.42,3.25A8.36,8.36,0,0,1,103.2,88a10.79,10.79,0,0,1-1,1.26,13.51,13.51,0,0,1-1.24,1,10.19,10.19,0,0,1-1.39.8,7.13,7.13,0,0,1-3.13.77Z"/></g><path class="cls-12" d="M96.35,91.78c.82-.61,1.59-1.24,2.36-1.85s1.49-1.26,2.17-2a20.64,20.64,0,0,0,1.9-2.17,11.14,11.14,0,0,0,.8-1.22c.28-.41.49-.86.74-1.31h.06a11.08,11.08,0,0,1-3,5.16A17.12,17.12,0,0,1,99,90.36a17.5,17.5,0,0,1-2.64,1.48Z"/><path class="cls-6" d="M95.89,71.68a8.88,8.88,0,0,1-4-.39,10.87,10.87,0,0,1-1.87-.78,14.32,14.32,0,0,1-1.7-1.13A14,14,0,0,1,86.9,68a10.54,10.54,0,0,1-1.15-1.67,7.55,7.55,0,0,1-1.07-3.87l.12,0a12.45,12.45,0,0,0,1.79,3.28,14.1,14.1,0,0,0,2.61,2.68,16.3,16.3,0,0,0,6.72,3.21Z"/><path class="cls-6" d="M92.5,92.78a47.57,47.57,0,0,1-6.19-5.59,51.85,51.85,0,0,1-5.18-6.54,40.58,40.58,0,0,1-6.21-15.38l.13,0c.5,1.32.91,2.63,1.48,3.89s1.08,2.51,1.67,3.74,1.22,2.42,1.91,3.58,1.37,2.34,2.13,3.46,1.52,2.24,2.34,3.33,1.66,2.15,2.51,3.22,1.75,2.1,2.67,3.13,1.86,2,2.82,3.07Z"/><path class="cls-35" d="M92.64,92.88c.24-.56.54-1.16.81-1.7l0,0v0c.12-2.44.34-4.88.68-7.3.18-1.21.39-2.42.67-3.61A15.45,15.45,0,0,1,96,76.75l-.18-.09A13.31,13.31,0,0,0,94,80a31.37,31.37,0,0,0-1.1,3.62c-.15.6-.29,1.22-.42,1.83l-.33,1.84c-.18,1.1-.34,2.19-.44,3.31-.21.38-.4.73-.58,1.09Z"/><path class="cls-6" d="M96,76.77a21.3,21.3,0,0,0-.44,3.62c-.08,1.2-.09,2.41-.13,3.61,0,.6,0,1.21,0,1.81l0,1.81v3.92l-.25.59c-.21.47-.46,1.08-.66,1.65l-.62,1.74c-.41,1.17-.77,2.36-1.07,3.56s-.63,2.4-.85,3.61c-.12.6-.21,1.21-.3,1.82s-.2,1.22-.27,1.83c-.15,1.22-.21,2.45-.28,3.69s0,2.47,0,3.73c0,.62.1,1.25.17,1.88s.14,1.27.25,1.9c.19,1.27.46,2.55.76,3.86l-.24.12a26.82,26.82,0,0,1-2.63-7.44,31.61,31.61,0,0,1-.51-7.89,39.56,39.56,0,0,1,1.28-7.8A38.8,38.8,0,0,1,93.1,91l0,.11c.14-2.46.38-4.91.75-7.34a34.76,34.76,0,0,1,.72-3.63,15.08,15.08,0,0,1,1.25-3.48Z"/><g class="cls-31"><path class="cls-36" d="M73.75,65.54c2-.59,4-1.17,6.06-1.73s4.07-1,6.12-1.47l0,.13a13,13,0,0,1-2.84,1.6c-.48.23-1,.39-1.47.58s-1,.3-1.5.45-1,.25-1.53.35-1,.19-1.57.23a12.72,12.72,0,0,1-3.26,0Z"/></g><path class="cls-6" d="M72.49,60.7c.33.79.6,1.59.9,2.38s.53,1.6.8,2.41l-.54-.31c1-.35,2-.66,3-1l3-.87,3.06-.73c1-.25,2-.48,3.09-.65l-.29.62L85,61.42c-.16-.4-.34-.79-.49-1.19-.31-.81-.64-1.6-.91-2.42l.06,0L86,62.38l0,.06H86c-2,.49-4.07,1-6.09,1.56s-4.06,1.07-6.08,1.64h0v0l-1.3-4.89Z"/><path class="cls-33" d="M132.18,74.33a5.72,5.72,0,0,0-1.79,1.5,10.41,10.41,0,0,0-1.3,2,16.86,16.86,0,0,0-1.48,4.5,36.35,36.35,0,0,0-.53,9.49H127A17,17,0,0,1,126,87a20.35,20.35,0,0,1,0-2.47A23.37,23.37,0,0,1,126.3,82a19.18,19.18,0,0,1,.7-2.43,13,13,0,0,1,1.16-2.29,8.72,8.72,0,0,1,1.69-1.95,4.9,4.9,0,0,1,2.29-1.16Z"/><g class="cls-31"><path class="cls-32" d="M101.23,80.43a7.09,7.09,0,0,1-2.5-1.21,8.26,8.26,0,0,1-1-.91,2.66,2.66,0,0,1-.77-1.22l0,0a3.86,3.86,0,0,0,1,.93c.36.28.73.55,1.1.81.73.54,1.48,1.07,2.23,1.58Z"/></g><path class="cls-37" d="M101.23,80.42c-.76-.5-1.52-1-2.26-1.54-.37-.27-.73-.54-1.09-.83a3.81,3.81,0,0,1-1-1h0a2.38,2.38,0,0,0,.53.4c.18.13.37.25.56.37.39.24.75.52,1.13.76s.72.54,1.07.84a10,10,0,0,1,1,1Z"/><g class="cls-31"><path class="cls-32" d="M133,74.16c-.94.28-1.88.56-2.79.91s-1.84.65-2.73,1-1.8.74-2.67,1.17-1.81.83-2.73,1.19a35.85,35.85,0,0,1-5.75,1.62,29.33,29.33,0,0,1-3,.34,14.83,14.83,0,0,1-3-.18v-.06a22.48,22.48,0,0,0,5.84-.61,41,41,0,0,0,5.62-1.73c1.84-.68,3.59-1.59,5.46-2.23A33.87,33.87,0,0,1,133,74.09Z"/></g><path class="cls-37" d="M133,74.16a32.17,32.17,0,0,0-5.67,1.55c-1.85.64-3.6,1.56-5.44,2.25a40,40,0,0,1-5.65,1.71,22.22,22.22,0,0,1-5.86.57v-.06a21.43,21.43,0,0,0,2.91-.38,27.73,27.73,0,0,0,2.84-.64,46.9,46.9,0,0,0,5.52-1.82c.92-.33,1.8-.69,2.71-1.08a25.43,25.43,0,0,1,2.8-1c1-.29,1.91-.55,2.88-.75a21.07,21.07,0,0,1,2.95-.38Z"/><g class="cls-31"><path class="cls-32" d="M128.51,71.64a13.36,13.36,0,0,1-2.15,1.82c-.78.52-1.6,1-2.42,1.44A35.61,35.61,0,0,1,118.73,77a45.1,45.1,0,0,1-5.47,1.26c-.92.14-1.85.26-2.78.36s-1.86.14-2.79.13v-.07a63.91,63.91,0,0,0,10.85-2.32,40.63,40.63,0,0,0,5.19-2,21.67,21.67,0,0,0,4.74-2.84Z"/></g><path class="cls-38" d="M128.51,71.64a22.14,22.14,0,0,1-4.75,2.88,41.8,41.8,0,0,1-5.19,2,64.31,64.31,0,0,1-10.88,2.26v-.07c.9-.24,1.81-.43,2.7-.67s1.8-.42,2.69-.66c1.78-.47,3.56-.91,5.3-1.5a50.39,50.39,0,0,0,5.17-1.83c.85-.34,1.69-.71,2.5-1.13a19,19,0,0,0,2.42-1.33Z"/><path class="cls-6" d="M111,50.17c1.88-4.55,3.86-9.05,6-13.49,1.09-2.21,2.22-4.4,3.42-6.55a51.34,51.34,0,0,1,4-6.24l.11.08c-1.1,2.24-2.11,4.45-3.15,6.66-.5,1.12-1,2.21-1.56,3.32l-1.58,3.31-1.63,3.29c-.57,1.08-1.1,2.19-1.7,3.26a72.71,72.71,0,0,1-3.74,6.41Z"/><g class="cls-31"><path class="cls-39" d="M126.67,57.47a11.05,11.05,0,0,1-1.4.36c-.48.07-1,.11-1.44.14a14.86,14.86,0,0,1-2.9-.22,17.7,17.7,0,0,1-2.77-.84c-.44-.2-.87-.4-1.3-.62s-.83-.48-1.22-.77l0-.05A22.17,22.17,0,0,0,121,57.26a16.89,16.89,0,0,0,5.63.16Z"/></g><path class="cls-40" d="M126.67,57.47a16.81,16.81,0,0,1-5.66-.12,21.84,21.84,0,0,1-5.37-1.83l0-.05,1.38.39c.45.14.9.27,1.35.38a25.85,25.85,0,0,0,2.71.62,21.44,21.44,0,0,0,2.75.4c.46.05.92.08,1.39.1s.94,0,1.42.06Z"/><path class="cls-41" d="M126.69,57.42a3.45,3.45,0,0,1,.55,1.22,7.26,7.26,0,0,1,.19,1.31,11.67,11.67,0,0,1-.28,2.64h-.06a6.35,6.35,0,0,1-.25-1.35c0-.43-.06-.84-.08-1.25l0-1.22a12.19,12.19,0,0,0-.09-1.29Z"/><path class="cls-42" d="M114.37,56.08a7.69,7.69,0,0,0-2.57,2.69,5.44,5.44,0,0,0-.61,1.75,9.08,9.08,0,0,0-.08,1.88H111a3.34,3.34,0,0,1-.84-2.06,4,4,0,0,1,.49-2.21,4.08,4.08,0,0,1,1.54-1.62,3.37,3.37,0,0,1,2.12-.55Z"/><path class="cls-41" d="M114.35,56.05c-.41.54-.82,1-1.18,1.48a10.78,10.78,0,0,0-1,1.46,8.58,8.58,0,0,0-.66,1.59c-.18.56-.3,1.17-.47,1.82H111a7.63,7.63,0,0,1,0-1.91,5.4,5.4,0,0,1,.6-1.83A7.56,7.56,0,0,1,114.31,56Z"/><path class="cls-43" d="M108.54,79.41a3.17,3.17,0,0,1,2.41.5,5.53,5.53,0,0,1,1.68,1.9,17.43,17.43,0,0,1,1.57,4.35l.47,2.14c.13.71.31,1.39.46,2.08a20.26,20.26,0,0,0,1.41,4.09l-.1.09a11.15,11.15,0,0,1-2.29-3.81,37.87,37.87,0,0,1-1.25-4.27,26.46,26.46,0,0,0-1.23-4.24,5.45,5.45,0,0,0-1.2-1.81,3.38,3.38,0,0,0-2-.89Z"/><g class="cls-31"><path class="cls-32" d="M105,83a2.18,2.18,0,0,0,1.83.07,3.58,3.58,0,0,0,1.1-1.52,7.94,7.94,0,0,0,.46-.85,1.82,1.82,0,0,0,.1-.92,1.29,1.29,0,0,0-1.35-1v-.1a1.45,1.45,0,0,1,1.2-.07,1.66,1.66,0,0,1,.93,1.07,2.32,2.32,0,0,1,0,1.38,1.66,1.66,0,0,1-.12.31,2.68,2.68,0,0,1-.14.29,3.1,3.1,0,0,0-.21.4,10,10,0,0,1-.55.89,2.51,2.51,0,0,1-1,.86,1.88,1.88,0,0,1-1.36,0,2.24,2.24,0,0,1-.9-.69Z"/></g><path class="cls-12" d="M105,83a2.27,2.27,0,0,0,1.57-.39,6.74,6.74,0,0,0,.77-1.39c.08-.14.2-.33.28-.45l.09-.15.08-.14a2,2,0,0,0,.19-.61.93.93,0,0,0-.13-.59,1.62,1.62,0,0,0-.7-.54v-.09a1.64,1.64,0,0,1,1,.26,1.29,1.29,0,0,1,.54.84,2,2,0,0,1-.09,1,6.61,6.61,0,0,1-.46.88,3.6,3.6,0,0,1-1.19,1.57,2.24,2.24,0,0,1-1.94-.12Z"/><g class="cls-31"><path class="cls-32" d="M105,83a2.8,2.8,0,0,0,.58-1c.13-.38.25-.77.38-1.16a9.54,9.54,0,0,1,.49-1.14,3.44,3.44,0,0,1,.72-1l.06.08a10,10,0,0,1-.07,1.3,6.52,6.52,0,0,1-.25,1.1,4.18,4.18,0,0,1-.59,1.12,2.49,2.49,0,0,1-.5.53,1.28,1.28,0,0,1-.75.3Z"/></g><path class="cls-44" d="M141.4,33.25a61.44,61.44,0,0,0-4.21,5.69c-1.31,2-2.54,4-3.72,6s-2.35,4.11-3.46,6.2-2.2,4.19-3.25,6.31l-.18-.09a32,32,0,0,1,2-7c.42-1.12,1-2.19,1.45-3.28S131.17,45,131.74,44s1.25-2,1.93-3,1.39-2,2.19-2.88a23.27,23.27,0,0,1,5.39-4.93Z"/><path class="cls-45" d="M122,27.54A7.76,7.76,0,0,0,123.53,30,9.17,9.17,0,0,0,126.1,32a12.33,12.33,0,0,0,2.65,1,21.89,21.89,0,0,0,5,.62c.81,0,1.62,0,2.42,0l1-.08.46.43c.51.46,1,.91,1.59,1.34l.24.18,2-2.46a31.25,31.25,0,0,1-3-2.74l-.11-.12-.16,0a28.29,28.29,0,0,1-4.32.2,19.08,19.08,0,0,1-4.27-.56,7.64,7.64,0,0,1-3.65-2,5.43,5.43,0,0,1-1.54-3.93Z"/><path class="cls-46" d="M124.54,23.94a5.91,5.91,0,0,0,.4,2.07,4.49,4.49,0,0,0,1.14,1.63,7.21,7.21,0,0,0,3.64,1.63,18.71,18.71,0,0,0,4.17.25,35.06,35.06,0,0,0,4.16-.45l.61-.11.56.52A26.52,26.52,0,0,0,145,33.64a8.48,8.48,0,0,0,3,1,2.76,2.76,0,0,0,2.16-.64,3.38,3.38,0,0,0,.41-.43l.1-.13.11-.14c.11-.16.12-.2.19-.29A3.3,3.3,0,0,0,151,29.5a9.53,9.53,0,0,0-1.89-2.4,15,15,0,0,0-1.26-1.1c-.22-.17-.44-.34-.67-.5s-.48-.33-.65-.43L145,24.13l.66-1.83.13-.36.14-.43c.08-.29.15-.59.21-.89a9.45,9.45,0,0,0,.17-1.72,3.82,3.82,0,0,0-.88-2.6,4.89,4.89,0,0,0-2.61-1.39,14.51,14.51,0,0,0-3.8-.33l-2.2.05-.09-2.32v-.17l0-.27a5.12,5.12,0,0,0-.1-.54,5,5,0,0,0-.34-1,4,4,0,0,0-1.22-1.53,6.8,6.8,0,0,0-4.53-1,6.33,6.33,0,0,0-4.3,1.64,4.82,4.82,0,0,0-1.11,1.94,6,6,0,0,0-.24,1.21c0,.21,0,.42,0,.63s0,.45,0,.55l.12,2.4-2.15-.54a9.4,9.4,0,0,0-5.12-.08A3.07,3.07,0,0,0,116,16.87a4,4,0,0,0-.45,1.1,5.61,5.61,0,0,0-.13.61c0,.12,0,.29,0,.36a2.71,2.71,0,0,0,0,.29,3.13,3.13,0,0,0,.8,2.21,5.68,5.68,0,0,0,2.29,1.44,15.84,15.84,0,0,0,2.89.7,20.53,20.53,0,0,0,3,.23h.14Zm-.25.12a17,17,0,0,1-6-.45,6.7,6.7,0,0,1-2.76-1.46,4.31,4.31,0,0,1-1.31-2.83,6.17,6.17,0,0,1,.58-3.08,4.51,4.51,0,0,1,2.31-2.12,8.31,8.31,0,0,1,3.07-.6,13.49,13.49,0,0,1,3.1.32L123,14a8.78,8.78,0,0,1,.2-3.15,6.57,6.57,0,0,1,4-4.63,10.46,10.46,0,0,1,3.07-.7,12.24,12.24,0,0,1,3.14.1,7.26,7.26,0,0,1,3,1.17,6.16,6.16,0,0,1,2,2.43,7.59,7.59,0,0,1,.73,3.11l-.24-.24a17.12,17.12,0,0,1,4.45.35,7.33,7.33,0,0,1,3.94,2.15,6.43,6.43,0,0,1,1.46,4.25,12,12,0,0,1-.89,4.39l-.09-.29a18.45,18.45,0,0,1,3,2.42,11.44,11.44,0,0,1,2.29,3.12,5.74,5.74,0,0,1,.46,3.85,5.91,5.91,0,0,1-.81,1.79,6.22,6.22,0,0,1-1.3,1.46,4.84,4.84,0,0,1-3.74,1,10.32,10.32,0,0,1-3.63-1.3,26.5,26.5,0,0,1-6-4.76l.14,0a29.41,29.41,0,0,1-4.4.21,19.64,19.64,0,0,1-4.38-.58,8,8,0,0,1-3.87-2.11,4.89,4.89,0,0,1-1.11-1.94A6.1,6.1,0,0,1,124.29,24.06Z"/><path class="cls-47" d="M103.26,79.54C102,80,101.71,81,101.32,82c-.15.53-.35,1.07-.49,1.65l-.52,1.72c-.21.58-.4,1.17-.63,1.75a18,18,0,0,1-.81,1.72,9.08,9.08,0,0,1-2.45,3l-.12-.07A28.74,28.74,0,0,0,99,85a22.64,22.64,0,0,1,1.35-3.45,5,5,0,0,1,1.12-1.5,2.55,2.55,0,0,1,1.75-.61Z"/><g class="cls-31"><path class="cls-32" d="M104.81,77.62a5.77,5.77,0,0,0-2,3.42,2.41,2.41,0,0,0,.33,1.87c.19.24.56.25.88.3A1.23,1.23,0,0,0,105,83l.07.07a1.33,1.33,0,0,1-1,.68,4.16,4.16,0,0,1-.6,0,.87.87,0,0,1-.42-.09,1.69,1.69,0,0,1-.41-.26,2.94,2.94,0,0,1-.73-2.56,5.48,5.48,0,0,1,.35-1.15,4.62,4.62,0,0,1,.63-1,3.57,3.57,0,0,1,1.9-1.2Z"/></g><path class="cls-43" d="M104.82,77.63a9.78,9.78,0,0,0-1,2.9,3.87,3.87,0,0,0,0,1.23,1.45,1.45,0,0,0,.11.39s0,0,0,0a.56.56,0,0,0-.23-.14,2.28,2.28,0,0,0,.48.1c.1,0,.08,0,0,.07.14,0,.37-.44.63-.9a5.56,5.56,0,0,1,2.26-2.66l.08.1a8,8,0,0,0-1.35,2.9,3.49,3.49,0,0,1-.77,1.49,1.34,1.34,0,0,1-.83.3,3.86,3.86,0,0,1-.84-.1,1.08,1.08,0,0,1-.65-.64,2.69,2.69,0,0,1-.18-.83,4.42,4.42,0,0,1,.25-1.65,6,6,0,0,1,1.88-2.67Z"/><path class="cls-48" d="M111.37,59.47c.28.4.48.79.73,1.08a1.53,1.53,0,0,0,.89.6,5.09,5.09,0,0,0,1.3,0l1.36-.09v.07l-1.33.36a5.86,5.86,0,0,1-1.41.16,2.07,2.07,0,0,1-.78-.19,1.33,1.33,0,0,1-.59-.56,2.2,2.2,0,0,1-.24-1.45Z"/><path class="cls-42" d="M127.14,62.69a2.79,2.79,0,0,0-1-.16,4.18,4.18,0,0,0-1.75.46l-.06-.12a3.37,3.37,0,0,1,1.8-1,3.2,3.2,0,0,1,1,0Z"/><path class="cls-42" d="M124.21,69.74H124a2.23,2.23,0,0,1-1.29-.44,1.57,1.57,0,0,1-.59-1.16,1.87,1.87,0,0,1,.3-1l.13,0a1.4,1.4,0,0,0,.52,1.57,2,2,0,0,0,1.7-.1,5.92,5.92,0,0,0,1-.56Z"/><path class="cls-35" d="M96.06,71.64a6.91,6.91,0,0,0-1.34,2.54,2.08,2.08,0,0,0,.12,1.35,2.23,2.23,0,0,0,1,1,7.87,7.87,0,0,0,2.78.72,39.82,39.82,0,0,0,5.88.2A36,36,0,0,0,116,75.11c.92-.35,1.82-.73,2.7-1.16a15.67,15.67,0,0,0,2.47-1.58,28.14,28.14,0,0,0,4.23-4.08l.16.12a21.56,21.56,0,0,1-3.74,4.8,16.31,16.31,0,0,1-2.51,2,29.9,29.9,0,0,1-2.75,1.43,31.42,31.42,0,0,1-5.84,2,33.27,33.27,0,0,1-12.31.49c-.32,0-.47-.07-.8-.14s-.57-.12-.86-.2A7.69,7.69,0,0,1,95,78a4,4,0,0,1-1.64-1.76,3.66,3.66,0,0,1-.14-2.4A6.36,6.36,0,0,1,94,72.13c.2-.3.41-.59.62-.86Z"/><path class="cls-43" d="M126.71,67.39a3.23,3.23,0,0,1,.86.83,4.89,4.89,0,0,1,.54,1.07,8.29,8.29,0,0,1,.5,2.32l-.14-.13a3.56,3.56,0,0,1,1.35.25,6.2,6.2,0,0,1,1.21.6,8.8,8.8,0,0,1,2,1.75l-.1.09c-.49-.14-.9-.33-1.32-.48-.2-.08-.4-.16-.6-.22a5.37,5.37,0,0,0-.56-.21c-.37-.12-.72-.24-1.06-.32l-.48-.1-.21,0h-.09s-.08,0,0,0l-1.23.12-.08-1.25-.07-1-.08-1c0-.34-.07-.69-.15-1a4.32,4.32,0,0,0-.36-1.11Z"/><path class="cls-33" d="M133.05,74a27.94,27.94,0,0,1,10,5.46l1.12.92c.36.32.7.65,1.05,1,.69.66,1.37,1.35,2,2A42.93,42.93,0,0,1,150.85,88a26.16,26.16,0,0,1,1.47,2.69,10.32,10.32,0,0,1,.62,1.68,4.24,4.24,0,0,1,.17,1.44,2.7,2.7,0,0,1-.13.7l0,.11-.06.16,0,0-.07.13a3.75,3.75,0,0,1-.33.56,9.82,9.82,0,0,1-1.09,1.32c-.36.38-.71.72-1.07,1.06a25.86,25.86,0,0,1-2.22,1.87,36.51,36.51,0,0,1-4.78,3.15,24.3,24.3,0,0,1-5.28,2.22l-.13-.23a41.57,41.57,0,0,0,4.54-3.13c1.45-1.12,2.86-2.31,4.21-3.57.67-.62,1.33-1.27,2-1.93a14.76,14.76,0,0,0,1.72-2.1,1.14,1.14,0,0,0,.22-.51,2,2,0,0,0-.09-.61,9.11,9.11,0,0,0-.49-1.24,23.45,23.45,0,0,0-1.37-2.37,50.26,50.26,0,0,0-7-8.47,47.57,47.57,0,0,0-4.14-3.63,38.12,38.12,0,0,0-4.54-3.13Z"/><g class="cls-31"><path class="cls-32" d="M92.28,121.44a18.43,18.43,0,0,0,6.13,3.12,29.37,29.37,0,0,0,6.75,1.34,44.15,44.15,0,0,0,13.7-1,31.4,31.4,0,0,0,12.42-5.57,16.55,16.55,0,0,0,4.48-5.09,9.7,9.7,0,0,0,1.24-6.61l.06,0a9.84,9.84,0,0,1-1,6.79,16.89,16.89,0,0,1-4.47,5.33,31.26,31.26,0,0,1-12.6,5.82,43.25,43.25,0,0,1-13.89.88,29.34,29.34,0,0,1-6.81-1.53,18.54,18.54,0,0,1-6.07-3.4Z"/></g><path class="cls-43" d="M92.28,121.44a18.72,18.72,0,0,0,6,3.38,30,30,0,0,0,6.8,1.5,43.3,43.3,0,0,0,13.85-.91,31,31,0,0,0,12.57-5.77,17,17,0,0,0,4.46-5.28,9.89,9.89,0,0,0,1-6.74l.06,0a10,10,0,0,1-.75,6.92,17.24,17.24,0,0,1-4.44,5.52,25.51,25.51,0,0,1-6,3.75,36.81,36.81,0,0,1-6.71,2.27,45.87,45.87,0,0,1-7,1,37,37,0,0,1-7.06-.19,30.59,30.59,0,0,1-6.86-1.69,18.88,18.88,0,0,1-6-3.66Z"/><path class="cls-49" d="M134.64,93.4a19.26,19.26,0,0,1-3.82-.62c-1.26-.33-2.52-.68-3.76-1.1l-.09.25a8.17,8.17,0,0,0,1.57,1.59,10.63,10.63,0,0,0,1.55,1.06c-.24.3-.48.6-.71.92a12.81,12.81,0,0,0-1.32,2.38,8.89,8.89,0,0,0-.7,2.76l.21.16a45.58,45.58,0,0,1,3.4-3.69,40.49,40.49,0,0,1,3.81-3.24l.57-.43Z"/><path class="cls-33" d="M127.05,91.71a18.45,18.45,0,0,1,2.08-.07c.34,0,.67,0,1,0s.65,0,1,0l1.88.11c.6,0,1.19.07,1.74.07h5.06l-4.12,3.25-1.85,1.45c-.62.51-1.3,1-1.94,1.46l-1,.71c-.33.25-.7.46-1,.7a22.44,22.44,0,0,1-2.28,1.34l-.16-.12a31,31,0,0,1,3.31-3.84,33.77,33.77,0,0,1,3.83-3.32l.1.35a20.58,20.58,0,0,1-3.9-.7A32.81,32.81,0,0,1,127,91.9Z"/><g class="cls-31"><path class="cls-36" d="M139,106a14.28,14.28,0,0,0-2.91-2,25.58,25.58,0,0,0-3.24-1.48,38.32,38.32,0,0,0-6.84-2l0-.13a11.34,11.34,0,0,1,3.72,0,13.92,13.92,0,0,1,1.82.35c.59.16,1.18.36,1.76.57s1.14.49,1.69.78a13.28,13.28,0,0,1,1.58,1,8,8,0,0,1,2.49,2.85Z"/></g><path class="cls-33" d="M123.58,107.53l2.39-7.12v0h0a39.36,39.36,0,0,1,6.89,1.92,27.38,27.38,0,0,1,3.24,1.53,14.91,14.91,0,0,1,2.92,2.08l0,0-.05,0-5.42,4.5,0,0c.82-.85,1.69-1.65,2.53-2.47l2.61-2.37,0,.67a17.45,17.45,0,0,0-2.85-1.9,26,26,0,0,0-3.18-1.44c-1.09-.43-2.2-.82-3.33-1.15s-2.27-.59-3.42-.86l.54-.32-1.35,3.5c-.49,1.16-1,2.33-1.48,3.47Z"/><g class="cls-31"><path class="cls-39" d="M133.6,110.48a20.72,20.72,0,0,0-2.5-.71l-2.47-.56c-.83-.21-1.66-.4-2.5-.67a17,17,0,0,1-2.52-1v-.1a34.45,34.45,0,0,1,5.24.75,18.58,18.58,0,0,1,2.53.8,7.43,7.43,0,0,1,2.28,1.36Z"/></g><path class="cls-33" d="M133.61,110.47a7.11,7.11,0,0,0-2.26-1.31,18.42,18.42,0,0,0-2.53-.76,35.32,35.32,0,0,0-5.21-.83v-.07a12.36,12.36,0,0,1,1.35-.14c.45,0,.9,0,1.35,0a15.18,15.18,0,0,1,2.67.37,11.54,11.54,0,0,1,2.56.92,5.2,5.2,0,0,1,2.11,1.75Z"/><g class="cls-31"><path class="cls-50" d="M124.47,107.65a16.42,16.42,0,0,0-2.3,4.88,7.44,7.44,0,0,0-.31,2.64,1.42,1.42,0,0,0,.52,1.08,1.33,1.33,0,0,0,1.18-.15l.11-.07,0,.13a1.82,1.82,0,0,0,1,1.09,1.65,1.65,0,0,0,1.42-.44l.1-.08,0,.12a1.56,1.56,0,0,0,.62.7,1.67,1.67,0,0,0,.93.23,3.93,3.93,0,0,0,1.86-.63l.07.12a3.45,3.45,0,0,1-1.92,1.16,2.26,2.26,0,0,1-1.36-.16,2.35,2.35,0,0,1-.63-.41,2.11,2.11,0,0,1-.25-.27,1.69,1.69,0,0,1-.24-.37l1.39.36a3.33,3.33,0,0,1-.92.65,2.13,2.13,0,0,1-1.45.14,2.64,2.64,0,0,1-1.22-.73,3.24,3.24,0,0,1-.68-1l1.64.62a3.93,3.93,0,0,1-1,.37,2.12,2.12,0,0,1-1.46-.2,2.06,2.06,0,0,1-.95-1.09,3.47,3.47,0,0,1-.23-1,7.36,7.36,0,0,1,.5-3.09,11.87,11.87,0,0,1,1.35-2.57,9.4,9.4,0,0,1,2-2.08Z"/></g><path class="cls-51" d="M124.45,107.64l-.5,1.27c-.16.43-.29.86-.44,1.28a23.61,23.61,0,0,0-.69,2.52,8.38,8.38,0,0,0-.21,2.38,2,2,0,0,0,.11.41c0,.09.07.1,0,.08s0,0,.06,0a1.16,1.16,0,0,0,.39-.14l.87-.44.36.91a2.2,2.2,0,0,0,.24.45.8.8,0,0,0,.27.24.55.55,0,0,0,.33,0,1.59,1.59,0,0,0,.54-.25l1.19-.78-.15,1.06a1.06,1.06,0,0,0,.12.25,1,1,0,0,0,.22.25,1.38,1.38,0,0,0,.67.3,4.25,4.25,0,0,0,1.88-.27l0,.08a4.11,4.11,0,0,1-1.92.68,1.92,1.92,0,0,1-1-.25,1.74,1.74,0,0,1-.7-.77l.11,0a2.62,2.62,0,0,1-.72.44,1.4,1.4,0,0,1-.86.05A1.56,1.56,0,0,1,124,117a2.62,2.62,0,0,1-.45-.73l.12,0a1.49,1.49,0,0,1-1.38.17,1.54,1.54,0,0,1-.63-1.26,7.72,7.72,0,0,1,.35-2.71,16.74,16.74,0,0,1,2.38-4.9Z"/><g class="cls-31"><path class="cls-50" d="M136.54,112.48a6.17,6.17,0,0,0-1.13.17c-.37.1-.73.21-1.1.33-.72.24-1.44.52-2.13.83l0-.06a3.2,3.2,0,0,1,.89-.87,4.57,4.57,0,0,1,1.06-.53,4,4,0,0,1,1.19-.21,2.37,2.37,0,0,1,1.25.27Z"/></g><g class="cls-31"><path class="cls-50" d="M129.82,117.21a.78.78,0,0,0,.18.5.57.57,0,0,0,.49.14,2.82,2.82,0,0,0,1-.47,13.49,13.49,0,0,0,1.78-1.52c1.13-1.08,2.16-2.27,3.2-3.45l.07.07a8,8,0,0,1-1,2.22,11,11,0,0,1-1.52,1.88,8,8,0,0,1-2,1.46,3,3,0,0,1-1.41.35,1,1,0,0,1-.81-.44.84.84,0,0,1,0-.74Z"/></g><path class="cls-51" d="M129.8,117.21a.8.8,0,0,0,.3.42.46.46,0,0,0,.36,0,3.15,3.15,0,0,0,.84-.56c.56-.48,1.11-1,1.65-1.55s1.1-1.07,1.69-1.59a17.21,17.21,0,0,1,1.87-1.49l.05,0c-1,1.21-2,2.4-3.14,3.51a14.68,14.68,0,0,1-1.83,1.51,2.66,2.66,0,0,1-1.09.47.64.64,0,0,1-.57-.18.85.85,0,0,1-.19-.57Z"/><g class="cls-31"><path class="cls-39" d="M133,109.93a2.55,2.55,0,0,1,.61,1.44,3.51,3.51,0,0,1-.13,1.51,3.33,3.33,0,0,1-.77,1.32,2.39,2.39,0,0,1-1.38.78l-.07-.06a6.59,6.59,0,0,0,1.27-2.34,8.15,8.15,0,0,0,.37-2.64Z"/></g><path class="cls-35" d="M107.94,157.42a18.73,18.73,0,0,0,7.71-2A19.69,19.69,0,0,0,124,147a26.83,26.83,0,0,0,2.9-11,36.61,36.61,0,0,0-1.13-11l-.26,0a44.1,44.1,0,0,1,0,10.77,27,27,0,0,1-3.32,10.16,18,18,0,0,1-7.65,7.26,16.83,16.83,0,0,1-7.65,1.65Z"/><path class="cls-52" d="M91.23,119A56.17,56.17,0,0,0,90,129.66,36.49,36.49,0,0,0,91.17,140,25.46,25.46,0,0,0,93,144.74a17.13,17.13,0,0,0,2.87,4,14.8,14.8,0,0,0,8.49,4.31,15.75,15.75,0,0,0,9.51-1.2,17.18,17.18,0,0,0,7.25-6.55,27.55,27.55,0,0,0,3.61-9.64,51.08,51.08,0,0,0,.8-10.67l.2,0a43.69,43.69,0,0,1,0,10.84,27.66,27.66,0,0,1-3.3,10.3,18.57,18.57,0,0,1-7.78,7.45A17.6,17.6,0,0,1,104.06,155a16.48,16.48,0,0,1-9.53-5,21,21,0,0,1-4.89-9.62,35.08,35.08,0,0,1-.73-10.81A47.41,47.41,0,0,1,91,119Z"/><g class="cls-31"><path class="cls-32" d="M90.38,121.79A9.05,9.05,0,0,0,93,124.23a20,20,0,0,0,3.17,1.68,31.07,31.07,0,0,0,6.88,2,38.9,38.9,0,0,0,14.27-.24,35,35,0,0,0,13.12-5.57,21,21,0,0,0,5.2-4.87,9.67,9.67,0,0,0,1.54-3.2,7.27,7.27,0,0,0,0-3.53l.13,0a7.62,7.62,0,0,1,.39,1.79,7.81,7.81,0,0,1-.11,1.87,10.52,10.52,0,0,1-1.39,3.5,21.69,21.69,0,0,1-5.19,5.32,32.38,32.38,0,0,1-6.37,3.77,35.94,35.94,0,0,1-7.07,2.26,36.49,36.49,0,0,1-14.72,0,31.84,31.84,0,0,1-7-2.34,19.11,19.11,0,0,1-3.13-2,11.62,11.62,0,0,1-1.38-1.24,7.14,7.14,0,0,1-1.06-1.5Z"/></g><path class="cls-34" d="M90.34,121.81A9.1,9.1,0,0,0,93,124.19a19.31,19.31,0,0,0,3.19,1.58,31,31,0,0,0,6.88,1.85,39.18,39.18,0,0,0,14.16-.3,35,35,0,0,0,6.79-2.07,37.39,37.39,0,0,0,6.25-3.39,21,21,0,0,0,5.22-4.76,9.5,9.5,0,0,0,1.61-3.13,7.22,7.22,0,0,0,.11-3.52h.05a7.31,7.31,0,0,1,0,3.57,9.77,9.77,0,0,1-1.54,3.24,21.28,21.28,0,0,1-5.22,4.93,35.18,35.18,0,0,1-13.16,5.63A39,39,0,0,1,103,128a31.26,31.26,0,0,1-6.91-2,18.89,18.89,0,0,1-3.17-1.69,9.17,9.17,0,0,1-2.6-2.48Z"/><path class="cls-33" d="M134.76,118.5a70.73,70.73,0,0,1,.89,17.5,141.86,141.86,0,0,1-2.13,17.42,155.58,155.58,0,0,1-4.2,17c-.86,2.8-1.82,5.57-2.91,8.28a50,50,0,0,1-3.89,7.87l-.22-.14a78.56,78.56,0,0,0,2.8-8.25c.82-2.77,1.52-5.57,2.22-8.37s1.34-5.61,1.9-8.44,1.2-5.63,1.68-8.47,1-5.67,1.45-8.51.81-5.69,1.19-8.55a119.91,119.91,0,0,0,1-17.32Z"/><g class="cls-31"><path class="cls-32" d="M116.52,186.53a1.45,1.45,0,0,0,1.22.83,4.93,4.93,0,0,0,1.58,0,15.09,15.09,0,0,0,3.08-.83l0,.06a4.79,4.79,0,0,1-1.4.94,5.79,5.79,0,0,1-1.61.49,3.93,3.93,0,0,1-1.76-.11,2.15,2.15,0,0,1-.83-.47,1.06,1.06,0,0,1-.36-.87Z"/></g><path class="cls-6" d="M112.67,184.27a3.28,3.28,0,0,0,.88.75,2.68,2.68,0,0,0,1.06.33,3.34,3.34,0,0,0,1.13-.08,9.48,9.48,0,0,0,1.12-.33h0a4.07,4.07,0,0,1-2.28.56,2.56,2.56,0,0,1-1.93-1.23Z"/><path class="cls-53" d="M122.38,192.83c.07-.6.16-1.13.24-1.66s.13-1,.14-1.52a8.39,8.39,0,0,0-.05-1.5,14.76,14.76,0,0,0-.33-1.6l.06,0a4.9,4.9,0,0,1,1,3.16,7.31,7.31,0,0,1-1,3.19Z"/><path class="cls-54" d="M104.35,192.24a16.16,16.16,0,0,0,3.82,1,15.6,15.6,0,0,0,3.92.08,14.43,14.43,0,0,0,3.78-.93,17.14,17.14,0,0,0,3.43-1.89l.42-.3,0,.5-.08,2.26-.18-.18h1.49l1.48,0c-.49.07-1,.13-1.48.18l-1.47.15-.18,0V193l-.07-2.26.4.2a13.7,13.7,0,0,1-3.49,2.09,13.19,13.19,0,0,1-4,1,13.75,13.75,0,0,1-4.05-.29A12.15,12.15,0,0,1,104.35,192.24Z"/><path class="cls-53" d="M116.51,186.56A11.07,11.07,0,0,1,114,189a18.26,18.26,0,0,1-3,1.75,18,18,0,0,1-3.27,1.12c-.56.12-1.13.24-1.69.33s-1.14.12-1.72.12l0-.07a30.18,30.18,0,0,0,6.42-2.11,27.49,27.49,0,0,0,3-1.58,18.55,18.55,0,0,0,2.72-2Z"/><path class="cls-55" d="M112.68,184.31a10.64,10.64,0,0,1-2.39,1.55,18.07,18.07,0,0,1-2.63,1.06,18.3,18.3,0,0,1-2.75.64c-.47.07-.93.13-1.4.18s-1,.06-1.43,0v-.07a52.75,52.75,0,0,0,5.39-1.42,32.1,32.1,0,0,0,5.19-2Z"/><g class="cls-31"><path class="cls-56" d="M38.69,50.18a2.87,2.87,0,0,1,.57-2.08,18.55,18.55,0,0,1,1.31-1.72,9.21,9.21,0,0,1,3.32-2.75c.65-.33,1.3-.63,1.94-1s1.23-.72,1.84-1.1a13.61,13.61,0,0,1,1.92-1,21.53,21.53,0,0,1,2-.7,16.23,16.23,0,0,0,2-.73l2-.9A20.37,20.37,0,0,1,59.79,37c1.4-.31,2.69-1,4.09-1.36s2.87-.46,4.26-.76,2.74-.86,4.19-1.06,2.89-.16,4.29-.46a20.4,20.4,0,0,1,4.28-.65h2.16a17.29,17.29,0,0,0,2.14-.17c.71-.09,1.43-.19,2.16-.21a14.16,14.16,0,0,1,2.16.14c.72.09,1.43.21,2.15.25s1.43,0,2.15.07A9.29,9.29,0,0,1,98,34a20.61,20.61,0,0,1,1.91,1,2.88,2.88,0,0,1,1.38,1.66l-.13,0a2.68,2.68,0,0,0-1.42-1.43c-.6-.34-1.27-.6-1.93-.89a10.86,10.86,0,0,0-2-.66,8,8,0,0,0-2-.16c-.7,0-1.42,0-2.18,0s-1.5-.11-2.2-.17a12.57,12.57,0,0,0-2-.06c-.66,0-1.34.17-2.06.29a19.81,19.81,0,0,1-2.25.26c-.76,0-1.48,0-2.16,0l-.49,0-.52,0a9.43,9.43,0,0,0-1,.16l-2.11.49a16.07,16.07,0,0,1-2.27.31c-.73.05-1.42.09-2,.19a14.88,14.88,0,0,0-2,.47l-1,.32-.57.16-.53.13c-.82.17-1.53.25-2.24.34l-1,.15-.5.11-.13,0s-.07,0-.1,0l-.23.06c-.62.18-1.27.42-2,.67a15.6,15.6,0,0,1-2.2.67L58,38.68l-.46.11-.49.14c-.31.1-.62.21-.93.34-.64.26-1.27.57-2,.87-.19.08-.35.13-.52.19l-.56.19L52,40.83a19.53,19.53,0,0,0-2,.59,12.2,12.2,0,0,0-1.83.88c-.6.35-1.26.74-1.93,1.07s-1.35.6-2,.89a8.7,8.7,0,0,0-3.3,2.4,20.79,20.79,0,0,0-1.39,1.61,2.64,2.64,0,0,0-.7,1.89Z"/></g><path class="cls-57" d="M38.72,50.17a2.86,2.86,0,0,1,.51-2.09c.37-.63.84-1.19,1.26-1.77A11.9,11.9,0,0,1,42,44.68a9.46,9.46,0,0,1,1.83-1.26c.64-.34,1.29-.65,1.91-1s1.2-.73,1.81-1.13a16,16,0,0,1,2-1.08,21.4,21.4,0,0,1,2.07-.74,30.18,30.18,0,0,0,3.93-1.66,11.06,11.06,0,0,1,2.12-.73l2.11-.48c1.36-.3,2.6-.94,4.07-1.37s3-.5,4.27-.79,2.72-.84,4.23-1.05,2.92-.15,4.28-.43l2.11-.43c.37-.07.73-.13,1.13-.17s.74,0,1.11,0c.74,0,1.46,0,2.16,0a18.67,18.67,0,0,0,2.1-.14c.71-.07,1.44-.17,2.2-.18a13.45,13.45,0,0,1,2.21.19c.73.1,1.42.22,2.12.27s1.42.07,2.15.12A9,9,0,0,1,96,33a11.75,11.75,0,0,1,2,.88A20.83,20.83,0,0,1,99.91,35a2.91,2.91,0,0,1,1.33,1.69l-.07,0a2.81,2.81,0,0,0-1.34-1.6c-.6-.39-1.26-.68-1.9-1A9.12,9.12,0,0,0,93.82,33c-2.89.13-5.74-.88-8.6-.23a19.26,19.26,0,0,1-2.16.18H80.9a19.91,19.91,0,0,0-4.25.67c-1.42.3-2.88.25-4.29.46s-2.77.76-4.18,1.07-2.87.35-4.25.75-2.68,1-4.1,1.35a20.81,20.81,0,0,0-4.14,1.15l-2,.9a18.28,18.28,0,0,1-2,.72c-2.87.6-5,2.69-7.73,3.77a9,9,0,0,0-3.29,2.71,19.94,19.94,0,0,0-1.32,1.71,2.79,2.79,0,0,0-.55,2Z"/><g class="cls-31"><path class="cls-58" d="M101.24,36.66a2.88,2.88,0,0,1-.57,2.06c-.39.61-.86,1.15-1.31,1.72a9.31,9.31,0,0,1-3.31,2.73c-.65.33-1.3.63-1.94,1s-1.24.73-1.85,1.11a13.44,13.44,0,0,1-1.91,1c-.66.28-1.36.48-2,.7a15.67,15.67,0,0,0-2,.73l-2,.9a20.54,20.54,0,0,1-4.16,1.16c-1.4.31-2.7,1-4.09,1.36s-2.86.45-4.25.76-2.75.86-4.19,1.06-2.89.15-4.29.45a20.64,20.64,0,0,1-4.27.67H56.9a17.15,17.15,0,0,0-2.15.17c-.71.09-1.43.19-2.15.21a12.92,12.92,0,0,1-2.16-.14c-.72-.09-1.43-.21-2.15-.25s-1.43,0-2.15-.07A9.22,9.22,0,0,1,42,52.84a20.71,20.71,0,0,1-1.91-1,2.83,2.83,0,0,1-1.36-1.64h.07a2.76,2.76,0,0,0,1.37,1.54,20.15,20.15,0,0,0,1.92.95,9,9,0,0,0,4.07,1c.71,0,1.43,0,2.17,0s1.47.13,2.17.21a13.4,13.4,0,0,0,2.09.09c.69,0,1.39-.14,2.11-.24a15.92,15.92,0,0,1,2.2-.22c.74,0,1.46,0,2.16,0l1-.06c.32,0,.67-.1,1-.16l2.11-.46c1.46-.32,3-.28,4.31-.49s2.67-.76,4.13-1.08,2.91-.35,4.23-.73,2.66-1,4.13-1.33a20.23,20.23,0,0,0,4.07-1.1l2-.89a17.74,17.74,0,0,1,2.09-.71c.7-.2,1.37-.39,2-.64a14.18,14.18,0,0,0,1.86-1c.61-.37,1.24-.76,1.9-1.09s1.32-.62,2-.92A9.05,9.05,0,0,0,99.2,40.3a21.4,21.4,0,0,0,1.36-1.66,2.72,2.72,0,0,0,.61-2Z"/></g><path class="cls-59" d="M101.23,36.66a2.92,2.92,0,0,1-.52,2.08c-.38.62-.85,1.18-1.28,1.75A11.26,11.26,0,0,1,98,42.11a8.89,8.89,0,0,1-1.83,1.23c-.64.34-1.29.65-1.92,1s-1.2.73-1.82,1.12a13.34,13.34,0,0,1-1.93,1.06,21.4,21.4,0,0,1-2.07.74,28.39,28.39,0,0,0-3.94,1.65,12.49,12.49,0,0,1-2.11.72l-2.11.47c-1.37.31-2.63.94-4.07,1.37s-2.94.48-4.27.78-2.72.85-4.22,1-2.91.15-4.28.44l-2.11.44c-.37.07-.73.12-1.11.16s-.74.05-1.11.05l-2.16,0a18.87,18.87,0,0,0-2.11.15c-.71.08-1.44.17-2.19.18a13.21,13.21,0,0,1-2.19-.16c-.73-.11-1.42-.23-2.13-.28s-1.43,0-2.15-.1A8.43,8.43,0,0,1,44,53.78a10.86,10.86,0,0,1-2-.86c-.63-.35-1.29-.66-1.89-1.07a2.85,2.85,0,0,1-1.33-1.68h.05a2.75,2.75,0,0,0,1.34,1.6c.6.39,1.26.69,1.9,1a9.12,9.12,0,0,0,4.12,1.11c2.88-.13,5.74.87,8.6.23a19.28,19.28,0,0,1,2.15-.18h2.16a20,20,0,0,0,4.26-.67c1.41-.3,2.87-.25,4.29-.46s2.77-.76,4.18-1.07S74.65,51.4,76,51s2.68-1,4.1-1.35a21.09,21.09,0,0,0,4.15-1.15l2-.9a18.33,18.33,0,0,1,2-.73c2.87-.6,5-2.69,7.73-3.76a9.25,9.25,0,0,0,3.3-2.72,18,18,0,0,0,1.31-1.71,2.76,2.76,0,0,0,.56-2Z"/><g class="cls-31"><path class="cls-60" d="M60.93,53.8c1.38-1.84,2.85-3.59,4.35-5.32s3.15-3.34,4.6-5.11,2.88-3.57,4.37-5.31,3-3.46,4.54-5.16l0,.22a2.42,2.42,0,0,1-.24-.94,1.73,1.73,0,0,1,.21-.95,1.6,1.6,0,0,1,.7-.64,3.41,3.41,0,0,1,.86-.31l0,0a2.13,2.13,0,0,0-1.36,1,1.78,1.78,0,0,0,.14,1.6l.06.11-.08.1q-2.17,2.67-4.45,5.24c-1.5,1.73-3.08,3.4-4.62,5.09s-2.92,3.54-4.4,5.28-3,3.45-4.64,5.08Z"/></g><g class="cls-31"><path class="cls-60" d="M97.85,42c-4.65.42-9.31.72-14,.95-2.33.12-4.67.17-7,.27s-4.66.23-7,.4c-4.65.33-9.31.65-14,.92s-9.32.48-14,.62h-.12V45a1.61,1.61,0,0,0-.26-.76,1.09,1.09,0,0,0-.65-.44,2.85,2.85,0,0,0-1.67.23l0,0a2.92,2.92,0,0,1,1.72-.34,1.25,1.25,0,0,1,.78.47,1.76,1.76,0,0,1,.34.86l-.13-.11c4.66-.37,9.32-.65,14-.91s9.33-.44,14-.61c2.33-.09,4.66-.22,7-.37s4.66-.36,7-.5c4.65-.28,9.32-.49,14-.58Z"/></g><g class="cls-31"><path class="cls-60" d="M43,53.23c4.45-1.8,8.93-3.47,13.44-5.09,2.26-.81,4.53-1.56,6.79-2.35s4.51-1.62,6.75-2.47c4.47-1.71,9-3.41,13.45-5.06S92.42,35,97,33.48l-.07.16a2.81,2.81,0,0,1-.17-.9,1.52,1.52,0,0,1,.25-.9,1.23,1.23,0,0,1,.79-.45,3,3,0,0,1,.9,0v.05a2.82,2.82,0,0,0-.87,0,1.13,1.13,0,0,0-.69.44,1.88,1.88,0,0,0,0,1.62l0,.12-.12,0c-4.46,1.74-9,3.41-13.45,5S74.56,42,70,43.53c-2.26.78-4.51,1.6-6.75,2.44s-4.47,1.74-6.71,2.57c-4.5,1.66-9,3.26-13.57,4.74Z"/></g><g class="cls-31"><path class="cls-60" d="M79.9,49.76c-1.72-.92-3.37-2-5-3s-3.17-2.28-4.84-3.29-3.35-2-5-3.05-3.28-2.1-4.88-3.21l-.1-.07V37a2.34,2.34,0,0,0-.35-1.56A1.61,1.61,0,0,0,58.19,35V35a2.45,2.45,0,0,1,.9-.1,1.34,1.34,0,0,1,.85.39,1.92,1.92,0,0,1,.45.84,2.69,2.69,0,0,1,.1.94l-.09-.19c1.67,1,3.33,2,4.94,3.14s3.21,2.22,4.82,3.31,3.33,2,5,3.07,3.25,2.15,4.8,3.34Z"/></g><path class="cls-61" d="M105.07,37.89a3.61,3.61,0,0,1,.49,2.45,6.05,6.05,0,0,1-1,2.34A16.52,16.52,0,0,1,101,46.29a47,47,0,0,1-8.78,5.06A99.52,99.52,0,0,1,73,57.54a98.68,98.68,0,0,1-20.12,2.32,46.91,46.91,0,0,1-10.09-1A16.11,16.11,0,0,1,38,57.06a5.88,5.88,0,0,1-1.86-1.72,3.62,3.62,0,0,1-.57-2.43,3.61,3.61,0,0,0,.65,2.37,5.75,5.75,0,0,0,1.87,1.63,15.69,15.69,0,0,0,4.72,1.65,46.6,46.6,0,0,0,10,.79,102.5,102.5,0,0,0,20-2.46,102.18,102.18,0,0,0,19.21-6,47.09,47.09,0,0,0,8.8-4.85,16,16,0,0,0,3.61-3.45,6,6,0,0,0,1-2.26A3.57,3.57,0,0,0,105.07,37.89Z"/><path class="cls-35" d="M84.44,59.36c-.46.16-.92.31-1.39.45q-4.47,1.39-9,2.41l-1.08.22-.54-1.92,1.2-.26c3.37-.72,6.72-1.59,10-2.62Z"/><path class="cls-62" d="M105.15,37.45a6.53,6.53,0,0,1,1.58,4.74,8.32,8.32,0,0,1-2.21,4.54,28.9,28.9,0,0,1-8.19,6,74.9,74.9,0,0,1-9.33,4c-3.19,1.15-6.43,2.13-9.72,3a106.39,106.39,0,0,1-20.07,3.12,61.57,61.57,0,0,1-10.16-.21,29.21,29.21,0,0,1-5-1,11.12,11.12,0,0,1-4.53-2.29l0,0,0,0h0l0,.1a5.79,5.79,0,0,1-2.33-3.08,5.46,5.46,0,0,1,.17-3.84l.13,0a5.35,5.35,0,0,0,0,3.68,5.23,5.23,0,0,0,2.29,2.71l.34.2-.16.41h0L37.91,59a11.42,11.42,0,0,0,4.35,2,30.74,30.74,0,0,0,4.89.77,71,71,0,0,0,10-.06c3.33-.24,6.66-.65,10-1.18s6.6-1.21,9.85-2a101.31,101.31,0,0,0,18.93-6.6A29.69,29.69,0,0,0,104,46.31a7.93,7.93,0,0,0,2.29-4.16A6.46,6.46,0,0,0,105,37.53Z"/><path class="cls-41" d="M124.39,62.88a4.33,4.33,0,0,1,1.8-.5A2.51,2.51,0,0,1,128,63a2,2,0,0,1,.6,1.76,3.61,3.61,0,0,1-.78,1.72,7.91,7.91,0,0,1-1.35,1.3,6.91,6.91,0,0,1-1.6,1,2.11,2.11,0,0,1-1.85.06,1.22,1.22,0,0,1-.56-.77,2.13,2.13,0,0,1,0-.94l.1,0c0,.63.34,1.18.73,1.24a2,2,0,0,0,1.28-.34,7.91,7.91,0,0,0,1.31-1l.31-.28.32-.31a5.63,5.63,0,0,0,.52-.59,2.78,2.78,0,0,0,.63-1.23,1.27,1.27,0,0,0-.2-1.07,1.9,1.9,0,0,0-1.21-.64,4.79,4.79,0,0,0-1.76,0Z"/><path class="cls-63" d="M105.16,37.63a3.34,3.34,0,0,0-.24-1.24,6.3,6.3,0,0,0-.49-1.17,5.63,5.63,0,0,0-1.7-1.87,15.24,15.24,0,0,0-4.64-2.06c-.41-.12-.82-.24-1.24-.33a8.68,8.68,0,0,0-1.26-.17c-.85-.07-1.7-.08-2.55-.17A28.21,28.21,0,0,0,88,30.06c-.85.05-1.69.19-2.54.27a15.74,15.74,0,0,1-2.57,0,19.73,19.73,0,0,0-2.55,0,21.69,21.69,0,0,0-2.51.46,15.49,15.49,0,0,1-2.53.4c-.86.06-1.71.07-2.56.16a43.68,43.68,0,0,0-5,1.24c-1.68.35-3.41.39-5,.9-.81.25-1.6.59-2.4.9a15,15,0,0,1-2.46.71c-.84.18-1.68.33-2.49.59a15.58,15.58,0,0,0-2.33,1,18.11,18.11,0,0,1-2.34,1c-.81.29-1.63.52-2.43.81a23.42,23.42,0,0,0-4.4,2.57c-1.47.88-3.11,1.47-4.35,2.67a16.15,16.15,0,0,0-3.43,3.76,5.48,5.48,0,0,0-.86,3.64,4.69,4.69,0,0,0,.24,1.25l-.07,0a4.88,4.88,0,0,1-.27-1.26,6.17,6.17,0,0,1,0-1.29,6.06,6.06,0,0,1,.81-2.47,16.7,16.7,0,0,1,3.38-3.92c.33-.29.64-.56,1-.83a9.47,9.47,0,0,1,1.12-.7c.76-.42,1.52-.8,2.22-1.24s1.38-1,2.1-1.44a11.47,11.47,0,0,1,2.35-1.24c.82-.32,1.65-.56,2.41-.85l.59-.23.56-.24,1.13-.57a16,16,0,0,1,2.41-1.07,26,26,0,0,1,2.54-.62,14.69,14.69,0,0,0,2.37-.7c.78-.31,1.57-.66,2.42-.93A49.81,49.81,0,0,1,67.61,32a43.58,43.58,0,0,1,5-1.23c.88-.08,1.74-.09,2.57-.14a15.94,15.94,0,0,0,2.45-.37,21,21,0,0,1,2.58-.47,19.29,19.29,0,0,1,2.64,0,17.24,17.24,0,0,0,2.49,0c.83-.07,1.68-.19,2.56-.23a28,28,0,0,1,5.15.65c.83.09,1.68.12,2.54.2a10.28,10.28,0,0,1,1.32.2c.43.11.83.23,1.25.36a15.57,15.57,0,0,1,4.67,2.23,5.82,5.82,0,0,1,1.69,2,6.88,6.88,0,0,1,.47,1.21l.17.63a2.76,2.76,0,0,1,0,.64Z"/><path class="cls-64" d="M35.46,52.5A4.45,4.45,0,0,0,37,54.29c.65.48,1.37.87,2.06,1.3a9.8,9.8,0,0,0,4.53,1.57c.8.07,1.62.09,2.43.17s1.61.24,2.4.38a15.1,15.1,0,0,0,2.41.29,19.54,19.54,0,0,0,2.41-.18,19.85,19.85,0,0,1,2.43-.17c.82,0,1.63.08,2.44.09a10.19,10.19,0,0,0,2.4-.18c.8-.14,1.59-.34,2.38-.5,1.6-.36,3.25-.23,4.85-.44s3.11-.86,4.69-1.23,3.24-.36,4.79-.8,3-1.25,4.59-1.61a20.55,20.55,0,0,0,4.66-1.32c.73-.34,1.44-.74,2.17-1.09A16.19,16.19,0,0,1,91,49.7a22,22,0,0,0,2.28-.82,12.82,12.82,0,0,0,2.09-1.22c.67-.46,1.32-.94,2-1.35s1.43-.78,2.13-1.17a8.31,8.31,0,0,0,2-1.39A11.42,11.42,0,0,0,103,41.91c.46-.67.94-1.33,1.36-2a5,5,0,0,0,.78-2.26h.07A5.22,5.22,0,0,1,104.5,40c-.4.72-.86,1.38-1.31,2.07A12.3,12.3,0,0,1,101.65,44a9.58,9.58,0,0,1-2,1.49c-.71.42-1.43.78-2.11,1.2s-1.31.89-2,1.37a14.35,14.35,0,0,1-2.14,1.3,22.72,22.72,0,0,1-2.32.87,15.67,15.67,0,0,0-2.19.89c-.71.35-1.42.74-2.17,1.1a11.34,11.34,0,0,1-2.39.85c-.81.2-1.61.34-2.37.54-1.51.35-2.91,1.14-4.57,1.63s-3.32.48-4.81.84a47.85,47.85,0,0,1-4.76,1.21c-.85.11-1.67.12-2.47.16a14,14,0,0,0-2.34.25c-.78.14-1.56.34-2.39.49a12,12,0,0,1-2.53.17c-.83,0-1.64-.09-2.42-.11a19.14,19.14,0,0,0-2.37.13,22.21,22.21,0,0,1-2.48.14,15.43,15.43,0,0,1-2.48-.34c-.81-.16-1.57-.33-2.36-.41s-1.6-.13-2.42-.22a8.9,8.9,0,0,1-2.43-.59A13.32,13.32,0,0,1,39,55.77c-.68-.45-1.38-.86-2-1.36a4.67,4.67,0,0,1-1.55-1.89Z"/><path class="cls-65" d="M35.46,52.5a4.49,4.49,0,0,0,1.61,1.74c.66.46,1.38.83,2.08,1.23a9.64,9.64,0,0,0,4.49,1.42c.8,0,1.61.07,2.44.13s1.65.22,2.43.35a13.68,13.68,0,0,0,2.35.24,16.28,16.28,0,0,0,2.37-.21,19.9,19.9,0,0,1,2.48-.21c.84,0,1.65.07,2.44.09a11.09,11.09,0,0,0,2.31-.19c.77-.14,1.55-.35,2.37-.51a15.11,15.11,0,0,1,2.49-.3c.82,0,1.62-.06,2.38-.17,1.51-.2,3-.85,4.64-1.24s3.31-.36,4.78-.78,2.94-1.21,4.6-1.59a20.27,20.27,0,0,0,4.58-1.27c.72-.32,1.42-.72,2.18-1.07a16.09,16.09,0,0,1,2.34-.86,21.4,21.4,0,0,0,2.26-.77,13,13,0,0,0,2-1.15c.66-.45,1.33-.93,2.06-1.34s1.46-.76,2.17-1.13a9.27,9.27,0,0,0,2-1.3,12.25,12.25,0,0,0,1.59-1.78c.48-.65,1-1.3,1.41-2a4.82,4.82,0,0,0,.84-2.22h.07a5,5,0,0,1-.79,2.29c-.42.71-.9,1.36-1.36,2a11.55,11.55,0,0,1-1.57,1.86,8.91,8.91,0,0,1-2,1.41c-.71.39-1.44.75-2.14,1.16s-1.35.89-2,1.36A13.06,13.06,0,0,1,93.27,49a23.1,23.1,0,0,1-2.29.82,16.78,16.78,0,0,0-2.26.88c-.73.35-1.44.74-2.17,1.09a21.34,21.34,0,0,1-4.68,1.33c-1.58.36-3,1.16-4.58,1.62s-3.23.44-4.8.81a44,44,0,0,1-4.71,1.22c-1.62.21-3.25.08-4.83.44-.8.15-1.58.35-2.38.5a11.1,11.1,0,0,1-2.44.17c-.81,0-1.62-.08-2.43-.09a18,18,0,0,0-2.42.16,17.82,17.82,0,0,1-2.43.17,14.15,14.15,0,0,1-2.42-.29c-.79-.14-1.59-.31-2.39-.38s-1.62-.11-2.43-.18a9.83,9.83,0,0,1-4.56-1.59c-.69-.42-1.41-.81-2.06-1.3a4.54,4.54,0,0,1-1.59-1.83Z"/><path class="cls-66" d="M108.73,63.81a4.63,4.63,0,0,1,1.94,1.78c.49.72.8,1.62,1.54,2a2,2,0,0,0,1.2.16,2.11,2.11,0,0,0,1.14-.47,1.76,1.76,0,0,0,.59-1.07,1.22,1.22,0,0,0-.38-1.11l.07-.11a1.43,1.43,0,0,1,1,1.31,2.37,2.37,0,0,1-.59,1.77,3,3,0,0,1-1.67.93,2.84,2.84,0,0,1-3.31-1.62,9.21,9.21,0,0,1-.49-1.23,8.62,8.62,0,0,0-1.11-2.21Z"/><path class="cls-51" d="M102.53,65.65c-1.14,1.15-2.31,2.22-3.35,3.41a24.27,24.27,0,0,0-2.86,3.6,5.32,5.32,0,0,0-.72,1.81.91.91,0,0,0,.46,1,4.9,4.9,0,0,0,1.76.6c.67.11,1.51.17,2.26.23a42.23,42.23,0,0,0,4.64.14,45.42,45.42,0,0,0,4.65-.33c1.54-.2,3.09-.46,4.62-.81a46.38,46.38,0,0,0,4.61-1.25l.06.12A36.48,36.48,0,0,1,100,77.64c-.8-.07-1.59-.14-2.39-.28a5.73,5.73,0,0,1-2.27-.87,2.25,2.25,0,0,1-.77-1,2.28,2.28,0,0,1-.1-1.24,6,6,0,0,1,1-2.2,21.35,21.35,0,0,1,3.25-3.53c1.2-1.07,2.46-2.06,3.75-3Z"/><path class="cls-67" d="M102.05,65.89a4.06,4.06,0,0,0,1.16,1,8.12,8.12,0,0,0,1.76.79l1.09.29a5.65,5.65,0,0,0,.79,1.57,6,6,0,0,0,8.63,1,4.85,4.85,0,0,0,1.46-1.86,2.57,2.57,0,0,0,.19-1.32,2.41,2.41,0,0,0-.5-1.16,3.75,3.75,0,0,0-1.8-1.19l-.07.12a4,4,0,0,1,1.38,1.34,1.82,1.82,0,0,1,0,1.82,4.2,4.2,0,0,1-1.34,1.38,5.47,5.47,0,0,1-1.75.81,5.17,5.17,0,0,1-3.76-.45A4.68,4.68,0,0,1,107,67l0-.08h-.08a10.82,10.82,0,0,1-3.37-.78,3.85,3.85,0,0,1-1-.62Z"/><path class="cls-68" d="M114.81,65a4,4,0,0,1,1.43,1.38,1.93,1.93,0,0,1,.06,1.93,4.29,4.29,0,0,1-1.37,1.44,5.64,5.64,0,0,1-1.8.86,5.26,5.26,0,0,1-3.89-.45,4.85,4.85,0,0,1-2.39-3.09l.05,0a10.9,10.9,0,0,1-3.42-.82,3.32,3.32,0,0,1-1.38-1.08,1.81,1.81,0,0,1-.11-1.72l.06,0a1.72,1.72,0,0,0,.26,1.56,3.23,3.23,0,0,0,1.34.86,8.57,8.57,0,0,0,1.62.43c.55.09,1.13.13,1.67.18l.37,0,.1.36a4.26,4.26,0,0,0,2.14,2.66A4.8,4.8,0,0,0,113,70a5.65,5.65,0,0,0,1.63-.71,3.81,3.81,0,0,0,1.31-1.2,1.67,1.67,0,0,0,.09-1.61,4.34,4.34,0,0,0-1.23-1.45Z"/><path class="cls-35" d="M111.18,49.89a5.64,5.64,0,0,1,1.32.54l.19.11a1.12,1.12,0,0,1,.18.1,2.68,2.68,0,0,1,.36.29,5.08,5.08,0,0,1,.61.62c.36.44.64.9.93,1.31s.6.9.86,1.37a11.7,11.7,0,0,1,.67,1.49,13.92,13.92,0,0,1,.45,1.56,8.73,8.73,0,0,1,.19,1.6V59h-.06l-.24,0,0-.06.22-.09,0,0a15.75,15.75,0,0,0-2.6-5.67,7.22,7.22,0,0,0-2-2.37,7.32,7.32,0,0,0-1.17-.63Z"/><path class="cls-42" d="M97.71,63.14c.07.13.19.14.31.16a1.72,1.72,0,0,0,.39,0,7.67,7.67,0,0,0,.8-.11l1.65-.33c.55-.09,1.1-.22,1.66-.3l.84-.14.83-.12.44-.06.43.4s.06.08.1.12l.16.15a2.76,2.76,0,0,0,.39.28,3.62,3.62,0,0,0,1,.37,5.37,5.37,0,0,0,1.17.13c.41,0,.84,0,1.3,0l0,.09a5.88,5.88,0,0,1-2.55.55,3.3,3.3,0,0,1-2.37-1.07l.1,0a33.38,33.38,0,0,1-3.44.45,16.58,16.58,0,0,1-1.73,0,5.14,5.14,0,0,1-.87-.09,1.6,1.6,0,0,1-.42-.14.49.49,0,0,1-.29-.36Z"/><path class="cls-41" d="M111.07,53.07c-1.17.91-2.35,1.74-3.57,2.51-.59.41-1.21.76-1.8,1.16s-1.21.74-1.81,1.13c-1.2.73-2.39,1.5-3.52,2.29a14.54,14.54,0,0,0-1.6,1.29,3,3,0,0,0-1.06,1.7h-.1a2.94,2.94,0,0,1,.74-2,10.16,10.16,0,0,1,1.5-1.57A29.07,29.07,0,0,1,103.36,57,71.87,71.87,0,0,1,111,53Z"/><g class="cls-31"><path class="cls-39" d="M116.6,59a10.24,10.24,0,0,1-1.71-1.26c-.27-.22-.47-.43-.74-.66l-.71-.72c-.43-.48-.89-1-1.27-1.52A6.15,6.15,0,0,1,111,53.07l.07-.07c.49.47,1.08.82,1.61,1.26s1,.94,1.48,1.44.92,1,1.34,1.57A17.55,17.55,0,0,1,116.68,59Z"/></g><path class="cls-69" d="M116.61,59a20.34,20.34,0,0,0-1.77-2.35,27.2,27.2,0,0,0-2-2.11,16.32,16.32,0,0,1-2.21-1.95,9,9,0,0,1-1.48-2.55l.06,0A13.15,13.15,0,0,0,110,51.2a10.83,10.83,0,0,0,1,1.07,8.66,8.66,0,0,0,1,.87c.2.13.39.28.6.43s.44.34.61.49c.38.37.71.71,1.06,1.08a14.12,14.12,0,0,1,.93,1.18A10.19,10.19,0,0,1,116.67,59Z"/><path class="cls-66" d="M109.31,49.76a5.75,5.75,0,0,1,3,1,7.43,7.43,0,0,1,2.09,2.38,15.73,15.73,0,0,1,2.54,5.77v0l0,0-.23.08,0-.12.19-.19-.1.2c-.64-.92-1.19-1.78-1.73-2.61-.29-.41-.54-.84-.83-1.23s-.52-.77-.85-1.23l-.8-1.28a4.28,4.28,0,0,0-.35-.52c-.06-.08-.13-.15-.16-.2a.68.68,0,0,0-.12-.13l0,0,0,0-.06-.06a9.64,9.64,0,0,0-2.44-1.72Z"/><g class="cls-31"><path class="cls-60" d="M60.19,53.93a2.71,2.71,0,0,0-.93.77,2,2,0,0,0-.4,1.07,1.89,1.89,0,0,0,.24,1.11,2.29,2.29,0,0,0,.86.83A1.82,1.82,0,0,1,58.88,57a1.91,1.91,0,0,1-.36-1.27,2,2,0,0,1,.54-1.21A2,2,0,0,1,60.19,53.93Z"/></g><g class="cls-31"><path class="cls-60" d="M98.64,41.2a1.33,1.33,0,0,1,1.33-.48,2.08,2.08,0,0,1,1.29.76,1.85,1.85,0,0,1,.36,1.45,2.51,2.51,0,0,1-.64,1.29,3.57,3.57,0,0,0,.39-1.32,1.78,1.78,0,0,0-.37-1.21A2.06,2.06,0,0,0,99.92,41,1.39,1.39,0,0,0,98.64,41.2Z"/></g><g class="cls-31"><path class="cls-60" d="M41.78,52.69a3.17,3.17,0,0,0-1.37,0,1.57,1.57,0,0,0-1,.71,1.87,1.87,0,0,0-.21,1.26,4.49,4.49,0,0,0,.46,1.3,3,3,0,0,1-.71-1.25,1.92,1.92,0,0,1,.17-1.48,1.69,1.69,0,0,1,1.27-.8A2.46,2.46,0,0,1,41.78,52.69Z"/></g><g class="cls-31"><path class="cls-60" d="M81.36,49.35a2.15,2.15,0,0,1,1.33-.07,1.62,1.62,0,0,1,1,.91,2.15,2.15,0,0,1,0,1.37,3.16,3.16,0,0,1-.61,1.18,5.72,5.72,0,0,0,.36-1.23,2.17,2.17,0,0,0-.11-1.19,1.53,1.53,0,0,0-.82-.8A2.83,2.83,0,0,0,81.36,49.35Z"/></g><path class="cls-70" d="M116.51,186.53a1.07,1.07,0,0,0,.55.48,2.17,2.17,0,0,0,.71.17,5.92,5.92,0,0,0,1.51-.08c.52,0,1-.18,1.55-.28s1-.22,1.57-.3l0,0a15.8,15.8,0,0,1-3.09.88,5.36,5.36,0,0,1-1.6,0,1.48,1.48,0,0,1-1.26-.9Z"/><path class="cls-71" d="M117.64,160.5a81.64,81.64,0,0,1-.82,24.45c-.22,1-.38,1.59-.38,1.59s.29,1.52,3.82.66c2.44-6.27,4.67-12.48,4.67-19C124.93,165.63,121,163.07,117.64,160.5Z"/><path class="cls-8" d="M150.67,92.62c3.55-1.13.63,3.81-1.23,4.48S145.3,94.33,150.67,92.62Z"/><path class="cls-8" d="M146,97.74c-.29-1.55,1.63-.08,1.82.74S146.39,100.07,146,97.74Z"/><path class="cls-72" d="M127.34,114.88c-1.58-.74-1.79.53-1.22.77S128.39,115.38,127.34,114.88Z"/><path class="cls-72" d="M122.74,113.16c-.51-.23-1.68.16-.73.62C123.45,114.49,123.25,113.39,122.74,113.16Z"/><path class="cls-72" d="M124.71,114.33c-.46-.11-1.16.54-.28.78C125.76,115.46,125.17,114.44,124.71,114.33Z"/><path class="cls-72" d="M129.49,114.9c-1-.06-.42.56-.09.57S130.12,114.94,129.49,114.9Z"/><path class="cls-46" d="M129.77,15.22A6.39,6.39,0,0,1,133.26,14a6.59,6.59,0,0,1,3.59.94,5.47,5.47,0,0,1,2.34,2.88,6.46,6.46,0,0,1,.09,3.72l-.22-.24a8.66,8.66,0,0,1,2.49.06,5.52,5.52,0,0,1,2.32.9,3.7,3.7,0,0,1,1.43,2,5.9,5.9,0,0,1,.1,2.47l-.2,0a7.25,7.25,0,0,0-.89-2.15A2.81,2.81,0,0,0,143,23.55a4.11,4.11,0,0,0-.82-.22,4.35,4.35,0,0,0-.91-.12c-.32,0-.65,0-1,0a6,6,0,0,0-.92.08l-2.52.47.52-2.67a5.17,5.17,0,0,0,0-2.62,4.07,4.07,0,0,0-.5-1.13,4.79,4.79,0,0,0-.89-1,4.52,4.52,0,0,0-1.22-.74,5.15,5.15,0,0,0-1.47-.46,7.19,7.19,0,0,0-3.41.22Z"/><path class="cls-65" d="M55.58,146.33h4.31v11.94H60a3.72,3.72,0,0,1,3.41-2.13h.2c1.72,0,2.9.53,3.53,1.61a11.25,11.25,0,0,1,1,5.39v18.6H63.35V163.47a11.71,11.71,0,0,0-.24-2.71,1.26,1.26,0,0,0-1.33-.85h-.1a1.42,1.42,0,0,0-1.55,1.29,22.86,22.86,0,0,0-.24,3.87v16.67H55.58Z"/><path class="cls-65" d="M70.55,169.09c0-4.47.67-7.75,2-9.83a6,6,0,0,1,5.11-3.12,6.1,6.1,0,0,1,5.11,3q2,3,2,10,0,7.2-2.18,10t-4.92,3c-1.45,0-3-.83-4.69-2.47S70.55,174.46,70.55,169.09Zm4.87,3.7A19.74,19.74,0,0,0,75.9,177a1.77,1.77,0,0,0,1.74,1.61c1.18,0,1.89-.83,2.14-2.48a65.23,65.23,0,0,0,.29-7.06,63.67,63.67,0,0,0-.29-7c-.21-1.55-.91-2.32-2.09-2.32s-1.73.82-2,2.47a46.76,46.76,0,0,0-.4,6.91C75.29,170,75.33,171.21,75.42,172.79Z"/><path class="cls-65" d="M87.91,156.5h3.75l.49,2c.91-1.6,2-2.39,3.44-2.39h.29q5,.31,5.31,10.87c0,.76,0,1.49,0,2.18a30.83,30.83,0,0,1-.61,6.64,10.69,10.69,0,0,1-2,4.87A3.56,3.56,0,0,1,96,182.08h-.2c-1.32-.07-2.43-1-3.31-2.81v13.27H87.91Zm4.61,17.56a2.59,2.59,0,0,0,0,.48v.61A5,5,0,0,0,92.9,177a1.68,1.68,0,0,0,1.29.89h.19a1.79,1.79,0,0,0,1.36-.89,3.84,3.84,0,0,0,.34-1.82c.06-.76.13-1.91.19-3.44v-2.33q0-1.19,0-2.37a32.86,32.86,0,0,0-.48-5.16c-.28-1.26-.84-1.89-1.7-1.89a1.24,1.24,0,0,0-1.33,1.19,20.7,20.7,0,0,0-.24,3.73Z"/><path class="cls-2" d="M49.26,235.62l10.27-50.71,7,1.42c4.61.94,8.22,2.77,10.74,5.44s3.12,7.69,1.75,14.69l-.19.93c-1.23,6.09-3.5,10.14-6.74,12.05a15.76,15.76,0,0,1-8.16,2.22,19.3,19.3,0,0,1-3.17-.27L57.55,237.3Zm12.79-20.56a4.73,4.73,0,0,0,.83.07h0a5.77,5.77,0,0,0,3.74-1.51c1.48-1.22,2.66-3.93,3.5-8.07l.09-.45c.86-4.5.79-7.58-.21-9.16a5.15,5.15,0,0,0-3.24-2.4l-.34-.07Z"/><path class="cls-3" d="M59.72,185.21l6.77,1.37q6.87,1.39,10.61,5.36t1.68,14.47l-.19.93Q76.76,216.4,72,219.23a15.46,15.46,0,0,1-8,2.19,18.9,18.9,0,0,1-3.37-.32L57.36,237l-7.8-1.58,10.16-50.22m3.16,30.17a6,6,0,0,0,3.9-1.57q2.31-1.89,3.58-8.21l.1-.45q1.32-6.89-.25-9.34a5.36,5.36,0,0,0-3.4-2.52l-.58-.11-4.47,22.08a5.4,5.4,0,0,0,1.12.12m-3.55-30.76-.1.49L49.07,235.33l-.1.49.49.1,7.8,1.58.49.1.1-.49L61,221.68a19.06,19.06,0,0,0,3,.24,16,16,0,0,0,8.28-2.26c3.31-1.95,5.62-6.06,6.86-12.22l.19-.93c1.39-7.08.78-12.1-1.8-14.9s-6.22-4.58-10.88-5.52l-6.77-1.37-.49-.1Zm3,30.23,4.27-21.08h.09a4.86,4.86,0,0,1,3.09,2.3c1,1.52,1,4.54.16,9l0,.18-.06.26c-.82,4.08-2,6.75-3.41,7.93a5.52,5.52,0,0,1-3.58,1.45l-.53,0Z"/><path class="cls-2" d="M82.18,230.81V204.59h4.95v26.22Zm2.53-30.39c-1.15,0-2.53-.52-2.53-3s1.38-3,2.53-3,2.42.52,2.42,3S85.81,200.42,84.71,200.42Z"/><path class="cls-3" d="M84.71,194.71c1.44,0,2.17.92,2.17,2.74s-.73,2.72-2.17,2.72-2.28-.91-2.28-2.72.76-2.74,2.28-2.74m2.17,10.13v25.72H82.43V204.84h4.45m-2.17-10.63c-1,0-2.78.42-2.78,3.24s1.74,3.22,2.78,3.22,2.67-.42,2.67-3.22-1.68-3.24-2.67-3.24Zm2.67,10.13H81.93v26.72h5.45V204.34Z"/><polygon class="cls-2" points="86.45 235.76 100.65 205.05 91.28 203.67 92.11 198.06 110.34 200.76 95.86 231.43 104.39 232.69 103.57 238.29 86.45 235.76"/><path class="cls-3" d="M92.33,198.35,110,201,95.49,231.63l8.62,1.27-.76,5.11-16.53-2.45L101,204.85l-9.45-1.39.76-5.11m-.43-.57-.07.5-.75,5.1-.08.5.5.07,8.78,1.3-13.91,30.1-.28.61.66.1,16.53,2.44.5.08.07-.5.75-5.1.08-.5-.5-.07-8-1.18,14.19-30.06.29-.61-.67-.1L92.4,197.85l-.5-.07Z"/><polygon class="cls-2" points="117.92 207.08 109.78 207.5 109.52 202.55 125.47 201.72 118.45 230.13 125.87 229.75 126.13 234.69 111.14 235.47 117.92 207.08"/><path class="cls-3" d="M125.15,202l-7,28.41,7.52-.39.23,4.45-14.41.74,6.78-28.39-8.22.43-.23-4.45,15.36-.8m.65-.53-.67,0-15.37.8-.5,0,0,.49.23,4.45,0,.5.5,0,7.56-.4L111,235.09l-.16.65.67,0,14.4-.74.5,0,0-.5-.24-4.45,0-.5-.5,0-6.84.35,6.87-27.75.16-.65Z"/><path class="cls-2" d="M137.62,235.88c-3.1,0-5.61-1.89-7.46-5.63a15.51,15.51,0,0,1-.69-1.89,11.55,11.55,0,0,1-.34-5.3,11.12,11.12,0,0,1,2.9-5.93,14.08,14.08,0,0,1,5.47-3.44l-1.4-4.8a3.62,3.62,0,0,0-1.22-2,2.29,2.29,0,0,0-1.07-.33.86.86,0,0,0-.28,0l-.13,0c-.55.16-.93.76-1.15,1.8a10.19,10.19,0,0,0,.36,4.38l.08.29-6.26.39-.06-.19a12,12,0,0,1-.35-5.22,9.31,9.31,0,0,1,2.11-4.58,9,9,0,0,1,4.31-2.71,9.38,9.38,0,0,1,2.6-.39,7.21,7.21,0,0,1,3.71,1,9.34,9.34,0,0,1,3.92,5.71l4.91,16.73a16,16,0,0,0,1.33,3.4,4.19,4.19,0,0,0,2,1.76l.22.1-1.62,3.73h-.16l-.52,0a9.85,9.85,0,0,1-4.71-1.28,6.38,6.38,0,0,1-4,3.91l-.63.18A8.77,8.77,0,0,1,137.62,235.88Zm1.28-17.42a3.59,3.59,0,0,0-2.52,2.53,7.75,7.75,0,0,0,.07,4.64c.83,2.7,1.94,4.07,3.29,4.07h0a2.35,2.35,0,0,0,.68-.11c.77-.26,1.15-.65,1.14-1.19a9.65,9.65,0,0,0-.48-2.52Z"/><path class="cls-3" d="M135,200.63a6.82,6.82,0,0,1,3.58,1,9.07,9.07,0,0,1,3.81,5.56l4.91,16.73a16.16,16.16,0,0,0,1.36,3.46,4.36,4.36,0,0,0,2.15,1.86l-1.47,3.36-.51,0a9.78,9.78,0,0,1-4.84-1.38,6.15,6.15,0,0,1-3.93,4l-.63.19a8.68,8.68,0,0,1-1.85.21q-4.51,0-7.23-5.49a14.34,14.34,0,0,1-.68-1.85,11.17,11.17,0,0,1-.33-5.18,10.84,10.84,0,0,1,2.83-5.81,13.85,13.85,0,0,1,5.6-3.45l-1.47-5a3.78,3.78,0,0,0-1.32-2.17,2.59,2.59,0,0,0-1.21-.37,1,1,0,0,0-.35.05l-.13,0c-.65.19-1.09.86-1.32,2a10.4,10.4,0,0,0,.36,4.5l-5.76.36a11.69,11.69,0,0,1-.34-5.12,9,9,0,0,1,2-4.45,8.66,8.66,0,0,1,4.19-2.63,8.93,8.93,0,0,1,2.53-.38m4.7,29.32a2.55,2.55,0,0,0,.75-.12q1.33-.45,1.32-1.44a9.75,9.75,0,0,0-.49-2.58l-2.25-7.66-.12,0a3.86,3.86,0,0,0-2.81,2.74,8,8,0,0,0,.07,4.78q1.31,4.25,3.53,4.25M135,200.13a9.51,9.51,0,0,0-2.67.4,9.2,9.2,0,0,0-4.43,2.78,9.52,9.52,0,0,0-2.16,4.7,12.23,12.23,0,0,0,.35,5.34l.12.39.39,0,5.76-.36.61,0-.15-.59a9.7,9.7,0,0,1-.36-4.27c.19-.93.52-1.47,1-1.61l.1,0a.75.75,0,0,1,.24,0,2.11,2.11,0,0,1,1,.31,3.47,3.47,0,0,1,1.08,1.87l1.34,4.57a14.41,14.41,0,0,0-5.35,3.42,11.4,11.4,0,0,0-3,6.07,11.74,11.74,0,0,0,.34,5.41,15.26,15.26,0,0,0,.7,1.91c1.91,3.85,4.49,5.79,7.69,5.79a9,9,0,0,0,2-.22l.35-.1.31-.1a6.45,6.45,0,0,0,4-3.79,10.07,10.07,0,0,0,4.59,1.18l.54,0,.3,0,.13-.28,1.46-3.36.2-.45-.44-.21a3.88,3.88,0,0,1-1.92-1.64,15.14,15.14,0,0,1-1.32-3.36L142.91,207a9.59,9.59,0,0,0-4-5.85,7.42,7.42,0,0,0-3.84-1.05Zm4.7,29.32c-1.23,0-2.26-1.31-3.05-3.89a7.58,7.58,0,0,1-.08-4.49,3.31,3.31,0,0,1,2.13-2.29l2.1,7.17a9.58,9.58,0,0,1,.47,2.44c0,.18,0,.63-1,1a2,2,0,0,1-.59.09Z"/></g></g></svg>