<svg xmlns="http://www.w3.org/2000/svg" viewBox="0 0 208.98 174.79"><defs><style>.cls-1{isolation:isolate;}.cls-2{fill:#ff5601;}.cls-3{fill:#fff;}.cls-4{fill:#12826d;}.cls-5{fill:#5e2f1c;}.cls-6{fill:#c3e3e5;}.cls-7{fill:#06604f;}.cls-8{fill:#bcd2d3;}.cls-9{fill:#f5f7ff;}.cls-26,.cls-30,.cls-31,.cls-35,.cls-45,.cls-49,.cls-67,.cls-71,.cls-9{mix-blend-mode:multiply;}.cls-10{fill:#122b36;}.cls-10,.cls-14{mix-blend-mode:screen;}.cls-11{fill:#f7ba9c;}.cls-12{fill:#1e9e85;}.cls-13{fill:#a3684f;}.cls-14{fill:#12211a;}.cls-15{fill:#4c2902;}.cls-16{fill:#2d2521;}.cls-17{fill:#1e0f00;}.cls-18{fill:#f7ceb0;}.cls-19{fill:#b77d51;}.cls-20{fill:#995e2e;}.cls-21{fill:#ffc454;}.cls-22{fill:#ed8f3a;}.cls-23{fill:#ffe9ad;}.cls-24{fill:#63aa35;}.cls-25{fill:#fccf10;}.cls-26{fill:#ebf0fc;}.cls-27{fill:#87a836;}.cls-28{fill:#c4a087;}.cls-29{fill:#b2410f;}.cls-30{fill:#d9e6d9;}.cls-32,.cls-35{fill:#b8c4c2;}.cls-33{fill:#c9f3f4;}.cls-34{fill:#108770;}.cls-36,.cls-45{fill:#e6e9e9;}.cls-37{fill:#209e86;}.cls-38{fill:#26aa91;}.cls-39,.cls-67{fill:#d1b89e;}.cls-40{fill:#c2dddd;}.cls-41{fill:#ffd5b0;}.cls-42{fill:#d18c70;}.cls-43{fill:#2cb79c;}.cls-44{fill:#b1cbcb;}.cls-46{fill:#ceeeef;}.cls-47{fill:#237263;}.cls-48{fill:#523330;}.cls-49,.cls-50{fill:#d6dbdb;}.cls-51{fill:#f0cca3;}.cls-52{fill:#18917d;}.cls-53{fill:#753d05;}.cls-54{fill:#301800;}.cls-55{fill:#3d2417;}.cls-56{fill:#ebc191;}.cls-57{fill:#d17824;}.cls-58{fill:#efcea8;}.cls-59{fill:#de803d;}.cls-60{fill:#e3a87a;}.cls-61{fill:#96522b;}.cls-62{fill:#ce9567;}.cls-63{fill:#ffd669;}.cls-64{fill:#75431d;}.cls-65{fill:#ffd655;}.cls-66{fill:#493d38;}.cls-68{fill:#70514c;}.cls-69{fill:#212112;}.cls-70{fill:#d2e8ec;}.cls-71{fill:#e6ebf2;}.cls-72{fill:#e8a88c;}</style></defs><g class="cls-1"><g id="Pizza"><path class="cls-2" d="M38.57,164.41c-9.8,0-17.63-4.7-23.29-14a44.59,44.59,0,0,1-6.9-24.68A57.63,57.63,0,0,1,9,117.68l0-.17L28.77,113l0,.28a42.48,42.48,0,0,1,.19,4.84c.27,3.86.4,6.72.4,8.74a43.58,43.58,0,0,0,2.14,12.77c1.09,3,3.45,4.52,7.24,4.65a7.74,7.74,0,0,0,6.46-3.53A11.39,11.39,0,0,0,47,134c0-1.15-.06-2.43-.19-3.81-.52-5.43-2.75-11.48-6.64-18a103.71,103.71,0,0,0-8-12.65C22.66,86.1,16.48,76.41,13.8,70.79a39.86,39.86,0,0,1-3.66-17.58V50.36c.13-9.9,2.73-18,7.72-24A24.88,24.88,0,0,1,37,16.73h2c9.6,0,16.71,3.5,21.12,10.42,4.59,7.34,7.37,17.38,8.29,29.87v.21L49,62V60.08a5.3,5.3,0,0,1-.19-1.47,6.62,6.62,0,0,0-.47-1.26c-.27-2.14-.65-5-1.2-8.92C46,40,43.38,35.78,39.36,35.78H39c-4.13.26-6.21,3.39-6.33,9.58v.78c0,7.56,4.44,17.13,13.2,28.42,1.56,2.27,3.11,4.38,4.61,6.28,1.29,1.8,3,4.27,5.22,7.58A91.49,91.49,0,0,1,66,107.81a58.08,58.08,0,0,1,3,18.35v3.24c-.4,10.49-3.52,19-9.3,25.31S46.66,164.41,38.57,164.41Z"/><path class="cls-3" d="M39,17Q53.3,17,59.88,27.29q6.87,11,8.25,29.75L49.28,61.65V60.08a5,5,0,0,1-.2-1.47,6.53,6.53,0,0,0-.49-1.38c-.26-2.16-.66-5.1-1.18-8.83q-1.77-12.87-8-12.87H39q-6.39.4-6.58,9.82v.79q0,11.49,13.25,28.57C47.21,77,48.75,79.1,50.26,81q2,2.76,5.2,7.56A90.65,90.65,0,0,1,65.77,107.9a57.48,57.48,0,0,1,3,18.26v3.24q-.6,15.72-9.23,25.14-8.84,9.63-20.92,9.62-14.62,0-23.07-13.84a44.16,44.16,0,0,1-6.87-24.55,58.66,58.66,0,0,1,.58-8l19.35-4.42a41.63,41.63,0,0,1,.19,4.81c.26,3.8.4,6.71.4,8.74a43.66,43.66,0,0,0,2.16,12.86q1.67,4.62,7.46,4.81a8,8,0,0,0,6.68-3.63A11.58,11.58,0,0,0,47.21,134c0-1.18-.06-2.46-.19-3.83q-.8-8.25-6.68-18.07a103.28,103.28,0,0,0-8-12.67Q18,79.13,14,70.68a39.36,39.36,0,0,1-3.64-17.47V50.36q.19-14.82,7.66-23.86A24.56,24.56,0,0,1,37,17h2m0-.5H37a25.19,25.19,0,0,0-19.34,9.7c-5,6.09-7.64,14.22-7.77,24.17v2.86A40,40,0,0,0,13.58,70.9c2.68,5.63,8.87,15.34,18.4,28.84a102.24,102.24,0,0,1,7.91,12.61c3.89,6.48,6.12,12.49,6.63,17.88.13,1.36.19,2.64.19,3.79A11.16,11.16,0,0,1,45,140.6,7.44,7.44,0,0,1,38.77,144c-3.66-.12-6-1.59-7-4.48a43.16,43.16,0,0,1-2.13-12.71c0-2-.13-4.88-.4-8.75a40.22,40.22,0,0,0-.2-4.85l-.07-.54-.53.12L9.1,117.23l-.33.08,0,.34a58,58,0,0,0-.59,8.12,44.77,44.77,0,0,0,7,24.82c5.69,9.33,13.6,14.07,23.49,14.07,8.16,0,15.32-3.29,21.29-9.78,5.81-6.35,9-14.92,9.36-25.46v-3.26a58.19,58.19,0,0,0-3-18.42A92,92,0,0,0,55.87,88.27C53.66,85,52,82.51,50.66,80.7c-1.52-1.91-3.06-4-4.6-6.27C37.31,63.16,32.89,53.65,32.89,46.14v-.79C33,39.33,35,36.28,39,36h.36c3.88,0,6.42,4.19,7.55,12.43.55,3.89.93,6.77,1.18,8.83v.09l0,.08a6.45,6.45,0,0,1,.44,1.21,5.81,5.81,0,0,0,.2,1.48v2.14l.61-.15,18.86-4.62.41-.1,0-.42c-.92-12.53-3.72-22.61-8.33-30C55.84,20,48.66,16.48,39,16.48Z"/><path class="cls-4" d="M182.89,101.17l.53,0a10.38,10.38,0,0,1-.39,1.06Z"/><path class="cls-5" d="M134.78,40.77c.93-.19.83.62-.88,1.31A2.52,2.52,0,0,0,134.78,40.77Z"/><path class="cls-5" d="M133,39.6c2-.76,1.94,0,1,.23C134,39.52,133.45,39.53,133,39.6Z"/><path class="cls-5" d="M133.15,31.17c-.36.09-.8.26-.78.56C131.55,31.85,131.27,31.27,133.15,31.17Z"/><path class="cls-5" d="M133.31,33.47c-1.6.06-2-.54-1.16-.73A2.18,2.18,0,0,0,133.31,33.47Z"/><path class="cls-5" d="M116.88,36.77c2.16-.22,2.63.37,1.54.64A2.9,2.9,0,0,0,116.88,36.77Z"/><path class="cls-5" d="M118,38.7l.9,0a4.2,4.2,0,0,1-1.86.46A2.29,2.29,0,0,0,118,38.7Z"/><path class="cls-5" d="M118.08,38.47c.6-.1,1,0,.79.19l-.9,0A.27.27,0,0,0,118.08,38.47Z"/><path class="cls-5" d="M103.58,40.68c-.52.13-1.15.37-1.12.81C101.3,41.64,100.89,40.83,103.58,40.68Z"/><path class="cls-6" d="M192.78,20.37s8.13,4.93,4,10.13c-2.61,3.28-6.87.92-9.66-1.26a25.89,25.89,0,0,1-2.74-2.48s-12.8,1.87-12.26-5.73c0,0-9.33,1.07-8.93-4.8s7.86-4,7.86-4S170,5.44,177.59,4.9,185,10.77,185,10.77C197.13,10.37,192.78,20.37,192.78,20.37Z"/><path class="cls-6" d="M179.72,65.55c9.41,5.38,16.39,16,15.77,17.56S189,90.21,184.14,93a24.91,24.91,0,0,0-9.32-3.83,32.81,32.81,0,0,1,6.36-6.27,27.68,27.68,0,0,1-6.75-1.64c-.85-12.81,4.1-15.35,4.53-15.54l0,0Z"/><path class="cls-4" d="M184.09,101.07a10.43,10.43,0,0,1,2.13.13,8.34,8.34,0,0,1,2,.58,5.09,5.09,0,0,1,2.76,2.5,2.08,2.08,0,0,1-.48,2.53,2.75,2.75,0,0,1-1.77.55,8.55,8.55,0,0,1-3.43-.93,18.63,18.63,0,0,1-1.84-1c-.57-.34-1.16-.72-1.77-1.15a10.61,10.61,0,0,0,.84-1.22c.68.48,1.31.89,1.89,1.22,3.08,1.81,4.69,1.73,5.15,1.37.26-.22.15-.6.06-.82a4.49,4.49,0,0,0-3.46-2.16,10,10,0,0,0-3.12,0l-.05-.46a10.38,10.38,0,0,0,.39-1.06Z"/><path class="cls-7" d="M188.88,98.38a1.47,1.47,0,0,1,1,1.46c0,.68-.61,1.33-1.67,1.94h0a8.34,8.34,0,0,0-2-.58c1.75-.7,2.29-1.26,2.32-1.46a2,2,0,0,0-.87-.21,4.58,4.58,0,0,0-3.58,1.54l-.67.05a6.94,6.94,0,0,0,.24-1.56A5.61,5.61,0,0,1,188.88,98.38Z"/><path class="cls-4" d="M185.33,106.43a21.06,21.06,0,0,1,.58,7.38l-1.48-1a15.55,15.55,0,0,0-.94-7.34A18.63,18.63,0,0,0,185.33,106.43Z"/><path class="cls-7" d="M183.08,102.64a10,10,0,0,1,3.12,0c-.69.25-1.47.49-2.35.72a3.71,3.71,0,0,0-1-.91,3.18,3.18,0,0,0,.16-.32Z"/><path class="cls-6" d="M172.12,95.26c-.45-.05-.71-.06-.71-.06l2.13-6.32,1.28.27A24.91,24.91,0,0,1,184.14,93a7.28,7.28,0,0,1,1,.79l-1.78,1.48-3,2.52a3.77,3.77,0,0,0-.57-.45C177.67,96,173.72,95.42,172.12,95.26Z"/><path class="cls-8" d="M184.38,26.76a25.89,25.89,0,0,0,2.74,2.48c-6.19,7-13,21.52-13,21.52A16.83,16.83,0,0,1,164.35,49a13.73,13.73,0,0,0-1.16-2A7.08,7.08,0,0,0,161.43,45a6.27,6.27,0,0,0-1.17-.63c1.93-4.6,7.61-17.74,11.86-23.3C171.58,28.63,184.38,26.76,184.38,26.76Z"/><path class="cls-9" d="M174.12,50.76s6.81-14.51,13-21.52a25.83,25.83,0,0,1-2.38-2.11,88.15,88.15,0,0,0-14.6,23.67A14.38,14.38,0,0,0,174.12,50.76Z"/><path class="cls-10" d="M172.12,21c-4.25,5.56-9.93,18.7-11.86,23.3a6.27,6.27,0,0,1,1.17.63,7.08,7.08,0,0,1,1.76,2.12c.22.32.43.64.63,1A114.15,114.15,0,0,1,176.3,26.36C173.88,25.64,171.9,24.11,172.12,21Z"/><path class="cls-4" d="M183.85,103.41a7.2,7.2,0,0,1,.6.89c-.58-.33-1.21-.74-1.89-1.22a6.45,6.45,0,0,0,.31-.58A3.71,3.71,0,0,1,183.85,103.41Z"/><path class="cls-4" d="M183.48,97.77a6.85,6.85,0,0,1,.18,1.79,6.94,6.94,0,0,1-.24,1.56l-.53,0,.14,1a3.18,3.18,0,0,1-.16.32,6.45,6.45,0,0,1-.31.58l-.1-.07-.86,1.2.12.09a6.32,6.32,0,0,1-.54.64h0a23.68,23.68,0,0,1-5.44,4.33,28.17,28.17,0,0,1-2.52,1.37c-13.06,6.31-28.23,2-31.34-2.77q.31-1.26.72-2.52a22.37,22.37,0,0,0,1,2.19s2.86,2.88,9.28,4a34.57,34.57,0,0,0,10.3.22c10.9-1.27,18.18-6.59,19.93-12.19A8.69,8.69,0,0,0,183.48,97.77Z"/><path class="cls-6" d="M183.31,95.25a8.22,8.22,0,0,1,.17,2.52,8.69,8.69,0,0,1-.38,1.85l-.23-.08a9.81,9.81,0,0,0-3.88,1.19,6.58,6.58,0,0,0,.73-3.41,3.77,3.77,0,0,1,.57.45Z"/><path class="cls-6" d="M182.87,99.54l.23.08c-1.75,5.6-9,10.92-19.93,12.19a34.57,34.57,0,0,1-10.3-.22h0a77.57,77.57,0,0,1,1.45-30,41.14,41.14,0,0,1,.59-8.13,3.72,3.72,0,0,0,.81.24c.67,7.63,9.37,9.94,9.37,9.94-3.45-3.59-2.75-10.5-5.44-12.68h0c3.47.2,8.21-1.06,12.47-3A32.31,32.31,0,0,1,179,65.7c-.43.19-5.38,2.73-4.53,15.54a27.68,27.68,0,0,0,6.75,1.64,32.81,32.81,0,0,0-6.36,6.27l-1.28-.27-2.13,6.32s.26,0,.71.06c-2.8,4-3.29,9-.71,7.61a1.37,1.37,0,0,0,2.32.62s.7,1.74,3.14.28C176.87,103.77,176.79,106.83,182.87,99.54ZM158,82.75a1.17,1.17,0,0,0-.64-1.49c-.52-.13-1.08.33-1.24,1a1.14,1.14,0,0,0,.63,1.48C157.3,83.89,157.86,83.43,158,82.75Zm-1.36,7.88a1.18,1.18,0,0,0-.68-1.47c-.52-.11-1.07.36-1.22,1.06a1.16,1.16,0,0,0,.68,1.46C156,91.79,156.51,91.32,156.67,90.63Zm-.39,8.49a1.17,1.17,0,0,0-.87-1.36c-.53,0-1,.5-1.07,1.21a1.16,1.16,0,0,0,.86,1.36C155.74,100.37,156.22,99.84,156.28,99.12Z"/><path class="cls-11" d="M179,100.73a9.81,9.81,0,0,1,3.88-1.19c-6.08,7.29-6,4.23-6,4.23-2.44,1.46-3.14-.28-3.14-.28a1.37,1.37,0,0,1-2.32-.62c-2.58,1.38-2.09-3.59.71-7.61,1.6.16,5.55.69,7.6,2.06A6.58,6.58,0,0,1,179,100.73Z"/><path class="cls-6" d="M181.18,104.94c3.47,17.27-3.93,49.39-10.84,60.32-4.92,1.87-5.25,0-5.25,0s.13-.48.33-1.41c.76-3.68,2.41-14.36-.33-28.93,5.82-3.8,9.58-12,8.13-24.28h0a28.17,28.17,0,0,0,2.52-1.37A23.68,23.68,0,0,0,181.18,104.94Z"/><path class="cls-4" d="M179.72,65.55l-.73.13,0,0A32.31,32.31,0,0,0,172.12,68c-4.26,1.94-9,3.2-12.47,3h0A3,3,0,0,0,158,70.3a1.11,1.11,0,0,0-.74-.65c13.49-1.72,18.44-6.32,18.44-6.32S177.51,63.15,179.72,65.55Z"/><path class="cls-12" d="M174.12,59.63c1.46.93,1.61,3.7,1.61,3.7s-4.95,4.6-18.44,6.32a1.65,1.65,0,0,0-.46-.06s.72-.36-1.24-1h0a31.06,31.06,0,0,0,11.39-3A21.9,21.9,0,0,0,173,60.43,6.65,6.65,0,0,0,174.12,59.63Z"/><path class="cls-11" d="M174.52,55.32c1.39.47,1.84,2.23-.07,4a4.28,4.28,0,0,1-.33.29,6.65,6.65,0,0,1-1.09.8A21.9,21.9,0,0,1,167,65.55a31.06,31.06,0,0,1-11.39,3c-.29,0-.59,0-.89.06a34,34,0,0,1-5.64-.2,8.47,8.47,0,0,1-1.32-.24,4.25,4.25,0,0,1-.9-.33c-1.86-.91-1.44-2.63,0-4.52A29.07,29.07,0,0,1,152.67,58c1.21,1.1,3.92,1.3,3.92,1.3A4.54,4.54,0,0,0,164,61.42c2.6-2.1-.12-3.78-.36-3.92.77.62.36,2.52-1.6,2.52s-1.49-2.39-3.83-3.56a3.65,3.65,0,0,0,.43-1.43l1.64-.05a5.54,5.54,0,0,1,.27-2.42,6.09,6.09,0,0,1,2.65-3.07c.18.18.34.37.49.55a17.21,17.21,0,0,1,1.56,2.09l.2-.08a13.43,13.43,0,0,0-1.07-3,16.83,16.83,0,0,0,9.77,1.73S175.19,52,174.52,55.32ZM172,58.4c.87.62,3.38-1.5,1.38-1.94Z"/><path class="cls-13" d="M173.35,56.46c2,.44-.51,2.56-1.38,1.94Z"/><path class="cls-4" d="M156.7,137.35a16.88,16.88,0,0,1-3.83-.48c-11.08-2.67-14.31-15.86-11-29,3.11,4.82,18.28,9.08,31.34,2.77h0c1.45,12.25-2.31,20.48-8.13,24.28A14.89,14.89,0,0,1,156.7,137.35Z"/><path class="cls-14" d="M141,112.23a33.21,33.21,0,0,0,.21,11.34c4.67,6,11,10.39,18.08,13.57a14.88,14.88,0,0,0,5.77-2.22,16,16,0,0,0,3.43-3.08A122.71,122.71,0,0,1,141,112.23Z"/><path class="cls-14" d="M173.22,110.64h0a33.38,33.38,0,0,1-18.09,3c5.6,4.09,11.2,8.21,16.69,12.47C173.35,122,174,116.84,173.22,110.64Z"/><path class="cls-15" d="M170.34,165.26c1.91,2.53,0,5.6,0,5.6l-2.63.13v-2a12.72,12.72,0,0,1-13.39,1.33,26,26,0,0,0,7.83-3,16.55,16.55,0,0,0,2.94-2.12S165.42,167.13,170.34,165.26Z"/><path class="cls-8" d="M165.09,134.92c2.74,14.57,1.09,25.25.33,28.93-2.65,1.41-3.72-.58-3.72-.58s-.54-15.14-5-25.92A14.89,14.89,0,0,0,165.09,134.92Z"/><path class="cls-16" d="M165.42,52.05l-.2.08A17.21,17.21,0,0,0,163.66,50c-.15-.18-.31-.37-.49-.55-.41-.45-.83-.88-1.28-1.3s-1.14-.85-1.63-1.34a2.69,2.69,0,0,1-.27-.32,8.44,8.44,0,0,1-1.39-2.35l.11-.17a4.24,4.24,0,0,1,1.55.32,6.27,6.27,0,0,1,1.17.63,7.08,7.08,0,0,1,1.76,2.12,13.73,13.73,0,0,1,1.16,2A13.43,13.43,0,0,1,165.42,52.05Z"/><path class="cls-17" d="M165.42,163.85c-.2.93-.33,1.41-.33,1.41a16.55,16.55,0,0,1-2.94,2.12,15.62,15.62,0,0,1-9.85-1,35.94,35.94,0,0,0,9.4-3.06S162.77,165.26,165.42,163.85Z"/><path class="cls-16" d="M163.61,57.5c.24.14,3,1.82.36,3.92a4.54,4.54,0,0,1-7.38-2.13s-2.71-.2-3.92-1.3a1.57,1.57,0,0,1-.42-1.86c1.13-.13,2.07-.31,2.07-.31s1.17,1.59,3.86.64C160.52,57.63,160,60,162,60S164.38,58.12,163.61,57.5Z"/><path class="cls-11" d="M161.89,48.19c.45.42.87.85,1.28,1.3a6.09,6.09,0,0,0-2.65,3.07,5.54,5.54,0,0,0-.27,2.42l-1.64.05c0-1.89-4.29.79-4.29.79s-.94.18-2.07.31c-1.67.21-3.78.33-3.86-.31-.43-3.44,11.87-9,11.87-9C160.75,47.34,161.37,47.7,161.89,48.19Z"/><path class="cls-12" d="M159.65,71c2.69,2.18,2,9.09,5.44,12.68,0,0-8.7-2.31-9.37-9.94a1.32,1.32,0,0,0,1.24-.46c.06,2.84,2.89,3.69.32-.46.13-.22.25-.46.38-.7,1.7,2.36,3.45.6.24-.43A1.6,1.6,0,0,0,158,70.3,3,3,0,0,1,159.65,71Z"/><path class="cls-7" d="M157.9,71.65c3.21,1,1.46,2.79-.24.43,0-.08.1-.18.15-.26A.7.7,0,0,0,157.9,71.65Z"/><path class="cls-18" d="M158.61,55a3.65,3.65,0,0,1-.43,1.43c-2.69.95-3.86-.64-3.86-.64S158.61,53.14,158.61,55Z"/><path class="cls-7" d="M157.28,72.78c2.57,4.15-.26,3.3-.32.46h0A2.44,2.44,0,0,0,157.28,72.78Z"/><path class="cls-16" d="M157.39,81.26a1.17,1.17,0,0,1,.64,1.49c-.17.68-.73,1.14-1.25,1a1.14,1.14,0,0,1-.63-1.48C156.31,81.59,156.87,81.13,157.39,81.26Z"/><path class="cls-4" d="M157.29,69.65a1.11,1.11,0,0,1,.74.65,1.6,1.6,0,0,1-.13,1.35.7.7,0,0,1-.09.17c-.05.08-.11.18-.15.26-.13.24-.25.48-.38.7a2.44,2.44,0,0,1-.32.45h0a1.32,1.32,0,0,1-1.24.46,3.72,3.72,0,0,1-.81-.24h0a4.14,4.14,0,0,0,.86-1.81,4.84,4.84,0,0,1,1.06-2A1.65,1.65,0,0,1,157.29,69.65Z"/><path class="cls-12" d="M152.9,71.66a4.56,4.56,0,0,1,.45-1.35,5.32,5.32,0,0,1,1.35-1.69h0c.3,0,.6,0,.89-.06h0c2,.66,1.24,1,1.24,1a4.84,4.84,0,0,0-1.06,2,4.14,4.14,0,0,1-.86,1.81,1,1,0,0,1-.59.23,2.6,2.6,0,0,1-.78-.08.73.73,0,0,1-.42-.34A2.44,2.44,0,0,1,152.9,71.66Z"/><path class="cls-16" d="M156,89.16a1.18,1.18,0,0,1,.68,1.47c-.16.69-.7,1.16-1.22,1.05a1.16,1.16,0,0,1-.68-1.46C154.92,89.52,155.47,89.05,156,89.16Z"/><path class="cls-16" d="M155.41,97.76a1.17,1.17,0,0,1,.87,1.36c-.06.72-.54,1.25-1.08,1.21a1.16,1.16,0,0,1-.86-1.36C154.4,98.26,154.88,97.72,155.41,97.76Z"/><path class="cls-19" d="M155.72,39.33c-1.58,3.91-9.25,8.43-19.75,11.75-2.79.89-5.79,1.68-8.93,2.36l-1,.21c-14.5,3-27.15,2.39-30.94-1.2h0a4.94,4.94,0,0,1-1.9-6c0,.11.11.22.17.33l0,0a3.12,3.12,0,0,0,0,1c1.14,5.25,15.93,6.5,33,2.81s30.06-11,28.92-16.21a3.26,3.26,0,0,0-.29-.79,2.93,2.93,0,0,0,0-.41,4.94,4.94,0,0,1,.66,6.19Z"/><path class="cls-20" d="M155.33,34.35c1.14,5.25-11.81,12.51-28.92,16.21s-31.89,2.44-33-2.81a3.12,3.12,0,0,1,0-1l0,0a6.22,6.22,0,0,0,2.28,2c.39.24.81.5,1.28.75h0a8.65,8.65,0,0,0,2.16.89,30.29,30.29,0,0,0,3.86.41,38,38,0,0,0,3.84.56c1.24,0,2.54-.25,3.88-.3s2.56.17,3.9,0l.38,0h0c1.12-.15,2.26-.51,3.45-.66s2.58-.09,3.88-.32,2.66-.79,4-1.06,2.61-.31,3.85-.62,2.45-1,3.67-1.32c.59-.18,1.19-.3,1.79-.43a17.55,17.55,0,0,0,2-.51c1.27-.45,2.37-1.18,3.53-1.65s2.55-.8,3.66-1.34S147,41.62,148,41a34,34,0,0,0,3.34-2,12.5,12.5,0,0,0,2.46-2.94A6.8,6.8,0,0,0,155,33.56,3.26,3.26,0,0,1,155.33,34.35Z"/><path class="cls-21" d="M155.07,33.15a2.93,2.93,0,0,1,0,.41,6.8,6.8,0,0,1-1.25,2.54A12.5,12.5,0,0,1,151.33,39a1.83,1.83,0,0,0-.23-2.7,19.62,19.62,0,0,0,1.34-1.76,3.36,3.36,0,0,0,.85-3,3.67,3.67,0,0,0-1.09-1.5,8.53,8.53,0,0,0-3.4-1.69,9.58,9.58,0,0,0-1-.21c.18-.37.6-.65,1.51-.55h0c4.74,1.5,5.29,3.34,5.75,4.95A2.38,2.38,0,0,1,155.07,33.15Z"/><path class="cls-8" d="M154.91,73.45h0a41.14,41.14,0,0,0-.59,8.13,77.57,77.57,0,0,0-1.45,30h0c-6.42-1.17-9.28-4-9.28-4a22.37,22.37,0,0,1-1-2.19c-3.86-9.78-.34-19.68,1.24-23.3.41-.92.69-1.43.69-1.43s.4-9.2,2.31-12.77a4.25,4.25,0,0,0,.9.33c.16.53,3.82,2.95,3.82,2.95-1.68,1.88-2.11,6.64-4.33,10.11,0,0,5.82-2.45,7.09-7.56A1,1,0,0,0,154.91,73.45Zm-2.6,8.76a.92.92,0,0,0-.54-1.15c-.42-.09-.84.29-1,.84a.92.92,0,0,0,.54,1.15C151.77,83.13,152.2,82.75,152.31,82.21Zm-1.56,7.65a.93.93,0,0,0-.45-1.19c-.41-.12-.86.22-1,.76a.9.9,0,0,0,.45,1.18A.91.91,0,0,0,150.75,89.86Zm-.43,8.52a.91.91,0,0,0-.67-1.07c-.43,0-.8.39-.85,1s.26,1,.68,1.07S150.28,98.94,150.32,98.38Z"/><path class="cls-4" d="M154.7,68.62h0a5.32,5.32,0,0,0-1.35,1.69,2.21,2.21,0,0,0-1.79.82s-3.66-2.42-3.82-2.95a8.47,8.47,0,0,0,1.32.24A34,34,0,0,0,154.7,68.62Z"/><path class="cls-4" d="M153.54,73.6a2.6,2.6,0,0,0,.78.08c-1.27,5.11-7.09,7.56-7.09,7.56,2.22-3.47,2.65-8.23,4.33-10.11a2.21,2.21,0,0,1,1.79-.82,4.56,4.56,0,0,0-.45,1.35c-3.22,2.82-1.05,4.23.22,1.6A.73.73,0,0,0,153.54,73.6Z"/><path class="cls-22" d="M153.29,31.62a3.36,3.36,0,0,1-.85,3,19.62,19.62,0,0,1-1.34,1.76,1.42,1.42,0,0,0-1.83,0c.42-.44.75-.88,1.07-1.27.79-1,1.37-1.88,1.19-2.74s-1.08-1.44-2.21-2c-.46-.22-.95-.49-1.52-.72a2,2,0,0,1,0-1.39,9.58,9.58,0,0,1,1,.21,8.53,8.53,0,0,1,3.4,1.69A3.67,3.67,0,0,1,153.29,31.62Z"/><path class="cls-7" d="M152.9,71.66a2.44,2.44,0,0,0,.22,1.6C151.85,75.89,149.68,74.48,152.9,71.66Z"/><path class="cls-16" d="M151.77,81.06a.92.92,0,0,1,.54,1.15c-.11.54-.54.92-.95.84a.92.92,0,0,1-.54-1.15C150.93,81.35,151.35,81,151.77,81.06Z"/><path class="cls-23" d="M151.53,32.33c.18.86-.4,1.76-1.19,2.74-.32.39-.65.83-1.07,1.27h0a6.62,6.62,0,0,1-.71.68l-24.48,1.34-.13-.08,23.86-8.68c.57.23,1.06.5,1.52.72C150.45,30.89,151.35,31.47,151.53,32.33Zm-3-1-.08-.17s-2-1.41-1.58-.12c0,0-2.19-.25-1.25.7,0,0-.83.28-.82.72s1.19.41,1.19.41c.07.76,1.27-.1,1.27-.1C147.1,33.47,148.19,33.15,148.55,31.33Zm-1.85,3.2a.5.5,0,0,0,.43-.57.51.51,0,0,0-.63-.35.48.48,0,1,0,.2.92Zm-8,1.73c3.46-.7,5.31-1.76,2.91-2.06s-4.89-.27-7,1.2C133.5,36.19,135.23,37,138.68,36.26Z"/><path class="cls-21" d="M151.1,36.34a1.83,1.83,0,0,1,.23,2.7A34,34,0,0,1,148,41c-1,.62-2,1.49-3.27,2.09s-2.41.82-3.66,1.34-2.26,1.2-3.53,1.65a17.55,17.55,0,0,1-2,.51h0a2.45,2.45,0,0,0,.31-2.31c.31-.08.6-.16.89-.26,1.22-.43,2.29-1.11,3.41-1.57s2.46-.75,3.53-1.27,2.14-1.39,3.15-2a31.13,31.13,0,0,0,3.23-1.87A7.59,7.59,0,0,0,151.1,36.34Z"/><path class="cls-16" d="M150.3,88.67a.93.93,0,0,1,.45,1.19.91.91,0,0,1-1,.75.9.9,0,0,1-.45-1.18C149.44,88.89,149.89,88.55,150.3,88.67Z"/><path class="cls-22" d="M151.1,36.34a7.59,7.59,0,0,1-1,1,31.13,31.13,0,0,1-3.23,1.87c-1,.59-2,1.41-3.15,2s-2.33.78-3.53,1.27S138,43.59,136.74,44c-.29.1-.58.18-.89.26a1.5,1.5,0,0,0-1.36-.76,10.06,10.06,0,0,0,1.11-.3c1.13-.37,2.13-1,3.18-1.37s2.29-.68,3.29-1.13,2-1.19,3-1.7a31.15,31.15,0,0,0,3-1.61,5,5,0,0,0,.48-.38,6.62,6.62,0,0,0,.71-.68h0A1.42,1.42,0,0,1,151.1,36.34Z"/><path class="cls-16" d="M149.65,97.31a.91.91,0,0,1,.67,1.07c0,.56-.42,1-.84,1s-.72-.51-.68-1.07S149.22,97.28,149.65,97.31Z"/><path class="cls-21" d="M149.27,27.67c-.91-.1-1.33.18-1.51.55-.81-.14-1.64-.22-2.61-.34-1.21-.13-2.47-.51-3.84-.55s-2.53.25-3.88.3-2.56-.17-3.89-.06a17.17,17.17,0,0,0-2,.35c.09-.48.44-1,1.42-1.23,1.28-.12,2.54.07,3.74,0s2.55-.34,3.74-.31,2.53.38,3.69.5a30.12,30.12,0,0,1,3.71.36C148.38,27.4,148.84,27.53,149.27,27.67Z"/><path class="cls-24" d="M148.47,31.16l.08.17c-.36,1.82-1.45,2.14-1.27,1.44,0,0-1.2.86-1.27.1,0,0-1.11,0-1.19-.41s.82-.72.82-.72c-.94-.95,1.25-.7,1.25-.7C146.49,29.75,148.47,31.16,148.47,31.16Z"/><path class="cls-23" d="M133,39.6h0c.42-.07.92-.08,1,.23a5.59,5.59,0,0,1-2.25,1s-.2.95.41.86a21.7,21.7,0,0,0,2.55-.87,2.52,2.52,0,0,1-.88,1.31c-.17.18-.23.27,0,.32.65.09,3.69-.68,2.34-2.68s-3.42-.48-3.81,0A5.67,5.67,0,0,1,133,39.6Zm1.47,3.92c-.6.14-1.23.26-1.85.4l-8.57-5.55L148.55,37a5,5,0,0,1-.48.38A31.15,31.15,0,0,1,145,39c-.93.51-1.84,1.2-3,1.7s-2.17.7-3.29,1.13-2.05,1-3.18,1.37A10.06,10.06,0,0,1,134.49,43.52Zm5-3.88c.88,1.13,4.33-1.4,2.33-1.23C141.22,38.46,138.64,38.51,139.51,39.64Zm-9-.14c0-.3-.76-.49-.76-.49.08-.55-.91-.16-.91-.16.25-.45-.56-.42-1.13.78l0,.14s1.14,1.33,1.08.36c0,0,1.49.55,1-.28C129.84,39.85,130.47,39.8,130.54,39.5Z"/><path class="cls-23" d="M133.31,33.47a2.18,2.18,0,0,1-1.16-.73,18.32,18.32,0,0,0,2.35-.23c.51-.15,0-.83,0-.83a4.8,4.8,0,0,1-2.14.05c0-.3.42-.47.78-.56h0c.24-.06.45-.09.45-.09-.5-.26-2.7-.73-3.06,1.36s2.36,1.61,2.84,1.29C133.6,33.61,133.52,33.55,133.31,33.47Zm14.49-3.86-23.86,8.68-.07,0,7.91-9.14c.25,0,.49-.09.74-.11,1.19-.12,2.35,0,3.47-.06s2.37-.33,3.47-.34,2.33.26,3.4.34a29.23,29.23,0,0,1,3.43.21A7.65,7.65,0,0,1,147.8,29.61Zm-8,.82a.49.49,0,0,0,.39-.57.48.48,0,0,0-.59-.35.48.48,0,0,0-.39.56A.5.5,0,0,0,139.81,30.43Z"/><path class="cls-22" d="M147.76,28.22a2,2,0,0,0,0,1.39,7.65,7.65,0,0,0-1.51-.47,29.23,29.23,0,0,0-3.43-.21c-1.07-.08-2.19-.34-3.4-.34s-2.27.27-3.47.34-2.28-.06-3.47.06c-.25,0-.49.07-.74.11a1.93,1.93,0,0,1-.2-1.18,17.17,17.17,0,0,1,2-.35c1.33-.11,2.64.1,3.89.06s2.64-.34,3.88-.3,2.63.42,3.84.55C146.12,28,147,28.08,147.76,28.22Z"/><path class="cls-25" d="M147.13,34a.55.55,0,1,1-.63-.35A.51.51,0,0,1,147.13,34Z"/><path class="cls-8" d="M146.84,63.33c-1.44,1.89-1.86,3.61,0,4.52-1.91,3.57-2.31,12.77-2.31,12.77s-.28.51-.69,1.43c0,0-12.92-9.15-15.56-24.36,1.79-.5,5.53-1.51,8.73-2.29A13.13,13.13,0,0,0,146.84,63.33Z"/><path class="cls-26" d="M128.91,60.53c3.61,13.5,14.93,21.52,14.93,21.52.41-.92.69-1.43.69-1.43a62.54,62.54,0,0,1,1.14-9.26C139,71,132.92,68,128.91,60.53Z"/><path class="cls-5" d="M141.84,38.41c2-.17-1.45,2.36-2.33,1.23S141.22,38.46,141.84,38.41Z"/><path class="cls-2" d="M141.59,34.2c2.4.3.55,1.36-2.91,2.06s-5.18-.07-4.08-.86C136.7,33.93,139.19,33.89,141.59,34.2Z"/><path class="cls-27" d="M140.2,29.86a.49.49,0,0,1-.39.57.5.5,0,0,1-.59-.36.48.48,0,0,1,.39-.56A.48.48,0,0,1,140.2,29.86Z"/><path class="cls-8" d="M137,55.4c-3.2.78-6.94,1.79-8.73,2.29l-1.08.3L126,53.65l1-.21c3.14-.68,6.14-1.47,8.93-2.36l2,4.08Z"/><path class="cls-28" d="M136.28,39.72c1.35,2-1.69,2.77-2.34,2.68-.27,0-.21-.14,0-.32,1.71-.69,1.81-1.5.88-1.31a21.7,21.7,0,0,1-2.55.87c-.61.09-.41-.86-.41-.86a5.59,5.59,0,0,0,2.25-1c.9-.27.93-1-1-.23h0a5.67,5.67,0,0,0-.55.14C132.86,39.24,134.92,37.71,136.28,39.72Z"/><path class="cls-21" d="M135.85,44.28a2.45,2.45,0,0,1-.31,2.31h0c-.6.13-1.2.25-1.79.43-1.22.36-2.39,1-3.67,1.32s-2.56.34-3.85.62-2.69.84-4,1.06-2.63.14-3.88.32-2.33.51-3.45.66h0a1.7,1.7,0,0,1-1-2.13,4.71,4.71,0,0,0,.53,0c1.21-.11,2.43-.51,3.7-.68s2.48-.09,3.73-.32,2.75-.79,4-1.06,2.52-.3,3.71-.6,2.37-.91,3.53-1.26C134,44.65,135,44.5,135.85,44.28Z"/><path class="cls-22" d="M115.83,47.54c.9-.16,1.82-.42,2.76-.55,1.12-.16,2.3-.13,3.47-.34s2.23-.65,3.38-.89,2.34-.31,3.45-.59,2.21-.8,3.3-1.12l.45-.13c.62-.14,1.25-.26,1.85-.4a1.5,1.5,0,0,1,1.36.76c-.89.22-1.84.37-2.76.64-1.16.35-2.29.94-3.53,1.26s-2.47.33-3.71.6-2.78.85-4,1.06-2.53.16-3.73.32-2.49.57-3.7.68a4.71,4.71,0,0,1-.53,0,2,2,0,0,1,1.25-1.23C115.38,47.62,115.61,47.58,115.83,47.54Z"/><path class="cls-28" d="M134.51,31.68s.5.68,0,.83a18.32,18.32,0,0,1-2.35.23c-.81.19-.44.79,1.16.73.21.08.29.14.09.26-.48.32-3.19.8-2.84-1.29s2.56-1.62,3.06-1.36c0,0-.21,0-.45.09h0c-1.88.1-1.6.68-.78.56A4.8,4.8,0,0,0,134.51,31.68Z"/><path class="cls-23" d="M124.07,38.37l8.57,5.55-.45.13c-1.09.32-2.15.83-3.3,1.12s-2.3.33-3.45.59-2.25.68-3.38.89-2.35.18-3.47.34c-.94.13-1.86.39-2.76.55l7.92-9.15Zm-.14,6.39c.87,1.13,4.32-1.4,2.32-1.23C125.63,43.58,123.05,43.62,123.93,44.76Zm-.2-4a.47.47,0,1,0-.19-.92.52.52,0,0,0-.44.58A.51.51,0,0,0,123.73,40.73Zm-2.59,4.52a.5.5,0,0,0,.39-.57.5.5,0,0,0-1,.21A.48.48,0,0,0,121.14,45.25Z"/><path class="cls-23" d="M131.78,29.1l-7.91,9.14-6.79-4.4c.79-.48,1.25-1.13.2-1a10.22,10.22,0,0,0-1.55.17l-.5-.32.24-.07c1.1-.31,2.16-.83,3.31-1.12s2.29-.33,3.45-.58,2.25-.69,3.38-.89,2.35-.18,3.47-.35C130,29.51,130.9,29.26,131.78,29.1Zm-3.5,2.33a.49.49,0,0,0,.38-.57.48.48,0,0,0-.59-.36.48.48,0,1,0,.21.93Zm-6.59,3.23c1.42.14,4.26-.83,4.17-1.94s-1.84-1.43-3.79-.37S119,34.39,121.69,34.66Zm3.08,1.08,0-.11s-1.3-.93-1-.08c0,0-1.44-.16-.81.46,0,0-.56.19-.56.47s.79.27.79.27c.05.5.84-.06.84-.06C123.83,37.15,124.53,36.94,124.77,35.74Z"/><path class="cls-21" d="M133,26.69c-1,.26-1.33.75-1.42,1.23-.62.14-1.24.28-1.88.37-1.26.16-2.58.08-3.88.31s-2.66.79-3.95,1.07-2.62.29-3.86.61c-1.05.28-2,.75-3,1.11-.23-.42-.7-.74-1.61-.53h0c.32-.06.64-.15,1-.24,1.17-.35,2.3-.94,3.54-1.26s2.83-.41,4.06-.68,2.42-.77,3.64-1,2.52-.15,3.74-.32S131.79,26.8,133,26.69Z"/><path class="cls-22" d="M131.58,27.92a1.93,1.93,0,0,0,.2,1.18c-.88.16-1.78.41-2.7.54-1.12.17-2.3.13-3.47.35s-2.23.64-3.38.89-2.34.3-3.45.58-2.21.81-3.31,1.12l-.24.07a2.37,2.37,0,0,0-.25-1.26c1-.36,2-.83,3-1.11,1.24-.32,2.57-.34,3.86-.61s2.68-.85,3.95-1.07,2.62-.15,3.88-.31C130.34,28.2,131,28.06,131.58,27.92Z"/><path class="cls-24" d="M129.78,39s.77.19.76.49-.7.35-.7.35c.5.83-1,.28-1,.28.06,1-1.08-.36-1.08-.36l0-.14c.57-1.2,1.38-1.23,1.13-.78C128.87,38.85,129.86,38.46,129.78,39Z"/><path class="cls-27" d="M128.66,30.86a.5.5,0,0,1-1,.21.5.5,0,0,1,.39-.57A.48.48,0,0,1,128.66,30.86Z"/><path class="cls-29" d="M126.25,43.53c2-.17-1.45,2.36-2.32,1.23S125.63,43.58,126.25,43.53Z"/><path class="cls-29" d="M125.86,32.72c.09,1.11-2.75,2.08-4.17,1.94-2.69-.27-1.57-1.24.38-2.31S125.79,31.62,125.86,32.72Z"/><path class="cls-24" d="M124.72,35.63l0,.11c-.24,1.2-.94,1.41-.83.95,0,0-.79.56-.84.06,0,0-.73,0-.79-.27s.56-.47.56-.47c-.63-.62.81-.46.81-.46C123.42,34.7,124.72,35.63,124.72,35.63Z"/><path class="cls-27" d="M124.16,40.16a.5.5,0,0,1-.43.57.51.51,0,0,1-.63-.34.52.52,0,0,1,.44-.58A.5.5,0,0,1,124.16,40.16Z"/><path class="cls-23" d="M123.87,38.24l-.09.11-.11,0L120,38.6a2.13,2.13,0,0,0,.58-1c.56-2.19-3.09-1.43-3.76-1.07-.27.15-.16.21.11.27a2.9,2.9,0,0,1,1.54.64s-2.47.26-3.16.46-.05.86-.05.86a8.57,8.57,0,0,1,2.87-.26.27.27,0,0,1-.11.23l-19,1a5.39,5.39,0,0,1,.63-.51,30,30,0,0,1,3-1.61c.95-.52,1.86-1.21,3-1.71s2.17-.7,3.3-1.13,2-1,3.19-1.38c1-.33,2.09-.47,3.15-.76l.5.32c-.7.15-1.26.44-.78,1.06s1.41.25,2.13-.19Zm-10-.83a.49.49,0,1,0-.2-.94.49.49,0,1,0,.2.94Zm-5,.64c.82-.33,4.61-1.53.84-2.27S106.26,39.12,108.9,38.05Z"/><path class="cls-23" d="M123.75,38.39l-7.92,9.15c-.22,0-.45.08-.68.1-1.19.12-2.35,0-3.47.07s-2.37.33-3.46.33-2.34-.25-3.41-.33a34.32,34.32,0,0,1-3.43-.21A8.05,8.05,0,0,1,99.9,47l23.77-8.65Zm-6.61,4.31c1.3.56,1.9-1.61.71-1.17C117.48,41.67,115.83,42.13,117.14,42.7Zm-3.39,2.5c2.39-.47,3.63-1.39,1.91-1.85s-3.47-.58-4.85.75C110.08,44.8,111.35,45.68,113.75,45.2Zm-5.39.89c0-.38-1-.62-1-.62.09-.69-1.16-.19-1.16-.19.32-.59-.71-.54-1.43,1l0,.17s1.45,1.69,1.37.45c0,0,1.89.7,1.26-.35C107.47,46.54,108.27,46.48,108.36,46.09Z"/><path class="cls-23" d="M123.67,38.39,99.9,47c-.39-.16-.75-.33-1.08-.5l-.47-.23c-1.13-.56-2-1.15-2.21-2s.39-1.76,1.19-2.73A13.66,13.66,0,0,1,99,39.75l19-1a2.29,2.29,0,0,1-1,.42h0a5.61,5.61,0,0,1-.61.13A4.06,4.06,0,0,0,120,38.6Zm-15,3.45c.62-.05,3.2-.08,2.34-1.22S106.63,42,108.63,41.84Zm-3.15.75c.73-.21,0-1.19,0-1.19a6.83,6.83,0,0,1-3,.09c0-.44.6-.68,1.12-.81h0a5.15,5.15,0,0,1,.66-.12c-.72-.37-3.85-1-4.35,1.93s3.34,2.28,4,1.84c.28-.18.17-.26-.12-.37a3.17,3.17,0,0,1-1.67-1A26.75,26.75,0,0,0,105.48,42.59Z"/><path class="cls-27" d="M121.53,44.68a.5.5,0,0,1-.39.57.47.47,0,1,1-.2-.92A.49.49,0,0,1,121.53,44.68Z"/><path class="cls-28" d="M116.77,36.5c.67-.36,4.32-1.12,3.76,1.07a2.13,2.13,0,0,1-.58,1l-1.08.06c.19-.18-.19-.29-.79-.19a8.57,8.57,0,0,0-2.87.26s-.65-.66.05-.86,3.16-.46,3.16-.46c1.09-.27.62-.86-1.54-.64C116.61,36.71,116.5,36.65,116.77,36.5Z"/><path class="cls-28" d="M118.87,38.66,120,38.6a4.06,4.06,0,0,1-3.57.65,5.61,5.61,0,0,0,.61-.13h0A4.2,4.2,0,0,0,118.87,38.66Z"/><path class="cls-25" d="M117.85,41.53c1.19-.44.59,1.73-.71,1.17S117.48,41.67,117.85,41.53Z"/><path class="cls-25" d="M117.28,32.8c1-.09.59.56-.2,1L115.73,33A10.22,10.22,0,0,1,117.28,32.8Z"/><path class="cls-25" d="M115.73,33l1.35.87c-.72.44-1.71.73-2.13.19S115,33.12,115.73,33Z"/><path class="cls-2" d="M115.66,43.35c1.72.46.48,1.38-1.91,1.85s-3.67-.4-2.94-1.1C112.19,42.77,114,42.9,115.66,43.35Z"/><path class="cls-22" d="M115,31.39a2.37,2.37,0,0,1,.25,1.26c-1.06.29-2.16.43-3.15.76-1.14.38-2.15,1-3.19,1.38s-2.3.67-3.3,1.13-2,1.19-3,1.71a30,30,0,0,0-3,1.61,5.39,5.39,0,0,0-.63.51,1.34,1.34,0,0,0-.65-1c.55-.35,1.14-.69,1.81-1.09a37.52,37.52,0,0,1,3.26-2.09c1.11-.55,2.41-.82,3.66-1.34s2.26-1.2,3.52-1.65,2.52-.55,3.78-.94C114.56,31.54,114.77,31.47,115,31.39Z"/><path class="cls-21" d="M114.94,51l-.38,0c-1.34.12-2.65-.09-3.9,0s-2.64.34-3.88.3a38,38,0,0,1-3.84-.56,30.29,30.29,0,0,1-3.86-.41,8.65,8.65,0,0,1-2.16-.89h0A2.08,2.08,0,0,1,96.64,47a11.12,11.12,0,0,0,2.9,1.3,34.8,34.8,0,0,0,3.72.36c1.15.12,2.37.47,3.68.5s2.44-.25,3.74-.3c1,0,2.12.09,3.22,0A1.7,1.7,0,0,0,114.94,51Z"/><path class="cls-21" d="M115,31.39c-.21.08-.42.15-.64.21-1.26.39-2.59.53-3.78.94s-2.37,1.17-3.52,1.65-2.55.79-3.66,1.34a37.52,37.52,0,0,0-3.26,2.09c-.67.4-1.26.74-1.81,1.09a2.08,2.08,0,0,0-1.76.17c.26-.23.53-.45.82-.69a29.45,29.45,0,0,1,3.23-1.86c1-.6,2-1.41,3.15-2s2.33-.78,3.54-1.27,2.18-1.14,3.39-1.57c.86-.3,1.77-.44,2.69-.66h0C114.28,30.65,114.75,31,115,31.39Z"/><path class="cls-5" d="M114.4,36.81a.62.62,0,0,1-1.18.26.56.56,0,0,1,.49-.6A.55.55,0,0,1,114.4,36.81Z"/><path class="cls-22" d="M111.68,47.71c1.12-.07,2.28,0,3.47-.07a2,2,0,0,0-1.25,1.23c-1.1,0-2.18-.09-3.22,0-1.3,0-2.55.32-3.74.3s-2.53-.38-3.68-.5a34.8,34.8,0,0,1-3.72-.36,11.12,11.12,0,0,1-2.9-1.3,1.87,1.87,0,0,1,2.18-.42c.33.17.69.34,1.08.5a8.05,8.05,0,0,0,1.48.46,34.32,34.32,0,0,0,3.43.21c1.07.08,2.19.33,3.41.33S110.48,47.78,111.68,47.71Z"/><path class="cls-29" d="M111,40.62c.86,1.14-1.72,1.17-2.34,1.22C106.63,42,110.1,39.48,111,40.62Z"/><path class="cls-2" d="M109.74,35.78c3.77.74,0,1.94-.84,2.27C106.26,39.12,106,35,109.74,35.78Z"/><path class="cls-24" d="M107.4,45.47s1,.24,1,.62-.89.45-.89.45c.63,1.05-1.26.35-1.26.35.08,1.24-1.37-.45-1.37-.45l0-.17c.72-1.53,1.75-1.58,1.43-1C106.24,45.28,107.49,44.78,107.4,45.47Z"/><path class="cls-28" d="M105.5,41.4s.71,1,0,1.19a26.75,26.75,0,0,1-3.35.33c-1.14.26-.61,1.12,1.67,1,.29.11.4.19.12.37-.69.44-4.54,1.14-4-1.84s3.63-2.3,4.35-1.93a5.15,5.15,0,0,0-.66.12h0c-2.69.15-2.28,1-1.12.81A6.83,6.83,0,0,0,105.5,41.4Z"/><path class="cls-5" d="M103.8,44c-2.28.08-2.81-.78-1.67-1A3.17,3.17,0,0,0,103.8,44Z"/><path class="cls-22" d="M98.35,46.31l.47.23a1.87,1.87,0,0,0-2.18.42l-.4-.24a3.42,3.42,0,0,1-2-2.33,3.76,3.76,0,0,1,.38-1.82,8.33,8.33,0,0,1,2.41-3,13.52,13.52,0,0,1,1.29-.91,1.34,1.34,0,0,1,.65,1,13.66,13.66,0,0,0-1.63,1.82c-.8,1-1.38,1.88-1.19,2.73S97.22,45.75,98.35,46.31Z"/><path class="cls-21" d="M96.55,38.88a2.08,2.08,0,0,1,1.76-.17,13.52,13.52,0,0,0-1.29.91,8.33,8.33,0,0,0-2.41,3,3.76,3.76,0,0,0-.38,1.82,3.42,3.42,0,0,0,2,2.33l.4.24a2.08,2.08,0,0,0,.28,2.46c-.47-.25-.89-.51-1.28-.75a6.22,6.22,0,0,1-2.28-2c-.06-.11-.12-.22-.17-.33h0a2.38,2.38,0,0,1-.11-.38C92.83,44.3,92.56,42.35,96.55,38.88Z"/><path d="M152.35,166.3a15.16,15.16,0,0,0,2.37.84,17.32,17.32,0,0,0,2.47.46,13.8,13.8,0,0,0,5-.26v.06a8.39,8.39,0,0,1-1.2.49c-.42.11-.84.2-1.27.27a9.92,9.92,0,0,1-2.61,0,11.42,11.42,0,0,1-2.52-.6,8,8,0,0,1-2.27-1.24Z"/><path class="cls-30" d="M161.7,163.27s1.07,2,3.72.58a66.83,66.83,0,0,0,1.16-15.12,56.42,56.42,0,0,0-7.85-5.32A101.41,101.41,0,0,1,161.7,163.27Z"/><g class="cls-31"><path class="cls-32" d="M161.76,163.24a2.23,2.23,0,0,0,1.7,1,3.52,3.52,0,0,0,2-.46l0,.05a2,2,0,0,1-.87.78,2.32,2.32,0,0,1-1.2.22,2,2,0,0,1-1.16-.51,1.56,1.56,0,0,1-.53-1.09Z"/></g><g class="cls-31"><path class="cls-32" d="M165.22,134.9a87,87,0,0,1,1.61,15.19,75.18,75.18,0,0,1-.35,7.65,50.93,50.93,0,0,1-1.26,7.54l-.18-.05.05-7.62c0-1.26,0-2.51,0-3.76s0-2.49,0-3.74,0-2.5,0-3.75-.06-2.5,0-3.76c0-2.52-.07-5,.08-7.67Z"/></g><path class="cls-33" d="M165.25,134.89a27.52,27.52,0,0,1,2.66,7.41,36.93,36.93,0,0,1,.87,7.77,35.37,35.37,0,0,1-.76,7.81,22.31,22.31,0,0,1-2.78,7.41l-.22-.07c.3-1.22.51-2.48.69-3.73s.33-2.52.44-3.78a74.42,74.42,0,0,0,.26-7.61q0-3.81-.38-7.61c-.12-1.26-.27-2.53-.45-3.78s-.35-2.52-.57-3.78Z"/><path class="cls-6" d="M156.86,137.29a19.81,19.81,0,0,1,3.62,5.9,32,32,0,0,1,1.87,6.53,34.63,34.63,0,0,1,.53,6.74,24.09,24.09,0,0,1-1,6.79h-.24c-.07-1.1-.16-2.2-.27-3.29s-.22-2.2-.35-3.3c-.26-2.18-.58-4.37-1-6.53s-.83-4.33-1.38-6.47c-.28-1.06-.58-2.12-.92-3.17s-.68-2.09-1.09-3.12Z"/><g class="cls-31"><path class="cls-32" d="M165.11,83.69a8.56,8.56,0,0,1-3.73-.75,11.58,11.58,0,0,1-1.71-.89,13.87,13.87,0,0,1-1.53-1.22,10.89,10.89,0,0,1-1.27-1.52,8.5,8.5,0,0,1-.9-1.78,6.57,6.57,0,0,1-.27-3.84l.12,0a9.45,9.45,0,0,0,1,3.45A10.54,10.54,0,0,0,159,80a14.41,14.41,0,0,0,2.88,2.15,16,16,0,0,0,3.31,1.45Z"/></g><path class="cls-34" d="M165.12,83.66a16.65,16.65,0,0,1-3.34-1.41,14.41,14.41,0,0,1-2.94-2.15,10.46,10.46,0,0,1-2.15-2.92,9.71,9.71,0,0,1-1-3.5h.06a13.14,13.14,0,0,0,.55,1.71A9.21,9.21,0,0,0,157.1,77a12.52,12.52,0,0,0,2.15,2.71A18.27,18.27,0,0,0,162,81.84a28.72,28.72,0,0,0,3.13,1.76Z"/><g class="cls-31"><path class="cls-32" d="M155,73.46c-.21,1.34-.38,2.69-.5,4.05a23.18,23.18,0,0,0-.08,4.08h0A69.26,69.26,0,0,0,153,89c-.35,2.49-.6,5-.74,7.51a70.29,70.29,0,0,0,.73,15.06h-.06a50.07,50.07,0,0,1-1.11-7.5c-.09-1.27-.16-2.53-.18-3.8s0-2.53.07-3.8.14-2.53.25-3.79.3-2.52.49-3.77a56,56,0,0,1,1.6-7.44v.14a16.18,16.18,0,0,1,0-2.09c0-.69.1-1.38.2-2.05.19-1.36.41-2.71.72-4Z"/></g><path class="cls-33" d="M155,73.45c-.17,1.36-.29,2.72-.36,4.07a25.92,25.92,0,0,0,0,4v0l0,.06c-.56,2.42-1,4.9-1.36,7.38-.17,1.25-.31,2.49-.43,3.74s-.24,2.49-.31,3.75-.12,2.5-.14,3.75,0,2.51,0,3.77c.08,2.5.22,5,.54,7.52h-.05a70.34,70.34,0,0,1-.76-15.07q.18-3.77.74-7.52a69.33,69.33,0,0,1,1.47-7.41h0a24.3,24.3,0,0,1,.08-4.09c.13-1.35.3-2.71.52-4Z"/><g class="cls-31"><path class="cls-32" d="M147.25,81.18a14.68,14.68,0,0,0,2.3-1.34,15.06,15.06,0,0,0,2-1.71,9.73,9.73,0,0,0,2.72-4.47l.12,0a5,5,0,0,1-.38,2.88,6.91,6.91,0,0,1-.7,1.28,10,10,0,0,1-.93,1.12,10.72,10.72,0,0,1-1.1.92,8.41,8.41,0,0,1-1.23.72,6.27,6.27,0,0,1-2.78.68Z"/></g><path class="cls-12" d="M147.26,81.21c.73-.54,1.42-1.1,2.1-1.65a24.25,24.25,0,0,0,1.92-1.72A17.17,17.17,0,0,0,153,75.91a8.75,8.75,0,0,0,.71-1.08,12.9,12.9,0,0,0,.65-1.16h.06a9.9,9.9,0,0,1-2.69,4.58A14.63,14.63,0,0,1,149.62,80a14.8,14.8,0,0,1-2.33,1.31Z"/><path class="cls-6" d="M146.86,63.38a7.81,7.81,0,0,1-3.52-.35,9.45,9.45,0,0,1-1.65-.69,11.61,11.61,0,0,1-1.51-1,11,11,0,0,1-1.29-1.26,9.34,9.34,0,0,1-1-1.48,6.79,6.79,0,0,1-1-3.43l.11,0a11,11,0,0,0,1.59,2.91,13.34,13.34,0,0,0,2.32,2.37,14.32,14.32,0,0,0,6,2.84Z"/><path class="cls-6" d="M143.85,82.09a41.62,41.62,0,0,1-5.49-5,45.14,45.14,0,0,1-4.6-5.79,36.07,36.07,0,0,1-5.5-13.64l.12,0c.43,1.17.8,2.34,1.31,3.46s.95,2.23,1.48,3.31,1.08,2.15,1.69,3.18,1.22,2.07,1.89,3.07,1.35,2,2.07,3,1.48,1.91,2.23,2.86,1.56,1.86,2.37,2.77,1.65,1.82,2.5,2.73Z"/><path class="cls-35" d="M144,82.18c.21-.49.48-1,.72-1.5l0,0v0c.11-2.17.3-4.34.61-6.48.15-1.08.34-2.15.59-3.2a13.64,13.64,0,0,1,1-3.06l-.16-.08a11.58,11.58,0,0,0-1.57,3,27.63,27.63,0,0,0-1,3.21c-.13.54-.26,1.08-.37,1.62l-.29,1.64c-.17,1-.3,1.94-.4,2.93-.18.33-.35.65-.51,1Z"/><path class="cls-6" d="M147,67.89a20.83,20.83,0,0,0-.39,3.21c-.07,1.07-.08,2.14-.11,3.21,0,.53,0,1.07,0,1.61l0,1.6V81l-.23.53c-.18.41-.4,1-.58,1.46l-.55,1.55c-.36,1-.68,2.09-.95,3.16s-.55,2.12-.75,3.2c-.1.53-.18,1.07-.27,1.61s-.17,1.08-.24,1.63c-.13,1.08-.18,2.17-.24,3.27s0,2.19,0,3.3c0,.56.08,1.12.15,1.67s.12,1.13.22,1.69c.17,1.12.41,2.26.68,3.42l-.21.11a23.41,23.41,0,0,1-2.34-6.6,28.32,28.32,0,0,1-.45-7,34.48,34.48,0,0,1,1.14-6.92,33.84,33.84,0,0,1,2.5-6.56l0,.09c.12-2.18.33-4.35.66-6.51a32,32,0,0,1,.64-3.21,13.57,13.57,0,0,1,1.11-3.09Z"/><g class="cls-31"><path class="cls-36" d="M127.22,57.93q2.68-.78,5.37-1.53c1.81-.45,3.61-.9,5.43-1.31l0,.12a11.55,11.55,0,0,1-2.52,1.42c-.43.21-.87.34-1.3.51s-.89.27-1.34.41l-1.35.31c-.47.06-.92.17-1.39.2a10.85,10.85,0,0,1-2.9,0Z"/></g><path class="cls-6" d="M126.1,53.64c.29.7.53,1.41.8,2.11s.47,1.42.71,2.14l-.48-.28c.88-.31,1.77-.58,2.67-.83l2.69-.78,2.71-.65c.91-.22,1.82-.42,2.74-.58l-.26.55-.44-1c-.15-.36-.31-.7-.44-1.06-.27-.71-.57-1.41-.81-2.14l0,0,2,4.07,0,0H138c-1.81.44-3.61.91-5.4,1.39s-3.6,1-5.39,1.45h0v0L126,53.66Z"/><path class="cls-33" d="M179.05,65.74a5,5,0,0,0-1.59,1.32,8.88,8.88,0,0,0-1.15,1.76,15.09,15.09,0,0,0-1.32,4,32.51,32.51,0,0,0-.46,8.42h-.12a15.36,15.36,0,0,1-.86-4.28,17.78,17.78,0,0,1,0-2.19,14.46,14.46,0,0,1,.9-4.35,10.47,10.47,0,0,1,1-2,7.8,7.8,0,0,1,1.5-1.74,4.41,4.41,0,0,1,2-1Z"/><g class="cls-31"><path class="cls-32" d="M151.59,71.14a6.44,6.44,0,0,1-2.22-1.07,7.82,7.82,0,0,1-.93-.81,2.41,2.41,0,0,1-.68-1.08h0a3.73,3.73,0,0,0,.86.82c.32.25.65.49,1,.72.65.48,1.32.94,2,1.4Z"/></g><path class="cls-37" d="M151.6,71.14c-.68-.45-1.35-.9-2-1.37-.32-.24-.65-.48-1-.74a3.31,3.31,0,0,1-.86-.85h0a2.44,2.44,0,0,0,.47.36l.5.32c.34.22.66.46,1,.68s.65.48,1,.74a8.78,8.78,0,0,1,.89.84Z"/><g class="cls-31"><path class="cls-32" d="M179.76,65.58c-.84.25-1.67.5-2.48.81s-1.63.58-2.42.91-1.59.66-2.37,1-1.6.73-2.42,1.06a31.87,31.87,0,0,1-5.1,1.43,25.81,25.81,0,0,1-2.63.3,13.78,13.78,0,0,1-2.65-.15v-.06a20,20,0,0,0,5.17-.54,35.08,35.08,0,0,0,5-1.54c1.63-.6,3.19-1.4,4.84-2a29.39,29.39,0,0,1,5.05-1.35Z"/></g><path class="cls-37" d="M179.76,65.58a29.24,29.24,0,0,0-5,1.37c-1.64.58-3.19,1.39-4.83,2a36.18,36.18,0,0,1-5,1.52,20.19,20.19,0,0,1-5.2.51v-.06a19.85,19.85,0,0,0,2.57-.34,24.11,24.11,0,0,0,2.52-.56,41.94,41.94,0,0,0,4.9-1.62c.81-.29,1.6-.61,2.4-1a22.4,22.4,0,0,1,2.48-.92c.85-.26,1.7-.48,2.56-.67a17.87,17.87,0,0,1,2.62-.33Z"/><g class="cls-31"><path class="cls-32" d="M175.79,63.34A11.37,11.37,0,0,1,173.88,65c-.69.46-1.41.88-2.15,1.28a31.54,31.54,0,0,1-4.62,1.89,42.58,42.58,0,0,1-4.85,1.12c-.82.12-1.64.23-2.46.31s-1.65.12-2.48.12v-.06a57.53,57.53,0,0,0,9.63-2.06,36.49,36.49,0,0,0,4.6-1.74,19.1,19.1,0,0,0,4.21-2.52Z"/></g><path class="cls-38" d="M175.79,63.34a19.5,19.5,0,0,1-4.21,2.56A36.21,36.21,0,0,1,167,67.67a56.66,56.66,0,0,1-9.65,2v-.06c.8-.22,1.61-.39,2.4-.6s1.6-.37,2.39-.59c1.58-.41,3.16-.8,4.7-1.32a46.14,46.14,0,0,0,4.58-1.63c.76-.3,1.5-.63,2.22-1a18,18,0,0,0,2.15-1.18Z"/><path class="cls-6" d="M160.25,44.3c1.67-4,3.43-8,5.32-12,1-2,2-3.9,3-5.81A46.9,46.9,0,0,1,172.11,21l.09.07c-1,2-1.87,4-2.79,5.91-.44,1-.93,2-1.37,3l-1.41,2.93-1.44,2.92c-.51,1-1,1.94-1.51,2.89-1,1.93-2.09,3.84-3.32,5.69Z"/><g class="cls-31"><path class="cls-39" d="M174.16,50.77a8.68,8.68,0,0,1-1.24.32c-.42.06-.85.1-1.28.13a13.85,13.85,0,0,1-2.57-.2,14.45,14.45,0,0,1-2.45-.74l-1.16-.55a11,11,0,0,1-1.08-.69l0,0a19.46,19.46,0,0,0,4.76,1.59,14.72,14.72,0,0,0,5,.14Z"/></g><path class="cls-40" d="M174.16,50.77a14.6,14.6,0,0,1-5-.1A19.14,19.14,0,0,1,164.38,49l0,0,1.22.35c.4.12.79.24,1.2.34.8.2,1.59.42,2.4.55a19.91,19.91,0,0,0,2.44.35q.61.07,1.23.09c.42,0,.84,0,1.27,0Z"/><path class="cls-41" d="M174.18,50.73a2.91,2.91,0,0,1,.48,1.08,5.8,5.8,0,0,1,.17,1.17,10.22,10.22,0,0,1-.24,2.34h-.06a6.24,6.24,0,0,1-.22-1.2c0-.38-.05-.75-.07-1.11l0-1.08c0-.36,0-.73-.07-1.15Z"/><path class="cls-42" d="M163.25,49.54A6.86,6.86,0,0,0,161,51.93a4.77,4.77,0,0,0-.54,1.55,7.76,7.76,0,0,0-.07,1.67h-.12a2.94,2.94,0,0,1-.74-1.83,3.55,3.55,0,0,1,.43-2,3.7,3.7,0,0,1,1.36-1.44,3.16,3.16,0,0,1,1.89-.49Z"/><path class="cls-41" d="M163.23,49.52c-.36.48-.72.89-1,1.31a9.78,9.78,0,0,0-.84,1.29,7.35,7.35,0,0,0-.59,1.41c-.16.5-.27,1-.42,1.62h-.06a6.38,6.38,0,0,1,0-1.69,5,5,0,0,1,.53-1.62,6.59,6.59,0,0,1,2.38-2.37Z"/><path class="cls-43" d="M158.08,70.24a2.84,2.84,0,0,1,2.14.44,5.07,5.07,0,0,1,1.49,1.68,15.82,15.82,0,0,1,1.39,3.87l.42,1.89c.11.63.27,1.24.41,1.85a18,18,0,0,0,1.24,3.62l-.08.08a9.71,9.71,0,0,1-2-3.37,34.14,34.14,0,0,1-1.11-3.79,22,22,0,0,0-1.09-3.77,4.81,4.81,0,0,0-1.06-1.6,3,3,0,0,0-1.73-.78Z"/><g class="cls-31"><path class="cls-32" d="M155,73.41a1.92,1.92,0,0,0,1.62.07,3.19,3.19,0,0,0,1-1.36,5.56,5.56,0,0,0,.41-.75,1.5,1.5,0,0,0,.09-.81,1.13,1.13,0,0,0-1.2-.92v-.09a1.25,1.25,0,0,1,1.06-.07,1.53,1.53,0,0,1,.84,1,2.2,2.2,0,0,1,0,1.22,1.66,1.66,0,0,1-.1.29c0,.08-.11.2-.13.25s-.12.22-.19.35a7.65,7.65,0,0,1-.48.8,2.3,2.3,0,0,1-.93.75,1.56,1.56,0,0,1-1.2,0,1.83,1.83,0,0,1-.8-.61Z"/></g><path class="cls-12" d="M155,73.42c.63,0,1.19-.1,1.39-.36a5.85,5.85,0,0,0,.68-1.22,3,3,0,0,1,.25-.4.6.6,0,0,1,.08-.13l.07-.14a1.35,1.35,0,0,0,.16-.53.71.71,0,0,0-.11-.52,1.34,1.34,0,0,0-.62-.49v-.08a1.55,1.55,0,0,1,.86.23,1.14,1.14,0,0,1,.47.75,1.68,1.68,0,0,1-.08.89,7.11,7.11,0,0,1-.4.78,3.28,3.28,0,0,1-1.06,1.39,2,2,0,0,1-1.72-.1Z"/><g class="cls-31"><path class="cls-32" d="M154.92,73.42a2.45,2.45,0,0,0,.51-.92c.12-.34.23-.69.34-1a9.07,9.07,0,0,1,.44-1,2.7,2.7,0,0,1,.64-.9l.05.07a9.46,9.46,0,0,1-.06,1.14,5,5,0,0,1-.23,1,3.94,3.94,0,0,1-.51,1,2.81,2.81,0,0,1-.45.47,1.07,1.07,0,0,1-.66.26Z"/></g><path class="cls-44" d="M187.23,29.29a54,54,0,0,0-3.74,5.05c-1.16,1.75-2.25,3.54-3.3,5.36s-2.08,3.64-3.07,5.49-2,3.72-2.88,5.6l-.16-.08a28.7,28.7,0,0,1,1.79-6.18c.37-1,.85-1.94,1.29-2.91s1-1.88,1.5-2.81,1.11-1.82,1.71-2.7,1.23-1.75,1.94-2.56a20.76,20.76,0,0,1,4.78-4.37Z"/><path class="cls-45" d="M170,24.23a7.07,7.07,0,0,0,1.36,2.19,8.24,8.24,0,0,0,2.29,1.72A10.4,10.4,0,0,0,176,29a19.59,19.59,0,0,0,4.46.56c.72,0,1.43,0,2.14,0l.88-.06.41.37c.45.41.92.81,1.41,1.19l.21.16L187.29,29a25.75,25.75,0,0,1-2.67-2.44l-.1-.1-.14,0a24.51,24.51,0,0,1-3.83.18,17.2,17.2,0,0,1-3.79-.5,6.74,6.74,0,0,1-3.24-1.74,4.79,4.79,0,0,1-1.36-3.49Z"/><path class="cls-46" d="M172.27,21a5.33,5.33,0,0,0,.35,1.84,4.06,4.06,0,0,0,1,1.45,6.5,6.5,0,0,0,3.23,1.45,16.8,16.8,0,0,0,3.69.21,29.34,29.34,0,0,0,3.69-.4l.54-.1.5.47a23.53,23.53,0,0,0,5.13,3.69,7.46,7.46,0,0,0,2.65.84,2.38,2.38,0,0,0,1.91-.57,2.68,2.68,0,0,0,.37-.38l.09-.11.1-.13a2.89,2.89,0,0,0,.16-.25,3.2,3.2,0,0,0,.42-1,3.06,3.06,0,0,0-.35-2.06,8.32,8.32,0,0,0-1.68-2.13,12.84,12.84,0,0,0-1.11-1q-.3-.24-.6-.45a5.65,5.65,0,0,0-.58-.38l-1.37-.83.59-1.63.12-.32.12-.38c.07-.26.14-.52.19-.79a7.38,7.38,0,0,0,.14-1.53,3.37,3.37,0,0,0-.77-2.3A4.36,4.36,0,0,0,188.5,13a13,13,0,0,0-3.37-.29l-1.95,0-.08-2.06v-.16l0-.23a4,4,0,0,0-.08-.48,4.41,4.41,0,0,0-.3-.91,3.58,3.58,0,0,0-1.09-1.36,6,6,0,0,0-4-.87,5.58,5.58,0,0,0-3.81,1.46,4.11,4.11,0,0,0-1,1.72,5.34,5.34,0,0,0-.22,1.07c0,.18,0,.37,0,.55s0,.4,0,.49l.1,2.13-1.9-.48a8.49,8.49,0,0,0-4.55-.07,2.76,2.76,0,0,0-1.49,1.19,4.28,4.28,0,0,0-.4,1c-.05.17-.08.39-.11.54s0,.25,0,.32a2.11,2.11,0,0,0,0,.26,2.8,2.8,0,0,0,.71,2,5.16,5.16,0,0,0,2,1.28,13.28,13.28,0,0,0,2.56.61,17.25,17.25,0,0,0,2.7.21h.12Zm-.22.12a15.54,15.54,0,0,1-5.35-.4,6,6,0,0,1-2.45-1.31,3.78,3.78,0,0,1-1.16-2.51,5.4,5.4,0,0,1,.52-2.73,4,4,0,0,1,2-1.88,7.28,7.28,0,0,1,2.72-.53,12.2,12.2,0,0,1,2.76.28l-.2.18a7.93,7.93,0,0,1,.18-2.79A6,6,0,0,1,172.39,7a6.08,6.08,0,0,1,2.3-1.61,9.51,9.51,0,0,1,2.72-.62,10.86,10.86,0,0,1,2.79.09,6.54,6.54,0,0,1,2.62,1A5.6,5.6,0,0,1,184.63,8a6.64,6.64,0,0,1,.64,2.75l-.21-.21a15,15,0,0,1,3.94.31,6.53,6.53,0,0,1,3.5,1.91,5.63,5.63,0,0,1,1.3,3.76,10.61,10.61,0,0,1-.79,3.9l-.08-.26a16.76,16.76,0,0,1,2.67,2.15,10.26,10.26,0,0,1,2,2.76,5.11,5.11,0,0,1,.41,3.42,5.44,5.44,0,0,1-.72,1.59,5.5,5.5,0,0,1-1.16,1.3,4.32,4.32,0,0,1-3.31.84,9.15,9.15,0,0,1-3.22-1.16,23.34,23.34,0,0,1-5.31-4.22l.12,0a24.34,24.34,0,0,1-3.91.19,17.57,17.57,0,0,1-3.88-.51,7.16,7.16,0,0,1-3.43-1.87,4.41,4.41,0,0,1-1-1.72A5.47,5.47,0,0,1,172.05,21.15Z"/><path class="cls-47" d="M153.4,70.36c-1.11.41-1.38,1.25-1.72,2.17-.14.48-.31,1-.44,1.47l-.46,1.53c-.18.51-.35,1-.56,1.55a15,15,0,0,1-.72,1.52,8.09,8.09,0,0,1-2.17,2.67l-.1-.07a25.45,25.45,0,0,0,2.42-6,20.67,20.67,0,0,1,1.2-3.06,4.32,4.32,0,0,1,1-1.33,2.24,2.24,0,0,1,1.56-.54Z"/><g class="cls-31"><path class="cls-32" d="M154.77,68.65a5.1,5.1,0,0,0-1.74,3,2.16,2.16,0,0,0,.29,1.66c.18.22.5.23.79.27a1.09,1.09,0,0,0,.81-.19l.06.07a1.21,1.21,0,0,1-.91.6,3.15,3.15,0,0,1-.53,0,.8.8,0,0,1-.38-.08,1.48,1.48,0,0,1-.36-.23,2.56,2.56,0,0,1-.64-2.27,4.3,4.3,0,0,1,.3-1,4.24,4.24,0,0,1,.56-.88,3.18,3.18,0,0,1,1.69-1.07Z"/></g><path class="cls-43" d="M154.78,68.66a8.53,8.53,0,0,0-.86,2.57,3.61,3.61,0,0,0,0,1.09,1.2,1.2,0,0,0,.11.35s0,0,0,0a.38.38,0,0,0-.2-.13,2.48,2.48,0,0,0,.42.09c.1,0,.07,0,0,.06.11,0,.32-.39.55-.79a4.81,4.81,0,0,1,2-2.36l.07.09a7,7,0,0,0-1.2,2.57,3,3,0,0,1-.68,1.31,1.15,1.15,0,0,1-.74.27,2.7,2.7,0,0,1-.75-.09,1,1,0,0,1-.57-.56,2.14,2.14,0,0,1-.16-.74,3.81,3.81,0,0,1,.22-1.46,5.31,5.31,0,0,1,1.67-2.37Z"/><path class="cls-48" d="M160.59,52.55c.25.35.42.7.65,1A1.36,1.36,0,0,0,162,54a4.4,4.4,0,0,0,1.15,0l1.21-.08v.06c-.39.11-.77.22-1.17.31a4.68,4.68,0,0,1-1.26.15,2,2,0,0,1-.69-.17,1.2,1.2,0,0,1-.52-.5,2,2,0,0,1-.22-1.28Z"/><path class="cls-42" d="M174.57,55.41a2.13,2.13,0,0,0-.83-.14,3.58,3.58,0,0,0-1.56.4l-.05-.11a3,3,0,0,1,1.6-.92,2.5,2.5,0,0,1,.91,0Z"/><path class="cls-42" d="M172,61.66h-.21a2,2,0,0,1-1.14-.39,1.37,1.37,0,0,1-.52-1,1.63,1.63,0,0,1,.26-.92l.11,0a1.26,1.26,0,0,0,.46,1.38,1.74,1.74,0,0,0,1.52-.09,5,5,0,0,0,.87-.49Z"/><path class="cls-35" d="M147,63.34a6.23,6.23,0,0,0-1.19,2.26,1.85,1.85,0,0,0,.1,1.19,2,2,0,0,0,.87.84,6.84,6.84,0,0,0,2.46.65,35,35,0,0,0,5.22.17,31.8,31.8,0,0,0,10.2-2c.81-.3,1.61-.65,2.39-1a13.56,13.56,0,0,0,2.19-1.4A24.75,24.75,0,0,0,173,60.37l.13.11a18.78,18.78,0,0,1-3.31,4.26,14.11,14.11,0,0,1-2.22,1.72,22.66,22.66,0,0,1-2.44,1.27A27.62,27.62,0,0,1,160,69.5a33.24,33.24,0,0,1-5.44.73,34.4,34.4,0,0,1-5.47-.29l-.72-.13c-.26,0-.5-.11-.75-.18A6.19,6.19,0,0,1,146,69a3.46,3.46,0,0,1-1.45-1.56,3.17,3.17,0,0,1-.12-2.13,5.33,5.33,0,0,1,.7-1.52,7,7,0,0,1,.55-.76Z"/><path class="cls-43" d="M174.19,59.58a2.67,2.67,0,0,1,.77.73,5,5,0,0,1,.48.95,8,8,0,0,1,.44,2.05l-.12-.1a3.14,3.14,0,0,1,1.19.21A5.61,5.61,0,0,1,178,64a7.59,7.59,0,0,1,1.78,1.56l-.09.08c-.43-.13-.8-.29-1.17-.42A3.39,3.39,0,0,0,178,65a4.29,4.29,0,0,0-.5-.19c-.33-.11-.64-.21-.93-.28l-.43-.09-.19,0h-.09l-1.09.1-.07-1.1-.06-.89-.07-.92c0-.3-.07-.61-.13-.91a3.9,3.9,0,0,0-.33-1Z"/><path class="cls-33" d="M179.82,65.45a24.66,24.66,0,0,1,8.89,4.84l1,.82c.32.28.62.57.93.87.62.59,1.22,1.19,1.8,1.82a37.62,37.62,0,0,1,3.17,4.08,20.81,20.81,0,0,1,1.31,2.39,9,9,0,0,1,.55,1.49,3.62,3.62,0,0,1,.15,1.27,3,3,0,0,1-.11.63l0,.09-.06.15v0l-.06.12a4,4,0,0,1-.29.49,10.75,10.75,0,0,1-1,1.17c-.32.34-.63.65-1,1a23.7,23.7,0,0,1-2,1.66,33.69,33.69,0,0,1-4.24,2.79,21.4,21.4,0,0,1-4.68,2l-.12-.21a36.89,36.89,0,0,0,4-2.77c1.29-1,2.54-2.06,3.73-3.17q.9-.83,1.74-1.71a13.37,13.37,0,0,0,1.53-1.86,1.11,1.11,0,0,0,.2-.46,1.73,1.73,0,0,0-.09-.53,6,6,0,0,0-.44-1.1,19.18,19.18,0,0,0-1.21-2.11,44.2,44.2,0,0,0-6.21-7.51,45.22,45.22,0,0,0-3.68-3.23,36.77,36.77,0,0,0-4-2.77Z"/><g class="cls-31"><path class="cls-32" d="M143.65,107.52a16.53,16.53,0,0,0,5.45,2.77,26,26,0,0,0,6,1.19,39.38,39.38,0,0,0,12.15-.9,27.85,27.85,0,0,0,11-4.94,14.91,14.91,0,0,0,4-4.51,8.6,8.6,0,0,0,1.1-5.87l.06,0a8.84,8.84,0,0,1-.88,6,15,15,0,0,1-4,4.72,27.57,27.57,0,0,1-11.18,5.16,38.44,38.44,0,0,1-12.33.79,26.68,26.68,0,0,1-6-1.36,16.43,16.43,0,0,1-5.38-3Z"/></g><path class="cls-43" d="M143.65,107.52a16.39,16.39,0,0,0,5.37,3,26.36,26.36,0,0,0,6,1.34,38.45,38.45,0,0,0,12.29-.81,27.38,27.38,0,0,0,11.15-5.12,15,15,0,0,0,4-4.68,8.77,8.77,0,0,0,.88-6l.06,0a8.91,8.91,0,0,1-.67,6.14,15.23,15.23,0,0,1-3.94,4.9,22.78,22.78,0,0,1-5.35,3.32,32.06,32.06,0,0,1-5.95,2,40.88,40.88,0,0,1-6.21.87,33.69,33.69,0,0,1-6.27-.17,26.51,26.51,0,0,1-6.08-1.5,16.51,16.51,0,0,1-5.3-3.25Z"/><path class="cls-49" d="M181.23,82.65a18,18,0,0,1-3.39-.55c-1.12-.29-2.23-.61-3.33-1l-.09.23a8.45,8.45,0,0,0,1.39,1.41,9.11,9.11,0,0,0,1.39.93c-.22.27-.43.54-.64.82a12,12,0,0,0-1.17,2.11,8.09,8.09,0,0,0-.62,2.45l.19.14a38.86,38.86,0,0,1,3-3.27,37,37,0,0,1,3.38-2.88l.51-.38Z"/><path class="cls-33" d="M174.5,81.15a16.61,16.61,0,0,1,1.84-.07c.3,0,.59,0,.89,0s.58,0,.86,0l1.66.09c.54,0,1.07.07,1.55.07h4.48l-3.65,2.88-1.63,1.29c-.56.45-1.16.85-1.72,1.3-.31.2-.6.41-.9.63s-.62.4-.93.62a22.43,22.43,0,0,1-2,1.19l-.14-.11a28,28,0,0,1,2.93-3.41,28.92,28.92,0,0,1,3.4-2.94l.09.31a17.34,17.34,0,0,1-3.45-.63,30.17,30.17,0,0,1-3.33-1.1Z"/><g class="cls-31"><path class="cls-36" d="M185.09,93.81a12.83,12.83,0,0,0-2.58-1.8,25.56,25.56,0,0,0-2.87-1.31,34.6,34.6,0,0,0-6.07-1.77l0-.11a10,10,0,0,1,3.31,0,15.22,15.22,0,0,1,1.61.31c.52.14,1,.33,1.56.51s1,.44,1.5.7a11.37,11.37,0,0,1,1.39.9,7,7,0,0,1,2.22,2.52Z"/></g><path class="cls-33" d="M171.42,95.18l2.12-6.32v0h0a34,34,0,0,1,6.11,1.71,23.58,23.58,0,0,1,2.88,1.35,13.38,13.38,0,0,1,2.59,1.84l0,0,0,0-4.81,4,0-.05c.72-.75,1.49-1.46,2.24-2.18l2.31-2.11,0,.6a14.67,14.67,0,0,0-2.53-1.69,23.16,23.16,0,0,0-2.82-1.28c-1-.38-2-.72-3-1s-2-.53-3-.77L174,89l-1.21,3.11c-.43,1-.84,2.06-1.3,3.08Z"/><g class="cls-31"><path class="cls-39" d="M180.3,97.8a16.87,16.87,0,0,0-2.21-.63l-2.19-.5c-.73-.19-1.48-.36-2.22-.59a14.39,14.39,0,0,1-2.24-.85v-.09a31.77,31.77,0,0,1,4.65.67,16.31,16.31,0,0,1,2.25.71,6.35,6.35,0,0,1,2,1.21Z"/></g><path class="cls-33" d="M180.31,97.78a6.35,6.35,0,0,0-2-1.16,17.47,17.47,0,0,0-2.24-.67,31.49,31.49,0,0,0-4.62-.73v-.06a8.15,8.15,0,0,1,1.2-.13c.39,0,.79,0,1.19,0a12.78,12.78,0,0,1,2.37.34,10.1,10.1,0,0,1,2.27.81,4.63,4.63,0,0,1,1.87,1.55Z"/><g class="cls-31"><path class="cls-50" d="M172.21,95.28a14.93,14.93,0,0,0-2,4.33,7,7,0,0,0-.28,2.35,1.26,1.26,0,0,0,.46,1,1.18,1.18,0,0,0,1.05-.13l.1-.06.05.12a1.61,1.61,0,0,0,.9,1,1.47,1.47,0,0,0,1.27-.39l.08-.07,0,.11a1.49,1.49,0,0,0,.55.62,1.58,1.58,0,0,0,.82.2,3.46,3.46,0,0,0,1.66-.56l.06.11a3.13,3.13,0,0,1-1.7,1,2,2,0,0,1-1.22-.15,1.93,1.93,0,0,1-.55-.36,1.75,1.75,0,0,1-.23-.24,2.42,2.42,0,0,1-.21-.33l1.24.32a3.07,3.07,0,0,1-.82.58,1.89,1.89,0,0,1-1.28.13,2.32,2.32,0,0,1-1.08-.65,2.84,2.84,0,0,1-.61-.92l1.45.55a3.21,3.21,0,0,1-.85.33,1.94,1.94,0,0,1-1.3-.17,1.9,1.9,0,0,1-.84-1,3,3,0,0,1-.2-.89,6.3,6.3,0,0,1,.45-2.74,10.29,10.29,0,0,1,1.19-2.28,8.4,8.4,0,0,1,1.73-1.84Z"/></g><path class="cls-51" d="M172.19,95.28l-.44,1.13c-.15.37-.26.76-.39,1.13a20.54,20.54,0,0,0-.61,2.23,7.24,7.24,0,0,0-.19,2.12,1.7,1.7,0,0,0,.09.36c0,.08.06.08,0,.07s0,0,.06,0a1.07,1.07,0,0,0,.34-.12l.78-.39.31.8a1.93,1.93,0,0,0,.21.4.77.77,0,0,0,.24.22.47.47,0,0,0,.3,0,1.3,1.3,0,0,0,.48-.21l1.06-.7-.14.94a.87.87,0,0,0,.11.22.83.83,0,0,0,.19.23,1.27,1.27,0,0,0,.6.26,3.76,3.76,0,0,0,1.67-.24l0,.07a3.55,3.55,0,0,1-1.7.6,1.66,1.66,0,0,1-.9-.21,1.54,1.54,0,0,1-.62-.69l.1,0a2.41,2.41,0,0,1-.64.38,1.17,1.17,0,0,1-.76,0,1.33,1.33,0,0,1-.64-.42,2.23,2.23,0,0,1-.4-.64l.12,0a1.31,1.31,0,0,1-1.23.15,1.34,1.34,0,0,1-.56-1.11,7,7,0,0,1,.31-2.41,15,15,0,0,1,2.11-4.35Z"/><g class="cls-31"><path class="cls-50" d="M182.91,99.57a5,5,0,0,0-1,.16c-.33.08-.65.18-1,.29a18.16,18.16,0,0,0-1.9.73l0,0a2.75,2.75,0,0,1,.79-.77,3.76,3.76,0,0,1,.94-.47,3.42,3.42,0,0,1,1.06-.19,2,2,0,0,1,1.1.24Z"/></g><g class="cls-31"><path class="cls-50" d="M177,103.77a.74.74,0,0,0,.16.44.47.47,0,0,0,.44.12,2.49,2.49,0,0,0,.91-.41,11.87,11.87,0,0,0,1.58-1.35c1-1,1.91-2,2.84-3.06l.07.06a7.31,7.31,0,0,1-.94,2,9.78,9.78,0,0,1-1.35,1.67,7.34,7.34,0,0,1-1.81,1.3,2.78,2.78,0,0,1-1.25.3.85.85,0,0,1-.71-.39.74.74,0,0,1,0-.66Z"/></g><path class="cls-51" d="M176.94,103.77a.6.6,0,0,0,.26.36.33.33,0,0,0,.32,0,2.88,2.88,0,0,0,.75-.5c.49-.42,1-.89,1.46-1.37s1-1,1.5-1.41a14.58,14.58,0,0,1,1.66-1.32l0,0a40.93,40.93,0,0,1-2.79,3.12,11.38,11.38,0,0,1-1.61,1.33,2.47,2.47,0,0,1-1,.42.55.55,0,0,1-.51-.16.79.79,0,0,1-.17-.51Z"/><g class="cls-31"><path class="cls-39" d="M179.8,97.31a2.38,2.38,0,0,1,.55,1.28,3.38,3.38,0,0,1-.12,1.34,3.21,3.21,0,0,1-.68,1.17,2.13,2.13,0,0,1-1.23.69l-.06-.06a5.72,5.72,0,0,0,1.12-2.07,7.13,7.13,0,0,0,.33-2.34Z"/></g><path class="cls-35" d="M157.54,139.43a16.69,16.69,0,0,0,6.85-1.77,17.51,17.51,0,0,0,7.42-7.51,23.84,23.84,0,0,0,2.57-9.79,32.68,32.68,0,0,0-1-9.74l-.23,0a38.63,38.63,0,0,1,0,9.55,24,24,0,0,1-2.94,9,16,16,0,0,1-6.79,6.44,14.74,14.74,0,0,1-6.79,1.46Z"/><path class="cls-52" d="M142.72,105.37a49.82,49.82,0,0,0-1.11,9.44,32.68,32.68,0,0,0,1.06,9.19,22.73,22.73,0,0,0,1.65,4.18,15.07,15.07,0,0,0,2.55,3.54,13.12,13.12,0,0,0,7.53,3.82,14.13,14.13,0,0,0,8.44-1.06,15.34,15.34,0,0,0,6.42-5.81,24.62,24.62,0,0,0,3.21-8.56,45.67,45.67,0,0,0,.71-9.46l.17,0a39,39,0,0,1,.05,9.6,24.39,24.39,0,0,1-2.93,9.14,16.35,16.35,0,0,1-6.9,6.61,15.61,15.61,0,0,1-9.47,1.31,14.68,14.68,0,0,1-8.45-4.43,18.71,18.71,0,0,1-4.34-8.53,31.23,31.23,0,0,1-.64-9.59,42,42,0,0,1,1.88-9.43Z"/><g class="cls-31"><path class="cls-32" d="M142,107.83a8.28,8.28,0,0,0,2.28,2.17,17.1,17.1,0,0,0,2.81,1.48,27.53,27.53,0,0,0,6.11,1.74,34.49,34.49,0,0,0,12.65-.21,31,31,0,0,0,11.64-4.94,19,19,0,0,0,4.62-4.32,8.66,8.66,0,0,0,1.36-2.84,6.5,6.5,0,0,0,0-3.13l.11,0a6.09,6.09,0,0,1,.34,1.59,6.62,6.62,0,0,1-.09,1.66,9.28,9.28,0,0,1-1.23,3.11,19.33,19.33,0,0,1-4.61,4.72,29.08,29.08,0,0,1-5.65,3.34,32,32,0,0,1-6.27,2,32.4,32.4,0,0,1-13.05,0,27.73,27.73,0,0,1-6.2-2.07,18.22,18.22,0,0,1-2.78-1.74,10.53,10.53,0,0,1-1.21-1.1,6.4,6.4,0,0,1-.95-1.32Z"/></g><path class="cls-34" d="M141.94,107.85a8,8,0,0,0,2.34,2.1,15.89,15.89,0,0,0,2.83,1.41,27.37,27.37,0,0,0,6.1,1.64,34.66,34.66,0,0,0,12.56-.27,31.68,31.68,0,0,0,6-1.83,33,33,0,0,0,5.54-3,18.68,18.68,0,0,0,4.64-4.22,8.57,8.57,0,0,0,1.42-2.77,6.38,6.38,0,0,0,.1-3.13h0a6.66,6.66,0,0,1,0,3.17,8.74,8.74,0,0,1-1.37,2.87,18.68,18.68,0,0,1-4.63,4.37,31.23,31.23,0,0,1-11.67,5,34.6,34.6,0,0,1-12.71.17,27.74,27.74,0,0,1-6.13-1.76,17,17,0,0,1-2.82-1.51,8.17,8.17,0,0,1-2.3-2.2Z"/><path class="cls-33" d="M181.34,104.91a63.06,63.06,0,0,1,.78,15.52,127.27,127.27,0,0,1-1.88,15.45A137.67,137.67,0,0,1,176.51,151c-.76,2.48-1.61,4.94-2.58,7.35a44.38,44.38,0,0,1-3.45,7l-.2-.13a67.86,67.86,0,0,0,2.49-7.32c.73-2.45,1.34-4.94,2-7.42s1.2-5,1.69-7.48,1.06-5,1.49-7.52.91-5,1.29-7.55.72-5.05,1.06-7.58a108.75,108.75,0,0,0,.85-15.37Z"/><g class="cls-31"><path class="cls-32" d="M165.16,165.25a1.26,1.26,0,0,0,1.08.74,4.39,4.39,0,0,0,1.4,0,13.77,13.77,0,0,0,2.73-.73l0,.06a4.42,4.42,0,0,1-1.24.83,5.27,5.27,0,0,1-1.43.43,3.47,3.47,0,0,1-1.56-.1,1.83,1.83,0,0,1-.74-.42,1,1,0,0,1-.32-.77Z"/></g><path class="cls-6" d="M161.74,163.25a2.69,2.69,0,0,0,.78.66,2.41,2.41,0,0,0,.94.3,3.07,3.07,0,0,0,1-.07,7.59,7.59,0,0,0,1-.3h0a3.55,3.55,0,0,1-2,.5,2.29,2.29,0,0,1-1.72-1.09Z"/><path class="cls-53" d="M170.36,170.84c.06-.53.14-1,.2-1.47a12.82,12.82,0,0,0,.13-1.35,6.58,6.58,0,0,0-.05-1.33,13.11,13.11,0,0,0-.28-1.42l0,0a4.27,4.27,0,0,1,.87,2.8,6.29,6.29,0,0,1-.87,2.83Z"/><path class="cls-54" d="M154.36,170.32a14.44,14.44,0,0,0,3.39.92,13.53,13.53,0,0,0,3.48.07,12.56,12.56,0,0,0,3.35-.83,15,15,0,0,0,3-1.67l.38-.27,0,.45-.07,2-.16-.16h1.31c.44,0,.88,0,1.32,0l-1.31.15c-.43,0-.87.1-1.31.13l-.15,0V171l-.07-2,.36.18A12.25,12.25,0,0,1,164.8,171a11.72,11.72,0,0,1-7.11.59A10.72,10.72,0,0,1,154.36,170.32Z"/><path class="cls-53" d="M165.15,165.28a9.88,9.88,0,0,1-2.2,2.13,16.06,16.06,0,0,1-2.66,1.55,15.65,15.65,0,0,1-2.89,1c-.5.12-1,.22-1.51.3s-1,.11-1.52.1v-.06a26.53,26.53,0,0,0,5.69-1.87,25.73,25.73,0,0,0,2.65-1.4,16.85,16.85,0,0,0,2.41-1.78Z"/><path class="cls-55" d="M161.75,163.28a9.08,9.08,0,0,1-2.12,1.38,16.69,16.69,0,0,1-2.33.94,16.94,16.94,0,0,1-2.44.57l-1.25.16c-.42,0-.84,0-1.26,0v-.06a46.69,46.69,0,0,0,4.78-1.26,28.87,28.87,0,0,0,4.6-1.8Z"/><g class="cls-31"><path class="cls-56" d="M96.12,44.31a2.6,2.6,0,0,1,.5-1.85,19.17,19.17,0,0,1,1.17-1.52,8.11,8.11,0,0,1,2.95-2.44c.57-.29,1.15-.56,1.71-.86s1.09-.64,1.64-1a11.53,11.53,0,0,1,1.7-.91c.59-.25,1.21-.43,1.82-.62a14.17,14.17,0,0,0,1.79-.65l1.74-.8a18.5,18.5,0,0,1,3.7-1c1.24-.28,2.38-.85,3.63-1.21s2.54-.41,3.77-.68,2.43-.76,3.72-.94,2.56-.13,3.81-.4a18.47,18.47,0,0,1,3.79-.58h1.92a15,15,0,0,0,1.89-.15c.64-.08,1.27-.17,1.92-.19a11.2,11.2,0,0,1,1.92.13c.64.08,1.27.18,1.9.22s1.27,0,1.91.06a8.43,8.43,0,0,1,3.7,1,17.28,17.28,0,0,1,1.69.91,2.58,2.58,0,0,1,1.22,1.47l-.12,0a2.35,2.35,0,0,0-1.25-1.27c-.54-.3-1.13-.53-1.72-.79a9.75,9.75,0,0,0-1.75-.59,7.1,7.1,0,0,0-1.79-.14c-.63,0-1.27,0-1.93,0s-1.34-.1-2-.15a12.17,12.17,0,0,0-1.8-.06c-.57,0-1.18.15-1.82.26a17.69,17.69,0,0,1-2,.23c-.67,0-1.31,0-1.91,0l-.43,0a4.07,4.07,0,0,0-.47,0c-.24,0-.55.08-.84.14l-1.87.44a15.62,15.62,0,0,1-2,.27c-.65.05-1.27.08-1.82.17a12.78,12.78,0,0,0-1.73.42l-.93.28-.5.14-.47.11c-.72.16-1.36.23-2,.31l-.88.14-.45.09-.12,0-.08,0-.2.06c-.56.15-1.13.37-1.74.6a14.14,14.14,0,0,1-2,.58l-1.88.38-.41.1-.43.12c-.27.09-.55.19-.83.31-.56.23-1.12.5-1.76.76l-.46.17-.5.17-1,.27a18.35,18.35,0,0,0-1.76.53,10.43,10.43,0,0,0-1.62.78c-.54.31-1.12.66-1.72,1s-1.19.53-1.76.79a7.61,7.61,0,0,0-2.93,2.12c-.43.48-.87.94-1.24,1.43a2.39,2.39,0,0,0-.61,1.68Z"/></g><path class="cls-57" d="M96.15,44.3a2.55,2.55,0,0,1,.45-1.85,17.79,17.79,0,0,1,1.12-1.57A10.45,10.45,0,0,1,99,39.43a8.32,8.32,0,0,1,1.62-1.11c.58-.31,1.15-.58,1.7-.88s1.06-.65,1.61-1a13.55,13.55,0,0,1,1.72-1,17.72,17.72,0,0,1,1.84-.66A26.83,26.83,0,0,0,111,33.35a9.59,9.59,0,0,1,1.89-.65l1.87-.43c1.2-.27,2.31-.83,3.61-1.21s2.63-.44,3.78-.7,2.41-.75,3.76-.93,2.58-.13,3.8-.39l1.87-.38a10,10,0,0,1,1-.14c.31,0,.65-.05,1-.05.66,0,1.3,0,1.92,0a14.64,14.64,0,0,0,1.86-.12c.64-.07,1.28-.15,1.95-.16a14.28,14.28,0,0,1,2,.16c.64.1,1.25.21,1.88.25s1.26.06,1.9.1a8.16,8.16,0,0,1,1.94.35,10.54,10.54,0,0,1,1.78.78,16.46,16.46,0,0,1,1.67,1,2.52,2.52,0,0,1,1.18,1.5h-.06a2.45,2.45,0,0,0-1.18-1.41,18.24,18.24,0,0,0-1.69-.9A7.94,7.94,0,0,0,145,29c-2.56.11-5.09-.79-7.63-.21a17.36,17.36,0,0,1-1.91.16h-1.92a18,18,0,0,0-3.77.59c-1.25.27-2.55.23-3.8.42s-2.46.67-3.71.94-2.54.31-3.77.67-2.38.93-3.64,1.2a17.66,17.66,0,0,0-3.67,1l-1.75.79a16.07,16.07,0,0,1-1.8.65c-2.55.53-4.49,2.38-6.86,3.34A8,8,0,0,0,97.86,41a19,19,0,0,0-1.16,1.52,2.42,2.42,0,0,0-.49,1.77Z"/><g class="cls-31"><path class="cls-58" d="M151.6,32.32a2.54,2.54,0,0,1-.5,1.82,17.2,17.2,0,0,1-1.17,1.53A8.18,8.18,0,0,1,147,38.09c-.57.29-1.16.56-1.72.85s-1.1.65-1.64,1a13,13,0,0,1-1.69.9c-.6.25-1.21.43-1.82.62a16.07,16.07,0,0,0-1.8.65l-1.74.8a18.4,18.4,0,0,1-3.69,1c-1.25.27-2.4.84-3.63,1.2s-2.54.41-3.78.67-2.43.77-3.71,1-2.56.14-3.81.4a17.93,17.93,0,0,1-3.78.59h-1.92a15,15,0,0,0-1.9.15c-.64.08-1.27.17-1.91.19a12.23,12.23,0,0,1-1.92-.12c-.63-.09-1.26-.19-1.9-.22s-1.28,0-1.92-.07a8.15,8.15,0,0,1-3.67-1c-.57-.3-1.16-.56-1.69-.91a2.5,2.5,0,0,1-1.21-1.46h.06a2.46,2.46,0,0,0,1.21,1.37c.54.32,1.13.57,1.71.84a7.88,7.88,0,0,0,3.61.85c.63,0,1.27,0,1.92,0s1.3.11,1.93.18a11.58,11.58,0,0,0,1.85.09c.61,0,1.23-.13,1.87-.22a15.51,15.51,0,0,1,2-.2c.66,0,1.3,0,1.92,0l.92-.06c.29,0,.6-.08.9-.14l1.87-.41c1.3-.28,2.64-.25,3.82-.43s2.37-.67,3.67-1,2.58-.31,3.75-.64,2.36-.91,3.66-1.19a18.19,18.19,0,0,0,3.61-1l1.76-.79A16.14,16.14,0,0,1,140,41a18.74,18.74,0,0,0,1.79-.57,11.76,11.76,0,0,0,1.66-.84c.53-.32,1.1-.67,1.68-1s1.17-.55,1.74-.82a8,8,0,0,0,2.93-2.26c.41-.49.85-1,1.21-1.47a2.5,2.5,0,0,0,.54-1.75Z"/></g><path class="cls-59" d="M151.59,32.32a2.48,2.48,0,0,1-.46,1.84A17.73,17.73,0,0,1,150,35.72a9.84,9.84,0,0,1-1.31,1.43,7.71,7.71,0,0,1-1.62,1.1c-.57.3-1.14.57-1.7.87s-1.07.65-1.62,1a12.29,12.29,0,0,1-1.71,1c-.6.26-1.23.45-1.83.65a25.17,25.17,0,0,0-3.5,1.46,10.06,10.06,0,0,1-1.87.64l-1.87.42c-1.21.27-2.33.84-3.61,1.22s-2.61.42-3.79.69-2.42.75-3.74.93-2.58.13-3.8.39l-1.87.39c-.33.06-.65.11-1,.14s-.65,0-1,0l-1.92,0a17,17,0,0,0-1.87.13c-.63.07-1.28.15-1.94.16a11.49,11.49,0,0,1-1.95-.15c-.64-.09-1.26-.19-1.88-.24s-1.27-.05-1.91-.09a8,8,0,0,1-1.93-.33A10.36,10.36,0,0,1,99,46.74a18.38,18.38,0,0,1-1.67-1,2.47,2.47,0,0,1-1.18-1.49h0a2.45,2.45,0,0,0,1.19,1.42,16.88,16.88,0,0,0,1.68.9,8.11,8.11,0,0,0,3.66,1c2.56-.12,5.09.78,7.63.21a13.54,13.54,0,0,1,1.91-.16h1.91a18,18,0,0,0,3.78-.59c1.25-.27,2.55-.22,3.8-.41s2.46-.67,3.71-.95,2.54-.3,3.77-.66,2.38-.93,3.64-1.2a18.58,18.58,0,0,0,3.68-1l1.74-.8a14.4,14.4,0,0,1,1.81-.64c2.54-.53,4.48-2.39,6.86-3.34a8.21,8.21,0,0,0,2.92-2.41,17,17,0,0,0,1.16-1.52,2.47,2.47,0,0,0,.5-1.78Z"/><g class="cls-31"><path class="cls-60" d="M115.85,47.52c1.22-1.63,2.53-3.18,3.86-4.72s2.79-3,4.07-4.53,2.56-3.17,3.88-4.71,2.66-3.07,4-4.57l0,.19a2.31,2.31,0,0,1-.21-.84,1.45,1.45,0,0,1,.19-.84,1.52,1.52,0,0,1,.61-.57,3.21,3.21,0,0,1,.77-.27v0a1.92,1.92,0,0,0-1.2.9A1.59,1.59,0,0,0,132,29l.05.1-.07.09c-1.29,1.57-2.6,3.12-3.95,4.64s-2.73,3-4.1,4.52-2.59,3.13-3.9,4.68-2.68,3.06-4.12,4.5Z"/></g><g class="cls-31"><path class="cls-60" d="M148.6,37c-4.13.38-8.26.64-12.4.85-2.06.1-4.13.15-6.2.24s-4.14.2-6.2.35q-6.19.45-12.39.82c-4.14.22-8.27.42-12.41.55h-.11v-.1a1.33,1.33,0,0,0-.22-.67,1,1,0,0,0-.58-.4,2.62,2.62,0,0,0-1.48.21l0,0a2.69,2.69,0,0,1,1.53-.3,1.17,1.17,0,0,1,.69.42,1.49,1.49,0,0,1,.3.77L99,39.63c4.13-.32,8.26-.57,12.39-.8s8.27-.39,12.41-.55c2.07-.08,4.13-.19,6.2-.32s4.13-.32,6.19-.45c4.14-.24,8.27-.43,12.41-.51Z"/></g><g class="cls-31"><path class="cls-60" d="M99.93,47c3.94-1.59,7.92-3.07,11.92-4.51,2-.72,4-1.38,6-2.08s4-1.44,6-2.19c4-1.52,7.94-3,11.92-4.49s8-2.88,12-4.24l-.07.14a2.45,2.45,0,0,1-.14-.8,1.24,1.24,0,0,1,.21-.79,1.05,1.05,0,0,1,.71-.4,2.62,2.62,0,0,1,.79,0v.05a2.46,2.46,0,0,0-.77,0,1,1,0,0,0-.62.39,1.73,1.73,0,0,0,0,1.44l0,.1-.1,0c-4,1.55-7.94,3-11.93,4.48s-8,2.84-12,4.23q-3,1.05-6,2.17c-2,.75-4,1.54-6,2.27-4,1.47-8,2.89-12,4.21Z"/></g><g class="cls-31"><path class="cls-60" d="M132.68,43.94c-1.53-.82-3-1.74-4.45-2.67s-2.81-2-4.29-2.92-3-1.77-4.43-2.7-2.91-1.87-4.33-2.86l-.09-.06v-.1a2,2,0,0,0-.31-1.39,1.41,1.41,0,0,0-1.37-.37v0a2.09,2.09,0,0,1,.79-.09,1.17,1.17,0,0,1,.76.35,1.63,1.63,0,0,1,.4.74,2.31,2.31,0,0,1,.09.83l-.08-.17c1.48.9,2.95,1.82,4.38,2.79s2.84,2,4.28,2.94,3,1.79,4.41,2.72,2.89,1.9,4.26,3Z"/></g><path class="cls-61" d="M155,33.41a3.17,3.17,0,0,1,.43,2.17,5.06,5.06,0,0,1-.87,2.07,14.36,14.36,0,0,1-3.16,3.21,41.3,41.3,0,0,1-7.79,4.48,87,87,0,0,1-17.1,5.5,87.69,87.69,0,0,1-17.84,2.06A42,42,0,0,1,99.73,52a14.3,14.3,0,0,1-4.2-1.62,5.11,5.11,0,0,1-1.65-1.52,3.2,3.2,0,0,1-.5-2.16A3.15,3.15,0,0,0,94,48.84a5.12,5.12,0,0,0,1.66,1.44,14,14,0,0,0,4.18,1.46,41.27,41.27,0,0,0,8.88.7,90.39,90.39,0,0,0,17.72-2.18,91.28,91.28,0,0,0,17-5.33,41.43,41.43,0,0,0,7.8-4.3,14.31,14.31,0,0,0,3.2-3.06,5.11,5.11,0,0,0,.91-2A3.13,3.13,0,0,0,155,33.41Z"/><path class="cls-35" d="M136.7,52.45l-1.23.4q-4,1.24-8,2.14l-1,.2L126,53.48l1.06-.23c3-.64,6-1.41,8.89-2.32Z"/><path class="cls-62" d="M155.07,33a5.77,5.77,0,0,1,1.4,4.21,7.34,7.34,0,0,1-2,4,25.65,25.65,0,0,1-7.26,5.3A65.87,65.87,0,0,1,139,50.13c-2.82,1-5.71,1.9-8.62,2.65a93.27,93.27,0,0,1-17.8,2.77,55.47,55.47,0,0,1-9-.18,27.93,27.93,0,0,1-4.43-.85,9.88,9.88,0,0,1-4-2l0,0,0-.05h0l0,.09A5.17,5.17,0,0,1,93,49.77a4.88,4.88,0,0,1,.16-3.41l.11,0a4.77,4.77,0,0,0,0,3.27,4.67,4.67,0,0,0,2,2.41l.3.17-.14.36h0l-.09-.48a10,10,0,0,0,3.86,1.73,26.2,26.2,0,0,0,4.33.68,61.09,61.09,0,0,0,8.87,0c3-.21,5.91-.57,8.84-1s5.85-1.08,8.74-1.79a90.41,90.41,0,0,0,16.78-5.86,26.47,26.47,0,0,0,7.24-4.92,6.94,6.94,0,0,0,2-3.69,5.68,5.68,0,0,0-1.13-4.1Z"/><path class="cls-41" d="M172.14,55.58a3.68,3.68,0,0,1,1.59-.44,2.19,2.19,0,0,1,1.57.53,1.8,1.8,0,0,1,.53,1.57,3.25,3.25,0,0,1-.69,1.52,7.74,7.74,0,0,1-1.2,1.16,6.44,6.44,0,0,1-1.42.87,1.92,1.92,0,0,1-1.64.06,1.13,1.13,0,0,1-.5-.69,2,2,0,0,1,0-.84l.09,0c0,.56.3,1,.65,1.1a1.63,1.63,0,0,0,1.13-.3,6.7,6.7,0,0,0,1.16-.88l.28-.25.28-.26a4.58,4.58,0,0,0,.47-.53,2.59,2.59,0,0,0,.56-1.09,1.17,1.17,0,0,0-.18-1,1.71,1.71,0,0,0-1.08-.57,4.15,4.15,0,0,0-1.56,0Z"/><path class="cls-63" d="M155.08,33.18a2.8,2.8,0,0,0-.21-1.1,5.6,5.6,0,0,0-.44-1,5.07,5.07,0,0,0-1.5-1.66,13.74,13.74,0,0,0-4.12-1.83c-.37-.1-.73-.21-1.1-.29a8.16,8.16,0,0,0-1.12-.15c-.75-.06-1.51-.07-2.26-.15a24.59,24.59,0,0,0-4.5-.49c-.76,0-1.51.16-2.26.23a14.45,14.45,0,0,1-2.28,0,18.93,18.93,0,0,0-2.26,0,18.48,18.48,0,0,0-2.22.42,14.23,14.23,0,0,1-2.25.35c-.76.05-1.52.06-2.27.14a40.25,40.25,0,0,0-4.39,1.1c-1.49.31-3,.35-4.47.8-.72.23-1.41.53-2.12.8a13,13,0,0,1-2.19.63c-.74.16-1.48.29-2.2.52a14.13,14.13,0,0,0-2.07.91,14.34,14.34,0,0,1-2.08.93c-.72.26-1.44.46-2.15.72a20.46,20.46,0,0,0-3.91,2.28,19.87,19.87,0,0,0-3.85,2.36,14.45,14.45,0,0,0-3,3.34,5.31,5.31,0,0,0-.76,2.11,6,6,0,0,0,0,1.12,4.54,4.54,0,0,0,.21,1.11l-.06,0A4.76,4.76,0,0,1,93,45.27a5.06,5.06,0,0,1,.69-3.34,14.88,14.88,0,0,1,3-3.47,11.08,11.08,0,0,1,.9-.74,9.55,9.55,0,0,1,1-.62c.67-.38,1.35-.71,2-1.1s1.22-.85,1.87-1.28a10.32,10.32,0,0,1,2.08-1.1c.72-.28,1.46-.5,2.14-.75l.52-.21.5-.21,1-.5a14.34,14.34,0,0,1,2.14-1c.76-.24,1.52-.39,2.25-.55a12.39,12.39,0,0,0,2.1-.62c.69-.27,1.4-.58,2.15-.82a45.44,45.44,0,0,1,4.52-.84,38.7,38.7,0,0,1,4.45-1.08c.79-.08,1.55-.08,2.29-.13a13.73,13.73,0,0,0,2.17-.33,18.21,18.21,0,0,1,2.29-.41,16.58,16.58,0,0,1,2.34,0,14.66,14.66,0,0,0,2.2,0c.74-.05,1.5-.16,2.28-.2a25.26,25.26,0,0,1,4.56.57c.74.09,1.49.11,2.26.19a8.05,8.05,0,0,1,1.17.17c.38.1.74.2,1.11.32a14.1,14.1,0,0,1,4.14,2,5.26,5.26,0,0,1,1.5,1.75,6.09,6.09,0,0,1,.42,1.07l.14.56a2.16,2.16,0,0,1,0,.57Z"/><path class="cls-64" d="M93.26,46.36A3.91,3.91,0,0,0,94.65,48c.58.42,1.21.77,1.82,1.15a8.8,8.8,0,0,0,4,1.39c.72.06,1.44.09,2.15.15s1.43.21,2.14.34a12.76,12.76,0,0,0,2.13.25,15.54,15.54,0,0,0,2.15-.15,15.43,15.43,0,0,1,2.15-.15c.72,0,1.44.06,2.16.08a9.61,9.61,0,0,0,2.14-.16c.7-.13,1.4-.31,2.11-.45,1.41-.31,2.88-.2,4.29-.39a42,42,0,0,0,4.17-1.09c1.41-.33,2.87-.32,4.25-.71s2.65-1.11,4.07-1.43a18.24,18.24,0,0,0,4.13-1.17c.65-.3,1.28-.65,1.93-1a14.91,14.91,0,0,1,2-.78,19.5,19.5,0,0,0,2-.72,11.6,11.6,0,0,0,1.86-1.09c.59-.4,1.17-.83,1.79-1.2s1.27-.68,1.9-1a7.89,7.89,0,0,0,1.75-1.23A11,11,0,0,0,153.19,37c.4-.59.83-1.17,1.2-1.79a4.35,4.35,0,0,0,.69-2h.06a4.42,4.42,0,0,1-.65,2.06c-.35.64-.76,1.23-1.15,1.84A11.17,11.17,0,0,1,152,38.79a8.46,8.46,0,0,1-1.77,1.33c-.63.36-1.27.69-1.87,1.06s-1.16.79-1.76,1.21a12.41,12.41,0,0,1-1.89,1.16c-.69.31-1.39.54-2.06.77a15.24,15.24,0,0,0-2,.78c-.62.32-1.25.67-1.92,1a10.92,10.92,0,0,1-2.12.75c-.72.17-1.43.3-2.1.47-1.34.31-2.58,1-4.05,1.45s-2.95.42-4.27.75A41.2,41.2,0,0,1,122,50.58c-.75.1-1.49.11-2.2.14a13,13,0,0,0-2.07.22c-.69.13-1.39.31-2.12.44a10,10,0,0,1-2.24.15c-.74,0-1.46-.08-2.15-.1a16.61,16.61,0,0,0-2.1.11,17.57,17.57,0,0,1-2.2.13,13.1,13.1,0,0,1-2.2-.3c-.72-.14-1.39-.29-2.1-.37s-1.42-.11-2.15-.19a8,8,0,0,1-2.15-.52,11.82,11.82,0,0,1-1.93-1c-.61-.4-1.23-.76-1.8-1.21a4,4,0,0,1-1.37-1.67Z"/><path class="cls-65" d="M93.26,46.36a3.88,3.88,0,0,0,1.43,1.55A21.19,21.19,0,0,0,96.53,49a8.36,8.36,0,0,0,4,1.26c.71.05,1.43.06,2.16.12a21.18,21.18,0,0,1,2.16.31,12.55,12.55,0,0,0,2.09.21,13.76,13.76,0,0,0,2.09-.19,17.8,17.8,0,0,1,2.21-.18c.74,0,1.46.06,2.16.07a9.36,9.36,0,0,0,2.05-.16c.68-.13,1.38-.31,2.1-.46a15.13,15.13,0,0,1,2.21-.26c.73,0,1.44-.06,2.11-.15a42.39,42.39,0,0,0,4.12-1.1c1.49-.34,2.93-.32,4.24-.69s2.61-1.08,4.08-1.41a18.6,18.6,0,0,0,4.06-1.12c.64-.29,1.26-.65,1.93-1a16.81,16.81,0,0,1,2.08-.76,19.55,19.55,0,0,0,2-.68,11,11,0,0,0,1.82-1c.59-.39,1.19-.82,1.83-1.18s1.29-.68,1.92-1a7.57,7.57,0,0,0,1.75-1.15,10.67,10.67,0,0,0,1.41-1.58c.42-.58.86-1.15,1.24-1.75a4.18,4.18,0,0,0,.75-2h.06a4.33,4.33,0,0,1-.7,2c-.37.63-.79,1.21-1.2,1.8a10.47,10.47,0,0,1-1.39,1.65,8.45,8.45,0,0,1-1.77,1.25c-.63.35-1.27.67-1.89,1s-1.2.79-1.79,1.2a12,12,0,0,1-1.86,1.1,21.48,21.48,0,0,1-2,.72,15.63,15.63,0,0,0-2,.78c-.65.31-1.28.66-1.93,1a18.73,18.73,0,0,1-4.15,1.18c-1.4.32-2.67,1-4.06,1.43s-2.86.4-4.26.73a41.8,41.8,0,0,1-4.17,1.08c-1.44.19-2.89.07-4.29.38-.71.14-1.41.32-2.12.45a10.33,10.33,0,0,1-2.15.16c-.72,0-1.44-.08-2.16-.09a17,17,0,0,0-2.14.14,17.44,17.44,0,0,1-2.16.16,13,13,0,0,1-2.15-.26c-.7-.13-1.41-.28-2.12-.34s-1.44-.09-2.15-.16a8.64,8.64,0,0,1-4-1.41c-.61-.37-1.25-.72-1.83-1.15a4,4,0,0,1-1.4-1.62Z"/><path class="cls-66" d="M158.24,56.4A4.1,4.1,0,0,1,160,58c.43.64.71,1.45,1.36,1.78a1.93,1.93,0,0,0,1.07.14,1.86,1.86,0,0,0,1-.42,1.53,1.53,0,0,0,.52-.95,1.07,1.07,0,0,0-.34-1l.07-.09a1.26,1.26,0,0,1,.89,1.16,2.11,2.11,0,0,1-.52,1.57,2.68,2.68,0,0,1-1.48.82,2.9,2.9,0,0,1-1.75-.18,3,3,0,0,1-1.19-1.25,8.39,8.39,0,0,1-.43-1.09,7.9,7.9,0,0,0-1-2Z"/><path class="cls-51" d="M152.75,58c-1,1-2.05,2-3,3a21.84,21.84,0,0,0-2.53,3.19,4.81,4.81,0,0,0-.64,1.61.79.79,0,0,0,.41.89,4.19,4.19,0,0,0,1.56.53c.6.1,1.34.15,2,.21a37.8,37.8,0,0,0,4.12.12,40.54,40.54,0,0,0,4.12-.29c1.37-.18,2.74-.41,4.1-.72s2.72-.69,4.09-1.1l.05.1a32.29,32.29,0,0,1-16.57,3.07c-.71-.07-1.41-.12-2.12-.25a5.2,5.2,0,0,1-2-.77,2,2,0,0,1-.68-.87,2.07,2.07,0,0,1-.09-1.1,5.35,5.35,0,0,1,.9-2,18.68,18.68,0,0,1,2.88-3.14,42.51,42.51,0,0,1,3.33-2.65Z"/><path class="cls-67" d="M152.32,58.24a3.35,3.35,0,0,0,1,.89,7.47,7.47,0,0,0,1.56.7c.33.1.64.18,1,.26a4.91,4.91,0,0,0,.7,1.39,5.11,5.11,0,0,0,1.64,1.43,5.34,5.34,0,0,0,4.17.42,5.55,5.55,0,0,0,1.85-1,4.41,4.41,0,0,0,1.29-1.64,2.36,2.36,0,0,0,.17-1.18,2.3,2.3,0,0,0-.45-1,3.27,3.27,0,0,0-1.59-1l-.06.11a3.4,3.4,0,0,1,1.22,1.19,1.6,1.6,0,0,1,0,1.61,3.71,3.71,0,0,1-1.18,1.22,4.72,4.72,0,0,1-1.56.72,4.54,4.54,0,0,1-3.33-.4,4.12,4.12,0,0,1-2.06-2.62v-.07h-.07a9.65,9.65,0,0,1-3-.7,3.51,3.51,0,0,1-.88-.55Z"/><path class="cls-68" d="M163.64,57.46a3.46,3.46,0,0,1,1.27,1.22,1.69,1.69,0,0,1,.05,1.71,3.9,3.9,0,0,1-1.21,1.28,5.35,5.35,0,0,1-1.6.76,4.66,4.66,0,0,1-3.45-.4,4.29,4.29,0,0,1-2.12-2.73l0,0a9.66,9.66,0,0,1-3-.73,2.86,2.86,0,0,1-1.22-1,1.58,1.58,0,0,1-.1-1.52l0,0a1.54,1.54,0,0,0,.23,1.38,3,3,0,0,0,1.19.76,6.94,6.94,0,0,0,1.44.38c.49.09,1,.12,1.48.16l.33,0,.09.32a3.74,3.74,0,0,0,1.9,2.35,4.27,4.27,0,0,0,3,.4,5.5,5.5,0,0,0,1.45-.63,3.53,3.53,0,0,0,1.16-1.07,1.5,1.5,0,0,0,.07-1.43,3.68,3.68,0,0,0-1.09-1.28Z"/><path class="cls-35" d="M160.42,44.05a5.23,5.23,0,0,1,1.17.48l.17.1.16.09c.12.08.22.17.32.25a5.65,5.65,0,0,1,.54.56c.32.38.57.79.83,1.16s.53.8.76,1.21a9.68,9.68,0,0,1,.59,1.32,13.73,13.73,0,0,1,.4,1.39,7.55,7.55,0,0,1,.17,1.42v.08h0l-.22,0,0,0,.2-.08,0,0a13.88,13.88,0,0,0-2.31-5,6.35,6.35,0,0,0-1.78-2.1,5.79,5.79,0,0,0-1-.56Z"/><path class="cls-42" d="M148.47,55.81a.32.32,0,0,0,.28.13,1.29,1.29,0,0,0,.34,0c.23,0,.48-.07.72-.1l1.46-.29c.49-.08,1-.2,1.47-.27l.74-.13.74-.1.39,0,.38.36.09.1.15.13a1.76,1.76,0,0,0,.34.25,2.85,2.85,0,0,0,.86.33,4.84,4.84,0,0,0,1,.12c.37,0,.75,0,1.16,0l0,.08a5,5,0,0,1-2.26.48,3,3,0,0,1-2.1-.94l.09,0c-1,.19-2,.31-3,.4-.51,0-1,.06-1.54.05a4.14,4.14,0,0,1-.77-.09,1.33,1.33,0,0,1-.37-.12.43.43,0,0,1-.26-.31Z"/><path class="cls-41" d="M160.32,46.88c-1,.8-2.09,1.54-3.16,2.22-.53.36-1.08.68-1.6,1s-1.08.65-1.6,1c-1.07.65-2.12,1.33-3.13,2a13.44,13.44,0,0,0-1.42,1.15,2.59,2.59,0,0,0-.93,1.5h-.09A2.57,2.57,0,0,1,149,54a9.22,9.22,0,0,1,1.33-1.39,24.85,24.85,0,0,1,3.12-2.27,61.82,61.82,0,0,1,6.79-3.57Z"/><g class="cls-31"><path class="cls-39" d="M165.22,52.15A8.23,8.23,0,0,1,163.71,51c-.24-.19-.42-.37-.66-.58l-.63-.64c-.38-.42-.79-.89-1.13-1.35a5.45,5.45,0,0,1-1-1.59l.06-.06c.44.41,1,.73,1.43,1.12s.89.84,1.32,1.28.81.9,1.19,1.38.71,1,1,1.51Z"/></g><path class="cls-69" d="M165.24,52.14a17.79,17.79,0,0,0-1.58-2.08,24.61,24.61,0,0,0-1.81-1.87,14,14,0,0,1-2-1.74,7.84,7.84,0,0,1-1.32-2.25l.06,0a10.52,10.52,0,0,0,.77,1,9.39,9.39,0,0,0,.84.94,8.25,8.25,0,0,0,.93.77l.53.38c.17.13.39.3.54.44.34.33.64.63.94,1a13.19,13.19,0,0,1,.84,1,9.45,9.45,0,0,1,1.27,2.36Z"/><path class="cls-66" d="M158.76,43.94a4.92,4.92,0,0,1,2.65.87,6.37,6.37,0,0,1,1.86,2.11A14,14,0,0,1,165.52,52v0l-.05,0-.2.08,0-.11.16-.16-.09.17c-.56-.82-1.05-1.58-1.53-2.32-.25-.36-.47-.74-.74-1.09s-.46-.68-.75-1.08l-.71-1.14a3.35,3.35,0,0,0-.31-.46,1.82,1.82,0,0,1-.14-.19,1.11,1.11,0,0,0-.11-.11l0,0,0,0-.06,0a8.09,8.09,0,0,0-2.16-1.53Z"/><g class="cls-31"><path class="cls-60" d="M115.19,47.64a2.39,2.39,0,0,0-.82.68,1.78,1.78,0,0,0-.15,1.93A2,2,0,0,0,115,51a1.59,1.59,0,0,1-1-.61,1.69,1.69,0,0,1-.32-1.13,1.87,1.87,0,0,1,.48-1.08A1.82,1.82,0,0,1,115.19,47.64Z"/></g><g class="cls-31"><path class="cls-60" d="M149.3,36.35a1.14,1.14,0,0,1,1.18-.43,1.84,1.84,0,0,1,1.14.67,1.67,1.67,0,0,1,.32,1.29,2.32,2.32,0,0,1-.57,1.15,3.21,3.21,0,0,0,.35-1.17,1.62,1.62,0,0,0-.33-1.09,1.87,1.87,0,0,0-1-.63A1.2,1.2,0,0,0,149.3,36.35Z"/></g><g class="cls-31"><path class="cls-60" d="M98.86,46.54a3,3,0,0,0-1.22,0,1.44,1.44,0,0,0-.91.64,1.62,1.62,0,0,0-.18,1.11A3.66,3.66,0,0,0,97,49.42a2.56,2.56,0,0,1-.63-1.11A1.66,1.66,0,0,1,96.48,47a1.52,1.52,0,0,1,1.12-.7A2.16,2.16,0,0,1,98.86,46.54Z"/></g><g class="cls-31"><path class="cls-60" d="M134,43.58a1.9,1.9,0,0,1,1.18-.07,1.42,1.42,0,0,1,.92.81,2,2,0,0,1,.05,1.22,3,3,0,0,1-.54,1,5.39,5.39,0,0,0,.31-1.09,2,2,0,0,0-.09-1.05,1.31,1.31,0,0,0-.73-.71A2.38,2.38,0,0,0,134,43.58Z"/></g><path class="cls-70" d="M165.14,165.25a1,1,0,0,0,.5.43,1.66,1.66,0,0,0,.63.15,5.07,5.07,0,0,0,1.34-.07c.46,0,.91-.16,1.37-.25s.92-.2,1.4-.27v0a13.17,13.17,0,0,1-2.74.78,4.51,4.51,0,0,1-1.42,0,1.3,1.3,0,0,1-1.11-.8Z"/><path class="cls-71" d="M166.15,142.16a72.55,72.55,0,0,1-.73,21.69c-.2.93-.33,1.41-.33,1.41s.25,1.35,3.38.59c2.17-5.56,4.14-11.07,4.14-16.85C172.61,146.72,169.11,144.44,166.15,142.16Z"/><path class="cls-8" d="M195.44,82c3.16-1,.57,3.38-1.08,4S190.69,83.47,195.44,82Z"/><path class="cls-8" d="M191.26,86.49c-.26-1.37,1.45-.06,1.61.66S191.65,88.56,191.26,86.49Z"/><path class="cls-72" d="M174.76,101.7c-1.41-.66-1.59.47-1.09.68S175.69,102.14,174.76,101.7Z"/><path class="cls-72" d="M170.67,100.18c-.44-.21-1.48.13-.64.55C171.3,101.36,171.12,100.38,170.67,100.18Z"/><path class="cls-72" d="M172.42,101.21c-.41-.09-1,.48-.25.69C173.35,102.22,172.83,101.31,172.42,101.21Z"/><path class="cls-72" d="M176.66,101.72c-.86-.06-.37.49-.08.5S177.22,101.75,176.66,101.72Z"/><path class="cls-46" d="M176.91,13.3A5.62,5.62,0,0,1,180,12.25a5.79,5.79,0,0,1,3.19.82,4.87,4.87,0,0,1,2.08,2.56,5.71,5.71,0,0,1,.07,3.3l-.19-.21a7.8,7.8,0,0,1,2.21.05,4.88,4.88,0,0,1,2.06.8,3.29,3.29,0,0,1,1.27,1.81,5.45,5.45,0,0,1,.09,2.2l-.18,0a6.55,6.55,0,0,0-.79-1.9,2.53,2.53,0,0,0-1.18-1,3.89,3.89,0,0,0-.73-.2,4.07,4.07,0,0,0-.8-.1h-.87a5.83,5.83,0,0,0-.82.08l-2.23.42.46-2.37a4.71,4.71,0,0,0,0-2.33,3.72,3.72,0,0,0-.44-1,4.58,4.58,0,0,0-.79-.87,4.34,4.34,0,0,0-1.08-.66,5.13,5.13,0,0,0-1.31-.41,6.44,6.44,0,0,0-3,.2Z"/><path class="cls-65" d="M55.58,77.64h4.31v12H60a3.73,3.73,0,0,1,3.41-2.14h.2c1.72,0,2.9.54,3.53,1.62a11.23,11.23,0,0,1,1,5.38v18.61H63.35V94.79a11.71,11.71,0,0,0-.24-2.71,1.26,1.26,0,0,0-1.33-.85h-.1a1.42,1.42,0,0,0-1.55,1.29,22.78,22.78,0,0,0-.24,3.87v16.67H55.58Z"/><path class="cls-65" d="M70.55,100.41c0-4.47.67-7.75,2-9.83s3.06-3.13,5.11-3.13a6.12,6.12,0,0,1,5.11,3q2,3,2,10,0,7.2-2.18,10t-4.92,3c-1.45,0-3-.83-4.69-2.47S70.55,105.77,70.55,100.41Zm4.87,3.7a19.74,19.74,0,0,0,.48,4.17,1.76,1.76,0,0,0,1.74,1.6c1.18,0,1.89-.82,2.14-2.47a65.36,65.36,0,0,0,.29-7.06,63.55,63.55,0,0,0-.29-7c-.21-1.55-.91-2.32-2.09-2.32s-1.73.82-2,2.47a46.76,46.76,0,0,0-.4,6.91C75.29,101.29,75.33,102.53,75.42,104.11Z"/><path class="cls-65" d="M87.91,87.82h3.75l.49,2c.91-1.6,2-2.4,3.44-2.4h.29q5,.31,5.31,10.88c0,.76,0,1.49,0,2.18a30.83,30.83,0,0,1-.61,6.64,10.69,10.69,0,0,1-2,4.87A3.56,3.56,0,0,1,96,113.4h-.2c-1.32-.07-2.43-1-3.31-2.81v13.27H87.91Zm4.61,17.56a2.59,2.59,0,0,0,0,.48v.61a5,5,0,0,0,.34,1.82,1.68,1.68,0,0,0,1.29.89h.19a1.79,1.79,0,0,0,1.36-.89,3.84,3.84,0,0,0,.34-1.82c.06-.76.13-1.91.19-3.44V100.7q0-1.19,0-2.37a32.86,32.86,0,0,0-.48-5.16c-.28-1.26-.84-1.89-1.7-1.89a1.24,1.24,0,0,0-1.33,1.19,20.7,20.7,0,0,0-.24,3.73Z"/><path class="cls-2" d="M49.26,166.94l10.27-50.71,7,1.42c4.61.94,8.22,2.77,10.74,5.44s3.12,7.69,1.75,14.69l-.19.93c-1.23,6.09-3.5,10.14-6.74,12A15.76,15.76,0,0,1,63.94,153a19.3,19.3,0,0,1-3.17-.27l-3.22,15.91Zm12.79-20.56a4.73,4.73,0,0,0,.83.07h0a5.77,5.77,0,0,0,3.74-1.51c1.48-1.22,2.66-3.93,3.5-8.07l.09-.45c.86-4.5.79-7.58-.21-9.16a5.08,5.08,0,0,0-3.24-2.4l-.34-.07Z"/><path class="cls-3" d="M59.72,116.53l6.77,1.37q6.87,1.39,10.61,5.36t1.68,14.47l-.19.93q-1.83,9.06-6.62,11.89a15.55,15.55,0,0,1-8,2.18,18.86,18.86,0,0,1-3.37-.31l-3.21,15.91-7.8-1.58,10.16-50.22m3.16,30.17a6,6,0,0,0,3.9-1.57q2.31-1.89,3.58-8.21l.1-.45q1.32-6.89-.25-9.34a5.36,5.36,0,0,0-3.4-2.52l-.58-.11-4.47,22.08a5.4,5.4,0,0,0,1.12.12m-3.55-30.76-.1.49L49.07,166.65l-.1.49.49.1,7.8,1.58.49.1.1-.49L61,153a20.33,20.33,0,0,0,3,.23A16.06,16.06,0,0,0,72.22,151c3.31-1.95,5.62-6.06,6.86-12.22l.19-.93c1.39-7.09.78-12.1-1.8-14.9s-6.22-4.58-10.88-5.52L59.82,116l-.49-.1Zm3,30.23,4.27-21.08h.09a4.86,4.86,0,0,1,3.09,2.3c1,1.52,1,4.54.16,9l0,.18-.06.26c-.82,4.08-2,6.75-3.41,7.93a5.52,5.52,0,0,1-3.58,1.45l-.53,0Z"/><path class="cls-2" d="M82.18,162.13V135.9h4.95v26.23Zm2.53-30.39c-1.15,0-2.53-.52-2.53-3s1.38-3,2.53-3,2.42.52,2.42,3S85.81,131.74,84.71,131.74Z"/><path class="cls-3" d="M84.71,126c1.44,0,2.17.92,2.17,2.74s-.73,2.72-2.17,2.72-2.28-.91-2.28-2.72.76-2.74,2.28-2.74m2.17,10.12v25.73H82.43V136.15h4.45m-2.17-10.62c-1,0-2.78.42-2.78,3.24S83.67,132,84.71,132s2.67-.42,2.67-3.22-1.68-3.24-2.67-3.24Zm2.67,10.12H81.93v26.73h5.45V135.65Z"/><polygon class="cls-2" points="86.45 167.08 100.65 136.37 91.28 134.99 92.11 129.38 110.34 132.08 95.86 162.75 104.39 164.01 103.57 169.61 86.45 167.08"/><path class="cls-3" d="M92.33,129.67,110,132.28,95.49,163l8.62,1.27-.76,5.11-16.53-2.45L101,136.17l-9.45-1.39.76-5.11m-.43-.57-.07.49-.75,5.11-.08.5.5.07,8.78,1.3-13.91,30.1-.28.61.66.1,16.53,2.44.5.08.07-.5.75-5.1.08-.5-.5-.07-8-1.18,14.19-30.06.29-.61-.67-.1L92.4,129.17l-.5-.07Z"/><polygon class="cls-2" points="117.92 138.4 109.78 138.82 109.52 133.87 125.47 133.04 118.45 161.45 125.87 161.06 126.13 166.01 111.14 166.79 117.92 138.4"/><path class="cls-3" d="M125.15,133.31l-7,28.41,7.52-.39.23,4.45-14.41.74,6.78-28.39-8.22.43-.23-4.45,15.36-.8m.65-.53-.67,0-15.37.8-.5,0,0,.5.23,4.45,0,.5.5,0,7.56-.4L111,166.41l-.16.65.67,0,14.4-.74.5,0,0-.5-.24-4.45,0-.5-.5,0-6.84.35,6.87-27.75.16-.65Z"/><path class="cls-2" d="M137.62,167.2c-3.1,0-5.61-1.89-7.46-5.63a15.51,15.51,0,0,1-.69-1.89,11.55,11.55,0,0,1-.34-5.3,11.18,11.18,0,0,1,2.9-5.94A14.17,14.17,0,0,1,137.5,145l-1.4-4.8a3.62,3.62,0,0,0-1.22-2,2.29,2.29,0,0,0-1.07-.33.86.86,0,0,0-.28,0l-.13,0c-.55.16-.93.77-1.15,1.81a10.19,10.19,0,0,0,.36,4.38l.08.29-6.26.39-.06-.19a12,12,0,0,1-.35-5.23,9.24,9.24,0,0,1,2.11-4.57,9,9,0,0,1,4.31-2.71,9.4,9.4,0,0,1,2.6-.4,7.22,7.22,0,0,1,3.71,1,9.34,9.34,0,0,1,3.92,5.71l4.91,16.73a16,16,0,0,0,1.33,3.4,4.24,4.24,0,0,0,2,1.76l.22.1-1.62,3.73h-.68a9.84,9.84,0,0,1-4.71-1.27,6.34,6.34,0,0,1-4,3.9l-.63.19A8.77,8.77,0,0,1,137.62,167.2Zm1.28-17.42a3.58,3.58,0,0,0-2.52,2.53,7.75,7.75,0,0,0,.07,4.64c.83,2.7,1.94,4.07,3.29,4.07h0a2.35,2.35,0,0,0,.68-.11c.77-.26,1.15-.65,1.14-1.2a9.59,9.59,0,0,0-.48-2.51Z"/><path class="cls-3" d="M135,131.94a6.83,6.83,0,0,1,3.58,1,9.07,9.07,0,0,1,3.81,5.56l4.91,16.73a16.16,16.16,0,0,0,1.36,3.46,4.46,4.46,0,0,0,2.15,1.86l-1.47,3.36-.51,0a9.78,9.78,0,0,1-4.84-1.38,6.15,6.15,0,0,1-3.93,4l-.63.19a8.68,8.68,0,0,1-1.85.21q-4.51,0-7.23-5.49a14.34,14.34,0,0,1-.68-1.85,11.21,11.21,0,0,1-.33-5.19,10.81,10.81,0,0,1,2.83-5.8,13.85,13.85,0,0,1,5.6-3.45l-1.47-5A3.78,3.78,0,0,0,135,138a2.59,2.59,0,0,0-1.21-.37,1,1,0,0,0-.35.05l-.13,0c-.65.19-1.09.86-1.32,2a10.4,10.4,0,0,0,.36,4.5l-5.76.36a11.7,11.7,0,0,1-.34-5.12,9,9,0,0,1,2-4.45,8.66,8.66,0,0,1,4.19-2.63,9,9,0,0,1,2.53-.39m4.7,29.33a2.55,2.55,0,0,0,.75-.12q1.33-.45,1.32-1.44a9.75,9.75,0,0,0-.49-2.58l-2.25-7.66-.12,0a3.85,3.85,0,0,0-2.81,2.74,8,8,0,0,0,.07,4.78q1.31,4.24,3.53,4.25M135,131.44a9.53,9.53,0,0,0-2.67.41,9.2,9.2,0,0,0-4.43,2.78,9.52,9.52,0,0,0-2.16,4.7,12.23,12.23,0,0,0,.35,5.34l.12.38.39,0,5.76-.36.61,0-.15-.59a9.71,9.71,0,0,1-.36-4.27c.19-.93.52-1.47,1-1.61l.1,0a.75.75,0,0,1,.24,0,2.11,2.11,0,0,1,1,.31,3.47,3.47,0,0,1,1.08,1.87l1.34,4.57a14.41,14.41,0,0,0-5.35,3.42,11.4,11.4,0,0,0-3,6.07,11.74,11.74,0,0,0,.34,5.41,15.26,15.26,0,0,0,.7,1.91c1.91,3.85,4.49,5.79,7.69,5.79a9,9,0,0,0,2-.22l.35-.1.31-.1a6.44,6.44,0,0,0,4-3.8,10,10,0,0,0,4.59,1.19l.54,0,.3,0,.13-.28,1.46-3.36.2-.45-.44-.21a3.88,3.88,0,0,1-1.92-1.64,15.14,15.14,0,0,1-1.32-3.36l-4.91-16.73a9.59,9.59,0,0,0-4-5.85,7.43,7.43,0,0,0-3.84-1.06Zm4.7,29.33c-1.23,0-2.26-1.31-3.05-3.89a7.58,7.58,0,0,1-.08-4.49,3.29,3.29,0,0,1,2.13-2.29l2.1,7.17a9.58,9.58,0,0,1,.47,2.44c0,.18,0,.63-1,1a2,2,0,0,1-.59.09Z"/></g></g></svg>