<svg xmlns="http://www.w3.org/2000/svg" viewBox="0 0 49.96 48.99"><defs><style>.cls-1{isolation:isolate;}.cls-2{fill:#bc2c00;}.cls-3{fill:#ff6924;}.cls-4{fill:#de3b01;}.cls-5{fill:#ff9e03;}.cls-6{fill:#991d00;}.cls-7{fill:#f53b01;}.cls-8{fill:#f54501;}.cls-9{fill:#ff2b01;}.cls-10{fill:#ff966e;}.cls-11{fill:#9c2901;}.cls-12{fill:#fca669;}.cls-13{fill:#a81c01;}.cls-14{fill:#fc8f5c;}.cls-15{fill:#ff4a24;}.cls-16{fill:#fff;mix-blend-mode:screen;}.cls-17{fill:#ffd8d2;}</style></defs><g class="cls-1"><g id="Pizza"><path class="cls-2" d="M49.78,24.51c0,.46,0,.92,0,1.39,0,12.7-11.15,23-24.92,23S0,38.6,0,25.9c0-.47,0-.93.05-1.39.79,12.05,11.62,21.6,24.86,21.6a26.18,26.18,0,0,0,5.72-.62C41.16,43.22,49.12,34.77,49.78,24.51Z"/><path class="cls-3" d="M38.22,28.76c3.66,1.56,7.22,1.57,7.34-1,.15-3.08.59-5.36.59-7.49s-2.64-9.25-5.35-8a31.9,31.9,0,0,0-3.7,2.06c-3.23,2-7,5.08-7.54,7.85-.42,2.32,2.35,3.08,6.61,5.58A17.09,17.09,0,0,0,38.22,28.76Zm11.61-5.64c0,.47,0,.93,0,1.39-.66,10.26-8.62,18.71-19.15,21l-.47-2.25a7.7,7.7,0,0,0,1.38-.45c2.65-1.18,7.89-3.34,8.74-5,1-2-1-4.17-5.19-7.55l0,0c-3.66-2.95-5.79-3.87-7.41-3.48l-.19-1.37.2,0c1.34-.06,1.42-.5.78-1.48s.56-2.36-.28-2.92a4,4,0,0,0-1.93-.78L26.12,19c1.89-1.18,4.3-3.86,5.86-5.62l1.13-1.25h0C35.33,9.67,37,7.92,36.39,6.23c-.38-1-2.33-1.73-5-2.13l.78-3C42.38,4,49.83,12.74,49.83,23.12Z"/><path class="cls-2" d="M46.15,20.24c0,2.13-.44,4.41-.59,7.49-.12,2.6-3.68,2.59-7.34,1C43,27.51,42,24.65,40.9,23.12s-.18-2.95,0-4.66-.14-4.24-3.76-4.16a31.9,31.9,0,0,1,3.7-2.06C43.51,11,46.15,18.11,46.15,20.24Z"/><path class="cls-4" d="M30.27,22.6c.08.15,1.79,3.17,3.12,1.89S30.55,22.62,30.27,22.6Zm10.63.52C42,24.65,43,27.51,38.22,28.76a17.09,17.09,0,0,1-2-1c-4.26-2.5-7-3.26-6.61-5.58.51-2.77,4.31-5.81,7.54-7.85,3.62-.08,3.91,2.44,3.76,4.16S39.82,21.58,40.9,23.12ZM32,22s3.37,1,3-.5S32,22,32,22Zm-.2-1.86s4.11-.31,3-2S31.76,20.16,31.76,20.16Z"/><path class="cls-2" d="M35.09,30.24c4.17,3.38,6.22,5.5,5.19,7.55-.85,1.66-6.09,3.82-8.74,5a7.7,7.7,0,0,1-1.38.45c-2.63.59-6-.13-5.89-5.08,0-1.28.07-2.47.14-3.57-.1,3.15,2.51,6.35,5.11,5.47s4.44.3,5.18-1.76S37,35.77,36.82,34A8.77,8.77,0,0,0,35.09,30.24Z"/><path class="cls-4" d="M36.82,34c.15,1.74-1.38,2.22-2.12,4.27s-2.57.88-5.18,1.76-5.21-2.32-5.11-5.47v0c.21-3.92.75-6.6,2.58-7.55a3.24,3.24,0,0,1,.67-.27c1.62-.39,3.75.53,7.41,3.48l0,0A8.77,8.77,0,0,1,36.82,34Zm-5.45-3.22c2-1.17-2.53-2.93-2.53-2.93S29.37,32,31.37,30.81Zm-1,3.87c1.69-.58-.85-2.59-.85-2.59S28.67,35.26,30.37,34.68Zm-3.15-1.27c2.09.15,0-4.07,0-4.07S25.12,33.26,27.22,33.41Z"/><path class="cls-2" d="M36.39,6.23c.63,1.69-1.06,3.44-3.28,5.86-1.1-2.7-3.11-1.9-4-1.68s-3.23,1.18-4.85-.81A4.36,4.36,0,0,0,18,9.06a6.63,6.63,0,0,1-.55-2.47c-.15-3.67,5.86-3,9.84-2.86a39.38,39.38,0,0,1,4.07.37C34.06,4.5,36,5.21,36.39,6.23Z"/><path class="cls-5" d="M35,21.52c.35,1.52-3,.5-3,.5S34.61,20,35,21.52Z"/><path class="cls-5" d="M34.8,18.19c1.07,1.66-3,2-3,2S33.72,16.52,34.8,18.19Z"/><path class="cls-5" d="M30.27,22.6c.28,0,4.45.62,3.12,1.89S30.35,22.75,30.27,22.6Z"/><path class="cls-4" d="M33.11,12.09h0L32,13.35c-1.56,1.76-4,4.44-5.86,5.62a4.44,4.44,0,0,1-1.21.54c-1.93.45-4.23-3.23-4.6-5.94-.26-2-1.56-2.82-2.31-4.51a4.36,4.36,0,0,1,6.27.54c1.62,2,4,1,4.85.81S32,9.39,33.11,12.09Zm-5.8,4.54s2.06-2,.78-2.33S27.31,16.63,27.31,16.63Zm-2.4,1.56s2.79-2.75.65-3.09S24.91,18.19,24.91,18.19Zm-1.56-1.86S25,13,23,13.05,23.35,16.33,23.35,16.33Z"/><path class="cls-3" d="M32.14,1.11l-.78,3a39.38,39.38,0,0,0-4.07-.37c-4-.17-10-.81-9.84,2.86A6.63,6.63,0,0,0,18,9.06c.75,1.69,2.05,2.55,2.31,4.51.37,2.71,2.67,6.39,4.6,5.94A4.44,4.44,0,0,0,26.12,19l.12,1.18a.87.87,0,0,0-.73.4c-.53.83-1,.28-1.73.38-1.85.26-1.56-.55-2.19.55s-2.34,2-1.21,2.87,1.57,2,2.55,1.43,1.66-.4,2,.26,1.33-.53,2.58-.68l.19,1.37A3.24,3.24,0,0,0,27,27c-1.83.95-2.37,3.63-2.58,7.55v0c-.07,1.1-.1,2.29-.14,3.57-.12,5,3.26,5.67,5.89,5.08l.47,2.25a26.18,26.18,0,0,1-5.72.62C11.67,46.11.84,36.56.05,24.51c0-.46,0-.92,0-1.39,0-12.7,11.15-23,24.91-23A26.8,26.8,0,0,1,32.14,1.11ZM21.94,33.56c.8-4.43,1-5.49-.83-6.89C18.62,24.8,15.3,26.3,11,28.47c-.85.44-1.6.83-2.26,1.22-2.61,1.57-3.35,3-.28,6.63,3.81,4.47,6.37,4.26,9,5.65s3.53-3.23,4.41-8A3,3,0,0,1,21.94,33.56ZM19.87,21.49c1-1.58-.14-2.5-1.91-6.24-.58-1.23-1.16-2.53-1.76-3.69-1.23-2.38-2.53-4.19-4-3.65a14.09,14.09,0,0,0-6.69,6.74A14.19,14.19,0,0,0,5,24.51c.58,1.45,2,2.17,5,1.48a19.8,19.8,0,0,0,2.6-.82C17.3,23.32,19.28,22.45,19.87,21.49Z"/><path class="cls-5" d="M28.84,27.88s4.54,1.76,2.53,2.93S28.84,27.88,28.84,27.88Z"/><path class="cls-5" d="M29.52,32.09s2.54,2,.85,2.59S29.52,32.09,29.52,32.09Z"/><path class="cls-5" d="M28.45,23.85c.64,1,.56,1.42-.78,1.48l-.2,0c-1.25.15-2.28,1.28-2.58.68s-1-.85-2-.26-1.4-.51-2.55-1.43.57-1.77,1.21-2.87.34-.29,2.19-.55c.78-.1,1.2.45,1.73-.38a.87.87,0,0,1,.73-.4,4,4,0,0,1,1.93.78C29,21.49,27.81,22.85,28.45,23.85Z"/><path class="cls-5" d="M28.09,14.3c1.28.37-.78,2.33-.78,2.33S26.82,13.93,28.09,14.3Z"/><path class="cls-5" d="M27.22,29.34s2.09,4.22,0,4.07S27.22,29.34,27.22,29.34Z"/><path class="cls-5" d="M25.56,15.1c2.14.34-.65,3.09-.65,3.09S23.4,14.76,25.56,15.1Z"/><path class="cls-5" d="M23,13.05c2.05-.1.39,3.28.39,3.28S20.9,13.14,23,13.05Z"/><path class="cls-4" d="M21.11,26.67c1.88,1.4,1.63,2.46.83,6.89h0c-3.48,4.76-5.73,4-5.73,4-1.26,2-4.19-.74-5.8-2.35S7.18,30.9,8.78,29.69c.66-.39,1.41-.78,2.26-1.22C15.3,26.3,18.62,24.8,21.11,26.67Zm-.88,4.55C22,31.11,20,28.27,20,28.27S18.43,31.35,20.23,31.22Zm-4,1.7c1.86,1.18,1.8-3.58,1.8-3.58S14.34,31.75,16.2,32.92Zm-2.85-3.09C14.87,31.9,17,27.58,17,27.58S11.82,27.76,13.35,29.83Z"/><path class="cls-2" d="M21.94,33.56a3,3,0,0,0-.08.41c-.88,4.77-1.85,9.4-4.41,8s-5.14-1.18-8.95-5.65c-3.07-3.59-2.33-5.06.28-6.63-1.6,1.21,0,3.9,1.62,5.53s4.54,4.33,5.8,2.35c0,0,2.25.75,5.73-4Z"/><path class="cls-5" d="M20,28.27s2,2.84.23,2.95S20,28.27,20,28.27Z"/><path class="cls-4" d="M18,15.25c1.77,3.74,2.88,4.66,1.91,6.24-.59,1-2.57,1.83-7.26,3.68A19.8,19.8,0,0,1,10,26c-2.65-1.67-.71-5.53-.71-5.53A5.87,5.87,0,0,1,7.61,17c0-1.75,2.27-2.89,3.45-4.29s3.16-2.64,5.14-1.19C16.8,12.72,17.38,14,18,15.25Zm-6.05,3.21c-.55,1.59,4.68,1.08,4.68,1.08S12.46,16.86,11.91,18.46Zm4.68,3.74s-3.71-.79-3.42.92S16.59,22.2,16.59,22.2Zm0-5.16s-1.85-4.38-3-2.74S16.59,17,16.59,17Z"/><path class="cls-5" d="M18,29.34s.06,4.76-1.8,3.58S18,29.34,18,29.34Z"/><path class="cls-5" d="M16.59,19.54s-5.23.51-4.68-1.08S16.59,19.54,16.59,19.54Z"/><path class="cls-5" d="M13.17,23.12c-.29-1.71,3.42-.92,3.42-.92S13.45,24.83,13.17,23.12Z"/><path class="cls-2" d="M16.2,11.56c-2-1.45-4-.2-5.14,1.19S7.61,15.29,7.61,17A5.87,5.87,0,0,0,9.3,20.46S7.36,24.32,10,26c-2.93.69-4.39,0-5-1.48a14.19,14.19,0,0,1,.51-9.86,14.09,14.09,0,0,1,6.69-6.74C13.67,7.37,15,9.18,16.2,11.56Z"/><path class="cls-5" d="M17,27.58s-2.17,4.32-3.69,2.25S17,27.58,17,27.58Z"/><path class="cls-5" d="M13.56,14.3c1.18-1.64,3,2.74,3,2.74S12.38,15.94,13.56,14.3Z"/><path class="cls-6" d="M37.18,14.2a3.92,3.92,0,0,1,2.72-.14,3.55,3.55,0,0,1,1.35.91,4.28,4.28,0,0,1,.8,1.42,7,7,0,0,1,.26,2.92A16.32,16.32,0,0,0,42,21.44a1.32,1.32,0,0,0,.06.54,1.35,1.35,0,0,0,.15.29,4.56,4.56,0,0,1,.36.63A4.75,4.75,0,0,1,43,26.1a3.22,3.22,0,0,1-.83,1.53,3.92,3.92,0,0,1-1.27.86,5.38,5.38,0,0,1-2.63.34l0-.17a7.34,7.34,0,0,0,2.17-.93A2.68,2.68,0,0,0,41.7,25.9a3.5,3.5,0,0,0-.54-2.21c-.18-.33-.45-.64-.63-1a3,3,0,0,1-.25-1.23A16.07,16.07,0,0,1,40.71,19a6.14,6.14,0,0,0,0-2.34,2.67,2.67,0,0,0-1.28-1.83,4.39,4.39,0,0,0-2.27-.48Z"/><path class="cls-6" d="M24.57,34.54a6,6,0,0,0,2.46,5,2.88,2.88,0,0,0,2.69.33,10.77,10.77,0,0,1,3-.4A2.61,2.61,0,0,0,34,39.13,2.23,2.23,0,0,0,34.74,38a11.92,11.92,0,0,1,1.64-2.47,2.82,2.82,0,0,0,.12-2.72,10.62,10.62,0,0,0-1.43-2.54l.14-.1a7.67,7.67,0,0,1,2.13,2.32,4.67,4.67,0,0,1,.37.78c0,.14.1.28.15.46a3.41,3.41,0,0,1,.09.46,3.45,3.45,0,0,1-.43,2.06c-.3.57-.59,1-.81,1.33a3.94,3.94,0,0,0-.47,1l-.06.18s0,.11,0,0l-.05.13a3.49,3.49,0,0,1-.24.53,3.09,3.09,0,0,1-.92,1,4.24,4.24,0,0,1-2.18.67,11,11,0,0,0-2.57.23l-.42.1a3.43,3.43,0,0,1-.56.08,3.69,3.69,0,0,1-1.1-.06,4.13,4.13,0,0,1-1.84-.86,5.69,5.69,0,0,1-1.89-6.12Z"/><path class="cls-6" d="M8.92,29.74a1.58,1.58,0,0,0-.62,1.41,4,4,0,0,0,.48,1.56,9.71,9.71,0,0,0,2,2.62,15.65,15.65,0,0,0,2.57,2.12,4.09,4.09,0,0,0,1.48.63,1.23,1.23,0,0,0,1.29-.6l.05-.09.12,0A2.82,2.82,0,0,0,18,37.13a7.32,7.32,0,0,0,1.51-1,15.86,15.86,0,0,0,2.45-2.66l.14.1A9.47,9.47,0,0,1,20.2,37a6.73,6.73,0,0,1-1.63,1.38,4.21,4.21,0,0,1-1.12.48,4.36,4.36,0,0,1-.68.12h-.38a2.47,2.47,0,0,1-.57-.09l1.66-.59a2.83,2.83,0,0,1-1.18,1.14,3,3,0,0,1-1.65.27,5.15,5.15,0,0,1-2.18-.83,13.21,13.21,0,0,1-2.74-2.48,9.11,9.11,0,0,1-1.11-1.5,7,7,0,0,1-.79-1.74,4.33,4.33,0,0,1-.22-2,1.86,1.86,0,0,1,1.2-1.56Z"/><path class="cls-7" d="M37.18,14.23a4.7,4.7,0,0,1,2.36.47,2.87,2.87,0,0,1,1.4,1.95,6.36,6.36,0,0,1,0,2.42,16.45,16.45,0,0,0-.39,2.35,2.58,2.58,0,0,0,.21,1.13c.14.35.41.65.6,1a3.75,3.75,0,0,1,.53,2.36,2.87,2.87,0,0,1-1.38,1.95,7.41,7.41,0,0,1-2.24.92l0-.11a9.13,9.13,0,0,0,1.92-1.31A2,2,0,0,0,41,25.8a3.29,3.29,0,0,0-.59-1.7l-.29-.43a3.93,3.93,0,0,1-.39-.68,3.88,3.88,0,0,1-.34-1.58,14.65,14.65,0,0,1,.48-2.53,6.43,6.43,0,0,0,.16-2,2.32,2.32,0,0,0-.81-1.62,4.77,4.77,0,0,0-2.07-.88Z"/><path class="cls-7" d="M24.54,34.54a6.71,6.71,0,0,0,1,2.63A5.28,5.28,0,0,0,27.41,39a2.66,2.66,0,0,0,1,.32,1.6,1.6,0,0,0,.49,0l.23-.06.3-.11a11.68,11.68,0,0,1,3.15-.47,1.84,1.84,0,0,0,.9-.17.45.45,0,0,0,.2-.21,1.23,1.23,0,0,0,.1-.2l.15-.34a9.69,9.69,0,0,1,1.85-2.53,1.67,1.67,0,0,0,.42-.94A3.78,3.78,0,0,0,36.1,33a13.51,13.51,0,0,0-1-2.71l.09-.07a10.91,10.91,0,0,1,1.47,2.57A4.26,4.26,0,0,1,37,34.2a2.5,2.5,0,0,1-.43,1.43A12.51,12.51,0,0,0,35,38.08a2.49,2.49,0,0,1-.81,1.27,2.77,2.77,0,0,1-1.47.39,10.75,10.75,0,0,0-2.89.36,3.14,3.14,0,0,1-2.89-.39,6.13,6.13,0,0,1-2.49-5.17Z"/><path class="cls-7" d="M8.9,29.72c-.75.93-.2,1.92.34,2.76a12.43,12.43,0,0,0,2.12,2.3,20.32,20.32,0,0,0,2.48,1.95,3.55,3.55,0,0,0,1.12.51.48.48,0,0,0,.28,0,.48.48,0,0,0,.23-.18l.4-.53.7.14c-.11,0,.06,0,.12,0a1.53,1.53,0,0,0,.3,0,5.44,5.44,0,0,0,.7-.17,5.74,5.74,0,0,0,1.46-.74c.47-.32.93-.68,1.41-1s.92-.79,1.4-1.19l.09.07a15.43,15.43,0,0,1-2.44,2.73,7.55,7.55,0,0,1-1.53,1,3,3,0,0,1-1.84.32l.11,0a1.48,1.48,0,0,1-1.52.73,4.1,4.1,0,0,1-1.6-.65,16,16,0,0,1-2.59-2.19,10,10,0,0,1-2-2.71,4.26,4.26,0,0,1-.48-1.64,1.79,1.79,0,0,1,.69-1.52Z"/><path class="cls-8" d="M18,9a4.44,4.44,0,0,1,6,.09c.27.26.5.56.74.78a3,3,0,0,0,.86.55,3.73,3.73,0,0,0,2,.21c.69-.1,1.38-.34,2.08-.5a2.86,2.86,0,0,1,2.18.21,3.31,3.31,0,0,1,1.31,1.73l-.16.07a3.14,3.14,0,0,0-1.6-1,2.63,2.63,0,0,0-1.41.32l-.48.22-.47.19a10.06,10.06,0,0,1-1.2.37A5.07,5.07,0,0,1,25,12a4.66,4.66,0,0,1-1.31-.89c-.1-.09-.2-.21-.3-.31l-.2-.25L23,10.24A3.65,3.65,0,0,0,21.8,9.3a5,5,0,0,0-3.67-.18Z"/><path class="cls-8" d="M16.22,11.62a2.88,2.88,0,0,0-3,.68,6.24,6.24,0,0,0-1,1.21,11.14,11.14,0,0,1-1.41,1.59c-.44.47-.9.85-1.18,1.22a2,2,0,0,0-.36.67v.24a.78.78,0,0,0,0,.09s0,.16,0,.25.16.4.24.63a6.38,6.38,0,0,0,.78,1.32l.69.92-.44.6A5.6,5.6,0,0,0,10,22.16a6.22,6.22,0,0,0-.4,1.22,3.09,3.09,0,0,0,0,1.25,2.86,2.86,0,0,0,.6,1.28l-.1.14A3,3,0,0,1,9,24.92a3.59,3.59,0,0,1-.38-1.51,7,7,0,0,1,.68-3l0,.16a5.69,5.69,0,0,1-1.75-3.47,2.65,2.65,0,0,1,.76-1.85A12.65,12.65,0,0,1,9.71,13.9a12.36,12.36,0,0,0,1.39-1.31,6.06,6.06,0,0,1,1.5-1.26,3.5,3.5,0,0,1,1.89-.52,3.18,3.18,0,0,1,1.83.67Z"/><path class="cls-9" d="M49.92,24.5a21.61,21.61,0,0,1-1.57,9.57,23,23,0,0,1-5.53,8,26.39,26.39,0,0,1-35.65,0,23,23,0,0,1-5.54-8A21.44,21.44,0,0,1,.07,24.5H.18a22.49,22.49,0,0,0,7.59,16.9A25.45,25.45,0,0,0,25,47.84a25.87,25.87,0,0,0,9.2-1.59,26,26,0,0,0,8-4.84,22.49,22.49,0,0,0,7.59-16.9Z"/><path class="cls-10" d="M0,23.1A22.26,22.26,0,0,1,7.68,6.46,26.08,26.08,0,0,1,25,0,26.1,26.1,0,0,1,42.31,6.46,22.25,22.25,0,0,1,50,23.1h-.11a22.1,22.1,0,0,0-2.46-8.88,22.61,22.61,0,0,0-5.67-7.09,26.2,26.2,0,0,0-7.83-4.51A26.19,26.19,0,0,0,25,1.14a25.51,25.51,0,0,0-16.72,6A22.47,22.47,0,0,0,2.6,14.22,21.94,21.94,0,0,0,.14,23.11Z"/><path class="cls-11" d="M50,23.11a21.68,21.68,0,0,1-1.72,9.27,23.65,23.65,0,0,1-5.58,7.76,26.52,26.52,0,0,1-35.32,0,23.48,23.48,0,0,1-5.57-7.75A21.4,21.4,0,0,1,0,23.1H.12A22.13,22.13,0,0,0,7.78,39.63,25.83,25.83,0,0,0,25,46a25.93,25.93,0,0,0,17.22-6.38A22.12,22.12,0,0,0,49.86,23.1Z"/><path class="cls-12" d="M49.92,23.1a22.18,22.18,0,0,1-7.66,16.6A26,26,0,0,1,25,46.12,26,26,0,0,1,7.72,39.7,22.2,22.2,0,0,1,.07,23.1h0A22.37,22.37,0,0,0,7.85,39.55,25.75,25.75,0,0,0,25,45.84a25.8,25.8,0,0,0,17.14-6.29A22.42,22.42,0,0,0,49.89,23.1Z"/><path class="cls-13" d="M36.39,6.25a3.63,3.63,0,0,0-2.12-.69c-.76-.09-1.54-.11-2.31-.15l-4.72-.15C25.59,5.15,24,5,22.47,4.8c-.77-.06-1.54-.16-2.28-.15A4,4,0,0,0,18,5.13L17.86,5A3.58,3.58,0,0,1,20,3.78a12,12,0,0,1,2.45-.33c1.64-.07,3.27,0,4.9.09a34.86,34.86,0,0,1,4.88.54,14.15,14.15,0,0,1,2.38.63,3.23,3.23,0,0,1,2,1.47Z"/><path class="cls-14" d="M18,5.1a2.92,2.92,0,0,0-.34,2.11,6.17,6.17,0,0,0,.64,2.1c.65,1.3,1.84,2.36,2.13,3.89a9.91,9.91,0,0,0,1.53,4.1,6.5,6.5,0,0,0,1.45,1.64,1.88,1.88,0,0,0,2,.35,13.33,13.33,0,0,0,3.5-2.64c1.06-1,2.06-2.13,3-3.23s2-2.18,3-3.3a10.79,10.79,0,0,0,1.28-1.79,2.56,2.56,0,0,0,.26-2.1l.08,0a2.6,2.6,0,0,1-.09,2.26,10.7,10.7,0,0,1-1.19,1.95c-.92,1.2-1.91,2.29-2.82,3.45a41,41,0,0,1-3,3.35,13.57,13.57,0,0,1-3.73,2.88l-.34.12-.14,0-.24,0a2.18,2.18,0,0,1-.81-.05,3.31,3.31,0,0,1-1.27-.64,7.21,7.21,0,0,1-1.61-1.86,11.61,11.61,0,0,1-1-2.13,8.77,8.77,0,0,1-.33-1.14,9.82,9.82,0,0,1-.16-1.13C19.59,12,18.52,11,17.85,9.52a6.73,6.73,0,0,1-.51-2.27,5.67,5.67,0,0,1,.05-1.16,2.26,2.26,0,0,1,.5-1Z"/><path class="cls-14" d="M29.68,22.15a2.13,2.13,0,0,0,.69,2,9.11,9.11,0,0,0,1.85,1.28c1.32.74,2.67,1.42,4,2.19a17,17,0,0,0,4.14,1.76,9.88,9.88,0,0,0,2.22.35,3.84,3.84,0,0,0,2.14-.45,2,2,0,0,0,.89-1.88c0-.75.1-1.51.18-2.26.14-1.5.35-3,.4-4.51a6.94,6.94,0,0,0-.3-2.21,20,20,0,0,0-.73-2.14,9.49,9.49,0,0,0-2.47-3.72l.06-.07a5.88,5.88,0,0,1,1.63,1.63,13.77,13.77,0,0,1,1.19,2,16.19,16.19,0,0,1,.86,2.16,10.18,10.18,0,0,1,.3,1.15,5.21,5.21,0,0,1,.1.63c0,.18,0,.42,0,.6a45.22,45.22,0,0,1-.28,4.57c-.07.75-.11,1.48-.14,2.23a3.76,3.76,0,0,1-.24,1.37,2.7,2.7,0,0,1-1,1.19,4.6,4.6,0,0,1-2.62.54,11.06,11.06,0,0,1-2.39-.41,15.47,15.47,0,0,1-4.27-1.95c-1.26-.81-2.57-1.55-3.86-2.36a9.1,9.1,0,0,1-1.82-1.47,2.64,2.64,0,0,1-.61-1.05,2.21,2.21,0,0,1,0-1.17Z"/><path class="cls-13" d="M42.64,12.6a1.85,1.85,0,0,0-1,0,1,1,0,0,0-.33.17c-.09.08-.14.15-.31.29-.54.45-1.09.92-1.64,1.35s-1.12.85-1.66,1.29-1.13.81-1.67,1.24c-1.13.79-2.22,1.6-3.31,2.4a14,14,0,0,0-3,2.83l-.17,0a8,8,0,0,1,2.2-3.73A25.46,25.46,0,0,1,35,15.54a38.79,38.79,0,0,1,3.66-2.31c.64-.36,1.28-.69,1.93-1a1.81,1.81,0,0,1,1.1-.22,2.06,2.06,0,0,1,1,.45Z"/><path class="cls-14" d="M40.57,36.05a2.4,2.4,0,0,1-.26,2.47,9.58,9.58,0,0,1-1.86,1.65,32.36,32.36,0,0,1-4.2,2.28l-2.18.89a6.69,6.69,0,0,1-2.46.6,6,6,0,0,1-2.52-.37,3.61,3.61,0,0,1-1.82-1.66l.06,0a4.38,4.38,0,0,0,4.19,1.42,16.88,16.88,0,0,0,4.38-1.61,43.21,43.21,0,0,0,4.21-2.07A9.09,9.09,0,0,0,40,38.21a2.25,2.25,0,0,0,.5-2.14Z"/><path class="cls-13" d="M25.23,41.93a6.25,6.25,0,0,1-1-4c0-1.38.06-2.76.15-4.13a19.89,19.89,0,0,1,.6-4.12,5.84,5.84,0,0,1,.89-1.91,3.19,3.19,0,0,1,1.76-1.2,5.62,5.62,0,0,1,4,1A26.9,26.9,0,0,1,35.06,30c1.07.87,2.13,1.75,3.13,2.71A8.46,8.46,0,0,1,40.61,36l-.17,0a9.31,9.31,0,0,0-2.88-2.74c-1.09-.79-2.22-1.53-3.35-2.31A33.41,33.41,0,0,0,30.88,29a4.18,4.18,0,0,0-2.79-.73l-.21.06-.12.05,0,0c.07,0,0,0,0,0h0l-.11.06a1.71,1.71,0,0,0-.4.37,4.59,4.59,0,0,0-.67,1.35,23.34,23.34,0,0,0-.8,3.75L25.16,38a6.34,6.34,0,0,0,.21,3.87Z"/><path class="cls-14" d="M21.22,26.62a3.19,3.19,0,0,1,1.48,1.55A5.51,5.51,0,0,1,23,30.36c-.11,1.42-.33,2.78-.51,4.16a35.89,35.89,0,0,1-.79,4.14A15.83,15.83,0,0,1,21,40.74a4,4,0,0,1-1.56,2,2.19,2.19,0,0,1-1.56.17,3.17,3.17,0,0,1-.65-.27l-.43-.23c-.57-.29-1.2-.52-1.86-.78a12.88,12.88,0,0,1-3.79-2.07,17.57,17.57,0,0,1-2.94-3.1A12.91,12.91,0,0,1,7,34.63a4,4,0,0,1-.51-2.06h.08a7,7,0,0,0,1.9,3.59,18.39,18.39,0,0,0,3,2.86,13.88,13.88,0,0,0,3.68,1.87c.65.24,1.3.47,1.93.77a4.85,4.85,0,0,0,.94.42A1.28,1.28,0,0,0,19,42a3.33,3.33,0,0,0,1.22-1.58,11.84,11.84,0,0,0,.68-1.95c.37-1.33.63-2.69.89-4.05s.54-2.73.72-4.1a5,5,0,0,0-.07-2,3.23,3.23,0,0,0-1.26-1.57Z"/><path class="cls-13" d="M6.49,32.57a2.59,2.59,0,0,1,.9-2,9.06,9.06,0,0,1,1.77-1.26c1.26-.72,2.54-1.37,3.83-2a19.81,19.81,0,0,1,4.07-1.49,5,5,0,0,1,4.19.74l-.11.13a5.94,5.94,0,0,0-3.8.45c-1.16.5-2.37,1.1-3.61,1.72l-1.93.87c-.67.25-1.31.55-2,.76S8.57,31,8,31.27a2.46,2.46,0,0,0-1.36,1.3Z"/><path class="cls-13" d="M20.07,19.55c-.84-1.22-1.77-2.41-2.63-3.7L15.14,12c-.39-.61-.78-1.2-1.17-1.72a3.18,3.18,0,0,0-1.1-1c-.11,0,0,0,0,0s0,0,0,0l-.13.06-.25.11-.36.2a10.35,10.35,0,0,0-1.57,1.13,14.31,14.31,0,0,0-2.73,3,12.84,12.84,0,0,0-1.08,1.73A12.56,12.56,0,0,0,6,17.31a17,17,0,0,0-.69,4.13,13,13,0,0,0,0,2.16,3.51,3.51,0,0,0,.68,2l-.1.14a3.39,3.39,0,0,1-1.13-2,13,13,0,0,1-.36-2.23A15.46,15.46,0,0,1,4.68,17a12.31,12.31,0,0,1,1.79-4.14,15.78,15.78,0,0,1,3-3.4,12,12,0,0,1,1.88-1.28,5.81,5.81,0,0,1,1-.47,1.66,1.66,0,0,1,1.2.11A4.77,4.77,0,0,1,15.2,9.45a16.54,16.54,0,0,1,1.14,2c.69,1.34,1.29,2.71,1.92,4.06s1.42,2.62,2,4Z"/><path class="cls-15" d="M36.39,6.25a3,3,0,0,0-1.88-1.34,14.52,14.52,0,0,0-2.36-.58,37.37,37.37,0,0,0-4.85-.45c-1.63-.08-3.25-.21-4.87-.17A13,13,0,0,0,20,4a3.44,3.44,0,0,0-2,1.15L17.86,5a3.41,3.41,0,0,1,1.95-1.92,9.41,9.41,0,0,1,2.57-.75,25.71,25.71,0,0,1,5-.19,20.19,20.19,0,0,1,5,.83,11,11,0,0,1,2.43,1,6.34,6.34,0,0,1,1.09.86,2,2,0,0,1,.63,1.27Z"/><path class="cls-15" d="M42.64,12.6a1.66,1.66,0,0,0-1.92-.18c-.65.32-1.28.67-1.9,1a41.22,41.22,0,0,0-3.59,2.37,23.47,23.47,0,0,0-3.29,2.76,7.75,7.75,0,0,0-2.22,3.58l-.17,0a4.5,4.5,0,0,1,.27-2.4A8.9,8.9,0,0,1,31,17.65a14.85,14.85,0,0,1,3.26-3.22,18.33,18.33,0,0,1,3.93-2.16,14.14,14.14,0,0,1,2.18-.67,4.5,4.5,0,0,1,.69-.1,1.72,1.72,0,0,1,.75.12,1.89,1.89,0,0,1,1,.84Z"/><path class="cls-15" d="M25.23,41.93a6.09,6.09,0,0,1-1.67-4,41.34,41.34,0,0,1-.25-4.19,17.93,17.93,0,0,1,.42-4.41A6.92,6.92,0,0,1,24.82,27a4.5,4.5,0,0,1,1.08-1.05,3.78,3.78,0,0,1,.33-.22l.19-.1.12-.06a4.43,4.43,0,0,1,.76-.28,5.17,5.17,0,0,1,2.87.15,9.47,9.47,0,0,1,2.17,1,22.88,22.88,0,0,1,3.4,2.69,32.72,32.72,0,0,1,2.92,3.07A15.28,15.28,0,0,1,39.89,34,4.43,4.43,0,0,1,40.61,36l-.17,0A8.26,8.26,0,0,0,38,32.84C37,31.91,36,31,34.9,30.18a26.76,26.76,0,0,0-3.37-2.35,5.35,5.35,0,0,0-3.79-.92,3.73,3.73,0,0,0-2.45,2.87,19.55,19.55,0,0,0-.63,4c-.11,1.37-.15,2.75-.2,4.12a6.12,6.12,0,0,0,.91,3.89Z"/><path class="cls-15" d="M6.49,32.57a2,2,0,0,1-.12-1.26,3.68,3.68,0,0,1,.54-1.21,8.65,8.65,0,0,1,1.71-1.71A22.67,22.67,0,0,1,12.4,26.1a13.3,13.3,0,0,1,4.43-1.31,6,6,0,0,1,2.5.27,3.6,3.6,0,0,1,1.92,1.53l-.11.13a4.74,4.74,0,0,0-4-.61,18.94,18.94,0,0,0-4,1.54c-1.29.61-2.58,1.24-3.84,1.92a9.63,9.63,0,0,0-1.75,1.19,2.4,2.4,0,0,0-.88,1.81Z"/><path class="cls-15" d="M20.07,19.55c-.55-1.37-1.38-2.64-2-4s-1.26-2.71-2-4A16.6,16.6,0,0,0,15,9.61a4.39,4.39,0,0,0-1.53-1.5,1.29,1.29,0,0,0-1-.09,6.28,6.28,0,0,0-1,.45A11.8,11.8,0,0,0,9.66,9.74,15.42,15.42,0,0,0,6.72,13a11.77,11.77,0,0,0-1.79,4,15.69,15.69,0,0,0-.31,4.43A13.31,13.31,0,0,0,5,23.69a3.18,3.18,0,0,0,1,1.87l-.1.14A2.82,2.82,0,0,1,5,24.9l-.16-.23-.15-.29c-.09-.18-.17-.36-.25-.54a14.12,14.12,0,0,1-.69-2.27,14,14,0,0,1-.1-4.79,10,10,0,0,1,.65-2.44,17.93,17.93,0,0,1,1.1-2.19A16.43,16.43,0,0,1,8.56,8.42,13,13,0,0,1,10.67,7l.64-.31.27-.11.13,0A2.22,2.22,0,0,1,12,6.44a2.82,2.82,0,0,1,2.15.21,5.78,5.78,0,0,1,2.07,2.1,13.58,13.58,0,0,1,1.1,2.14c.63,1.42,1.1,2.86,1.58,4.27.22.71.46,1.41.71,2.12a10.29,10.29,0,0,1,.63,2.22Z"/><path class="cls-14" d="M6,25.6c1.2.85,2.78.62,4.13.31a31.05,31.05,0,0,0,4.06-1.43c1.34-.54,2.68-1.06,4-1.7a5,5,0,0,0,1.72-1.24,2.08,2.08,0,0,0,.27-2l.08,0a2.25,2.25,0,0,1,0,2.3,5.53,5.53,0,0,1-1.78,1.56,35.7,35.7,0,0,1-3.95,1.9,23.79,23.79,0,0,1-4.22,1.29A9.73,9.73,0,0,1,8,26.64a3.35,3.35,0,0,1-2-1Z"/><path class="cls-16" d="M27.28,31.3c-.48,0-.72,1.32-.32,1.56S27.45,31.29,27.28,31.3Z"/><path class="cls-16" d="M31.52,23.6c-.21.44.86,1.23,1.25,1S31.59,23.44,31.52,23.6Z"/><path class="cls-16" d="M17,30.73c-.44-.2-1.23.86-1,1.26S17.18,30.81,17,30.73Z"/><path class="cls-16" d="M14.19,30.17c.34.35,1.45-.38,1.36-.83S14.07,30.05,14.19,30.17Z"/><path class="cls-16" d="M19.89,29.52c-.36,0-.45,1-.14,1.19S20,29.5,19.89,29.52Z"/><path class="cls-16" d="M14.7,22.4c-.14-.33-1.12-.11-1.17.23S14.76,22.52,14.7,22.4Z"/><path class="cls-16" d="M13.74,18.51c0-.36-1-.57-1.16-.29S13.74,18.64,13.74,18.51Z"/><path class="cls-16" d="M25,15.25c-.36,0-.59,1-.31,1.16S25.08,15.25,25,15.25Z"/><path class="cls-16" d="M27.66,14.59c-.22,0-.37.6-.19.73S27.75,14.59,27.66,14.59Z"/><path class="cls-16" d="M22.77,13.28c-.35-.09-.65.54-.39.75S22.89,13.32,22.77,13.28Z"/><path class="cls-16" d="M14.21,14.3c-.31-.18-.77.35-.58.62S14.33,14.37,14.21,14.3Z"/><path class="cls-16" d="M29.61,33.11c-.35.09-.29,1.09,0,1.19S29.74,33.07,29.61,33.11Z"/><path class="cls-16" d="M34.39,21.29c-.07-.18-.61-.1-.65.09S34.42,21.36,34.39,21.29Z"/><path class="cls-16" d="M33.53,19.64c.14.14,1-.32,1.07-.55S33.48,19.59,33.53,19.64Z"/><path class="cls-16" d="M29.88,29.52c-.29.23.15,1.12.5,1.09S30,29.44,29.88,29.52Z"/><path class="cls-17" d="M18,42.4A1.54,1.54,0,0,0,19.49,42a4.29,4.29,0,0,0,.87-1.35,33.08,33.08,0,0,0,1.11-3.23,7.43,7.43,0,0,1-.09,1.76,6.56,6.56,0,0,1-.5,1.71,3.36,3.36,0,0,1-1.12,1.45,1.81,1.81,0,0,1-.9.32A1.41,1.41,0,0,1,18,42.4Z"/><path class="cls-17" d="M30.62,43.4c1.54-.9,3.13-1.67,4.72-2.45l2.4-1.13a20.86,20.86,0,0,0,2.34-1.23A9.3,9.3,0,0,1,38,40.21c-.77.46-1.56.87-2.36,1.26A32.56,32.56,0,0,1,30.62,43.4Z"/><path class="cls-17" d="M43.23,30.21a3.58,3.58,0,0,0,1.6-.55,2.68,2.68,0,0,0,.79-1.38,30.55,30.55,0,0,0,.61-3.47,8.33,8.33,0,0,1,.18,1.8,6.35,6.35,0,0,1-.24,1.83A2.58,2.58,0,0,1,45.08,30,2.62,2.62,0,0,1,43.23,30.21Z"/><path class="cls-17" d="M8.73,26.64c1.54-.61,3.08-1.14,4.61-1.71s3-1.15,4.59-1.75a17.46,17.46,0,0,1-4.39,2.28A20.5,20.5,0,0,1,8.73,26.64Z"/><path class="cls-17" d="M24,19.62a1.6,1.6,0,0,0,1.25-.08,5,5,0,0,0,1.12-.65,21.29,21.29,0,0,0,2-1.69c1.29-1.19,2.51-2.48,3.81-3.71a19.7,19.7,0,0,1-1.58,2.17,20,20,0,0,1-1.84,2,11.6,11.6,0,0,1-2.16,1.64,4.7,4.7,0,0,1-1.26.54A1.57,1.57,0,0,1,24,19.62Z"/><path class="cls-17" d="M8.73,6.21A19.23,19.23,0,0,1,13.9,2.76a27,27,0,0,1,5.93-2A25.65,25.65,0,0,1,26.07.38a22.89,22.89,0,0,1,6.09,1.23A30.08,30.08,0,0,0,26.05.82a27.26,27.26,0,0,0-6.11.55,28.74,28.74,0,0,0-5.86,1.79A23.86,23.86,0,0,0,8.73,6.21Z"/><path class="cls-12" d="M18.82,27.6a20.87,20.87,0,0,1-2.33,2,3.28,3.28,0,0,0-1,1.11,4.45,4.45,0,0,0-.43,1.44l0,.24-.27-.11a9.29,9.29,0,0,0-2.44-.61,7.53,7.53,0,0,0-2.54.11l0,0A4.25,4.25,0,0,1,12.38,31a5.8,5.8,0,0,1,2.59.82l-.31.13a13,13,0,0,1,.69-1.4,9.35,9.35,0,0,1,.85-1.33,4.28,4.28,0,0,1,1.21-1,9.81,9.81,0,0,1,1.37-.7Z"/><path class="cls-12" d="M18.49,34.26a4.64,4.64,0,0,1-.17-2c.06-.34.17-.67.22-1a8.42,8.42,0,0,0,.08-1,4.62,4.62,0,0,1,.45-2,1.87,1.87,0,0,1,.82-.8,1.07,1.07,0,0,1,1.09.16l0,.06c-.73-.12-1.09.31-1.34.86a14.8,14.8,0,0,0-.69,1.81,3.63,3.63,0,0,0-.2,1,8.39,8.39,0,0,0,.06,1,7.22,7.22,0,0,1-.25,2Z"/><path class="cls-12" d="M13.34,34a2.22,2.22,0,0,1,1.49-.62c.27,0,.54.08.81.1a5.25,5.25,0,0,0,.79,0,3.59,3.59,0,0,1,2.95,1.12l0,0a18.61,18.61,0,0,1-3-.85,2.22,2.22,0,0,0-.76-.11,5,5,0,0,0-.76.19,9,9,0,0,1-1.52.2Z"/><path class="cls-12" d="M28.12,35.51a3.84,3.84,0,0,1-.25-2c.07-.33.19-.65.28-1a5.59,5.59,0,0,1,.32-1,1.13,1.13,0,0,1,.89-.69,1.8,1.8,0,0,1,1.11.22,4,4,0,0,1,1.43,1.44l0,0c-.59-.32-1.12-.69-1.67-.93s-1-.38-1.46.1a1.65,1.65,0,0,0-.4.84,4.39,4.39,0,0,0,0,1,10.75,10.75,0,0,1-.17,1.94Z"/><path class="cls-12" d="M26.27,36a2.69,2.69,0,0,1,1.27-.69,2.62,2.62,0,0,1,1.47,0c.46.16.91.31,1.35.48a5.1,5.1,0,0,1,1.3.65l-.42.14a3.36,3.36,0,0,1,1-1.79,3,3,0,0,1,1.83-.78v0a4.78,4.78,0,0,0-1.43,1.13,4.93,4.93,0,0,0-.89,1.51l-.14.4-.28-.26A7.31,7.31,0,0,0,30.27,36,2.35,2.35,0,0,0,29,35.71a10.66,10.66,0,0,0-2.66.37Z"/><path class="cls-12" d="M11.19,22a1,1,0,0,1,.29-.92,1.63,1.63,0,0,1,.84-.48,5.91,5.91,0,0,1,.93-.07c.3,0,.59-.07.89-.13a4.52,4.52,0,0,1,1.83.06,3,3,0,0,1,1.57,1l0,.05a12.42,12.42,0,0,0-1.68-.41c-.55-.14-1.11-.24-1.69-.34a2.54,2.54,0,0,0-.87,0,3.49,3.49,0,0,0-.79.34,2.16,2.16,0,0,0-1.24,1Z"/><path class="cls-12" d="M17.91,19a8.07,8.07,0,0,1-1.7-.89,6.88,6.88,0,0,0-.78-.55,2.85,2.85,0,0,0-.91-.29,4.79,4.79,0,0,0-3.5.52l0,0a2.19,2.19,0,0,1,1.65-1.15,3.43,3.43,0,0,1,2,.38c.3.14.59.29.89.41s.64.18.94.31a3.78,3.78,0,0,1,1.5,1.25Z"/><path class="cls-12" d="M15,12.56c-.57.12-1,.26-1.53.41a2.23,2.23,0,0,0-.75.26,1.39,1.39,0,0,0-.49.61,4.34,4.34,0,0,0,.13,3l0,0a2.46,2.46,0,0,1-.9-1.5,2.06,2.06,0,0,1,.55-1.7,7.1,7.1,0,0,1,.64-.59,4.09,4.09,0,0,1,.68-.55,1.91,1.91,0,0,1,1.71,0Z"/><path class="cls-12" d="M20.42,13.91a2.48,2.48,0,0,1,.35-1.58,1.84,1.84,0,0,1,1.42-.88,2.88,2.88,0,0,1,1.56.4A3.55,3.55,0,0,1,25,12.92h-.42a4.07,4.07,0,0,1,.78-1,3.3,3.3,0,0,1,1.1-.65,2.93,2.93,0,0,1,2.43.26l0,.06a3.69,3.69,0,0,0-2.2.22A4.2,4.2,0,0,0,25,13.17l-.24.34-.19-.33a3.17,3.17,0,0,0-.9-1.16,1.46,1.46,0,0,0-1.38-.21,2.66,2.66,0,0,0-1.1.8,4.27,4.27,0,0,0-.68,1.31Z"/><path class="cls-12" d="M31.87,21.15a2.56,2.56,0,0,1,1.28-.88c.26-.06.53-.07.78-.13a7.08,7.08,0,0,0,.75-.22,1.8,1.8,0,0,1,1.66.17,1.55,1.55,0,0,1,.52,1.57H36.8A2.51,2.51,0,0,0,36,20.59a2.47,2.47,0,0,0-1.26-.36,1.86,1.86,0,0,0-.74.09,4.3,4.3,0,0,0-.65.39,5,5,0,0,1-1.43.49Z"/><path class="cls-12" d="M33.74,23.08a1,1,0,0,1,1.07.21,2.43,2.43,0,0,1,.29.49l.29.46a1.53,1.53,0,0,1,.19,1.1,1.73,1.73,0,0,1-.58.92l0,0a10.25,10.25,0,0,1,.14-1.91.63.63,0,0,0-.14-.44,1,1,0,0,0-.42-.22,3.75,3.75,0,0,1-.8-.54Z"/></g></g></svg>